<svg xmlns="http://www.w3.org/2000/svg" width="125" height="43" viewBox="0 0 125 43">
    <g fill="none" fill-rule="evenodd">
        <rect width="124.391" height="42.085" fill="#000" rx="3.6"/>
        <path fill="#FFF" d="M48.175 30.77h-2.118l-1.16-3.636h-4.031l-1.105 3.636H37.7l3.994-12.38h2.467l4.014 12.38zm6.571-9.11c1.056 0 1.937.416 2.642 1.248.707.834 1.059 1.93 1.059 3.289 0 1.518-.411 2.718-1.234 3.6-.736.783-1.65 1.175-2.743 1.175-1.178 0-2.025-.422-2.54-1.267h-.038v4.703h-1.988v-9.626c0-.955-.025-1.934-.073-2.939h1.748l.111 1.415h.037c.663-1.066 1.67-1.598 3.02-1.598zm10.292 0c1.055 0 1.936.416 2.642 1.248.704.834 1.058 1.93 1.058 3.289 0 1.518-.411 2.718-1.235 3.6-.735.783-1.65 1.175-2.742 1.175-1.178 0-2.025-.422-2.54-1.267h-.037v4.703h-1.988v-9.626c0-.955-.025-1.934-.074-2.939h1.749l.11 1.415h.038c.662-1.066 1.668-1.598 3.019-1.598zm27.354 0c1.313 0 2.37.435 3.167 1.305.762.844 1.143 1.933 1.143 3.268 0 1.372-.394 2.499-1.179 3.38-.823.907-1.916 1.359-3.278 1.359-1.313 0-2.358-.434-3.137-1.303-.78-.87-1.17-1.966-1.17-3.288 0-1.383.401-2.516 1.206-3.397.803-.882 1.886-1.323 3.248-1.323zM76.95 18.209c1.13 0 2.067.197 2.816.588l-.497 1.617c-.7-.38-1.49-.57-2.375-.57-.699 0-1.245.173-1.637.515-.331.306-.497.68-.497 1.121 0 .49.19.894.57 1.212.33.294.932.613 1.805.956 1.067.429 1.852.93 2.356 1.505.503.573.753 1.29.753 2.146 0 1.053-.366 1.91-1.102 2.572-.808.722-1.934 1.083-3.38 1.083-1.335 0-2.405-.256-3.215-.77l.46-1.654c.873.527 1.83.79 2.874.79.748 0 1.331-.169 1.75-.505.417-.337.625-.79.625-1.353 0-.502-.172-.926-.516-1.269-.342-.343-.914-.662-1.712-.957-2.172-.809-3.258-1.993-3.258-3.55 0-1.018.38-1.852 1.143-2.502.758-.65 1.771-.975 3.037-.975zm7.676 1.41v2.223h2.19v1.49h-2.19v4.335c0 1.102.386 1.653 1.16 1.653.355 0 .65-.03.882-.092l.055 1.506c-.391.146-.907.22-1.545.22-.785 0-1.399-.24-1.842-.717-.44-.478-.663-1.28-.663-2.407v-4.5h-1.305v-1.488h1.305v-1.634l1.953-.588zm23.711 2.025c1.29 0 2.266.477 2.929 1.432.525.758.788 1.696.788 2.81 0 .355-.023.654-.072.899h-5.964c.024.882.312 1.556.865 2.021.503.416 1.153.625 1.951.625.883 0 1.689-.14 2.413-.423l.311 1.377c-.846.368-1.846.552-2.999.552-1.387 0-2.476-.408-3.269-1.222-.79-.814-1.187-1.907-1.187-3.278 0-1.346.368-2.467 1.106-3.361.772-.955 1.815-1.432 3.128-1.432zm-5.67.017c.184 0 .35.013.497.036v1.891c-.197-.036-.406-.055-.626-.055-.7 0-1.24.264-1.62.791-.332.465-.498 1.053-.498 1.763v4.684h-1.987l.019-6.116c0-1.029-.025-1.965-.075-2.81h1.732l.073 1.708h.055c.21-.587.54-1.06.993-1.414.443-.32.922-.478 1.437-.478zM92.321 23.11c-.799 0-1.406.356-1.822 1.068-.357.59-.534 1.307-.534 2.155 0 .824.177 1.53.534 2.118.43.712 1.03 1.068 1.805 1.068.759 0 1.354-.363 1.784-1.087.367-.6.551-1.313.551-2.136 0-.823-.176-1.53-.533-2.118-.417-.713-1.013-1.068-1.785-1.068zm-38.219.127c-.49 0-.936.164-1.334.487-.4.326-.66.75-.782 1.277-.062.246-.093.447-.093.605v1.488c0 .65.2 1.198.599 1.645.399.448.917.671 1.555.671.749 0 1.332-.288 1.748-.863.418-.576.627-1.335.627-2.279 0-.869-.196-1.585-.59-2.149-.43-.588-1.006-.882-1.73-.882zm10.29 0c-.49 0-.935.164-1.334.487-.4.326-.66.75-.782 1.277-.06.246-.092.447-.092.605v1.488c0 .65.2 1.198.597 1.645.399.447.917.671 1.557.671.748 0 1.331-.288 1.748-.863.418-.576.627-1.335.627-2.279 0-.869-.197-1.585-.59-2.149-.43-.588-1.006-.882-1.73-.882zm-21.519-3.195c.307 1.224.515 2.002.626 2.332l1.049 3.233h-3.331l1.03-3.233c.27-1.028.467-1.806.59-2.332zm65.315 2.975c-.65 0-1.179.269-1.582.808-.331.43-.528.944-.589 1.543h4.14c.014-.587-.116-1.095-.385-1.524-.344-.552-.873-.827-1.584-.827zM47.237 9.484c.645 0 1.164.213 1.556.64.373.415.56.95.56 1.606 0 .674-.193 1.227-.579 1.66-.404.446-.94.668-1.61.668-.645 0-1.159-.213-1.542-.64-.382-.428-.573-.966-.573-1.616 0-.679.196-1.236.592-1.669.395-.432.926-.65 1.596-.65zm20.837 0c.646 0 1.163.213 1.557.64.373.415.56.95.56 1.606 0 .674-.193 1.227-.579 1.66-.404.446-.941.668-1.61.668-.646 0-1.16-.213-1.542-.64-.382-.428-.574-.966-.574-1.616 0-.679.197-1.236.593-1.669.395-.432.926-.65 1.595-.65zm5.058 0c1.149 0 1.725.605 1.725 1.814v1.615c0 .438.021.787.063 1.046h-.877l-.073-.505h-.027c-.3.402-.728.604-1.284.604-.415 0-.75-.133-1.003-.397-.23-.24-.344-.539-.344-.893 0-.536.224-.944.674-1.227.45-.283 1.082-.422 1.896-.415v-.082c0-.578-.304-.866-.913-.866-.434 0-.816.109-1.146.325l-.199-.64c.409-.253.913-.38 1.508-.38zm7.306-1.923v5.216c0 .427.011.82.035 1.182h-.867l-.046-.705h-.027c-.277.536-.749.804-1.412.804-.53 0-.97-.207-1.32-.622-.35-.415-.524-.954-.524-1.615 0-.71.19-1.285.57-1.724.368-.41.82-.614 1.356-.614.59 0 1.004.198 1.238.595h.02V7.561h.977zm6.276 1.923c.644 0 1.164.213 1.555.64.373.415.56.95.56 1.606 0 .674-.192 1.227-.578 1.66-.405.446-.94.668-1.61.668-.645 0-1.159-.213-1.543-.64-.382-.428-.573-.966-.573-1.616 0-.679.197-1.236.592-1.669.395-.432.927-.65 1.597-.65zM99.583 8.48v1.091h1.076v.731h-1.075v2.13c0 .542.19.813.57.813.175 0 .32-.015.435-.046l.025.74c-.193.073-.447.109-.759.109-.386 0-.686-.117-.903-.352-.219-.234-.327-.629-.327-1.182v-2.212h-.642v-.73h.642V8.77l.958-.288zm9.757.995c.632 0 1.113.234 1.437.703.262.372.392.832.392 1.38 0 .174-.013.321-.037.441h-2.93c.013.434.153.764.424.993.248.205.568.307.96.307.433 0 .828-.069 1.185-.207l.152.677c-.416.18-.907.27-1.475.27-.68 0-1.216-.2-1.604-.6-.39-.4-.583-.936-.583-1.61 0-.661.18-1.212.543-1.651.378-.469.89-.703 1.536-.703zM40.563 7.83c1.068 0 1.872.231 2.415.695.608.523.913 1.272.913 2.247 0 1.095-.33 1.92-.987 2.473-.609.51-1.474.767-2.595.767-.555 0-1.03-.025-1.429-.073V7.957c.52-.083 1.079-.126 1.683-.126zm19.652 1.65c.41 0 .751.132 1.023.397.337.325.506.81.506 1.453v2.628h-.977v-2.512c0-.774-.295-1.161-.886-1.161-.29 0-.524.106-.706.319-.18.213-.271.464-.271.752v2.6h-.977v-3.13c0-.386-.012-.804-.036-1.256h.859l.046.686h.027c.113-.213.283-.389.506-.53.265-.163.561-.246.886-.246zm-8.9.092l.496 2.085c.12.493.22.963.299 1.408h.017c.073-.367.193-.834.363-1.399l.624-2.093h.796l.598 2.049c.144.5.262.98.352 1.443h.027c.066-.45.166-.932.299-1.443l.533-2.049h.96l-1.376 4.385h-.895l-.57-1.905c-.144-.475-.262-.948-.353-1.417h-.018c-.085.482-.202.954-.353 1.417l-.605 1.905h-.906L50.31 9.573h1.004zm13.123-2.012v6.398h-.976V7.56h.976zm28.117 1.92c.41 0 .751.132 1.022.397.339.325.507.81.507 1.453v2.628h-.977v-2.512c0-.774-.294-1.161-.886-1.161-.29 0-.524.106-.705.319-.181.213-.271.464-.271.752v2.6h-.979v-3.13c0-.386-.01-.804-.034-1.256h.858l.045.686h.027c.115-.213.285-.389.507-.53.265-.163.561-.246.886-.246zm10.437-1.92v2.643h.018c.308-.481.749-.721 1.32-.721.405 0 .74.132 1.006.397.33.33.497.822.497 1.471v2.608h-.978v-2.494c0-.786-.295-1.18-.885-1.18-.453 0-.763.229-.933.685-.029.095-.045.213-.045.35v2.638h-.977V7.56h.977zm-16.314 2.635c-.392 0-.69.174-.896.524-.176.29-.262.642-.262 1.059 0 .405.087.752.262 1.041.211.35.506.525.886.525.373 0 .667-.178.878-.534.18-.295.271-.645.271-1.05 0-.404-.088-.751-.262-1.04-.206-.35-.497-.525-.877-.525zm-12.772 1.58c-1.078-.02-1.617.276-1.617.883 0 .229.062.4.188.514.125.115.286.172.477.172.214 0 .415-.068.598-.203.183-.136.296-.308.338-.52.01-.047.016-.104.016-.17v-.677zm-5.867-1.58c-.393 0-.691.174-.896.524-.175.29-.262.642-.262 1.059 0 .405.088.752.262 1.041.212.35.507.525.887.525.373 0 .665-.178.876-.534.181-.295.27-.645.27-1.05 0-.404-.087-.751-.261-1.04-.204-.35-.497-.525-.876-.525zm-20.837 0c-.393 0-.691.174-.897.524-.175.29-.262.642-.262 1.059 0 .405.088.752.262 1.041.212.35.507.525.887.525.373 0 .666-.178.877-.534.18-.295.27-.645.27-1.05 0-.404-.087-.751-.261-1.04-.205-.35-.497-.525-.876-.525zm31.224.045c-.364 0-.65.144-.86.434-.207.289-.313.658-.313 1.11 0 .433.1.785.3 1.055.212.289.497.433.854.433.321 0 .578-.12.772-.36.189-.223.281-.491.281-.804v-.731c0-.127-.01-.229-.027-.307-.055-.234-.173-.432-.353-.59-.182-.16-.401-.24-.654-.24zM40.644 8.598c-.308 0-.57.02-.787.064v4.548c.12.018.34.027.66.027.748 0 1.325-.208 1.732-.623.406-.415.611-1.02.611-1.814 0-.71-.188-1.254-.565-1.633-.376-.379-.926-.569-1.651-.569zm68.625 1.553c-.318 0-.579.132-.777.397-.162.211-.258.463-.29.758h2.034c.008-.289-.057-.538-.189-.749-.17-.27-.428-.406-.778-.406zM23.89 13.303l.292.018c.774.023 2.976.305 4.397 2.37-.114.07-2.623 1.54-2.596 4.562.031 3.622 3.177 4.82 3.216 4.833-.019.084-.493 1.728-1.673 3.397-.985 1.47-2.018 2.906-3.658 2.932-1.593.037-2.129-.935-3.956-.935-1.844 0-2.415.909-3.943.972-1.562.057-2.755-1.57-3.776-3.025-2.042-2.974-3.63-8.38-1.5-12.058 1.033-1.804 2.915-2.966 4.927-2.997 1.564-.032 3.015 1.053 3.976 1.053.942 0 2.737-1.298 4.586-1.104zm.312-5.772c.156 1.415-.406 2.81-1.228 3.834-.858 1.01-2.23 1.78-3.566 1.682-.175-1.362.502-2.81 1.26-3.693.857-1.002 2.345-1.77 3.534-1.823z"/>
    </g>
</svg>
