<?xml version="1.0" encoding="UTF-8"?>
<svg width="183px" height="54px" viewBox="0 0 183 54" version="1.1" xmlns="http://www.w3.org/2000/svg" xmlns:xlink="http://www.w3.org/1999/xlink">
    <title>button/btn_download_android_ID</title>
    <defs>
        <linearGradient x1="60.9903275%" y1="4.94615078%" x2="26.5360307%" y2="71.9186278%" id="linearGradient-1">
            <stop stop-color="#00A0FF" offset="0%"></stop>
            <stop stop-color="#00A1FF" offset="1%"></stop>
            <stop stop-color="#00BEFF" offset="26%"></stop>
            <stop stop-color="#00D2FF" offset="51%"></stop>
            <stop stop-color="#00DFFF" offset="76%"></stop>
            <stop stop-color="#00E3FF" offset="100%"></stop>
        </linearGradient>
        <linearGradient x1="107.684729%" y1="50.1168224%" x2="-130.640394%" y2="50.1168224%" id="linearGradient-2">
            <stop stop-color="#FFE000" offset="0%"></stop>
            <stop stop-color="#FFBD00" offset="41%"></stop>
            <stop stop-color="#FFA500" offset="78%"></stop>
            <stop stop-color="#FF9C00" offset="100%"></stop>
        </linearGradient>
        <linearGradient x1="86.2709832%" y1="30.8725537%" x2="-50.1798561%" y2="136.155193%" id="linearGradient-3">
            <stop stop-color="#FF3A44" offset="0%"></stop>
            <stop stop-color="#C31162" offset="100%"></stop>
        </linearGradient>
        <linearGradient x1="-18.82494%" y1="-11.9103989%" x2="42.0863309%" y2="35.0790955%" id="linearGradient-4">
            <stop stop-color="#32A071" offset="0%"></stop>
            <stop stop-color="#2DA771" offset="7%"></stop>
            <stop stop-color="#15CF74" offset="48%"></stop>
            <stop stop-color="#06E775" offset="80%"></stop>
            <stop stop-color="#00F076" offset="100%"></stop>
        </linearGradient>
    </defs>
    <g id="button/btn_download_android_ID" stroke="none" stroke-width="1" fill="none" fill-rule="evenodd">
        <g id="Asset-1" fill-rule="nonzero">
            <rect id="Rectangle" fill="#000000" x="0" y="0" width="182.25" height="54" rx="6.75"></rect>
            <path d="M175.5,1.08 C178.631455,1.08 181.17,3.61854547 181.17,6.75 L181.17,47.25 C181.17,50.3814545 178.631455,52.92 175.5,52.92 L6.75,52.92 C3.61854547,52.92 1.08,50.3814545 1.08,47.25 L1.08,6.75 C1.08,3.61854547 3.61854547,1.08 6.75,1.08 L175.5,1.08 M175.5,0 L6.75,0 C3.02207794,0 0,3.02207794 0,6.75 L0,47.25 C0,50.9779221 3.02207794,54 6.75,54 L175.5,54 C179.227922,54 182.25,50.9779221 182.25,47.25 L182.25,6.75 C182.25,3.02207794 179.227922,0 175.5,0 Z" id="Shape" fill="#A6A6A6"></path>
            <path d="M91.989,29.3625 C88.8128233,29.3699646 86.2440729,31.9508126 86.2515155,35.1269894 C86.2589904,38.3031661 88.8398338,40.8719212 92.0160105,40.8644845 C95.1921872,40.8570154 97.7609471,38.2761767 97.7535,35.1 C97.7757385,33.5669046 97.1746627,32.0904581 96.0879444,31.0088299 C95.0012262,29.9272017 93.5219741,29.3330641 91.989,29.3625 Z M91.989,38.583 C90.5623569,38.6827721 89.2197085,37.9003232 88.6032288,36.6098901 C87.9867491,35.3194569 88.2217384,33.7833218 89.1958039,32.7362013 C90.1698695,31.6890809 91.6850311,31.3438037 93.0166036,31.8655121 C94.3481761,32.3872206 95.2255155,33.6698766 95.229,35.1 C95.2729328,35.9946071 94.9536441,36.8690302 94.3435895,37.524839 C93.7335348,38.1806478 92.8844443,38.5622321 91.989,38.583 Z M79.407,29.3625 C76.2308233,29.3699646 73.6620729,31.9508126 73.6695155,35.1269894 C73.6769904,38.3031661 76.2578338,40.8719212 79.4340105,40.8644845 C82.6101872,40.8570154 85.1789471,38.2761767 85.1715,35.1 C85.1937385,33.5669046 84.5926627,32.0904581 83.5059444,31.0088299 C82.4192262,29.9272017 80.9399741,29.3330641 79.407,29.3625 Z M79.407,38.583 C77.9803569,38.6827721 76.6377085,37.9003232 76.0212288,36.6098901 C75.4047491,35.3194569 75.6397384,33.7833218 76.6138039,32.7362013 C77.5878695,31.6890809 79.1030311,31.3438037 80.4346036,31.8655121 C81.7661761,32.3872206 82.6435155,33.6698766 82.647,35.1 C82.6909328,35.9946071 82.3716441,36.8690302 81.7615895,37.524839 C81.1515348,38.1806478 80.3024443,38.5622321 79.407,38.583 Z M64.449,31.131 L64.449,33.561 L70.281,33.561 C70.1895556,34.7055351 69.7137902,35.7855225 68.931,36.6255 C67.74793,37.8308644 66.1094629,38.4784023 64.422,38.4075 C60.8431948,38.4075 57.942,35.5063052 57.942,31.9275 C57.942,28.3486948 60.8431948,25.4475 64.422,25.4475 C66.0696042,25.4229972 67.6605088,26.0486883 68.85,27.189 L70.5645,25.4745 C68.9390739,23.8668581 66.734872,22.9812848 64.449,23.0175 C61.180597,22.8903017 58.1045313,24.5614569 56.432503,27.372677 C54.7604746,30.1838972 54.7604746,33.6846028 56.432503,36.495823 C58.1045313,39.3070431 61.180597,40.9781983 64.449,40.851 C66.7847683,40.9442912 69.0491892,40.0355757 70.6725,38.3535 C72.0901599,36.7961536 72.8455452,34.7478973 72.7785,32.643 C72.7833321,32.1363795 72.7426688,31.6303481 72.657,31.131 L64.449,31.131 Z M125.6175,33.021 C124.896708,30.9004336 122.941702,29.4449216 120.7035,29.3624897 C119.210891,29.3595817 117.783646,29.9746002 116.760662,31.0615203 C115.737679,32.1484404 115.210209,33.6103062 115.3035,35.1 C115.279795,37.6310062 116.925016,39.8756232 119.345751,40.6149456 C121.766486,41.3542679 124.385061,40.4118672 125.7795,38.2995 L123.822,36.9495 C123.228225,37.9391769 122.154581,38.5402123 121.0005,38.529 C119.802827,38.5784501 118.697957,37.8865652 118.2195,36.7875 L125.901,33.615 L125.6175,33.021 Z M117.7875,34.938 C117.73223,34.0922296 118.020619,33.2599456 118.587336,32.6296959 C119.154052,31.9994462 119.951131,31.6245726 120.798,31.59 C121.684235,31.5332764 122.518609,32.01158 122.9175,32.805 L117.7875,34.938 Z M111.5505,40.5 L114.075,40.5 L114.075,23.625 L111.5505,23.625 L111.5505,40.5 Z M107.4195,30.645 L107.325,30.645 C106.549491,29.8008804 105.446904,29.3332655 104.301,29.3625 C101.236698,29.5110967 98.8285551,32.0388475 98.8285551,35.10675 C98.8285551,38.1746525 101.236698,40.7024033 104.301,40.851 C105.459837,40.8742452 106.568618,40.3792536 107.325,39.501 L107.4195,39.501 L107.4195,40.3245 C107.4195,42.525 106.245,43.6995 104.355,43.6995 C103.063745,43.6711333 101.917371,42.8660059 101.4525,41.661 L99.2655,42.5655 C100.093252,44.6444859 102.11749,45.9975577 104.355,45.9675 C107.3115,45.9675 109.755,44.226 109.755,39.987 L109.755,29.7 L107.4195,29.7 L107.4195,30.645 Z M104.517,38.583 C102.681117,38.4685365 101.250737,36.9461979 101.250737,35.10675 C101.250737,33.2673021 102.681117,31.7449635 104.517,31.6305 C105.390478,31.6681944 106.211264,32.0587483 106.791479,32.7127626 C107.371694,33.3667768 107.661659,34.2282543 107.595,35.1 C107.669432,35.9748667 107.382588,36.842082 106.80116,37.5000134 C106.219732,38.1579448 105.394379,38.5492687 104.517,38.583 L104.517,38.583 Z M137.4435,23.625 L131.3955,23.625 L131.3955,40.5 L133.92,40.5 L133.92,34.101 L137.4435,34.101 C139.404623,34.2418911 141.280165,33.2754871 142.303676,31.5967135 C143.327186,29.9179399 143.327186,27.8080601 142.303676,26.1292865 C141.280165,24.4505129 139.404623,23.4841089 137.4435,23.625 L137.4435,23.625 Z M137.4435,31.725 L133.92,31.725 L133.92,25.974 L137.4975,25.974 C139.093051,25.974 140.3865,27.2674494 140.3865,28.863 C140.3865,30.4585506 139.093051,31.752 137.4975,31.752 L137.4435,31.725 Z M153.0225,29.3085 C151.14342,29.1926359 149.375748,30.2065257 148.527,31.887 L150.7545,32.8185 C151.214314,31.989496 152.118542,31.5082988 153.063,31.59 C153.710363,31.5143927 154.360962,31.7020096 154.868663,32.1107088 C155.376364,32.5194079 155.698603,33.1149261 155.763,33.7635 L155.763,33.9255 C154.951195,33.4987876 154.04762,33.276369 153.1305,33.2775 C150.7275,33.2775 148.2705,34.6275 148.2705,37.0845 C148.318518,38.1396348 148.792287,39.1302156 149.583543,39.8298792 C150.374798,40.5295427 151.415922,40.8784969 152.469,40.797 C153.758806,40.8683447 154.986899,40.2388178 155.682,39.15 L155.763,39.15 L155.763,40.5 L158.193,40.5 L158.193,34.0065 C158.193,31.05 155.952,29.3355 153.0765,29.3355 L153.0225,29.3085 Z M152.712,38.556 C151.8885,38.556 150.741,38.1375 150.741,37.125 C150.741,35.775 152.172,35.316 153.441,35.316 C154.242957,35.2962116 155.035527,35.492023 155.736,35.883 C155.560712,37.3991908 154.291987,38.5525779 152.766,38.583 L152.712,38.556 Z M167.049,29.7 L164.16,37.017 L164.079,37.017 L161.082,29.7 L158.382,29.7 L162.8775,39.933 L160.3125,45.6165 L163.0125,45.6165 L169.857,29.7 L167.049,29.7 Z M144.369,40.5 L146.88,40.5 L146.88,23.625 L144.369,23.625 L144.369,40.5 Z" id="Shape" fill="#FFFFFF"></path>
            <path d="M14.094,10.179 C13.6636694,10.710975 13.4513639,11.3864926 13.5,12.069 L13.5,41.931 C13.4540649,42.620012 13.6821062,43.2992841 14.1345,43.821 L14.229,43.929 L30.915,27.2025 L30.915,26.7975 L14.1885,10.0845 L14.094,10.179 Z" id="Path" fill="url(#linearGradient-1)"></path>
            <path d="M36.45,32.778 L30.915,27.2025 L30.915,26.7975 L36.45,21.222 L36.5715,21.303 L43.2,25.056 C45.09,26.1225 45.09,27.8775 43.2,28.9575 L36.5985,32.7105 L36.45,32.778 Z" id="Path" fill="url(#linearGradient-2)"></path>
            <path d="M36.612,32.7105 L30.915,27 L14.094,43.821 C14.881094,44.5216106 16.055874,44.5613375 16.8885,43.9155 L36.612,32.7105" id="Path" fill="url(#linearGradient-3)"></path>
            <path d="M36.612,21.303 L16.8885,10.098 C16.0609022,9.44287403 14.8822619,9.47703752 14.094,10.179 L30.915,27 L36.612,21.303 Z" id="Path" fill="url(#linearGradient-4)"></path>
            <path d="M36.45,32.5755 L16.8885,43.713 C16.0895082,44.316017 14.9874918,44.316017 14.1885,43.713 L14.1885,43.713 L14.094,43.8075 L14.094,43.8075 L14.1885,43.9155 L14.1885,43.9155 C14.9874918,44.518517 16.0895082,44.518517 16.8885,43.9155 L36.612,32.7105 L36.45,32.5755 Z" id="Path" fill="#000000" opacity="0.2"></path>
            <path d="M14.094,43.632 C13.660372,43.0965359 13.4478656,42.4155495 13.5,41.7285 L13.5,41.931 C13.4540649,42.620012 13.6821062,43.2992841 14.1345,43.821 L14.229,43.7265 L14.094,43.632 Z" id="Path" fill="#000000" opacity="0.12"></path>
            <path d="M43.2,28.755 L36.45,32.5755 L36.5715,32.7105 L43.2,28.944 C43.9970339,28.6069836 44.5460315,27.8611756 44.631,27 L44.631,27 C44.459831,27.7790853 43.9286782,28.4304991 43.2,28.755 L43.2,28.755 Z" id="Path" fill="#000000" opacity="0.12"></path>
            <path d="M16.8885,10.287 L43.2,25.245 C43.9286782,25.5695009 44.459831,26.2209147 44.631,27 L44.631,27 C44.5460315,26.1388244 43.9970339,25.3930164 43.2,25.056 L16.8885,10.098 C15.012,9.018 13.5,9.909 13.5,12.069 L13.5,12.2715 C13.5,10.1115 15.012,9.2205 16.8885,10.287 Z" id="Path" fill="#FFFFFF" opacity="0.25"></path>
            <polygon id="Path" stroke="#FFFFFF" stroke-width="0.5" fill="#FFFFFF" points="58.9815 17.55 57.942 17.55 57.942 10.449 55.674 10.449 55.674 9.45 61.2495 9.45 61.2495 10.449 58.9815 10.449"></polygon>
            <polygon id="Path" stroke="#FFFFFF" stroke-width="0.5" fill="#FFFFFF" points="67.284 10.449 63.5985 10.449 63.5985 13.014 66.9195 13.014 66.9195 13.986 63.5985 13.986 63.5985 16.551 67.284 16.551 67.284 17.55 62.559 17.55 62.559 9.45 67.284 9.45"></polygon>
            <polygon id="Path" stroke="#FFFFFF" stroke-width="0.5" fill="#FFFFFF" points="68.9175 17.55 68.9175 9.45 69.957 9.45 72.765 14.3775 72.765 14.3775 75.6 9.45 76.653 9.45 76.653 17.55 75.6 17.55 75.6 12.744 75.6 11.394 75.6 11.394 73.0755 15.849 72.4545 15.849 69.93 11.394 69.93 11.394 69.93 12.744 69.93 17.55"></polygon>
            <path d="M81.351,17.7255 C80.5338404,17.7602214 79.741501,17.4403329 79.1775,16.848 C78.5904227,16.225325 78.2747726,15.3949223 78.3,14.5395 L78.3,9.45 L79.3395,9.45 L79.3395,14.58 C79.3136501,15.1703999 79.5112875,15.7488506 79.893,16.2 C80.2640037,16.6085287 80.8001337,16.8269521 81.351,16.794 C81.8982458,16.8287943 82.4310378,16.6097022 82.7955,16.2 C83.1499953,15.7570754 83.3322164,15.2008215 83.3085,14.634 L83.3085,9.45 L84.348,9.45 L84.348,14.5395 C84.3886143,15.3850751 84.0980497,16.2131842 83.538,16.848 C82.9740002,17.4485932 82.1737118,17.7696966 81.351,17.7255 Z" id="Path" stroke="#FFFFFF" stroke-width="0.5" fill="#FFFFFF"></path>
            <polygon id="Path" stroke="#FFFFFF" stroke-width="0.5" fill="#FFFFFF" points="92.016 9.45 92.016 9.45 89.0055 12.9735 92.2185 17.55 92.2185 17.55 90.8685 17.55 88.1685 13.77 86.9265 15.2145 86.9265 17.55 85.887 17.55 85.887 9.45 86.9265 9.45 86.9265 13.6215 86.9265 13.6215 90.666 9.45"></polygon>
            <path d="M92.5965,17.55 L95.661,9.45 L96.8355,9.45 L99.9,17.55 L98.7525,17.55 L97.9695,15.3495 L94.5,15.3495 L93.7575,17.55 L92.5965,17.55 Z M94.8915,14.3775 L97.5915,14.3775 L96.2415,10.7325 L96.2415,10.7325 L94.8915,14.3775 Z" id="Shape" stroke="#FFFFFF" stroke-width="0.5" fill="#FFFFFF"></path>
            <polygon id="Path" stroke="#FFFFFF" stroke-width="0.5" fill="#FFFFFF" points="101.061 17.55 101.061 9.45 102.33 9.45 106.272 15.7545 106.272 15.7545 106.272 14.1885 106.272 9.45 107.3115 9.45 107.3115 17.55 106.218 17.55 102.1005 10.9485 102.1005 10.9485 102.1005 12.501 102.1005 17.55"></polygon>
            <path d="M111.8745,17.55 L111.8745,9.45 L114.3585,9.45 C115.464339,9.40007235 116.542421,9.80496307 117.342,10.5705 C118.093807,11.3568676 118.497628,12.4126388 118.4625,13.5 C118.497628,14.5873612 118.093807,15.6431324 117.342,16.4295 C116.542421,17.1950369 115.464339,17.5999276 114.3585,17.55 L111.8745,17.55 Z M112.914,16.551 L114.3585,16.551 C115.17331,16.5921956 115.970677,16.3053379 116.5725,15.7545 C117.16737,15.158756 117.485605,14.3411384 117.45,13.5 C117.520118,12.673716 117.223194,11.8584224 116.638125,11.2707527 C116.053056,10.683083 115.239087,10.3825467 114.4125,10.449 L112.914,10.449 L112.914,16.551 Z" id="Shape" stroke="#FFFFFF" stroke-width="0.5" fill="#FFFFFF"></path>
            <polygon id="Path" stroke="#FFFFFF" stroke-width="0.5" fill="#FFFFFF" points="119.9205 17.55 119.9205 9.45 120.96 9.45 120.96 17.55"></polygon>
        </g>
    </g>
</svg>