<?xml version="1.0" encoding="UTF-8"?>
<svg width="161px" height="54px" viewBox="0 0 161 54" version="1.1" xmlns="http://www.w3.org/2000/svg" xmlns:xlink="http://www.w3.org/1999/xlink">
    <title>button/btn_download_apple_ENG</title>
    <g id="button/btn_download_apple_ENG" stroke="none" stroke-width="1" fill="none" fill-rule="evenodd">
        <g id="Download_on_the_App_Store_Badge_US-UK_RGB_blk_092917" fill-rule="nonzero">
            <g id="Group">
                <g id="Path">
                    <path d="M148.681939,-0.0001755 L12.871818,-0.0001755 C12.376773,-0.0001755 11.887668,-0.0001755 11.3939325,0.0027 C10.98063,0.0054 10.5706215,0.0132435 10.15335,0.019845 C9.24684347,0.0305124349 8.34246873,0.110262951 7.448085,0.2584035 C6.55495751,0.409769048 5.6898079,0.695136249 4.881897,1.1048535 C4.0749742,1.51803681 3.33766577,2.05492617 2.6967195,2.6960445 C2.05240837,3.33535994 1.51532529,4.07432211 1.1061225,4.884516 C0.695790326,5.69309731 0.411264673,6.5595667 0.2623725,7.453998 C0.112064771,8.34729962 0.0311828139,9.25090273 0.0204525,10.156698 C0.0079245,10.570608 0.0066015,10.985895 0,11.399859 L0,42.60411 C0.0066015,43.023285 0.0079245,43.429365 0.0204525,43.848675 C0.0311861043,44.7544253 0.112068062,45.6579833 0.2623725,46.55124 C0.410853537,47.4461942 0.695396013,48.313161 1.1061225,49.122045 C1.51513949,49.9296189 2.0522981,50.6655894 2.6967195,51.30135 C3.33523551,51.945319 4.07302052,52.4825736 4.881897,52.892595 C5.68980176,53.3034088 6.5548581,53.5904746 7.448085,53.744175 C8.34262078,53.8911289 9.2469025,53.9709118 10.15335,53.982855 C10.5706215,53.992035 10.98063,53.9973 11.3939325,53.9973 C11.8876545,54 12.3768,54 12.871818,54 L148.681939,54 C149.167129,54 149.66015,54 150.14534,53.9973 C150.556685,53.9973 150.97856,53.992035 151.389905,53.982855 C152.294638,53.971547 153.197218,53.891759 154.089905,53.744175 C154.986013,53.5893926 155.854171,53.3024029 156.665974,52.892595 C157.474121,52.4823362 158.211225,51.9450962 158.849194,51.30135 C159.491953,50.6630994 160.030259,49.9276673 160.444354,49.122045 C160.851999,48.3125725 161.133833,47.4456751 161.280139,46.55124 C161.430685,45.6578608 161.514436,44.7545038 161.530699,43.848675 C161.535964,43.429365 161.535964,43.023285 161.535964,42.60411 C161.546494,42.113655 161.546494,41.6259 161.546494,41.12748 L161.546494,12.8737755 C161.546494,12.379392 161.546494,11.888964 161.535964,11.399859 C161.535964,10.985895 161.535964,10.570608 161.530699,10.156644 C161.51444,9.2507703 161.430688,8.34736816 161.280139,7.453944 C161.133425,6.56003016 160.851608,5.69362942 160.444354,4.884462 C159.611032,3.26051471 158.289624,1.93863429 156.665974,1.104732 C155.854168,0.696015963 154.985918,0.410724553 154.089904,0.258282 C153.197372,0.109488757 152.294699,0.0297104826 151.389905,0.019656 C150.978559,0.013068 150.556684,0.005157 150.14534,0.0025245 C149.66015,-0.0001755 149.167129,-0.0001755 148.681939,-0.0001755 L148.681939,-0.0001755 Z" fill="#A6A6A6"></path>
                    <path d="M11.4005205,52.81875 C10.9892025,52.81875 10.5878205,52.813485 10.179729,52.804305 C9.33433439,52.79329 8.49091568,52.7196938 7.65639,52.58412 C6.87823691,52.450103 6.12441573,52.200807 5.419791,51.844455 C4.7216273,51.4910556 4.08484588,51.0276683 3.533841,50.472045 C2.97486044,49.9229666 2.50948359,49.2861294 2.1561525,48.58677 C1.798928,47.8828653 1.55170739,47.1283644 1.4231025,46.34955 C1.28422038,45.5127051 1.2090794,44.6665229 1.1983275,43.8183 C1.1897685,43.533585 1.1785635,42.585615 1.1785635,42.585615 L1.1785635,11.399859 C1.1785635,11.399859 1.1904975,10.4664555 1.198395,10.19223 C1.20868987,9.34535077 1.2833939,8.50048168 1.4218605,7.6649355 C1.55070278,6.88398761 1.79811478,6.12731097 2.1555315,5.4211005 C2.50756401,4.7222242 2.97035719,4.08491139 3.5259705,3.533868 C4.08095932,2.97758892 4.71977768,2.51181556 5.4191295,2.1535335 C6.1221348,1.79832636 6.87453135,1.55078894 7.6511115,1.4192145 C8.4883779,1.28227879 9.33472463,1.20824471 10.18305,1.1977335 L11.401182,1.18125 L150.138724,1.18125 L151.371409,1.198395 C152.212018,1.20838392 153.050677,1.28175751 153.88025,1.4178915 C154.664691,1.55111634 155.424929,1.80038097 156.135965,2.157489 C157.537019,2.87953117 158.677031,4.02186998 159.396215,5.4243945 C159.747926,6.12572971 159.991522,6.87623412 160.118735,7.6504365 C160.25885,8.49283836 160.337268,9.34434675 160.353364,10.19817 C160.35728,10.58049 160.35728,10.99116 160.35728,11.399859 C160.367945,11.906109 160.367945,12.3879645 160.367945,12.8737755 L160.367945,41.12748 C160.367945,41.617935 160.367945,42.09651 160.35728,42.579 C160.35728,43.01802 160.35728,43.420185 160.352015,43.834095 C160.336267,44.6726822 160.259156,45.5089917 160.1213,46.33632 C159.995331,47.1207526 159.749456,47.8811427 159.392299,48.59082 C159.036471,49.2825885 158.573766,49.9139094 158.021239,50.461515 C157.469739,51.0201243 156.831834,51.4862226 156.132049,51.84189 C155.422984,52.2009815 154.663865,52.4511994 153.880249,52.58412 C153.045787,52.7204173 152.202287,52.7940182 151.356829,52.804305 C150.961414,52.813485 150.547369,52.81875 150.145339,52.81875 L148.681939,52.82145 L11.4005205,52.81875 Z" fill="#000000"></path>
                </g>
                <g id="_Group_" transform="translate(13.150000, 10.800000)" fill="#FFFFFF">
                    <g id="_Group_3">
                        <path d="M20.287988,16.605918 C20.3174949,14.3156823 21.5181659,12.2002012 23.469344,11.000637 C22.232842,9.23469224 20.2360293,8.15518578 18.081278,8.087769 C15.814304,7.849818 13.6165715,9.4442895 12.461363,9.4442895 C11.2837985,9.4442895 9.5051735,8.111394 7.589888,8.1508005 C5.0698717,8.23221686 2.77748519,9.6302594 1.551446,11.833425 C-1.059454,16.353792 0.8880425,22.9972095 3.389066,26.651133 C4.640381,28.4403555 6.102809,30.438963 8.0163665,30.368088 C9.8888975,30.2904225 10.5882515,29.17404 12.8485565,29.17404 C15.0878825,29.17404 15.744023,30.368088 17.6964065,30.323025 C19.7057195,30.290409 20.971682,28.525851 22.179095,26.719686 C23.0781628,25.4447996 23.769994,24.0357725 24.228962,22.5447975 C21.8425084,21.5354447 20.2907734,19.1970464 20.287988,16.605918 L20.287988,16.605918 Z" id="_Path_"></path>
                        <path d="M16.6002875,5.6847015 C17.6958484,4.36952057 18.2355897,2.67907831 18.1048895,0.9723645 C16.4311161,1.14816216 14.8850183,1.94811706 13.7746565,3.212838 C12.6782253,4.46065518 12.1227758,6.09313412 12.230648,7.7507145 C13.9268647,7.76817913 15.5373867,7.00670684 16.6002875,5.6847015 L16.6002875,5.6847015 Z" id="_Path_2"></path>
                    </g>
                    <g id="Group" transform="translate(32.750000, 13.150000)">
                        <path d="M11.2080645,12.6885275 L4.8179745,12.6885275 L3.2834025,17.219735 L0.5768145,17.219735 L6.6294045,0.455435 L9.4414545,0.455435 L15.4940445,17.219735 L12.7413,17.219735 L11.2080645,12.6885275 Z M5.479785,10.597607 L10.544985,10.597607 L8.0480115,3.2437925 L7.9781355,3.2437925 L5.479785,10.597607 Z" id="Shape"></path>
                        <path d="M28.5655815,11.1091355 C28.5655815,14.9073335 26.5326705,17.347607 23.4648495,17.347607 C21.8791196,17.4305572 20.3854487,16.5999914 19.619199,15.209207 L19.561149,15.209207 L19.561149,21.26312 L17.052309,21.26312 L17.052309,4.997213 L19.48077,4.997213 L19.48077,7.030124 L19.526913,7.030124 C20.3272042,5.64805869 21.8224858,4.81785043 23.4187065,4.8693275 C26.52075,4.869341 28.5655815,7.321481 28.5655815,11.1091355 Z M25.9868655,11.1091355 C25.9868655,8.6345855 24.708051,7.007714 22.7568825,7.007714 C20.8399905,7.007714 19.5506325,8.6688485 19.5506325,11.1091355 C19.5506325,13.5718325 20.8399905,15.2211005 22.7568825,15.2211005 C24.7080645,15.2211005 25.9868655,13.606109 25.9868655,11.1091355 Z" id="Shape"></path>
                        <path d="M42.0181155,11.1091355 C42.0181155,14.9073335 39.9852045,17.347607 36.9173835,17.347607 C35.3316536,17.4305572 33.8379827,16.5999914 33.071733,15.209207 L33.013683,15.209207 L33.013683,21.26312 L30.504843,21.26312 L30.504843,4.997213 L32.93325,4.997213 L32.93325,7.030124 L32.979393,7.030124 C33.77969,5.64805952 35.2749773,4.81785615 36.8712,4.869341 C39.973338,4.869341 42.0181155,7.321481 42.0181155,11.1091355 Z M39.439413,11.1091355 C39.439413,8.6345855 38.160585,7.007714 36.2094165,7.007714 C34.2925245,7.007714 33.0031665,8.6688485 33.0031665,11.1091355 C33.0031665,13.5718325 34.2925245,15.2211005 36.2094165,15.2211005 C38.1605985,15.2211005 39.439413,13.606109 39.439413,11.1091355 L39.439413,11.1091355 Z" id="Shape"></path>
                        <path d="M50.9091345,12.5487755 C51.0950295,14.211233 52.7100345,15.3027755 54.916947,15.3027755 C57.0316005,15.3027755 58.552983,14.211179 58.552983,12.712193 C58.552983,11.4109685 57.6354015,10.631843 55.462752,10.097891 L53.2901025,9.574496 C50.211738,8.830943 48.782628,7.3912895 48.782628,5.055155 C48.782628,2.162672 51.3033345,0.175904 54.8826705,0.175904 C58.4250705,0.175904 60.853518,2.162672 60.9352605,5.055155 L58.4026605,5.055155 C58.2510555,3.382154 56.8680885,2.3723 54.847044,2.3723 C52.8259995,2.3723 51.443046,3.394034 51.443046,4.88114 C51.443046,6.0663455 52.326351,6.7637555 54.487134,7.29764 L56.33415,7.751159 C59.7737475,8.564588 61.2028575,9.946259 61.2028575,12.398372 C61.2028575,15.534746 58.704561,17.499104 54.731025,17.499104 C51.0132465,17.499104 48.503097,15.580889 48.340935,12.548654 L50.9091345,12.5487755 Z" id="Path"></path>
                        <path d="M66.6173835,2.10473 L66.6173835,4.997213 L68.9416515,4.997213 L68.9416515,6.983981 L66.6173835,6.983981 L66.6173835,13.7221145 C66.6173835,14.768891 67.082769,15.2566865 68.1044895,15.2566865 C68.3804179,15.251875 68.6558999,15.2324981 68.929785,15.1986365 L68.929785,17.173538 C68.4704182,17.2593704 68.0035106,17.2982436 67.5362745,17.289557 C65.0617245,17.289557 64.096677,16.360109 64.096677,13.989698 L64.096677,6.983981 L62.319537,6.983981 L62.319537,4.997213 L64.09665,4.997213 L64.09665,2.10473 L66.6173835,2.10473 Z" id="Path"></path>
                        <path d="M70.28775,11.1091355 C70.28775,7.263485 72.5526855,4.846931 76.0845825,4.846931 C79.6283325,4.846931 81.8827245,7.263431 81.8827245,11.1091355 C81.8827245,14.965343 79.640199,17.37134 76.0845825,17.37134 C72.5302215,17.37134 70.28775,14.9653295 70.28775,11.1091355 Z M79.3264185,11.1091355 C79.3264185,8.4711005 78.11748,6.9141185 76.084569,6.9141185 C74.051658,6.9141185 72.8440425,8.482967 72.8440425,11.1091355 C72.8440425,13.757714 74.051658,15.302843 76.084569,15.302843 C78.11748,15.302843 79.3264185,13.757714 79.3264185,11.1091355 L79.3264185,11.1091355 Z" id="Shape"></path>
                        <path d="M83.9511675,4.997213 L86.344002,4.997213 L86.344002,7.077563 L86.402052,7.077563 C86.7357397,5.73834735 87.9628309,4.8166526 89.3419875,4.869314 C89.631109,4.86830451 89.9194327,4.89970351 90.2015595,4.962923 L90.2015595,7.309601 C89.8365613,7.19806848 89.4558055,7.14686024 89.0743095,7.157996 C88.3367346,7.12807384 87.6229257,7.42202188 87.120308,7.96265806 C86.6176902,8.50329424 86.3764784,9.2366055 86.4600075,9.970046 L86.4600075,17.219708 L83.9511675,17.219708 L83.9511675,4.997213 Z" id="Path"></path>
                        <path d="M101.768805,13.6298285 C101.431305,15.848621 99.2705085,17.3713265 96.505911,17.3713265 C92.9502945,17.3713265 90.7433685,14.989049 90.7433685,11.1671315 C90.7433685,7.3333475 92.962161,4.8469175 96.400449,4.8469175 C99.782037,4.8469175 101.908557,7.1698625 101.908557,10.8757745 L101.908557,11.7353465 L93.2759415,11.7353465 L93.2759415,11.8869515 C93.195343,12.7968942 93.5095476,13.6976112 94.1386319,14.3599894 C94.7677161,15.0223676 95.6510471,15.3825649 96.563934,15.348959 C97.7814211,15.4630335 98.9292731,14.7639199 99.386541,13.629815 L101.768805,13.6298285 Z M93.2877842,9.9819395 L99.398394,9.9819395 C99.4439234,9.16428162 99.1462903,8.36471116 98.5772026,7.77585259 C98.0081148,7.18699401 97.2191711,6.86223855 96.400449,6.8798285 C95.5752504,6.87490401 94.7822725,7.19981175 94.1977695,7.78233488 C93.6132664,8.36485801 93.28567,9.15672894 93.2877842,9.9819395 L93.2877842,9.9819395 Z" id="Shape"></path>
                    </g>
                </g>
            </g>
            <g id="Group" transform="translate(47.250000, 10.800000)" fill="#FFFFFF">
                <path d="M3.8153565,0.98685 C4.88043435,0.910418645 5.92365456,1.31563903 6.65787774,2.09097695 C7.39210093,2.86631488 7.73993593,3.93004547 7.6056435,4.989384 C7.6056435,7.5628215 6.214779,9.042084 3.8153565,9.042084 L0.905742,9.042084 L0.905742,0.98685 L3.8153565,0.98685 Z M2.1568545,7.9029 L3.6756045,7.9029 C4.43676413,7.94839771 5.17790681,7.64850466 5.69324499,7.08648992 C6.20858318,6.52447518 6.44325247,5.76017246 6.332094,5.0058 C6.43516517,4.25455812 6.19711639,3.49656239 5.68305595,2.93913087 C5.16899552,2.38169936 4.43271915,2.0831665 3.6756045,2.1251835 L2.1568545,2.1251835 L2.1568545,7.9029 Z" id="Shape"></path>
                <path d="M9.018918,5.999859 C8.91468062,4.91025382 9.43715295,3.85575111 10.3672115,3.27860645 C11.2972701,2.70146178 12.4741104,2.70146178 13.404169,3.27860645 C14.3342276,3.85575111 14.8566999,4.91025382 14.7524625,5.999859 C14.8586831,7.09063505 14.3366877,8.14718301 13.4058045,8.72557016 C12.4749213,9.3039573 11.2964592,9.3039573 10.365576,8.72557016 C9.43469282,8.14718301 8.91269738,7.09063505 9.018918,5.999859 Z M13.5184815,5.999859 C13.5184815,4.6821645 12.92652,3.9115845 11.887668,3.9115845 C10.844847,3.9115845 10.258218,4.6821645 10.258218,5.9998725 C10.258218,7.328124 10.8448875,8.092764 11.887668,8.092764 C12.926547,8.092764 13.5184815,7.322832 13.5184815,5.999859 L13.5184815,5.999859 Z" id="Shape"></path>
                <polygon id="Path" points="22.373901 9.0419625 21.1293765 9.0419625 19.8729855 4.564809 19.778067 4.564809 18.526941 9.0419625 17.2942695 9.0419625 15.618636 2.963007 16.8354855 2.963007 17.9244495 7.601607 18.014103 7.601607 19.263906 2.963007 20.414835 2.963007 21.664638 7.601607 21.7595565 7.601607 22.843242 2.963007 24.0429465 2.963007"></polygon>
                <path d="M25.4522655,2.963007 L26.60715,2.963007 L26.60715,3.9287025 L26.6968035,3.9287025 C27.0085656,3.21769522 27.7370634,2.78276509 28.510866,2.845665 C29.1100187,2.80061789 29.6971459,3.03046637 30.1064725,3.47031279 C30.5157992,3.91015922 30.7029056,4.51227208 30.6149625,5.106645 L30.6149625,9.041895 L29.415258,9.041895 L29.415258,5.407911 C29.415258,4.4310105 28.9907505,3.945186 28.10349,3.945186 C27.6970939,3.92625781 27.3026972,4.08575147 27.0236987,4.38185266 C26.7447002,4.67795385 26.6089253,5.08113136 26.65197,5.4856845 L26.65197,9.0419625 L25.4522655,9.0419625 L25.4522655,2.963007 Z" id="Path"></path>
                <polygon id="Path" points="32.5265895 0.58995 33.726294 0.58995 33.726294 9.041949 32.5265895 9.041949"></polygon>
                <path d="M35.3940165,5.999859 C35.2898592,4.91018254 35.8124139,3.85565314 36.7425415,3.27849957 C37.6726691,2.70134601 38.8495699,2.70134601 39.7796975,3.27849957 C40.7098251,3.85565314 41.2323798,4.91018254 41.1282225,5.999859 C41.2343082,7.0906741 40.7122171,8.14719221 39.7812877,8.72555387 C38.8503583,9.30391554 37.6718807,9.30391554 36.7409513,8.72555387 C35.8100219,8.14719221 35.2879308,7.0906741 35.3940165,5.999859 L35.3940165,5.999859 Z M39.89358,5.999859 C39.89358,4.6821645 39.3016185,3.9115845 38.2627665,3.9115845 C37.2199455,3.9115845 36.6333165,4.6821645 36.6333165,5.9998725 C36.6333165,7.328124 37.219986,8.092764 38.2627665,8.092764 C39.301632,8.092764 39.89358,7.322832 39.89358,5.999859 L39.89358,5.999859 Z" id="Shape"></path>
                <path d="M42.391215,7.322832 C42.391215,6.2285895 43.205967,5.5977615 44.652195,5.508108 L46.2988305,5.4131895 L46.2988305,4.888485 C46.2988305,4.2464385 45.874323,3.883896 45.054306,3.883896 C44.3845845,3.883896 43.920522,4.1297715 43.787358,4.5595575 L42.6258855,4.5595575 C42.7484925,3.5154135 43.7306715,2.845692 45.1096695,2.845692 C46.633698,2.845692 47.49327,3.604392 47.49327,4.888485 L47.49327,9.041976 L46.3383855,9.041976 L46.3383855,8.1876825 L46.243467,8.1876825 C45.8512226,8.81155305 45.1536844,9.17617036 44.417538,9.1421325 C43.9014818,9.19581095 43.3868011,9.02867939 43.0007343,8.6820558 C42.6146676,8.33543221 42.3932482,7.84166847 42.391215,7.322832 L42.391215,7.322832 Z M46.2988305,6.8033925 L46.2988305,6.2951715 L44.814357,6.39009 C43.977195,6.446115 43.5975075,6.730884 43.5975075,7.2667935 C43.5975075,7.813908 44.0721135,8.132292 44.7247575,8.132292 C45.1111087,8.17140131 45.4967906,8.05204132 45.7935125,7.80153605 C46.0902344,7.55103077 46.2725887,7.19083043 46.2988305,6.8033925 Z" id="Shape"></path>
                <path d="M49.070016,5.999859 C49.070016,4.0790115 50.0574735,2.862162 51.593355,2.862162 C52.3688986,2.82642768 53.0952672,3.24198837 53.457516,3.928662 L53.5471695,3.928662 L53.5471695,0.58995 L54.746874,0.58995 L54.746874,9.041949 L53.597268,9.041949 L53.597268,8.0815185 L53.5023495,8.0815185 C53.1127181,8.76249493 52.3774006,9.17103124 51.5933685,9.1421325 C50.04693,9.1422 49.070016,7.9253235 49.070016,5.999859 Z M50.309316,5.999859 C50.309316,7.289217 50.917086,8.0650755 51.9335415,8.0650755 C52.9446915,8.0650755 53.56962,7.2780255 53.56962,6.0051375 C53.56962,4.7381895 52.9381305,3.939921 51.9335415,3.939921 C50.9236335,3.939921 50.3092755,4.7210445 50.3092755,5.999859 L50.309316,5.999859 Z" id="Shape"></path>
                <path d="M59.7105,5.999859 C59.6062626,4.91025382 60.1287349,3.85575111 61.0587935,3.27860645 C61.9888521,2.70146178 63.1656924,2.70146178 64.095751,3.27860645 C65.0258096,3.85575111 65.5482819,4.91025382 65.4440445,5.999859 C65.5502651,7.09063505 65.0282697,8.14718301 64.0973865,8.72557016 C63.1665033,9.3039573 61.9880412,9.3039573 61.057158,8.72557016 C60.1262748,8.14718301 59.6042794,7.09063505 59.7105,5.999859 L59.7105,5.999859 Z M64.21005,5.999859 C64.21005,4.6821645 63.618102,3.9115845 62.57925,3.9115845 C61.536429,3.9115845 60.9498,4.6821645 60.9498,5.9998725 C60.9498,7.328124 61.5364695,8.092764 62.57925,8.092764 C63.6181155,8.092764 64.21005,7.322832 64.21005,5.999859 Z" id="Shape"></path>
                <path d="M67.0537575,2.963007 L68.208642,2.963007 L68.208642,3.9287025 L68.2982955,3.9287025 C68.6100576,3.21769522 69.3385554,2.78276509 70.112358,2.845665 C70.7115107,2.80061789 71.2986379,3.03046637 71.7079645,3.47031279 C72.1172912,3.91015922 72.3043976,4.51227208 72.2164545,5.106645 L72.2164545,9.041895 L71.01675,9.041895 L71.01675,5.407911 C71.01675,4.4310105 70.5922425,3.945186 69.704982,3.945186 C69.2985859,3.92625781 68.9041892,4.08575147 68.6251907,4.38185266 C68.3461922,4.67795385 68.2104173,5.08113136 68.253462,5.4856845 L68.253462,9.0419625 L67.0537575,9.0419625 L67.0537575,2.963007 Z" id="Path"></path>
                <path d="M78.995466,1.4495355 L78.995466,2.9906955 L80.3125125,2.9906955 L80.3125125,4.0012245 L78.995466,4.0012245 L78.995466,7.127055 C78.995466,7.763823 79.257825,8.042652 79.855038,8.042652 C80.007933,8.04216268 80.1606746,8.03291804 80.3125125,8.0149635 L80.3125125,9.014274 C80.0970653,9.05281747 79.8787786,9.07332306 79.6599225,9.0755775 C78.3257445,9.0755775 77.7944385,8.6062365 77.7944385,7.4342205 L77.7944385,4.0011705 L76.8294045,4.0011705 L76.8294045,2.9906415 L77.7944385,2.9906415 L77.7944385,1.4495355 L78.995466,1.4495355 Z" id="Path"></path>
                <path d="M81.9512235,0.58995 L83.1403845,0.58995 L83.1403845,3.9399075 L83.235303,3.9399075 C83.5620405,3.22267756 84.3032882,2.78719318 85.088853,2.8509435 C85.6846034,2.81852633 86.2637827,3.05343501 86.6686355,3.4916857 C87.0734883,3.92993639 87.2618466,4.52588261 87.182406,5.117202 L87.182406,9.0419625 L85.9815,9.0419625 L85.9815,5.4131625 C85.9815,4.4421885 85.52925,3.9504375 84.6815985,3.9504375 C84.2642176,3.91620645 83.8530078,4.06794279 83.5579021,4.36508123 C83.2627965,4.66221966 83.1138866,5.07446142 83.150982,5.4915975 L83.150982,9.0419625 L81.9512775,9.0419625 L81.9512235,0.58995 Z" id="Path"></path>
                <path d="M94.1776875,7.4006055 C93.841277,8.5472678 92.7316335,9.2881391 91.543608,9.159291 C90.7330193,9.18068877 89.9539984,8.84470144 89.4132381,8.24047447 C88.8724779,7.6362475 88.6246466,6.82486552 88.7355,6.0216075 C88.627591,5.21611714 88.8744936,4.40343504 89.4122426,3.79410339 C89.9499917,3.18477174 90.7256727,2.83874861 91.5383295,2.8456785 C93.229785,2.8456785 94.250196,4.0012785 94.250196,5.9101785 L94.250196,6.3288 L89.9576145,6.3288 L89.9576145,6.39603 C89.9196282,6.84711919 90.0736885,7.29330446 90.3819071,7.62485494 C90.6901256,7.95640543 91.1239036,8.14255729 91.5765615,8.13753 C92.1635035,8.20799282 92.7348514,7.91684961 93.022803,7.400565 L94.1776875,7.4006055 Z M89.9575875,5.441526 L93.028041,5.441526 C93.0586224,5.02896659 92.9135589,4.62267685 92.6285989,4.32277978 C92.3436388,4.0228827 91.9452836,3.8572689 91.531701,3.866751 C91.1125152,3.86148453 90.7089678,4.02572867 90.4126001,4.32222599 C90.1162324,4.61872331 89.9521647,5.02234254 89.9576145,5.441526 L89.9575875,5.441526 Z" id="Shape"></path>
            </g>
        </g>
    </g>
</svg>