<svg xmlns="http://www.w3.org/2000/svg" xmlns:xlink="http://www.w3.org/1999/xlink" width="40" height="40" viewBox="0 0 40 40">
    <defs>
        <path id="a9kzmcjwna" d="M20.193 0c4.867 0 9.038 2.958 10.788 7.162.234.438.44.894.618 1.364h2.085c3.488 0 6.316 2.828 6.316 6.316s-2.828 6.316-6.316 6.316h-5.183c-2.07 1.864-4.819 3-7.834 3-3.016 0-5.764-1.136-7.835-3H6.316C2.796 20.968 0 18.078 0 14.54c0-3.127 2.186-5.747 5.124-6.438C5.043 7.78 5 7.445 5 7.098c0-2.284 1.865-4.136 4.167-4.136.91 0 1.752.29 2.437.781C13.736 1.443 16.794 0 20.193 0z"/>
        <path id="euj7rslvsc" d="M4.44 6.44c.585-.586 1.535-.586 2.12 0 .586.585.586 1.535 0 2.12-.585.586-1.535.586-2.12 0-.586-.585-.586-1.535 0-2.12zM5.5 3c1.226 0 2.379.506 3.245 1.425.34.36.34.944 0 1.305-.17.18-.392.27-.616.27-.222 0-.445-.09-.616-.27-.537-.57-1.252-.884-2.013-.884-.76 0-1.476.313-2.013.884-.34.36-.892.36-1.232 0-.34-.36-.34-.945 0-1.305C3.121 3.505 4.275 3 5.5 3zm0-3c1.982 0 3.845.845 5.246 2.38.339.37.339.972 0 1.342-.169.185-.39.278-.612.278-.222 0-.444-.093-.613-.278-1.074-1.177-2.502-1.824-4.02-1.824-1.52 0-2.948.647-4.022 1.824-.338.37-.887.37-1.225 0-.339-.37-.339-.971 0-1.342C1.655.845 3.518 0 5.5 0z"/>
    </defs>
    <g fill="none" fill-rule="evenodd">
        <g transform="translate(0 9)">
            <mask id="0m6pnqs7ab" fill="#fff">
                <use xlink:href="#a9kzmcjwna"/>
            </mask>
            <use fill="#ED2324" xlink:href="#a9kzmcjwna"/>
            <circle cx="20.5" cy="12.5" r="8.5" fill="#AD1E1F" mask="url(#0m6pnqs7ab)"/>
            <g mask="url(#0m6pnqs7ab)">
                <g transform="translate(15 8)">
                    <use fill="#FFF" fill-rule="nonzero" xlink:href="#euj7rslvsc"/>
                </g>
            </g>
        </g>
    </g>
</svg>
