<?xml version="1.0" encoding="UTF-8"?>
<svg width="50px" height="50px" viewBox="0 0 50 50" version="1.1" xmlns="http://www.w3.org/2000/svg" xmlns:xlink="http://www.w3.org/1999/xlink">
    <!-- Generator: sketchtool 62 (101010) - https://sketch.com -->
    <title>7DCC6CBA-42AA-430F-9970-AB6933FE6B36</title>
    <desc>Created with sketchtool.</desc>
    <g id="symbol" stroke="none" stroke-width="1" fill="none" fill-rule="evenodd">
        <g id="icon/system/email-black">
            <g id="icon/system/faq" transform="translate(15.000000, 15.000000)">
                <rect id="Rectangle" x="0" y="0" width="20" height="20"></rect>
                <path d="M18.0288462,18 C18.5737179,18 19.0384615,17.8003992 19.4230769,17.4011976 C19.8076923,17.001996 20,16.5309381 20,15.988024 L20,15.988024 L20,4.01197605 C20,3.46906188 19.8076923,2.99800399 19.4230769,2.5988024 C19.0384615,2.1996008 18.5737179,2 18.0288462,2 L18.0288462,2 L1.97115385,2 C1.42628205,2 0.961538462,2.1996008 0.576923077,2.5988024 C0.192307692,2.99800399 0,3.46906188 0,4.01197605 L0,4.01197605 L0,15.988024 C0,16.5309381 0.192307692,17.001996 0.576923077,17.4011976 C0.961538462,17.8003992 1.42628205,18 1.97115385,18 L1.97115385,18 L18.0288462,18 Z" id="Path" fill="#211E20" fill-rule="nonzero"></path>
                <path d="M2.12583505,5.51437088 C2.37488307,5.06606777 2.91760737,4.88405567 3.38041584,5.07508158 L3.48562912,5.12583505 L9.945,8.713 L16.4040345,5.12583505 C16.8523376,4.87678703 17.4092944,5.00898834 17.7013128,5.41569196 L17.7638286,5.51437088 C18.0128766,5.962674 17.8806753,6.51963081 17.4739717,6.81164919 L17.3752928,6.87416495 L10.4304609,10.7322613 C10.1661975,10.8790688 9.852006,10.8974198 9.57526055,10.7873141 L9.4592027,10.7322613 L2.51437088,6.87416495 C2.03158291,6.60595939 1.85762949,5.99715885 2.12583505,5.51437088 Z" id="Path" fill="#FFFFFF" fill-rule="nonzero"></path>
            </g>
        </g>
    </g>
</svg>