<svg xmlns="http://www.w3.org/2000/svg" xmlns:xlink="http://www.w3.org/1999/xlink" width="40" height="40" viewBox="0 0 40 40">
    <defs>
        <path id="svcuvft41a" d="M26.47 28c.422 0 .783-.15 1.082-.448.299-.299.448-.66.448-1.083v-5.488c0-.423-.15-.784-.448-1.082-.299-.299-.66-.448-1.083-.448-2.04 0-3.882-.287-5.525-.859-.274-.075-.56-.087-.859-.037-.298.05-.547.186-.746.41l-.908.908c-1.512 1.512-3.895 1.71-5.635.468-1.208-.862-2.15-1.631-2.828-2.309-.678-.678-1.447-1.62-2.31-2.828-1.24-1.74-1.043-4.123.469-5.635l.908-.908c.224-.199.36-.448.41-.746.05-.299.038-.585-.037-.859-.572-1.643-.859-3.484-.859-5.525 0-.423-.149-.784-.448-1.083C7.803.149 7.441 0 7.02 0H1.53C1.108 0 .747.15.448.448.149.747 0 1.108 0 1.531c0 3.584.697 7.018 2.09 10.304 1.345 3.16 3.236 5.96 5.675 8.4 2.44 2.439 5.24 4.33 8.4 5.674C19.451 27.303 22.885 28 26.47 28z"/>
    </defs>
    <g fill="none" fill-rule="evenodd">
        <g transform="translate(6 6)">
            <g transform="translate(14)">
                <path fill="#ED2324" fill-rule="nonzero" d="M1.458 12.095c.92-1.2 2.345-1.905 3.858-1.905H10.5c1.933 0 3.5-1.567 3.5-3.5V3.5C14 1.567 12.433 0 10.5 0h-7C1.567 0 0 1.567 0 3.5v8.101c0 .449.364.813.813.813.253 0 .492-.118.645-.319z"/>
                <rect width="8.75" height="1.75" x="2.625" y="2.625" fill="#FFF" rx=".875"/>
                <rect width="5.25" height="1.75" x="2.625" y="5.25" fill="#FFF" rx=".875"/>
            </g>
            <mask id="j0m20mk84b" fill="#fff">
                <use xlink:href="#svcuvft41a"/>
            </mask>
            <use fill="#ED2324" fill-rule="nonzero" xlink:href="#svcuvft41a"/>
            <ellipse cx="12.25" cy="2.625" fill="#CA2627" mask="url(#j0m20mk84b)" rx="7" ry="7.875"/>
            <ellipse cx="24.5" cy="16.625" fill="#CA2627" mask="url(#j0m20mk84b)" rx="7" ry="7.875"/>
        </g>
    </g>
</svg>
