<?xml version="1.0" encoding="UTF-8"?>
<svg width="86px" height="29px" viewBox="0 0 86 29" version="1.1" xmlns="http://www.w3.org/2000/svg" xmlns:xlink="http://www.w3.org/1999/xlink">
    <!-- Generator: sketchtool 62 (101010) - https://sketch.com -->
    <title>E83A9C00-72B7-4325-8582-3214D942E784</title>
    <desc>Created with sketchtool.</desc>
    <defs>
        <linearGradient x1="50%" y1="0%" x2="50%" y2="100%" id="linearGradient-1">
            <stop stop-color="#1E79AF" offset="0%"></stop>
            <stop stop-color="#63FFD3" offset="100%"></stop>
        </linearGradient>
        <linearGradient x1="84.7178118%" y1="30.0112463%" x2="5.24419544%" y2="76.1774109%" id="linearGradient-2">
            <stop stop-color="#DC4057" offset="0%"></stop>
            <stop stop-color="#9E36BB" offset="100%"></stop>
        </linearGradient>
        <linearGradient x1="50%" y1="0%" x2="50%" y2="97.8256537%" id="linearGradient-3">
            <stop stop-color="#FF9676" offset="0%"></stop>
            <stop stop-color="#FFD074" offset="100%"></stop>
        </linearGradient>
        <linearGradient x1="17.4435371%" y1="21.8908178%" x2="100%" y2="78.1091822%" id="linearGradient-4">
            <stop stop-color="#51C6AD" offset="0%"></stop>
            <stop stop-color="#D5FFA1" offset="100%"></stop>
        </linearGradient>
    </defs>
    <g id="symbol" stroke="none" stroke-width="1" fill="none" fill-rule="evenodd">
        <g id="MOBILE/SUB_FOOTER" transform="translate(-195.000000, -563.000000)">
            <g id="FOOTER_MOBILE" transform="translate(0.000000, 342.000000)">
                <g id="footer">
                    <g id="Group-4">
                        <g id="Group-25">
                            <g id="Group-2" transform="translate(15.000000, 22.000000)">
                                <g id="Group-27" transform="translate(0.000000, 150.000000)">
                                    <g id="Group-28">
                                        <g id="Group-25" transform="translate(88.000000, 49.000000)">
                                            <g id="button/btn_download_android" transform="translate(92.006757, 0.617021)">
                                                <g id="google-play">
                                                    <rect id="bg" fill="#000000" x="0" y="0" width="85.9932432" height="28.3829787" rx="3.6"></rect>
                                                    <g transform="translate(6.426071, 10.755341)">
                                                        <path d="M0.538019785,0.824385324 C0.295753566,0.898724737 0.138971113,1.13932076 0.138971113,1.50332754 L0.140464279,12.9596535 C0.140464279,13.319632 0.292393942,13.556566 0.527940913,13.6356661 L7.06240957,7.22489884 L0.538019785,0.824385324" id="left" fill="url(#linearGradient-1)"></path>
                                                        <path d="M0.527940913,13.6356661 C0.697415278,13.6920615 0.909818173,13.6656948 1.14125894,13.5411854 L9.11551312,9.23902084 L7.06240957,7.22489884 L0.527940913,13.6356661" id="bottom" fill="url(#linearGradient-2)"></path>
                                                        <path d="M9.116633,9.23902084 L11.8356887,7.77237382 C12.3870403,7.47391756 12.3870403,6.98833106 11.8356887,6.69060721 L9.10655412,5.21846712 L7.06240957,7.22380023 L9.116633,9.23902084" id="right" fill="url(#linearGradient-3)"></path>
                                                        <path d="M9.10618083,5.21846712 L1.14125894,0.922161793 C0.915417546,0.800948268 0.707120859,0.77275056 0.538393076,0.824385324 L7.06240957,7.22380023 L9.10618083,5.21846712" id="top" fill="url(#linearGradient-4)"></path>
                                                    </g>
                                                    <path d="M49.7806323,15.4537986 L48.973576,15.9005675 L48.1911569,15.9005675 C48.4804578,16.1338395 49.0840703,16.6289473 49.0840703,17.5678943 C49.0840703,18.4830381 48.5581025,18.9144264 48.0276552,19.3227439 C47.8649001,19.4835074 47.6745214,19.6578206 47.6745214,19.9273467 C47.6745214,20.2009011 47.8649001,20.3492137 48.0018981,20.4598073 L48.4569405,20.8044053 C49.0101586,21.2625265 49.5144754,21.6825625 49.5144754,22.5358178 C49.5144754,23.6981493 48.3677238,24.8703683 46.2007663,24.8703683 C44.3753706,24.8703683 43.4929094,24.0174792 43.4929094,23.1030678 C43.4929094,22.6581299 43.7187508,22.0278928 44.4638407,21.5961383 C45.2447666,21.1277634 46.3026749,21.0651425 46.8693315,21.0285221 C46.6923913,20.8044053 46.4904406,20.5696685 46.4904406,20.1866191 C46.4904406,19.9771504 46.5546467,19.8522749 46.6166131,19.7050609 C46.4788685,19.717878 46.3400041,19.7310614 46.2138315,19.7310614 C44.877821,19.7310614 44.1226522,18.7532967 44.1226522,17.7898139 C44.1226522,17.2214653 44.3869427,16.590862 44.9297086,16.1338395 C45.6479215,15.5537723 46.5042523,15.4537986 47.1847629,15.4537986 L49.7806323,15.4537986 Z M47.1162016,21.3739746 L47.0085692,21.3734863 C46.894342,21.3734863 46.2138315,21.3976558 45.6867438,21.5712365 C45.4078951,21.6712101 44.6019586,21.9667368 44.6019586,22.8445278 C44.6019586,23.7204877 45.4721012,24.3521896 46.8181905,24.3521896 C48.0276552,24.3521896 48.6697167,23.7834748 48.6697167,23.0177423 C48.6697167,22.3875052 48.2542432,22.0549919 47.2986168,21.3866696 C47.2296823,21.3778807 47.1791635,21.3749511 47.1162016,21.3739746 Z M74.899421,15.41315 L77.0525667,20.4792161 L79.1848081,15.41315 L79.9056341,15.41315 L76.84427,22.486014 C76.5265989,23.21476 76.0267615,23.5652172 75.3402783,23.5652172 C75.1342214,23.5652172 74.8624652,23.5293292 74.703443,23.4813565 L74.8128174,22.9045852 C74.9490688,22.9642765 75.1816294,23.0008969 75.3290796,23.0008969 C75.718796,23.0008969 75.9901789,22.8445278 76.2339383,22.2922921 L76.6986863,21.2592306 L74.1886739,15.41315 L74.899421,15.41315 Z M63.5114156,15.2684994 C65.0915587,15.2684994 66.1558129,16.4443804 66.1558129,18.3057954 C66.1558129,20.1547594 65.0915587,21.3551761 63.5114156,21.3551761 C62.679722,21.3551761 61.934632,20.9344077 61.4568189,20.2748743 L61.4568189,23.4223977 L60.8196102,23.4223977 L60.8196102,15.41315 L61.4568189,15.41315 L61.4568189,16.3253641 C61.8719191,15.7357757 62.6304475,15.2684994 63.5114156,15.2684994 Z M26.4379648,12.83544 C27.0751735,12.83544 27.6881183,12.9273572 28.2465624,13.0767685 C29.1316367,13.3206603 29.545617,13.6213138 29.8043081,13.7974579 L28.8232979,14.7115031 L28.4096908,14.8023217 L28.7045912,14.3412709 C28.3051692,13.9585877 27.5709047,13.2521802 26.1774073,13.2521802 C24.3143092,13.2521802 22.9088665,14.6415582 22.9088665,16.6699621 C22.9088665,18.8485097 24.5136469,20.8977873 27.0874921,20.8977873 C27.8437808,20.8977873 28.2331239,20.7487423 28.586631,20.6095847 L28.586631,18.7419443 L26.8034173,18.8360588 L27.7485915,18.3380213 L30.2511381,18.3380213 L29.945039,18.6269563 C29.8625416,18.6958026 29.8513428,18.7192397 29.8281987,18.8115231 C29.8158801,18.9169899 29.8043081,19.2524327 29.8043081,19.3703504 L29.8043081,20.7827992 L28.1155371,21.1621866 C27.4312937,21.2680195 26.8168558,21.3610354 26.1662086,21.3610354 C22.9088665,21.3610354 21.6676721,19.0089071 21.6676721,17.1679996 C21.6676721,14.9198732 23.4262486,12.83544 26.4379648,12.83544 Z M71.2064477,15.265936 C71.9011433,15.265936 72.4633203,15.4299954 72.8870062,15.7573817 C73.3103189,16.0814723 73.5227218,16.5498472 73.5227218,17.1621403 L73.5227218,20.0221935 C73.5227218,20.227634 73.5328006,20.4261165 73.558931,20.6194723 C73.585808,20.8131942 73.6287366,21.0065499 73.6858502,21.1936801 L72.9515857,21.1936801 C72.9090305,20.9926341 72.8769274,20.8153914 72.85341,20.667445 C72.8339988,20.5198648 72.8228001,20.3689887 72.8228001,20.2155492 C72.6044245,20.5301185 72.2949658,20.7919543 71.8996501,20.9981272 C71.503961,21.2057649 71.1280564,21.3075696 70.6125408,21.3075696 C69.991757,21.3075696 69.5098376,21.1577921 69.166036,20.8538428 C68.8233544,20.5502597 68.6508937,20.1390126 68.6508937,19.6186367 C68.6508937,19.0989932 68.9006257,18.6771262 69.3985967,18.3545005 C69.8965676,18.03041 70.5401222,17.8692802 71.3367264,17.8692802 L72.8228001,17.8692802 L72.8228001,17.1489569 C72.8228001,16.7340478 72.6787096,16.40776 72.3909018,16.1711923 C72.1019741,15.9342583 71.6965795,15.8145096 71.170985,15.8145096 C70.6905587,15.8145096 70.3008424,15.9240046 70.0040756,16.1371353 C69.7099218,16.3546605 69.5617251,16.6241866 69.5617251,16.9490096 L68.9095847,16.9490096 L68.8961462,16.9178822 C68.8726289,16.4799022 69.0768194,16.0957542 69.5109574,15.7639734 C69.9432291,15.4325588 70.5095123,15.265936 71.2064477,15.265936 Z M55.5102844,15.2941337 C55.9634603,15.2941337 56.4289549,15.4054597 56.8074725,15.6401965 C57.4368421,16.0485139 57.5995972,16.5791435 57.6899338,16.8633178 L54.7286119,18.0370016 L53.7588004,18.1109749 C54.0727386,19.68199 55.1560307,20.595669 56.3531767,20.595669 C56.9511898,20.595669 57.3950334,20.4041443 57.8022945,20.2067603 C57.8022945,20.2067603 57.8840454,20.1650131 57.8258119,20.2221409 L57.2233193,20.7798696 C57.0840816,20.8549414 56.9455904,20.942098 56.8074725,21.0039865 C56.3890127,21.1903843 55.9634603,21.2372584 55.585316,21.2372584 C55.1829077,21.2372584 54.552045,21.2116241 53.9084903,20.7549677 C53.0144571,20.1371816 52.6236208,19.07519 52.6236208,18.1497925 C52.6236208,16.2338131 54.2134695,15.2941337 55.5102844,15.2941337 Z M33.8672134,15.2941337 C35.7179929,15.2941337 36.8766899,16.71647 36.8766899,18.2098499 C36.8766899,19.6684405 35.7318047,21.2116241 33.677208,21.2116241 C31.6744988,21.2116241 30.6050185,19.68199 30.6050185,18.2970065 C30.6050185,16.678751 31.9522277,15.2941337 33.8672134,15.2941337 Z M40.5700365,15.2941337 C42.4219359,15.2941337 43.5817528,16.71647 43.5817528,18.2098499 C43.5817528,19.6684405 42.4353744,21.2116241 40.381151,21.2116241 C38.3788151,21.2116241 37.3074683,19.68199 37.3074683,18.2970065 C37.3074683,16.678751 38.6543043,15.2941337 40.5700365,15.2941337 Z M67.6627909,13.201644 L67.6627909,21.2108917 L67.0259556,21.2108917 L67.0259556,13.201644 L67.6627909,13.201644 Z M52.1943355,12.3282475 C51.8038725,12.5501671 51.6870323,12.6852964 51.6370112,13.1177833 L51.6340249,20.1265617 C51.6340249,20.6066551 51.7213751,20.6813607 52.1353554,20.7190797 C52.351118,20.7439816 52.5661339,20.7549677 52.7789101,20.7798696 L52.3130422,21.0519592 L50.0930774,21.0519592 C50.3842448,20.6813607 50.4342658,20.6443741 50.4342658,20.3975526 L50.4342658,20.121801 L50.429413,12.774284 L49.4491494,12.774284 L50.3928305,12.3282475 L52.1943355,12.3282475 Z M33.5398367,15.6775493 C33.12287,15.6775493 32.7088897,15.836848 32.4065235,16.0968529 C31.9137787,16.5293398 31.8264284,17.0727865 31.8264284,17.6059795 C31.8264284,18.8269037 32.444226,20.8406595 33.9683754,20.8406595 C34.4600003,20.8406595 34.9620775,20.6066551 35.2528716,20.2118872 C35.5552378,19.8163869 35.6306427,19.3227439 35.6306427,18.8415518 C35.6306427,17.7531935 35.1005687,15.6775493 33.5398367,15.6775493 Z M40.244153,15.6775493 C39.8286795,15.6775493 39.4102196,15.836848 39.1086001,16.0968529 C38.6166018,16.5293398 38.5288783,17.0727865 38.5288783,17.6059795 C38.5288783,18.8269037 39.1440628,20.8406595 40.6708252,20.8406595 C41.1635701,20.8406595 41.6663938,20.6066551 41.9564413,20.2118872 C42.2610472,19.8163869 42.334959,19.3227439 42.334959,18.8415518 C42.334959,17.7531935 41.8063781,15.6775493 40.244153,15.6775493 Z M63.4039076,15.8328198 C62.5830395,15.8328198 61.7980073,16.4656203 61.4568189,17.0174897 L61.4568189,19.5812839 C61.7980073,20.134252 62.5830395,20.7901233 63.4039076,20.7901233 C64.725733,20.7901233 65.4711962,19.7109201 65.4711962,18.3057954 C65.4711962,16.9028679 64.725733,15.8328198 63.4039076,15.8328198 Z M72.8228001,18.3654866 L71.3296339,18.3654866 C70.7592444,18.3654866 70.2870306,18.4892636 69.9156055,18.7390147 C69.5434338,18.9880334 69.3549216,19.2894193 69.3549216,19.6398766 C69.3549216,19.9705588 69.4743749,20.2349581 69.7117883,20.4352716 C69.9499483,20.6377825 70.2754585,20.7381224 70.6905587,20.7381224 C71.2318315,20.7381224 71.6208013,20.6194723 72.0183568,20.3847355 C72.4132993,20.1514635 72.6820692,19.847148 72.8228001,19.4787468 L72.8228001,18.3654866 Z M46.3900251,15.8624823 C46.063395,15.8624823 45.7095146,16.0232458 45.5086838,16.2718984 C45.2955343,16.5293398 45.2317014,16.8633178 45.2317014,17.1844787 C45.2317014,18.0120998 45.7236997,19.3846324 46.8058719,19.3846324 C47.1216766,19.3846324 47.4613719,19.2341225 47.6607096,19.0385696 C47.951877,18.7532967 47.9772608,18.3592612 47.9772608,18.1355105 C47.9772608,17.2467334 47.4371079,15.8624823 46.3900251,15.8624823 Z M55.1560307,15.7017187 C54.6528337,15.7017187 53.7080328,16.0862329 53.7080328,17.4214127 C53.7080328,17.6297828 53.7334166,17.8517024 53.7461085,18.073622 L56.0392385,17.0973222 C56.2796383,17.0116304 56.404691,16.9376572 56.404691,16.7655414 C56.404691,16.2718984 55.8354213,15.7017187 55.1560307,15.7017187 Z" id="logotype" fill="#FFFFFF"></path>
                                                    <path d="M23.7515597,4.55403338 C24.543176,4.55403338 25.0605226,4.92150174 25.3834837,5.37149322 L24.8048925,5.697515 C24.585781,5.40109792 24.2019555,5.1705513 23.7515597,5.1705513 C22.948151,5.1705513 22.35092,5.76264535 22.35092,6.59786801 C22.35092,7.42087874 22.948151,8.02518473 23.7515597,8.02518473 C24.1658174,8.02518473 24.5310032,7.84163557 24.7135961,7.6699283 L24.7135961,7.05970137 L23.4959297,7.05970137 L23.4959297,6.44947444 L25.4200023,6.44947444 L25.4200023,7.92452874 C25.0243844,8.35712745 24.4518796,8.64725353 23.7515597,8.64725353 C22.5700315,8.64725353 21.6201681,7.83608469 21.6201681,6.59786801 C21.6201681,5.35410046 22.5700315,4.55403338 23.7515597,4.55403338 Z M44.4880265,4.55403338 C45.699226,4.55403338 46.5642599,5.41886074 46.5642599,6.59786801 C46.5642599,7.77650523 45.699226,8.64133259 44.4880265,8.64133259 C43.2695993,8.64133259 42.4114126,7.77650523 42.4114126,6.59786801 C42.4114126,5.41886074 43.2695993,4.55403338 44.4880265,4.55403338 Z M29.0836527,4.61916372 L29.0836527,5.22976071 L27.0131254,5.22976071 L27.0131254,6.24816247 L29.0410477,6.24816247 L29.0410477,6.85838939 L27.0131254,6.85838939 L27.0131254,7.96005438 L29.0836527,7.96005438 L29.0836527,8.57028131 L26.3010131,8.57028131 L26.3010131,4.61916372 L29.0836527,4.61916372 Z M32.9972272,4.61916372 L32.9972272,5.22976071 L31.7673879,5.22976071 L31.7673879,8.57028131 L31.0548952,8.57028131 L31.0548952,5.22976071 L29.825056,5.22976071 L29.825056,4.61916372 L32.9972272,4.61916372 Z M36.1853752,4.61916372 L36.1853752,8.57028131 L35.4732629,8.57028131 L35.4732629,4.61916372 L36.1853752,4.61916372 Z M40.1118833,4.61916372 L40.1118833,5.22976071 L38.8820441,5.22976071 L38.8820441,8.57028131 L38.1695514,8.57028131 L38.1695514,5.22976071 L36.9397121,5.22976071 L36.9397121,4.61916372 L40.1118833,4.61916372 Z M48.1269507,4.61916372 L50.2031841,7.35611845 L50.2031841,4.61916372 L50.9156768,4.61916372 L50.9156768,8.57028131 L50.2275299,8.57028131 L48.108311,5.74488253 L48.108311,8.57028131 L47.3961987,8.57028131 L47.3961987,4.61916372 L48.1269507,4.61916372 Z M44.4880265,5.1705513 C43.6655976,5.1705513 43.1421646,5.78040817 43.1421646,6.59786801 C43.1421646,7.40903686 43.6655976,8.02518473 44.4880265,8.02518473 C45.3036081,8.02518473 45.8335079,7.40903686 45.8335079,6.59786801 C45.8335079,5.78040817 45.3036081,5.1705513 44.4880265,5.1705513 Z" id="get-it-on" fill="#FFFFFF"></path>
                                                </g>
                                            </g>
                                        </g>
                                    </g>
                                </g>
                            </g>
                        </g>
                    </g>
                </g>
            </g>
        </g>
    </g>
</svg>