<?xml version="1.0" encoding="UTF-8"?>
<svg width="30px" height="30px" viewBox="0 0 30 30" version="1.1" xmlns="http://www.w3.org/2000/svg" xmlns:xlink="http://www.w3.org/1999/xlink">
    <!-- Generator: sketchtool 57.1 (101010) - https://sketch.com -->
    <title>37C9C0A8-9E11-45AA-9F68-1BB8DEAAE49A</title>
    <desc>Created with sketchtool.</desc>
    <g id="More" stroke="none" stroke-width="1" fill="none" fill-rule="evenodd">
        <g id="More/Store-Locator/Detail-scrolled" transform="translate(-307.000000, -181.000000)">
            <g id="Group-2" transform="translate(-15.000000, 83.000000)">
                <g id="Group-7" transform="translate(35.000000, 93.000000)">
                    <g id="Group-5" transform="translate(287.000000, 5.000000)">
                        <rect id="Rectangle-7" stroke="#ED2324" stroke-width="2" fill="#FFFFFF" x="1" y="1" width="28" height="28" rx="14"></rect>
                        <path d="M18,17.12 C18.341335,17.12 18.6613318,17.2079991 18.96,17.384 C19.2586682,17.5600009 19.4959991,17.7973318 19.672,18.096 C19.8480009,18.3946682 19.936,18.714665 19.936,19.056 C19.936,19.397335 19.8480009,19.7199985 19.672,20.024 C19.4959991,20.3280015 19.2586682,20.5706658 18.96,20.752 C18.6613318,20.9333342 18.341335,21.024 18,21.024 C17.658665,21.024 17.3386682,20.9333342 17.04,20.752 C16.7413318,20.5706658 16.5040009,20.3280015 16.328,20.024 C16.1519991,19.7199985 16.064,19.397335 16.064,19.056 C16.064,18.8426656 16.0746666,18.698667 16.096,18.624 L11.376,15.872 C10.9919981,16.2240018 10.533336,16.4 10,16.4 C9.64799824,16.4 9.31733488,16.3093342 9.008,16.128 C8.69866512,15.9466658 8.45333424,15.7013349 8.272,15.392 C8.09066576,15.0826651 8,14.7520018 8,14.4 C8,14.0479982 8.09066576,13.7173349 8.272,13.408 C8.45333424,13.0986651 8.69866512,12.8533342 9.008,12.672 C9.31733488,12.4906658 9.64799824,12.4 10,12.4 C10.533336,12.4 10.9919981,12.5759982 11.376,12.928 L16.064,10.208 C16.0213331,9.9946656 16,9.84000048 16,9.744 C16,9.39199824 16.0906658,9.06133488 16.272,8.752 C16.4533342,8.44266512 16.6986651,8.19733424 17.008,8.016 C17.3173349,7.83466576 17.6479982,7.744 18,7.744 C18.3520018,7.744 18.6826651,7.83466576 18.992,8.016 C19.3013349,8.19733424 19.5466658,8.44266512 19.728,8.752 C19.9093342,9.06133488 20,9.39199824 20,9.744 C20,10.0960018 19.9093342,10.4266651 19.728,10.736 C19.5466658,11.0453349 19.3013349,11.2906658 18.992,11.472 C18.6826651,11.6533342 18.3520018,11.744 18,11.744 C17.5093309,11.744 17.0506688,11.5573352 16.624,11.184 L11.936,13.936 C11.9786669,14.128001 12,14.2773328 12,14.384 C12,14.4906672 11.9786669,14.6506656 11.936,14.864 L16.688,17.616 C17.0720019,17.2853317 17.5093309,17.12 18,17.12 Z" id="" fill="#ED2324" fill-rule="nonzero"></path>
                    </g>
                </g>
            </g>
        </g>
    </g>
</svg>