<?xml version="1.0" encoding="utf-8"?>
<!-- Generator: Adobe Illustrator 24.2.3, SVG Export Plug-In . SVG Version: 6.00 Build 0)  -->
<svg version="1.1" id="Layer_1" xmlns="http://www.w3.org/2000/svg" xmlns:xlink="http://www.w3.org/1999/xlink" x="0px" y="0px"
	 viewBox="0 0 40 40" style="enable-background:new 0 0 40 40;" xml:space="preserve">
<style type="text/css">
	.st0{fill:#ED2324;}
	.st1{fill-rule:evenodd;clip-rule:evenodd;fill:#FFFFFF;}
	.st2{filter:url(#Adobe_OpacityMaskFilter);}
	.st3{opacity:0.528;mask:url(#_x32_iw3yyckgb_1_);fill:#E4E4E4;enable-background:new    ;}
</style>
<g transform="translate(26 26)">
	<circle class="st0" cx="-6" cy="-6" r="20"/>
	<g>
		<path class="st0" d="M-18.6-13.4L2-18.1L3.2-13l-20.6,4.8L-18.6-13.4z"/>
		<g transform="rotate(-13 55.996 -14.72)">
			<g>
				<path id="s285zikeqa_1_" class="st1" d="M0.8-30.3h3c1.1,0,2,0.9,2,2l0,16.3c0,0.7-0.2,1.3-0.7,1.8C4.6-9.6,4-9.4,3.3-9.4
					l-20.3,0c-0.7,0-1.3-0.3-1.8-0.8c-0.5-0.5-0.7-1.1-0.7-1.8v-15.6c0-0.7,0.2-1.3,0.7-1.8c0.5-0.5,1.1-0.8,1.8-0.8h1.3l1.9,3
					c0.4,0.6,1,0.9,1.7,0.9h0.8c0.6,0,1-0.5,1-1c0-0.2-0.1-0.4-0.2-0.6l-0.8-1.3c-0.2-0.3-0.1-0.7,0.2-0.9c0.1-0.1,0.2-0.1,0.4-0.1
					h0.2c0.7,0,1.3,0.3,1.7,0.9l1.4,2.1c0.4,0.6,1,0.9,1.7,0.9h0.8c0.6,0,1-0.5,1-1c0-0.2-0.1-0.4-0.2-0.6l-0.8-1.3
					c-0.2-0.3-0.1-0.7,0.2-1c0.1-0.1,0.2-0.1,0.4-0.1h0.2c0.7,0,1.3,0.3,1.7,0.9l1.4,2.1c0.4,0.6,1,0.9,1.7,0.9h0.8c0.6,0,1-0.5,1-1
					c0-0.2-0.1-0.4-0.2-0.6L0.8-30.3z M-3.7-18.3l-4.6,2.6c-0.5,0.3-1.1,0.1-1.4-0.4c-0.1-0.2-0.1-0.3-0.1-0.5l0-5.5
					c0-0.6,0.4-1,1-1c0.2,0,0.4,0.1,0.5,0.2l4.6,2.8c0.5,0.3,0.6,0.9,0.3,1.4C-3.4-18.5-3.5-18.4-3.7-18.3L-3.7-18.3z"/>
			</g>
			<defs>
				<filter id="Adobe_OpacityMaskFilter" filterUnits="userSpaceOnUse" x="-27.7" y="-31.9" width="24" height="15">
					<feColorMatrix  type="matrix" values="1 0 0 0 0  0 1 0 0 0  0 0 1 0 0  0 0 0 1 0"/>
				</filter>
			</defs>
			<mask maskUnits="userSpaceOnUse" x="-27.7" y="-31.9" width="24" height="15" id="_x32_iw3yyckgb_1_">
				<g class="st2">
					<path id="s285zikeqa_2_" class="st1" d="M0.8-30.3h3c1.1,0,2,0.9,2,2l0,16.3c0,0.7-0.2,1.3-0.7,1.8C4.6-9.6,4-9.4,3.3-9.4
						l-20.3,0c-0.7,0-1.3-0.3-1.8-0.8c-0.5-0.5-0.7-1.1-0.7-1.8v-15.6c0-0.7,0.2-1.3,0.7-1.8c0.5-0.5,1.1-0.8,1.8-0.8h1.3l1.9,3
						c0.4,0.6,1,0.9,1.7,0.9h0.8c0.6,0,1-0.5,1-1c0-0.2-0.1-0.4-0.2-0.6l-0.8-1.3c-0.2-0.3-0.1-0.7,0.2-0.9c0.1-0.1,0.2-0.1,0.4-0.1
						h0.2c0.7,0,1.3,0.3,1.7,0.9l1.4,2.1c0.4,0.6,1,0.9,1.7,0.9h0.8c0.6,0,1-0.5,1-1c0-0.2-0.1-0.4-0.2-0.6l-0.8-1.3
						c-0.2-0.3-0.1-0.7,0.2-1c0.1-0.1,0.2-0.1,0.4-0.1h0.2c0.7,0,1.3,0.3,1.7,0.9l1.4,2.1c0.4,0.6,1,0.9,1.7,0.9h0.8
						c0.6,0,1-0.5,1-1c0-0.2-0.1-0.4-0.2-0.6L0.8-30.3z M-3.7-18.3l-4.6,2.6c-0.5,0.3-1.1,0.1-1.4-0.4c-0.1-0.2-0.1-0.3-0.1-0.5
						l0-5.5c0-0.6,0.4-1,1-1c0.2,0,0.4,0.1,0.5,0.2l4.6,2.8c0.5,0.3,0.6,0.9,0.3,1.4C-3.4-18.5-3.5-18.4-3.7-18.3L-3.7-18.3z"/>
				</g>
			</mask>
			<circle class="st3" cx="-15.7" cy="-24.4" r="10"/>
		</g>
	</g>
</g>
</svg>
