<svg xmlns="http://www.w3.org/2000/svg" width="10" height="10" viewBox="0 0 10 10">
    <path fill="#211E20" d="M9.008 9.3c.136 0 .252-.048.348-.144.096-.096.144-.212.144-.348V7.044c0-.136-.048-.252-.144-.348-.096-.096-.212-.144-.348-.144-.656 0-1.248-.092-1.776-.276-.088-.04-.18-.048-.276-.024-.096.024-.176.072-.24.144L5.612 7.5c-.704-.368-1.34-.836-1.908-1.404-.568-.568-1.036-1.204-1.404-1.908l1.104-1.104c.072-.064.116-.144.132-.24s.012-.188-.012-.276c-.184-.528-.276-1.12-.276-1.776 0-.136-.048-.252-.144-.348C3.008.348 2.892.3 2.756.3H.992C.856.3.74.348.644.444.548.54.5.656.5.792c0 1.152.224 2.256.672 3.312.432 1.016 1.04 1.916 1.824 2.7.784.784 1.684 1.392 2.7 1.824 1.056.448 2.16.672 3.312.672z"/>
</svg>
