<svg xmlns="http://www.w3.org/2000/svg" xmlns:xlink="http://www.w3.org/1999/xlink" width="56" height="55" viewBox="0 0 56 55">
    <defs>
        <path id="lpn5cs1qta" d="M6.26.145h11.123c1.547 0 2.8 1.253 2.8 2.8v22.4c0 1.546-1.253 2.8-2.8 2.8H2.8c-1.546 0-2.8-1.254-2.8-2.8V6.788L6.26.145z"/>
    </defs>
    <g fill="none" fill-rule="evenodd" transform="translate(.744)">
        <rect width="55" height="55" fill="#F4F4F4" rx="8"/>
        <g>
            <g transform="translate(14 14) translate(2.8 -.7)">
                <g transform="matrix(-1 0 0 1 22.983 .555)">
                    <mask id="fxib9ugy4b" fill="#fff">
                        <use xlink:href="#lpn5cs1qta"/>
                    </mask>
                    <use fill="#211E20" fill-rule="nonzero" xlink:href="#lpn5cs1qta"/>
                    <path fill="#FFF" d="M-.206 0H6.47v5.319c0 .795-.645 1.44-1.44 1.44H-.206V0z" mask="url(#fxib9ugy4b)" opacity=".492"/>
                </g>
                <rect width="21" height="11.2" y="9.8" fill="#898989" rx="1.2"/>
                <path fill="#FFF" fill-rule="nonzero" d="M3.931 18.2c.168 0 .277-.11.277-.286v-1.512H5.3c1.193 0 2.05-.806 2.05-2.083 0-1.159-.857-1.999-2.05-1.999H3.528c-.37 0-.672.302-.672.672v4.922c0 .177.11.286.286.286h.79zm1.277-3.007h-1v-1.638h1c.454 0 .815.361.815.815 0 .453-.361.823-.815.823zm5.099 3.007c1.881 0 3.074-1.319 3.074-2.94 0-1.646-1.184-2.948-3.074-2.948H8.904v.008c-.37 0-.672.218-.672.664v4.704c0 .319.21.512.613.512h1.462zm.059-1.235h-.79v-3.427h.74c1.032 0 1.67.756 1.67 1.688 0 .908-.57 1.74-1.62 1.74zm5.098 1.235c.168 0 .278-.11.278-.286v-1.856h1.806c.37 0 .672-.26.672-.63s-.303-.63-.672-.63h-1.806v-1.134h2.184c.37 0 .672-.26.672-.63s-.303-.63-.672-.63h-2.873c-.361 0-.664.218-.664.655v4.855c0 .177.11.286.286.286h.79z"/>
            </g>
        </g>
    </g>
</svg>
