<?xml version="1.0" encoding="utf-8"?>
<!-- Generator: Adobe Illustrator 24.2.3, SVG Export Plug-In . SVG Version: 6.00 Build 0)  -->
<svg version="1.1" id="Layer_1" xmlns="http://www.w3.org/2000/svg" xmlns:xlink="http://www.w3.org/1999/xlink" x="0px" y="0px"
	 viewBox="0 0 40 40" style="enable-background:new 0 0 40 40;" xml:space="preserve">
<style type="text/css">
	.st0{fill:#ED2324;}
	.st1{fill-rule:evenodd;clip-rule:evenodd;fill:#FFFFFF;}
	.st2{filter:url(#Adobe_OpacityMaskFilter);}
	.st3{opacity:0.528;mask:url(#kckyveu5ab_1_);fill:#E4E4E4;enable-background:new    ;}
	.st4{filter:url(#Adobe_OpacityMaskFilter_1_);}
	.st5{mask:url(#kckyveu5ab_2_);}
	.st6{fill-rule:evenodd;clip-rule:evenodd;fill:#ED2324;}
	.st7{filter:url(#Adobe_OpacityMaskFilter_2_);}
	.st8{mask:url(#_x30_nkmlchk2d_1_);fill-rule:evenodd;clip-rule:evenodd;fill:#EDEDED;}
	.st9{filter:url(#Adobe_OpacityMaskFilter_3_);}
	.st10{mask:url(#_x30_nkmlchk2d_2_);fill-rule:evenodd;clip-rule:evenodd;fill:#FFFFFF;}
	.st11{filter:url(#Adobe_OpacityMaskFilter_4_);}
	.st12{mask:url(#_x30_nkmlchk2d_3_);fill-rule:evenodd;clip-rule:evenodd;fill:#F0F0F0;}
	.st13{filter:url(#Adobe_OpacityMaskFilter_5_);}
	.st14{mask:url(#_x30_nkmlchk2d_4_);fill-rule:evenodd;clip-rule:evenodd;fill:#FFFFFF;}
	.st15{filter:url(#Adobe_OpacityMaskFilter_6_);}
	.st16{mask:url(#_x30_nkmlchk2d_5_);fill-rule:evenodd;clip-rule:evenodd;fill:#FFFFFF;}
	.st17{filter:url(#Adobe_OpacityMaskFilter_7_);}
	.st18{mask:url(#kckyveu5ab_3_);fill-rule:evenodd;clip-rule:evenodd;fill:#ED2324;}
	.st19{filter:url(#Adobe_OpacityMaskFilter_8_);}
	.st20{mask:url(#kckyveu5ab_4_);fill-rule:evenodd;clip-rule:evenodd;fill:#ED2324;}
	.st21{filter:url(#Adobe_OpacityMaskFilter_9_);}
	.st22{mask:url(#kckyveu5ab_5_);fill-rule:evenodd;clip-rule:evenodd;fill:#ED2324;}
	.st23{filter:url(#Adobe_OpacityMaskFilter_10_);}
	.st24{mask:url(#kckyveu5ab_6_);fill-rule:evenodd;clip-rule:evenodd;fill:#ED2324;}
</style>
<g transform="translate(26 26)">
	<circle class="st0" cx="-6" cy="-6" r="20"/>
	<g transform="translate(5 11)">
		<g>
			<path id="r91axhc9wa_1_" class="st1" d="M-17.1-25.7c3.5,1.2,7.4,1.2,10.9,0c2.7-0.9,5.5,0.5,6.4,3.2c0.1,0.2,0.1,0.4,0.2,0.6
				l2.3,10.8c0.3,1.3-0.6,2.6-1.9,2.8c-0.7,0.1-1.4,0-2-0.5l-4.4-3.6c-3.5-2.9-8.6-2.9-12.1,0l-4.4,3.6c-1,0.8-2.5,0.7-3.4-0.4
				c-0.5-0.6-0.6-1.3-0.5-2l2.3-10.8c0.6-2.7,3.3-4.5,6-3.9C-17.5-25.8-17.3-25.8-17.1-25.7L-17.1-25.7z"/>
		</g>
		<defs>
			<filter id="Adobe_OpacityMaskFilter" filterUnits="userSpaceOnUse" x="-20" y="-34" width="17" height="17">
				<feColorMatrix  type="matrix" values="1 0 0 0 0  0 1 0 0 0  0 0 1 0 0  0 0 0 1 0"/>
			</filter>
		</defs>
		<mask maskUnits="userSpaceOnUse" x="-20" y="-34" width="17" height="17" id="kckyveu5ab_1_">
			<g class="st2">
				<path id="r91axhc9wa_2_" class="st1" d="M-17.1-25.7c3.5,1.2,7.4,1.2,10.9,0c2.7-0.9,5.5,0.5,6.4,3.2c0.1,0.2,0.1,0.4,0.2,0.6
					l2.3,10.8c0.3,1.3-0.6,2.6-1.9,2.8c-0.7,0.1-1.4,0-2-0.5l-4.4-3.6c-3.5-2.9-8.6-2.9-12.1,0l-4.4,3.6c-1,0.8-2.5,0.7-3.4-0.4
					c-0.5-0.6-0.6-1.3-0.5-2l2.3-10.8c0.6-2.7,3.3-4.5,6-3.9C-17.5-25.8-17.3-25.8-17.1-25.7L-17.1-25.7z"/>
			</g>
		</mask>
		<circle class="st3" cx="-11.5" cy="-25.5" r="8.5"/>
		<defs>
			<filter id="Adobe_OpacityMaskFilter_1_" filterUnits="userSpaceOnUse" x="-23.1" y="-24.6" width="9.6" height="9.6">
				<feColorMatrix  type="matrix" values="1 0 0 0 0  0 1 0 0 0  0 0 1 0 0  0 0 0 1 0"/>
			</filter>
		</defs>
		<mask maskUnits="userSpaceOnUse" x="-23.1" y="-24.6" width="9.6" height="9.6" id="kckyveu5ab_2_">
			<g class="st4">
				<path id="r91axhc9wa_3_" class="st1" d="M-17.1-25.7c3.5,1.2,7.4,1.2,10.9,0c2.7-0.9,5.5,0.5,6.4,3.2c0.1,0.2,0.1,0.4,0.2,0.6
					l2.3,10.8c0.3,1.3-0.6,2.6-1.9,2.8c-0.7,0.1-1.4,0-2-0.5l-4.4-3.6c-3.5-2.9-8.6-2.9-12.1,0l-4.4,3.6c-1,0.8-2.5,0.7-3.4-0.4
					c-0.5-0.6-0.6-1.3-0.5-2l2.3-10.8c0.6-2.7,3.3-4.5,6-3.9C-17.5-25.8-17.3-25.8-17.1-25.7L-17.1-25.7z"/>
			</g>
		</mask>
		<g class="st5">
			<g transform="translate(4.076 2.621)">
				<g>
					<circle id="_x38_47q7xk9wc_1_" class="st6" cx="-22.4" cy="-22.4" r="3.6"/>
				</g>
				<defs>
					<filter id="Adobe_OpacityMaskFilter_2_" filterUnits="userSpaceOnUse" x="-23.6" y="-23.6" width="2.4" height="2.4">
						<feColorMatrix  type="matrix" values="1 0 0 0 0  0 1 0 0 0  0 0 1 0 0  0 0 0 1 0"/>
					</filter>
				</defs>
				<mask maskUnits="userSpaceOnUse" x="-23.6" y="-23.6" width="2.4" height="2.4" id="_x30_nkmlchk2d_1_">
					<g class="st7">
						<circle id="_x38_47q7xk9wc_2_" class="st1" cx="-22.4" cy="-22.4" r="3.6"/>
					</g>
				</mask>
				<circle class="st8" cx="-22.4" cy="-22.4" r="1.2"/>
				<defs>
					<filter id="Adobe_OpacityMaskFilter_3_" filterUnits="userSpaceOnUse" x="-27.2" y="-27.2" width="3.6" height="3.6">
						<feColorMatrix  type="matrix" values="1 0 0 0 0  0 1 0 0 0  0 0 1 0 0  0 0 0 1 0"/>
					</filter>
				</defs>
				<mask maskUnits="userSpaceOnUse" x="-27.2" y="-27.2" width="3.6" height="3.6" id="_x30_nkmlchk2d_2_">
					<g class="st9">
						<circle id="_x38_47q7xk9wc_3_" class="st1" cx="-22.4" cy="-22.4" r="3.6"/>
					</g>
				</mask>
				<circle class="st10" cx="-25.4" cy="-25.4" r="1.8"/>
				<defs>
					<filter id="Adobe_OpacityMaskFilter_4_" filterUnits="userSpaceOnUse" x="-21.2" y="-27.2" width="3.6" height="3.6">
						<feColorMatrix  type="matrix" values="1 0 0 0 0  0 1 0 0 0  0 0 1 0 0  0 0 0 1 0"/>
					</filter>
				</defs>
				<mask maskUnits="userSpaceOnUse" x="-21.2" y="-27.2" width="3.6" height="3.6" id="_x30_nkmlchk2d_3_">
					<g class="st11">
						<circle id="_x38_47q7xk9wc_4_" class="st1" cx="-22.4" cy="-22.4" r="3.6"/>
					</g>
				</mask>
				<circle class="st12" cx="-19.4" cy="-25.4" r="1.8"/>
				<defs>
					<filter id="Adobe_OpacityMaskFilter_5_" filterUnits="userSpaceOnUse" x="-21.2" y="-21.2" width="3.6" height="3.6">
						<feColorMatrix  type="matrix" values="1 0 0 0 0  0 1 0 0 0  0 0 1 0 0  0 0 0 1 0"/>
					</filter>
				</defs>
				<mask maskUnits="userSpaceOnUse" x="-21.2" y="-21.2" width="3.6" height="3.6" id="_x30_nkmlchk2d_4_">
					<g class="st13">
						<circle id="_x38_47q7xk9wc_5_" class="st1" cx="-22.4" cy="-22.4" r="3.6"/>
					</g>
				</mask>
				<circle class="st14" cx="-19.4" cy="-19.4" r="1.8"/>
				<defs>
					<filter id="Adobe_OpacityMaskFilter_6_" filterUnits="userSpaceOnUse" x="-27.2" y="-21.2" width="3.6" height="3.6">
						<feColorMatrix  type="matrix" values="1 0 0 0 0  0 1 0 0 0  0 0 1 0 0  0 0 0 1 0"/>
					</filter>
				</defs>
				<mask maskUnits="userSpaceOnUse" x="-27.2" y="-21.2" width="3.6" height="3.6" id="_x30_nkmlchk2d_5_">
					<g class="st15">
						<circle id="_x38_47q7xk9wc_6_" class="st1" cx="-22.4" cy="-22.4" r="3.6"/>
					</g>
				</mask>
				<circle class="st16" cx="-25.4" cy="-19.4" r="1.8"/>
			</g>
		</g>
		<defs>
			<filter id="Adobe_OpacityMaskFilter_7_" filterUnits="userSpaceOnUse" x="-5.1" y="-23.4" width="2.4" height="2.4">
				<feColorMatrix  type="matrix" values="1 0 0 0 0  0 1 0 0 0  0 0 1 0 0  0 0 0 1 0"/>
			</filter>
		</defs>
		<mask maskUnits="userSpaceOnUse" x="-5.1" y="-23.4" width="2.4" height="2.4" id="kckyveu5ab_3_">
			<g class="st17">
				<path id="r91axhc9wa_4_" class="st1" d="M-17.1-25.7c3.5,1.2,7.4,1.2,10.9,0c2.7-0.9,5.5,0.5,6.4,3.2c0.1,0.2,0.1,0.4,0.2,0.6
					l2.3,10.8c0.3,1.3-0.6,2.6-1.9,2.8c-0.7,0.1-1.4,0-2-0.5l-4.4-3.6c-3.5-2.9-8.6-2.9-12.1,0l-4.4,3.6c-1,0.8-2.5,0.7-3.4-0.4
					c-0.5-0.6-0.6-1.3-0.5-2l2.3-10.8c0.6-2.7,3.3-4.5,6-3.9C-17.5-25.8-17.3-25.8-17.1-25.7L-17.1-25.7z"/>
			</g>
		</mask>
		<circle class="st18" cx="-3.9" cy="-22.2" r="1.2"/>
		<defs>
			<filter id="Adobe_OpacityMaskFilter_8_" filterUnits="userSpaceOnUse" x="-5.1" y="-18.6" width="2.4" height="2.4">
				<feColorMatrix  type="matrix" values="1 0 0 0 0  0 1 0 0 0  0 0 1 0 0  0 0 0 1 0"/>
			</filter>
		</defs>
		<mask maskUnits="userSpaceOnUse" x="-5.1" y="-18.6" width="2.4" height="2.4" id="kckyveu5ab_4_">
			<g class="st19">
				<path id="r91axhc9wa_5_" class="st1" d="M-17.1-25.7c3.5,1.2,7.4,1.2,10.9,0c2.7-0.9,5.5,0.5,6.4,3.2c0.1,0.2,0.1,0.4,0.2,0.6
					l2.3,10.8c0.3,1.3-0.6,2.6-1.9,2.8c-0.7,0.1-1.4,0-2-0.5l-4.4-3.6c-3.5-2.9-8.6-2.9-12.1,0l-4.4,3.6c-1,0.8-2.5,0.7-3.4-0.4
					c-0.5-0.6-0.6-1.3-0.5-2l2.3-10.8c0.6-2.7,3.3-4.5,6-3.9C-17.5-25.8-17.3-25.8-17.1-25.7L-17.1-25.7z"/>
			</g>
		</mask>
		<circle class="st20" cx="-3.9" cy="-17.4" r="1.2"/>
		<defs>
			<filter id="Adobe_OpacityMaskFilter_9_" filterUnits="userSpaceOnUse" x="-7.5" y="-21" width="2.4" height="2.4">
				<feColorMatrix  type="matrix" values="1 0 0 0 0  0 1 0 0 0  0 0 1 0 0  0 0 0 1 0"/>
			</filter>
		</defs>
		<mask maskUnits="userSpaceOnUse" x="-7.5" y="-21" width="2.4" height="2.4" id="kckyveu5ab_5_">
			<g class="st21">
				<path id="r91axhc9wa_6_" class="st1" d="M-17.1-25.7c3.5,1.2,7.4,1.2,10.9,0c2.7-0.9,5.5,0.5,6.4,3.2c0.1,0.2,0.1,0.4,0.2,0.6
					l2.3,10.8c0.3,1.3-0.6,2.6-1.9,2.8c-0.7,0.1-1.4,0-2-0.5l-4.4-3.6c-3.5-2.9-8.6-2.9-12.1,0l-4.4,3.6c-1,0.8-2.5,0.7-3.4-0.4
					c-0.5-0.6-0.6-1.3-0.5-2l2.3-10.8c0.6-2.7,3.3-4.5,6-3.9C-17.5-25.8-17.3-25.8-17.1-25.7L-17.1-25.7z"/>
			</g>
		</mask>
		<circle class="st22" cx="-6.3" cy="-19.8" r="1.2"/>
		<defs>
			<filter id="Adobe_OpacityMaskFilter_10_" filterUnits="userSpaceOnUse" x="-2.7" y="-21" width="2.4" height="2.4">
				<feColorMatrix  type="matrix" values="1 0 0 0 0  0 1 0 0 0  0 0 1 0 0  0 0 0 1 0"/>
			</filter>
		</defs>
		<mask maskUnits="userSpaceOnUse" x="-2.7" y="-21" width="2.4" height="2.4" id="kckyveu5ab_6_">
			<g class="st23">
				<path id="r91axhc9wa_7_" class="st1" d="M-17.1-25.7c3.5,1.2,7.4,1.2,10.9,0c2.7-0.9,5.5,0.5,6.4,3.2c0.1,0.2,0.1,0.4,0.2,0.6
					l2.3,10.8c0.3,1.3-0.6,2.6-1.9,2.8c-0.7,0.1-1.4,0-2-0.5l-4.4-3.6c-3.5-2.9-8.6-2.9-12.1,0l-4.4,3.6c-1,0.8-2.5,0.7-3.4-0.4
					c-0.5-0.6-0.6-1.3-0.5-2l2.3-10.8c0.6-2.7,3.3-4.5,6-3.9C-17.5-25.8-17.3-25.8-17.1-25.7L-17.1-25.7z"/>
			</g>
		</mask>
		<circle class="st24" cx="-1.5" cy="-19.8" r="1.2"/>
	</g>
</g>
</svg>
