<svg xmlns="http://www.w3.org/2000/svg" width="110" height="110" viewBox="0 0 110 110">
    <g fill="none" fill-rule="evenodd">
        <circle cx="55" cy="55" r="55" fill="#ED2324" fill-rule="nonzero"/>
        <g>
            <g transform="translate(33 33) translate(22)">
                <path fill="#E0E0E0" fill-rule="nonzero" d="M2.292 19.007c1.444-1.887 3.685-2.993 6.061-2.993H20c1.105 0 2-.896 2-2V2c0-1.105-.895-2-2-2H2C.895 0 0 .895 0 2v16.23c0 .706.572 1.278 1.277 1.278.398 0 .773-.186 1.015-.501z"/>
                <rect width="13.75" height="2.75" x="4.125" y="4.125" fill="#ED2324" rx=".5"/>
                <rect width="8.25" height="2.75" x="4.125" y="8.25" fill="#ED2324" rx=".5"/>
            </g>
            <path fill="#FFF" fill-rule="nonzero" d="M41.595 44c.665 0 1.232-.235 1.701-.704.47-.47.704-1.036.704-1.701V32.97c0-.665-.235-1.232-.704-1.702-.47-.469-1.036-.704-1.701-.704-3.207 0-6.102-.45-8.683-1.349-.43-.117-.88-.137-1.35-.059-.469.079-.86.294-1.173.646l-3.98 3.98c-.834.834-2.137.972-3.127.331-3.479-2.252-6.018-4.178-7.618-5.778-1.6-1.6-3.526-4.14-5.778-7.618-.64-.99-.503-2.293.33-3.127l3.981-3.98c.352-.313.567-.704.646-1.174.078-.469.058-.919-.059-1.349-.9-2.581-1.35-5.476-1.35-8.683 0-.665-.234-1.232-.703-1.701C12.26.234 11.694 0 11.029 0H2.405C1.74 0 1.173.235.704.704.234 1.174 0 1.74 0 2.405c0 5.632 1.095 11.03 3.285 16.192 2.112 4.967 5.085 9.367 8.918 13.2 3.833 3.833 8.233 6.806 13.2 8.918C30.565 42.905 35.963 44 41.595 44z" transform="translate(33 33)"/>
        </g>
    </g>
</svg>
