<svg xmlns="http://www.w3.org/2000/svg" width="40" height="32" viewBox="0 0 40 32">
    <g fill="none">
        <path fill="#D51A21" d="M2.37 0h31.048c1.964 0 3.555 1.592 3.555 3.555v20.557c0 1.963-1.591 3.555-3.555 3.555H3.555C1.592 27.667 0 26.075 0 24.112V2.37C0 1.06 1.061 0 2.37 0z"/>
        <path fill="#ED2324" d="M29.102 5.373H3.18c-1.504 0-2.897-1.007-3.138-2.46C.014 2.743 0 2.577 0 2.414v26.627C0 30.676 1.351 32 3.018 32h26.084c1.667 0 3.018-1.324 3.018-2.958V8.331c0-1.633-1.351-2.958-3.018-2.958z"/>
        <g>
            <path fill="#B71016" d="M13.953 0c1.006 0 1.82 1.045 1.82 2.333 0 1.288-.815 2.334-1.82 2.334h-.606V0h.606z" transform="translate(23.627 9.167)"/>
            <path fill="#FFD600" d="M15.773 2.333v6.682c0 .82-.685 1.485-1.531 1.485H1.532C.684 10.5 0 9.836 0 9.015v-2.97c0-.82.685-1.484 1.531-1.484h11.945c1.268 0 2.297-.998 2.297-2.228z" transform="translate(23.627 9.167)"/>
            <path fill="#ED1C24" d="M1.82 7c-.335 0-.607.261-.607.583 0 .322.272.584.607.584.335 0 .607-.262.607-.584 0-.322-.272-.583-.607-.583z" transform="translate(23.627 9.167)"/>
            <path fill="#ED2324" d="M8.971 7H5.59c-.406 0-.736.261-.736.583 0 .323.33.584.736.584H8.97c.406 0 .736-.261.736-.584 0-.322-.33-.583-.736-.583z" transform="translate(23.627 9.167)"/>
        </g>
    </g>
</svg>
