<svg xmlns="http://www.w3.org/2000/svg" xmlns:xlink="http://www.w3.org/1999/xlink" width="110" height="110" viewBox="0 0 110 110">
    <defs>
        <path id="lnw8k87aea" d="M16.5 0h35.75v49.5c0 4.556-3.694 8.25-8.25 8.25H8.25V8.25C8.25 3.694 11.944 0 16.5 0z"/>
    </defs>
    <g fill="none" fill-rule="evenodd">
        <g>
            <g>
                <g>
                    <g transform="translate(-130 -2561) translate(0 2488) translate(130 73)">
                        <circle cx="55" cy="55" r="55" fill="#ED2324" fill-rule="nonzero"/>
                        <g transform="translate(22 27.5)">
                            <use fill="#FFF" xlink:href="#lnw8k87aea"/>
                            <path fill="#FFF" d="M11 13.75h41.25v-3.129L57.75 0H16.5C13.462 0 11 2.462 11 5.5v8.25z"/>
                            <path fill="#ED2324" d="M15.125 24.75h24.75c.76 0 1.375.616 1.375 1.375 0 .76-.616 1.375-1.375 1.375h-24.75c-.76 0-1.375-.616-1.375-1.375 0-.76.616-1.375 1.375-1.375zM15.125 30.25h24.75c.76 0 1.375.616 1.375 1.375 0 .76-.616 1.375-1.375 1.375h-24.75c-.76 0-1.375-.616-1.375-1.375 0-.76.616-1.375 1.375-1.375zM15.125 35.75h16.5c.76 0 1.375.616 1.375 1.375 0 .76-.616 1.375-1.375 1.375h-16.5c-.76 0-1.375-.616-1.375-1.375 0-.76.616-1.375 1.375-1.375z"/>
                            <path fill="#E0E0E0" d="M0 44h41.25v3.129l5.5 10.621H5.5c-3.038 0-5.5-2.462-5.5-5.5V44z"/>
                            <path fill="#FFF" d="M41.25 38.5h11v13.75c0 3.038-2.462 5.5-5.5 5.5s-5.5-2.462-5.5-5.5V38.5z"/>
                            <path fill="#E0E0E0" d="M52.25 13.75h11V5.5c0-3.038-2.462-5.5-5.5-5.5s-5.5 2.462-5.5 5.5v8.25z"/>
                            <path fill="#ED2324" fill-rule="nonzero" d="M30.25 4.125c-3.797 0-6.875 3.078-6.875 6.875s3.078 6.875 6.875 6.875 6.875-3.078 6.875-6.875-3.078-6.875-6.875-6.875zm0 2.75c2.278 0 4.125 1.847 4.125 4.125s-1.847 4.125-4.125 4.125-4.125-1.847-4.125-4.125 1.847-4.125 4.125-4.125z"/>
                        </g>
                    </g>
                </g>
            </g>
        </g>
    </g>
</svg>
