<?xml version="1.0" encoding="UTF-8"?>
<svg width="40px" height="40px" viewBox="0 0 40 40" version="1.1" xmlns="http://www.w3.org/2000/svg" xmlns:xlink="http://www.w3.org/1999/xlink">
    <!-- Generator: Sketch 62 (91390) - https://sketch.com -->
    <title>icon/general/ico_buy_package</title>
    <desc>Created with Sketch.</desc>
    <g id="icon/general/ico_buy_package" stroke="none" stroke-width="1" fill="none" fill-rule="evenodd">
        <g id="Group-5" opacity="0" stroke="#979797">
            <g id="Group-6">
                <rect id="Rectangle" opacity="0.289481027" x="0.5" y="0.5" width="39" height="39" rx="19.5"></rect>
                <rect id="Rectangle" fill="#D8D8D8" opacity="0.390345982" x="6.5" y="0.5" width="27" height="39" rx="2"></rect>
                <rect id="Rectangle" fill="#D8D8D8" opacity="0.296619234" x="3.5" y="3.5" width="33" height="33" rx="2"></rect>
                <rect id="Rectangle" opacity="0.265927269" transform="translate(20.000000, 20.000000) rotate(90.000000) translate(-20.000000, -20.000000) " x="6.5" y="0.5" width="27" height="39" rx="2"></rect>
            </g>
        </g>
        <g id="icon/system/usage">
            <path d="M39.8891967,19.9445983 C39.8891967,30.9606648 30.9606648,39.8891967 19.9445983,39.8891967 C8.92853186,39.8891967 0,30.9606648 0,19.9445983 C0,8.92853186 8.92853186,0 19.9445983,0 C30.9606648,0 39.8891967,8.92853186 39.8891967,19.9445983 Z" id="Combined-Shape" fill="#ED2324"></path>
            <g id="Group" transform="translate(20.500000, 13.378680) rotate(-45.000000) translate(-20.500000, -13.378680) translate(15.500000, 8.378680)" fill="#FFFFFF" fill-rule="nonzero">
                <path d="M6.78095884,3.02665301 C5.08289093,1.32853053 2.82180127,0.393398282 0.414213562,0.393398282 L0.414213562,2.03046626 C2.38448958,2.03046626 4.23451171,2.79536614 5.62337871,4.18423314 C7.01230027,5.57310013 7.77714558,7.42301314 7.77714558,9.39339828 L9.41421356,9.39339828 C9.41421356,6.98570145 8.47902675,4.72461179 6.78095884,3.02665301 Z" id="Path"></path>
                <path d="M3.82981665,6.22043588 C2.88634493,5.27691654 1.63022437,4.75735931 0.292893219,4.75735931 L0.292893219,6.18647509 C1.2485108,6.18647509 2.14573297,6.55742409 2.81928071,7.23097183 C3.49282844,7.90456719 3.86377744,8.80178936 3.86377744,9.75735931 L5.29289322,9.75735931 C5.29289322,8.42002816 4.77324073,7.16395523 3.82981665,6.22043588 Z" id="Path"></path>
            </g>
            <path d="M11.7748518,20 L28.2251482,20 C29.3297177,20 30.2251482,20.8954305 30.2251482,22 C30.2251482,22.2149642 30.1904925,22.4285226 30.1225148,22.6324555 L28.2279241,28.3162278 C28.09181,28.7245699 27.7096712,29 27.2792408,29 L12.7207592,29 C12.2903288,29 11.90819,28.7245699 11.7720759,28.3162278 L9.87748518,22.6324555 C9.52818963,21.5845689 10.0945096,20.4519289 11.1423962,20.1026334 C11.3463292,20.0346558 11.5598876,20 11.7748518,20 Z" id="Rectangle" fill="#FFFFFF"></path>
            <rect id="Rectangle" fill="#ED2324" x="16" y="22" width="9" height="1" rx="0.5"></rect>
        </g>
    </g>
</svg>