<?xml version="1.0" encoding="utf-8"?>
<!-- Generator: Adobe Illustrator 24.3.0, SVG Export Plug-In . SVG Version: 6.00 Build 0)  -->
<svg version="1.1" id="Layer_1" xmlns="http://www.w3.org/2000/svg" xmlns:xlink="http://www.w3.org/1999/xlink" x="0px" y="0px"
	 viewBox="0 0 496.7 392.6" style="enable-background:new 0 0 496.7 392.6;" xml:space="preserve">
<style type="text/css">
	.st0{fill:#FFFFFF;}
	.st1{fill:#ED1C24;}
	.st2{fill:#221E20;}
</style>
<g id="base_1_">
	<path id="base" class="st0" d="M416.6,206c-0.4-10.4-3.3-20.6-8.5-29.6c5.6-9.9,8.5-21,8.5-32.3c0-35.8-28.8-64.9-64.1-64.9
		l-64.3,0.1c-13.4,0-17,11.1-17.1,17v12c-15.4-18.5-37.9-29.3-61-29.3c-16.5,0-32.9,5-46.4,14c-13.5-9-29.9-14-46.4-14
		c-23.9,0-47.5,12-62.8,31.6l0-0.6c-0.4-7.6-3.4-14.9-8.5-20.5c5.5-6.1,8.5-13.9,8.5-22.2C54.6,48.9,39.7,34,21.3,34
		S-12,48.9-12,67.3c0,8.3,3,16.2,8.5,22.3c-5.3,5.9-8.3,13.5-8.5,21.5v196.5c0,30.3,25.3,51,50.2,51h327.2c30,0,51.3-26,51.3-51
		v-99.7L416.6,206L416.6,206z"/>
</g>
<g id="Layer_1_1_">
	<g>
		<path class="st1" d="M256.6,297.5c-5.5,0-10,4.5-10,10.1s4.5,10.1,10,10.1c5.5,0,10.1-4.5,10.1-10.1
			C266.7,302,262.2,297.5,256.6,297.5z"/>
		<path class="st1" d="M365.4,273.6c-11.1,0-21,5.3-27.2,13.6c-6.2-8.3-16.1-13.6-27.2-13.6s-21,5.3-27.2,13.6
			c-2.5-3.4-5.7-6.3-9.3-8.5l0,28.9c0,9.9-8,17.9-17.9,17.9c-9.9,0-17.9-8-17.9-17.9s8-17.9,17.9-17.9c3.3,0,6.5,0.9,9.3,2.6
			l0.7,0.5l0-17.7c-3.2-1-6.6-1.5-10-1.5c-11.1,0-21,5.3-27.2,13.6c-6.2-8.3-16.1-13.6-27.2-13.6s-21,5.3-27.2,13.6
			c-6.2-8.3-16.1-13.6-27.2-13.6s-21,5.3-27.2,13.6c-6.2-8.3-16.1-13.6-27.2-13.6s-21,5.3-27.2,13.6c-6.2-8.3-16.1-13.6-27.2-13.6
			c-18.8,0-34,15.2-34,34s15.2,34,34,34c11.1,0,21-5.3,27.2-13.6c6.2,8.3,16.1,13.6,27.2,13.6s21-5.3,27.2-13.6
			c6.2,8.3,16.1,13.6,27.2,13.6s21-5.3,27.2-13.6c6.2,8.3,16.1,13.6,27.2,13.6s21-5.3,27.2-13.6c6.2,8.3,16.1,13.6,27.2,13.6
			s21-5.3,27.2-13.6c6.2,8.3,16.1,13.6,27.2,13.6s21-5.3,27.2-13.6c6.2,8.3,16.1,13.6,27.2,13.6c18.8,0,34-15.2,34-34
			C399.4,288.8,384.2,273.6,365.4,273.6z"/>
		<path class="st0" d="M266,292.3c-2.8-1.7-6-2.6-9.3-2.6c-9.9,0-17.9,8-17.9,17.9s8,17.9,17.9,17.9c9.9,0,17.9-8,17.9-17.9l0-28.9
			c-2.4-1.5-5.1-2.7-7.9-3.6l0,17.7L266,292.3z M256.6,317.6c-5.5,0-10-4.5-10-10.1c0-5.5,4.5-10.1,10-10.1
			c5.5,0,10.1,4.5,10.1,10.1C266.7,313.1,262.2,317.6,256.6,317.6z"/>
		<path id="O_3_" class="st0" d="M311,325.4c-9.9,0-17.9-8-17.9-17.9c0-9.9,8-17.9,17.9-17.9c9.9,0,17.9,8,17.9,17.9
			C328.9,317.4,320.9,325.4,311,325.4z M311,297.5c-5.5,0-10.1,4.5-10.1,10.1s4.5,10.1,10.1,10.1c5.5,0,10.1-4.5,10.1-10.1
			C321.1,302,316.6,297.5,311,297.5z"/>
		<path id="O_2_" class="st0" d="M365.4,325.4c-9.9,0-17.9-8-17.9-17.9c0-9.9,8-17.9,17.9-17.9c9.9,0,17.9,8,17.9,17.9
			C383.3,317.4,375.3,325.4,365.4,325.4z M365.4,297.5c-5.5,0-10.1,4.5-10.1,10.1s4.5,10.1,10.1,10.1c5.5,0,10.1-4.5,10.1-10.1
			C375.5,302,371,297.5,365.4,297.5z"/>
		<path id="e" class="st0" d="M202.9,325.5c-0.6,0-1.1,0-1.6,0l-0.4,0l-0.6,0c-9.1-1-15.9-8.6-15.9-17.8c0-9.9,8-17.9,17.9-17.9
			c9.9,0,17.9,8,17.9,17.9c0,1.2-0.1,2.2-0.3,3.4l-27,0l0.5,1.3c1.4,2.7,4,4.6,7,5.2c0.9,0.2,1.8,0.2,2.7,0.2l0.4,0
			c2.6-0.1,5.1-1,6.8-2.5l0.2-0.2l7.3,3.9l-0.3,0.4c-3.3,3.9-7.9,6-13.9,6.2C203.3,325.4,203.1,325.5,202.9,325.5z M202.3,297.5
			c-4.1,0-7.8,2.5-9.3,6.3l-0.1,0.1l18.7,0l0-0.1C210,300,206.4,297.5,202.3,297.5z"/>
		<path id="R" class="st0" d="M131.1,324.5l0-17l0-1c0.5-9.5,8.4-16.9,17.9-16.9c6.8,0,12.9,3.8,16,9.9l-6.9,3.7
			c-1.7-3.5-5.2-5.7-9.1-5.7c-5.6,0-10.1,4.5-10.1,10.1l0,17L131.1,324.5L131.1,324.5z"/>
		<path id="O_1_" class="st0" d="M93.5,325.4c-9.9,0-17.9-8-17.9-17.9c0-9.9,8-17.9,17.9-17.9c9.9,0,17.9,8,17.9,17.9
			C111.4,317.4,103.4,325.4,93.5,325.4z M93.5,297.5c-5.6,0-10.1,4.5-10.1,10.1s4.5,10.1,10.1,10.1c5.5,0,10.1-4.5,10.1-10.1
			C103.6,302,99,297.5,93.5,297.5z"/>
		<path id="O" class="st0" d="M39.1,325.4c-9.9,0-17.9-8-17.9-17.9c0-9.9,8-17.9,17.9-17.9c9.9,0,17.9,8,17.9,17.9
			S49,325.4,39.1,325.4z M39.1,297.5c-5.6,0-10.1,4.5-10.1,10.1s4.5,10.1,10.1,10.1c5.5,0,10.1-4.5,10.1-10.1
			C49.2,302,44.7,297.5,39.1,297.5z"/>
	</g>
</g>
<g id="Layer_2_1_">
	<path id="dot" class="st1" d="M5.1,67.3c0-8.9,7.2-16.2,16.2-16.2c8.9,0,16.2,7.2,16.2,16.2c0,8.9-7.3,16.2-16.2,16.2
		C12.3,83.5,5.1,76.3,5.1,67.3z"/>
	<path id="i" class="st2" d="M21.3,96.3c-8.5,0-15.6,6.8-16.2,15.6v144.5h32.4l0-145C37,103,29.8,96.3,21.3,96.3z"/>
	<path id="m" class="st2" d="M210.2,96.1c-14.8,0-29.1,4.8-40.3,13.6l-6.1,4.7l-6.1-4.7c-11.3-8.8-25.6-13.6-40.3-13.6
		c-33.2,0-62.3,28.5-62.3,61.1v99.3h32.4v-98.9c0-16.2,13.1-28.9,29.9-28.9c16.8,0,30.5,13,30.5,28.9v82.2
		c0,12.1,10.2,15.3,15.7,15.3c8.4,0,15.5-6.8,15.7-15.3v-82.2c0-15.9,13.7-28.9,30.5-28.9c16.6,0,30.2,13,30.2,28.9v98.9h32.4v-99.3
		C272.4,124.7,243.3,96.1,210.2,96.1z"/>
	<path id="_x33_" class="st2" d="M351.7,191.7c9.2,0,16.6,7.5,16.6,16.8s-7.5,16.8-16.6,16.8H288v31.2l64.4,0
		c25.9-0.1,46.9-21.5,46.9-47.8c0-10.2-3.3-20.3-9.3-28.5l-2.8-3.8l2.8-3.8c6-8.2,9.3-18.4,9.3-28.5c0-26.3-21.1-47.8-47-47.8
		L288,96.4v30.9h63.7c9.2,0,16.6,7.5,16.6,16.8c0,9.3-7.5,16.8-16.6,16.8l-34.3,0l0,0c-0.1,0-0.1,0-0.2,0c-8.5,0-15.4,6.9-15.4,15.4
		s6.9,15.4,15.4,15.4L351.7,191.7L351.7,191.7z"/>
</g>
</svg>
