<svg xmlns="http://www.w3.org/2000/svg" width="40" height="40" viewBox="0 0 40 40">
    <g fill="none" fill-rule="evenodd">
        <g transform="translate(0 7)">
            <path fill="#ED2324" d="M8.4 0h23.2C34.03 0 36 1.97 36 4.4V22H4V4.4C4 1.97 5.97 0 8.4 0z"/>
            <path fill="#CA2627" d="M8 2h24c1.105 0 2 .895 2 2v16H6V4c0-1.105.895-2 2-2z"/>
            <path fill="#FFF" fill-rule="nonzero" d="M23.465 10.081l-.559-.122c-.048-.148-.109-.293-.18-.433l.31-.482c.055-.086.043-.199-.03-.27l-.87-.872c-.072-.072-.185-.084-.271-.029l-.482.31c-.14-.071-.285-.132-.433-.18l-.122-.56c-.022-.099-.11-.17-.212-.17h-1.232c-.102 0-.19.071-.212.17l-.122.56c-.148.048-.294.109-.433.18l-.482-.31c-.086-.055-.199-.043-.27.03l-.872.87c-.072.072-.084.185-.029.271l.31.482c-.071.14-.132.285-.18.433l-.56.122c-.1.022-.17.11-.17.212v1.232c0 .102.07.19.17.212l.56.122c.048.149.109.294.18.433l-.31.482c-.055.086-.043.199.03.271l.87.87c.072.073.185.085.271.03l.482-.31c.14.072.285.132.433.18l.122.56c.022.1.11.17.212.17h1.232c.102 0 .19-.07.212-.17l.122-.56c.148-.048.294-.108.433-.18l.482.31c.086.055.199.043.27-.03l.872-.87c.072-.072.084-.185.029-.271l-.31-.482c.071-.14.132-.284.18-.433l.56-.122c.1-.022.17-.11.17-.212v-1.232c0-.102-.07-.19-.17-.212zm-2.01.828c0 .802-.653 1.455-1.455 1.455s-1.455-.653-1.455-1.455.653-1.454 1.455-1.454 1.455.652 1.455 1.454z"/>
            <path fill="#ED2324" d="M2.344 20h35.312c.726 0 1.315.589 1.315 1.315 0 .241-.067.479-.193.685l-.638 1.043c-.363.594-1.01.957-1.706.957H3.566c-.697 0-1.343-.363-1.706-.957L1.222 22c-.378-.62-.183-1.429.436-1.807.207-.126.444-.193.686-.193z"/>
            <circle cx="33.455" cy="22.545" r="1" fill="#FFF" fill-rule="nonzero"/>
            <circle cx="29.818" cy="22.545" r="1" fill="#FFF" fill-rule="nonzero"/>
        </g>
    </g>
</svg>
