<svg xmlns="http://www.w3.org/2000/svg" xmlns:xlink="http://www.w3.org/1999/xlink" width="220" height="220" viewBox="0 0 220 220">
    <defs>
        <circle id="c673o995oa" cx="109.5" cy="109.5" r="109.5"/>
        <path id="hia32oz7bc" d="M11.385 0H51.23c6.287 0 11.384 5.081 11.384 11.349v90.79c0 6.268-5.097 11.35-11.384 11.35H11.385C5.097 113.488 0 108.406 0 102.138V11.35C0 5.08 5.097 0 11.385 0z"/>
    </defs>
    <g fill="none" fill-rule="evenodd">
        <g>
            <mask id="skgvza1b4b" fill="#fff">
                <use xlink:href="#c673o995oa"/>
            </mask>
            <use fill="#FFF" xlink:href="#c673o995oa"/>
            <g mask="url(#skgvza1b4b)">
                <g>
                    <g>
                        <path fill="#FFE8D3" d="M44.805.498c-18.343 17.996-28.16 28.732-29.45 32.209C14.064 36.183 8.945 60.377 0 105.29l35.55 2.587 2.353-14.108 8.028-8.023L55.2 69.051 39.258 35.28 44.805.499z" transform="rotate(11 -170.213 541.223) matrix(-1 0 0 1 111.56 49.68)"/>
                        <path fill="#FFE2C8" d="M85.094 38.7C65.113 51.75 53.242 61.325 49.482 67.422c-3.76 6.097-8.112 14.451-13.055 25.064 7.84 1.575 16.071.77 24.695-2.416 8.623-3.185 13.517-6.365 14.68-9.537L81.9 43.582l.095-.143 3.099-4.739z" transform="rotate(11 -170.213 541.223) matrix(-1 0 0 1 111.56 49.68) scale(-1 1) rotate(-82 0 135.881)"/>
                    </g>
                    <g>
                        <g>
                            <path fill="#ED2324" d="M122.69 153.451l-40.288-5.853c-1.918-.279-3.723.977-4.128 2.872l-9.819 45.942 54.346 11.324 3.033-50.422c.115-1.909-1.251-3.588-3.144-3.863z" transform="rotate(11 -170.213 541.223) translate(.83 .625) matrix(-1 0 0 1 194.493 0)"/>
                            <path fill="#EED0B6" d="M40.902 86.775c.033 6.244 1.51 11.167 4.432 14.767 2.921 3.601 10.085 7.501 21.491 11.7L55.592 87.703l-14.69-.929z" transform="rotate(11 -170.213 541.223) translate(.83 .625)"/>
                            <g fill="#CD0F10">
                                <path d="M1.281 0.761L31.983 1.104 35.291 7.755 31.983 14.352 0.189 13.856z" transform="rotate(11 -170.213 541.223) translate(.83 .625) rotate(-8 1192.435 -389.454)"/>
                            </g>
                            <g>
                                <g transform="rotate(11 -170.213 541.223) translate(.83 .625) translate(.727 .077) translate(5.692 2.837)">
                                    <mask id="0upb0n5sfd" fill="#fff">
                                        <use xlink:href="#hia32oz7bc"/>
                                    </mask>
                                    <use fill="#ED2324" xlink:href="#hia32oz7bc"/>
                                    <g fill="#FFD600" mask="url(#0upb0n5sfd)">
                                        <path d="M0 0h62.615v96.465c0 4.701-3.822 8.512-8.538 8.512H8.538c-4.715 0-8.538-3.811-8.538-8.512V0z"/>
                                    </g>
                                    <path fill="#ED2324" fill-rule="nonzero" d="M11.385 0H51.23l-1.549 4.632c-.775 2.317-2.95 3.88-5.4 3.88H18.334c-2.45 0-4.626-1.563-5.4-3.88L11.383 0z" mask="url(#0upb0n5sfd)"/>
                                    <ellipse cx="44.115" cy="4.256" fill="#FFEF9A" fill-rule="nonzero" mask="url(#0upb0n5sfd)" rx="1.423" ry="1.419"/>
                                    <ellipse cx="103.885" cy="43.977" fill="#FFF" fill-opacity=".384" mask="url(#0upb0n5sfd)" rx="83.962" ry="83.698"/>
                                </g>
                            </g>
                            <path fill="#FFE8D3" d="M64.646 136.14c4.372-4.178 7.197-9.766 8.477-16.764 1.92-10.497 4.583-14.066 6.694-21.747 1.407-5.121 7.296-12.163 17.668-21.126 0 0 3.804-5.897-.445-8.474-2.579-1.567-7.057-.509-13.435 3.173-5.07 1.867-9.326 3.377-12.77 4.53-5.165 1.728-18.734 19.044-21.586 22.02-4.75 4.955-8.18 9.973-10.294 15.054 0 0 17.46 32.846 21.833 33.262l3.858-9.927z" transform="rotate(11 -170.213 541.223) translate(.83 .625) scale(-1 1) rotate(3 0 -2528.424)"/>
                        </g>
                    </g>
                </g>
            </g>
            <g mask="url(#skgvza1b4b)">
                <g transform="translate(43.13 97.13)">
                    <circle cx="30.87" cy="30.87" r="27.783" fill="#FFD600"/>
                    <path fill="#FFA201" fill-rule="nonzero" d="M30.87 58.652c10.712 0 20.017-6.135 24.695-15.126l-.608-.309H42.152c-2.091 9.158-6.364 15.435-11.282 15.435z"/>
                    <path fill="#FFF" fill-rule="nonzero" d="M19.88 43.217h21.98c.876-3.704 1.357-7.902 1.357-12.347H18.522c0 4.445.481 8.643 1.358 12.347zM30.87 3.087c-4.71 0-8.802 6.277-10.805 15.435h21.609C39.67 9.364 35.58 3.087 30.87 3.087z"/>
                    <path fill="#ED2324" fill-rule="nonzero" d="M19.587 43.217H6.782l-.608.31c4.678 8.99 13.983 15.125 24.696 15.125-4.92 0-9.192-6.277-11.283-15.435zM6.975 18.811l-.622-.29C4.266 22.2 3.087 26.409 3.087 30.87H18.64c0-4.341.505-8.441 1.425-12.059H6.975z"/>
                    <path fill="#FFA201" fill-rule="nonzero" d="M54.764 18.811h-13.09c.92 3.618 1.426 7.718 1.426 12.059h15.552c0-4.462-1.18-8.67-3.266-12.348l-.622.29z"/>
                </g>
            </g>
            <path fill="#ED2324" fill-rule="nonzero" d="M111.5 15c-23.741 0-43 19.02-43 42.5 0 1.38 1.12 2.5 2.5 2.5s2.5-1.12 2.5-2.5c0-20.704 17.006-37.5 38-37.5 1.38 0 2.5-1.12 2.5-2.5s-1.12-2.5-2.5-2.5z" mask="url(#skgvza1b4b)"/>
            <path fill="#ED2324" fill-rule="nonzero" d="M111.5 30.5c-14.912 0-27 12.088-27 27 0 1.38 1.12 2.5 2.5 2.5s2.5-1.12 2.5-2.5c0-12.15 9.85-22 22-22 1.38 0 2.5-1.12 2.5-2.5s-1.12-2.5-2.5-2.5z" mask="url(#skgvza1b4b)"/>
        </g>
    </g>
</svg>
