<svg xmlns="http://www.w3.org/2000/svg" width="64" height="64" viewBox="0 0 64 64">
    <g fill="none" fill-rule="evenodd">
        <g>
            <g>
                <g>
                    <g>
                        <g>
                            <g transform="translate(-1188 -797) translate(0 631) translate(130 147) translate(1000) translate(58 19)">
                                <circle cx="32" cy="32" r="32" fill="#ED2324" fill-rule="nonzero"/>
                                <g transform="translate(19.2 16)">
                                    <circle cx="12.267" cy="19.933" r="1.333" fill="#ED2324" fill-rule="nonzero"/>
                                    <g>
                                        <g fill-rule="nonzero">
                                            <path fill="#FFF" d="M20.473 7.84l-.021-6.566H5.148l-.02 6.567C1.67 7.668-.267 10.127.03 13.005c.206 2.012 1.707 3.478 3.6 4.02 2.026.581 3.924.036 5.747-.818.234-.11.505-.104.736.011.883.438 1.929.625 2.893.624v-.01c.862-.045 1.727-.237 2.482-.614.231-.116.501-.12.735-.01 1.824.853 3.721 1.398 5.747.818 1.893-.543 3.393-2.009 3.6-4.021.296-2.878-1.641-5.337-5.097-5.164z" transform="translate(0 16.867)"/>
                                            <path fill="#E0E0E0" d="M25.57 13.005c-.207 2.012-1.706 3.478-3.6 4.02-1.752.503-3.408.163-5.003-.49 1.127.28 2.288.333 3.495-.012 1.894-.543 3.393-2.008 3.6-4.02.201-1.956-.628-3.717-2.264-4.592 2.617.434 4.028 2.608 3.772 5.094z" transform="translate(0 16.867)"/>
                                            <path fill="#FFF" d="M7.06.154c-1.285.5-2.493 1.367-3.63 2.132-1.175.79-2.443 1.695-2.446 3.27C.98 6.984 2.08 8.066 3.448 8.285c1.626.26 3.91-1.403 5.21-2.245V.063L7.06.154zM18.54.154c1.285.5 2.493 1.367 3.63 2.132 1.175.79 2.443 1.695 2.446 3.27.003 1.427-1.096 2.509-2.464 2.728-1.626.26-3.91-1.403-5.21-2.245V.203L18.54.154z" transform="translate(0 16.867)"/>
                                            <g fill="#ED2324">
                                                <path d="M2.754 4.926h-.02c-.275-.01-.49-.243-.48-.52C2.367 1.474.488 1.03.408 1.013.138.958-.036.695.018.424.07.154.336-.022.607.032c.075.015.754.164 1.417.792 1.09 1.033 1.27 2.54 1.229 3.621-.01.27-.233.481-.5.481zM10.313 4.926c-.268 0-.49-.211-.5-.48-.041-1.083.138-2.589 1.229-3.622.663-.628 1.342-.777 1.417-.792.271-.054.535.122.588.393.054.27-.12.532-.39.587-.089.02-1.957.469-1.845 3.395.011.276-.204.508-.48.519h-.02z" transform="translate(0 16.867) translate(6.267 8.711)"/>
                                            </g>
                                            <path fill="#ED2324" d="M13.513 11.098h-1.426c-1.233 0-2.232-.999-2.232-2.232V7.39c0-1.233 1-2.232 2.232-2.232h1.426c1.233 0 2.232 1 2.232 2.232v1.476c0 1.233-1 2.232-2.232 2.232z" transform="translate(0 16.867)"/>
                                        </g>
                                        <g transform="translate(.8)">
                                            <path fill="#FFF" fill-rule="nonzero" d="M3.52 6.747h-.283C1.452 6.747.005 5.3.005 3.515v-.283C.005 1.447 1.452 0 3.237 0h.283c1.785 0 3.232 1.447 3.232 3.232v.283c0 1.785-1.447 3.232-3.232 3.232zM20.763 6.747h-.283c-1.785 0-3.232-1.447-3.232-3.232v-.283C17.248 1.447 18.695 0 20.48 0h.283c1.785 0 3.232 1.447 3.232 3.232v.283c0 1.785-1.447 3.232-3.232 3.232z"/>
                                            <path fill="#E0E0E0" fill-rule="nonzero" d="M23.995 3.323v.1c0 1.836-1.488 3.324-3.323 3.324h-.1c-.694 0-1.339-.213-1.871-.577.141.019.285.028.431.028h.1c1.836 0 3.324-1.487 3.324-3.323v-.1c0-1.142-.576-2.15-1.453-2.747 1.632.211 2.892 1.606 2.892 3.295z"/>
                                            <path fill="#FFF" fill-rule="nonzero" d="M22.42 9.534c-.659-4.244-4.012-6.962-7.71-7.76-.858-.184-1.731-.27-2.605-.278-2.3-.018-4.654.56-6.635 1.857C3.38 4.723 1.99 6.9 1.58 9.533c-.4 2.58.2 5.41 1.964 7.27 1.59 1.674 3.558 2.564 5.737 2.922 2.654.437 5.63.35 8.145-.797 1.12-.511 2.163-1.212 3.03-2.126 1.764-1.859 2.364-4.69 1.964-7.268z"/>
                                            <path fill="#ED2324" fill-rule="nonzero" d="M12.783 15.703c.416-.33.91-.795 1.257-1.36.547-.89.05-2.07-.976-2.272-.291-.058-.642-.085-1.064-.064-.422-.02-.773.007-1.064.064-1.025.201-1.523 1.381-.976 2.272.346.565.841 1.03 1.257 1.36.459.363 1.107.363 1.566 0z"/>
                                            <rect width="1.422" height="1.422" x="11.378" y="15.644" fill="#ED2324" rx=".711"/>
                                            <circle cx="7.733" cy="11.378" r="1.422" fill="#ED2324"/>
                                            <circle cx="16.267" cy="11.378" r="1.422" fill="#ED2324"/>
                                        </g>
                                    </g>
                                </g>
                            </g>
                        </g>
                    </g>
                </g>
            </g>
        </g>
    </g>
</svg>
