<?xml version="1.0" encoding="UTF-8"?>
<svg width="69px" height="47px" viewBox="0 0 69 47" version="1.1" xmlns="http://www.w3.org/2000/svg" xmlns:xlink="http://www.w3.org/1999/xlink">
    <title>logo_Business_IO</title>
    <g id="logo_Business_IO" stroke="none" stroke-width="1" fill="none" fill-rule="evenodd">
        <g id="logo-indosat-ooredoo-B2B-(3)" transform="translate(0.000000, 2.000000)" fill-rule="nonzero">
            <path d="M68.9050202,6.64728103 C68.8578386,3.74178807 66.4781812,1.41102661 63.558917,1.41102661 C60.6396528,1.41102661 58.2599954,3.74178807 58.2128138,6.64728103 L58.2128138,9.61429582 L58.2128138,9.61429582 C58.2263134,7.00353393 56.1110628,4.8761998 53.4882692,4.86276206 C50.8654757,4.84932431 48.7283377,6.95487155 48.7148381,9.56563344 L48.7078543,8.41998199 L48.7078543,8.41998199 C48.7078543,5.8092201 46.58166,3.69277942 43.9588664,3.69277942 C41.3360728,3.69277942 39.2098785,5.8092201 39.2098785,8.41998199 L39.2098785,9.48360257 C39.2426635,6.87284068 37.1430466,4.72994449 34.520253,4.69730997 C31.8974595,4.66467544 29.7446878,6.75466062 29.7119028,9.36542251 L29.7119028,7.236791 L29.7119028,7.236791 C29.7119028,4.62602916 27.5857085,2.50958857 24.962915,2.50958857 C22.3401215,2.50958857 20.2139272,4.62602916 20.2139271,7.236791 L20.2041498,4.85650547 L20.2041498,4.85650547 C20.2041498,2.24574358 18.0779555,0.129302894 15.4551619,0.129302894 C12.8323684,0.129302894 10.7061741,2.24574358 10.7061741,4.85650547 L10.7061741,10.196854 L10.7061741,10.196854 C10.7061741,7.25398786 8.30951538,4.86832347 5.35308704,4.86832347 C2.39665871,4.86832347 0,7.25398786 0,10.196854 L0,27.9377672 C0.0471816642,30.8432602 2.42683903,33.1740216 5.34610324,33.1740216 C8.26536744,33.1740216 10.6450248,30.8432602 10.6922065,27.9377672 L10.6922065,29.7160296 C10.6922065,32.3267915 12.8184008,34.4432322 15.4411943,34.4432322 C18.0639879,34.4432322 20.1901822,32.3267915 20.1901822,29.7160296 L20.1901822,27.8918855 L20.1999595,27.8918855 L20.1999595,32.0949248 C20.1999595,34.7056866 22.3261538,36.8221273 24.9489474,36.8221273 C27.5717409,36.8221273 29.6979352,34.7056866 29.6979352,32.0949248 L29.6979352,29.9315344 C29.7608051,32.5422963 31.9379655,34.6080046 34.5607591,34.5454232 C37.1835527,34.4828417 39.2587808,32.3156686 39.1959109,29.7049068 L39.1959109,28.6412862 C39.2286959,31.252048 41.3814676,33.3420331 44.0042611,33.3093986 C46.6270546,33.2767641 48.7266715,31.1338679 48.6938866,28.5231061 L48.7008704,29.7174199 C48.7008704,32.3281818 50.8270647,34.4446225 53.4498583,34.4446225 C56.0726519,34.4446225 58.1988462,32.3281818 58.1988462,29.7174199 L58.1988462,27.9322058 C58.2460278,30.8376987 60.6256852,33.1684602 63.5449494,33.1684602 C66.4642136,33.1684602 68.843871,30.8376987 68.8910526,27.9322058 L68.8910526,6.64728103 L68.9050202,6.64728103 Z" id="Path" fill="#FFD500"></path>
            <path d="M43.9546761,22.0371056 C42.9836533,22.0378738 42.1970368,22.821919 42.1975506,23.7884876 C42.1980649,24.7550562 42.985515,25.5382718 43.9565381,25.5380162 C44.9275612,25.5377604 45.7145951,24.7541301 45.7145951,23.7875614 C45.7145951,23.3230708 45.5291312,22.8776248 45.1990422,22.5493108 C44.8689531,22.2209967 44.4213072,22.0367372 43.9546761,22.0371056 Z" id="Path" fill="#ED1C24"></path>
            <path d="M62.9645951,17.8743871 C61.0959142,17.8735109 59.3361116,18.7493757 58.2156073,20.2379884 C57.0935069,18.7516304 55.3344468,17.8771635 53.4666194,17.8771635 C51.598792,17.8771635 49.839732,18.7516304 48.7176316,20.2379884 C48.2735636,19.649366 47.7237288,19.1477808 47.0959919,18.7586521 L47.0890081,23.7847807 C47.0937328,25.2017852 46.1368932,26.4433406 44.7607258,26.8058633 C43.3845584,27.168386 41.9360154,26.5604787 41.2359793,25.3266395 C40.5359433,24.0928003 40.7609036,22.5440984 41.7833764,21.558176 C42.8058492,20.5722536 44.3680539,20.3976763 45.5846964,21.1333762 L45.7104049,21.211236 L45.7104049,18.1343833 C43.3120847,17.3987374 40.7078976,18.2396445 39.2001012,20.2365981 C38.0783392,18.7497194 36.3191557,17.8748487 34.4511134,17.8748487 C32.583071,17.8748487 30.8238876,18.7497194 29.7021255,20.2365981 C28.5796872,18.7507603 26.8207503,17.8766967 24.9531377,17.8766967 C23.085525,17.8766967 21.3265881,18.7507603 20.2041498,20.2365981 C19.0820494,18.7502401 17.3229893,17.8757731 15.4551619,17.8757731 C13.5873346,17.8757731 11.8282745,18.7502401 10.7061741,20.2365981 C9.17274579,18.1991619 6.50140084,17.3673666 4.07491255,18.171776 C1.64842426,18.9761853 0.0115243181,21.2362144 0.0115243181,23.782 C0.0115243181,26.3277856 1.64842426,28.5878147 4.07491255,29.392224 C6.50140084,30.1966334 9.17274579,29.3648381 10.7061741,27.3274019 C11.8282745,28.8137599 13.5873346,29.6882269 15.4551619,29.6882269 C17.3229893,29.6882269 19.0820494,28.8137599 20.2041498,27.3274019 C21.3265881,28.8132397 23.085525,29.6873033 24.9531377,29.6873033 C26.8207503,29.6873033 28.5796872,28.8132397 29.7021255,27.3274019 C30.8242259,28.8137599 32.583286,29.6882269 34.4511134,29.6882269 C36.3189408,29.6882269 38.0780008,28.8137599 39.2001012,27.3274019 C40.3218633,28.8142806 42.0810467,29.6891513 43.9490891,29.6891513 C45.8171315,29.6891513 47.5763149,28.8142806 48.6980769,27.3274019 C49.8205153,28.8132397 51.5794521,29.6873033 53.4470648,29.6873033 C55.3146775,29.6873033 57.0736143,28.8132397 58.1960526,27.3274019 C59.8725219,29.5521669 62.8798727,30.3133908 65.4203402,29.1560214 C67.9608077,27.998652 69.3477219,25.235518 68.751999,22.5183937 C68.1562762,19.8012694 65.7389359,17.864574 62.9450405,17.8660442 L62.9645951,17.8743871 Z" id="Path" fill="#ED1C24"></path>
            <path d="M45.5846964,21.1333762 C44.3717769,20.3950997 42.8110702,20.5649748 41.7870967,21.5467259 C40.7631231,22.528477 40.5340702,24.0745629 41.229752,25.3087493 C41.9254339,26.5429357 43.3704396,27.1540317 44.7458214,26.7957025 C46.1212033,26.4373734 47.0801689,25.1999692 47.0792308,23.7847807 L47.0862146,18.7586521 C46.6574455,18.4935198 46.196541,18.2837471 45.7145951,18.1343833 L45.7145951,21.211236 L45.5846964,21.1333762 Z M43.9546761,25.535236 C42.9836533,25.5344683 42.1970368,24.7504231 42.1975506,23.7838545 C42.1980649,22.817286 42.985515,22.0340703 43.9565381,22.034326 C44.9275612,22.0345817 45.7145974,22.818212 45.7145974,23.7847807 C45.7153373,24.2497529 45.5302008,24.6959139 45.2000313,25.0248297 C44.8698617,25.3537455 44.4217916,25.5383866 43.9546761,25.5380173 L43.9546761,25.535236 Z" id="Shape" fill="#FFFFFF"></path>
            <path d="M53.4624291,26.8991742 C52.1978462,26.9002979 51.0571538,26.1428917 50.5724356,24.9802517 C50.0877174,23.8176116 50.3544706,22.4787961 51.2482663,21.5883048 C52.142062,20.6978135 53.4868083,20.4310871 54.6552393,20.9125421 C55.8236703,21.3939971 56.585587,22.5287791 56.585587,23.7875614 C56.5832829,25.5040211 55.1867964,26.8953448 53.4624291,26.8991742 L53.4624291,26.8991742 Z M53.4624291,22.0329345 C52.7510465,22.0323726 52.1093969,22.4585006 51.8367709,23.1125562 C51.5641449,23.7666118 51.7142516,24.5197417 52.2170754,25.0206568 C52.7198992,25.5215718 53.4763805,25.6715883 54.1336667,25.4007328 C54.7909529,25.1298772 55.2195547,24.4915099 55.2195547,23.7833904 C55.2164806,22.8191295 54.4311375,22.0386318 53.4624291,22.0371061 L53.4624291,22.0329345 Z" id="Shape" fill="#FFFFFF"></path>
            <path d="M62.9645951,26.899173 C61.2383619,26.8984052 59.8395265,25.5049494 59.8400405,23.7866349 C59.8405548,22.0683204 61.2402239,20.6756944 62.9664573,20.6759502 C64.6926907,20.676206 66.0919433,22.0692468 66.0919433,23.7875614 C66.0896334,25.5056465 64.6905988,26.8976412 62.9645951,26.899173 L62.9645951,26.899173 Z M62.9645951,22.032935 C61.9933901,22.032935 61.2060729,22.8166406 61.2060729,23.7833904 C61.2060729,24.7501401 61.9933901,25.5338457 62.9645951,25.5338457 C63.9358002,25.5338457 64.7231174,24.7501401 64.7231174,23.7833904 C64.7208071,22.8182699 63.9341661,22.0371034 62.9645951,22.0371061 L62.9645951,22.032935 Z" id="Shape" fill="#FFFFFF"></path>
            <path d="M15.4453846,26.8991733 C13.7197,26.8961028 12.3229672,25.5016303 12.3250202,23.7838604 C12.3270778,22.0660906 13.7271436,20.6749338 15.4528307,20.6759548 C17.1785178,20.6769769 18.5769231,22.0697904 18.5769231,23.7875614 C18.5746105,25.5072745 17.1730243,26.8999419 15.4453846,26.8991733 L15.4453846,26.8991733 Z M15.4453846,22.0329345 C14.7340019,22.0323726 14.0923523,22.4585006 13.8197264,23.1125562 C13.5471004,23.7666118 13.6972071,24.5197417 14.2000309,25.0206568 C14.7028547,25.5215718 15.459336,25.6715883 16.1166222,25.4007328 C16.7739084,25.1298772 17.2025101,24.4915099 17.2025101,23.7833904 C17.1994361,22.8191295 16.414093,22.0386318 15.4453846,22.0371061 L15.4453846,22.0329345 Z" id="Shape" fill="#FFFFFF"></path>
            <path d="M5.94182186,26.8991733 C4.67736558,26.8997354 3.53710166,26.1419722 3.05282365,24.9792873 C2.56854564,23.8166024 2.83564389,22.4780148 3.72954977,21.5878118 C4.62345565,20.6976088 5.96809261,20.4311376 7.13635209,20.9126744 C8.30461156,21.3942112 9.06637652,22.5289055 9.06637652,23.7875614 C9.06407014,25.5045626 7.66673463,26.8961098 5.94182186,26.8991733 L5.94182186,26.8991733 Z M5.94182186,22.0329345 C5.22974716,22.0323727 4.58749998,22.45899 4.31473977,23.1137359 C4.04197956,23.7684818 4.19246197,24.5223189 4.69597498,25.0235221 C5.19948798,25.5247253 5.95679912,25.6745174 6.61456242,25.4030085 C7.27232572,25.1314995 7.70090904,24.4921985 7.70034469,23.7833904 C7.69726743,22.8185876 6.91107544,22.037867 5.94182186,22.0371061 L5.94182186,22.0329345 Z" id="Shape" fill="#FFFFFF"></path>
            <path d="M34.5600607,26.9005633 C34.4580972,26.9005633 34.3659109,26.9005633 34.2807085,26.8908309 L34.2080769,26.8908309 L34.1075101,26.8824887 C32.4353678,26.7006868 31.2075633,25.2343491 31.329149,23.5643582 C31.4507347,21.8943672 32.8781106,20.6195735 34.559114,20.6796667 C36.2401174,20.7397599 37.5719489,22.1131909 37.5729302,23.7875614 C37.5741063,23.9850378 37.5549161,24.1821161 37.5156073,24.375681 L32.8029352,24.375681 L32.897915,24.6023087 C33.1445281,25.0729936 33.5935799,25.4058055 34.1172874,25.5060386 C34.2716767,25.5339571 34.4282864,25.5479175 34.5852024,25.5477492 L34.6634211,25.5477492 C35.094868,25.5444532 35.5118793,25.3926598 35.8436842,25.1181299 L35.8827935,25.0819807 L37.1538462,25.759083 L37.0951822,25.8258199 C36.5239069,26.5112643 35.7081984,26.8727563 34.6690081,26.9005633 L34.5600607,26.9005633 Z M34.4525101,22.0343254 C33.7354035,22.0315239 33.0894995,22.4654816 32.8238866,23.1285338 L32.8155061,23.1493891 L36.0825304,23.1493891 L36.0825304,23.1313145 C35.8196303,22.4654677 35.1712004,22.0301864 34.4525101,22.0371061 L34.4525101,22.0343254 Z" id="Shape" fill="#FFFFFF"></path>
            <path d="M22.0087652,26.742063 L22.0087652,23.7889518 L22.0087652,23.6179383 C22.076854,22.2003086 23.1003971,21.0083616 24.4966073,20.7207705 C25.8928175,20.4331794 27.3075258,21.1228959 27.9352227,22.3972077 L26.7270243,23.0367704 C26.3750281,22.2970492 25.5544234,21.899595 24.7524568,22.0804023 C23.9504901,22.2612097 23.3820161,22.9718385 23.3845749,23.7903421 L23.3845749,26.742063 L22.0087652,26.742063 Z" id="Path" fill="#FFFFFF"></path>
            <path d="M28.1000408,7.65945852 L26.6781377,7.65945852 L26.6781377,10.5666881 L26.5985223,10.5180257 C26.1022793,10.2121207 25.5298466,10.0507637 24.9461538,10.0522572 C23.6690152,10.0511323 22.5170296,10.8161415 22.0276371,11.9903822 C21.5382445,13.1646229 21.8078828,14.5167039 22.7107566,15.4158339 C23.6136304,16.3149639 24.9718229,16.5839639 26.1516916,16.0973363 C27.3315604,15.6107088 28.1006051,14.4643466 28.1000408,13.1930662 L28.1000408,7.65945852 Z M24.9461538,14.9143247 C23.9915136,14.912789 23.2187303,14.1414771 23.2197571,13.1912154 C23.2207858,12.2409538 23.9952357,11.4713 24.949877,11.4718106 C25.9045184,11.4723217 26.6781377,12.242804 26.6781377,13.1930662 C26.6777674,13.649941 26.495083,14.0879569 26.1702729,14.4107554 C25.8454629,14.7335539 25.4051341,14.914693 24.9461538,14.9143247 L24.9461538,14.9143247 Z" id="Shape" fill="#221E20"></path>
            <path d="M37.5072267,14.3971125 C37.6748214,14.0079904 37.7599367,13.5886263 37.7573088,13.1652592 C37.7591132,12.7397247 37.6740505,12.3182545 37.5072267,11.926454 C37.3434251,11.5503319 37.1098049,11.2083488 36.8186235,10.9184476 C36.2219977,10.3179291 35.4071231,9.98254571 34.558664,9.98830096 C33.7153357,9.98224236 32.905713,10.3174522 32.3154656,10.9170572 C32.0181392,11.2060463 31.7808389,11.5504428 31.617085,11.9306251 C31.4501439,12.3209258 31.3650644,12.74106 31.3670033,13.1652592 C31.3643831,13.5890748 31.4494942,14.0088913 31.617085,14.3985029 C31.782476,14.7761476 32.0196161,15.1184233 32.3154656,15.4065093 C32.6056092,15.6957441 32.9476763,15.9282448 33.3239271,16.0919537 C33.715512,16.2563215 34.1364856,16.3400354 34.5614575,16.3380809 C34.9892298,16.3395354 35.4129341,16.2553724 35.8073684,16.0905633 C36.571391,15.7632902 37.1806119,15.1573615 37.5100202,14.3971125 L37.5072267,14.3971125 Z M36.1286235,13.8215061 C36.0422549,14.0227383 35.9169612,14.2050926 35.7598785,14.3581826 C35.6061006,14.5131705 35.4228075,14.6360658 35.2207287,14.7196746 C35.0098827,14.8040329 34.7845008,14.846541 34.5572672,14.8448064 C34.332285,14.8466803 34.1091605,14.8041504 33.9007895,14.7196746 C33.7006877,14.6331989 33.5183726,14.5106418 33.3630364,14.3581826 C33.210374,14.2047923 33.0881192,14.024138 33.0026721,13.8256772 C32.9133828,13.6169338 32.8682148,13.3921298 32.8699798,13.1652592 C32.8688395,12.9388976 32.9139863,12.7146725 33.0026721,12.5062315 C33.0865027,12.304769 33.208358,12.1211728 33.3616397,11.9653839 C33.5177612,11.8148888 33.6993286,11.6929872 33.897996,11.6052823 C34.322047,11.4336354 34.7966777,11.4336354 35.2207287,11.6052823 C35.4218533,11.6885051 35.6042177,11.8109419 35.757085,11.9653839 C35.9129665,12.119955 36.0372457,12.3031579 36.1230364,12.5048412 C36.2090794,12.7144742 36.2532047,12.9388048 36.2529352,13.1652592 C36.2570158,13.3901683 36.2147066,13.6135202 36.1286235,13.8215061 L36.1286235,13.8215061 Z" id="Shape" fill="#221E20"></path>
            <path d="M56.5590486,11.9181119 C56.2362665,11.1611338 55.630831,10.5584756 54.8703644,10.2371743 C54.0711542,9.90111676 53.1693721,9.90111676 52.3701619,10.2371743 C51.9928559,10.3990267 51.6486542,10.6285415 51.3547166,10.9142765 C51.0643198,11.2023514 50.8320022,11.543094 50.6703036,11.9181119 C50.4997606,12.3132507 50.4136653,12.739385 50.4174899,13.1694302 C50.4144281,13.5944266 50.4921504,14.0161646 50.6465587,14.4124064 C50.7926473,14.7883701 51.0119513,15.1318823 51.2918623,15.4231936 C51.577958,15.7165044 51.9217336,15.9479499 52.3017206,16.1030765 C52.7210066,16.2692803 53.1689889,16.3519469 53.6202632,16.3463884 C54.2594323,16.3266945 54.8727864,16.090815 55.3592308,15.6776283 L55.3592308,16.1656424 L56.8118623,16.1656424 L56.8118623,13.1624785 C56.8147197,12.7347718 56.7286442,12.3111026 56.5590486,11.9181119 L56.5590486,11.9181119 Z M55.2237449,13.856265 C55.139343,14.065627 55.0118287,14.2550738 54.849413,14.4124064 C54.6892346,14.5684115 54.4992545,14.6908593 54.2907085,14.772508 C53.4016534,15.1316637 52.3873041,14.7170333 52.0084008,13.8395807 C51.8222296,13.4120309 51.8222296,12.9268295 52.0084008,12.4992797 C52.1871069,12.082715 52.5195711,11.750283 52.937247,11.5705235 C53.3685883,11.3869695 53.8565737,11.3869695 54.287915,11.5705235 C54.4958336,11.6590157 54.6853177,11.7853877 54.8466194,11.9431383 C55.0052519,12.1009183 55.1322869,12.2872938 55.2209514,12.492328 C55.3143224,12.7034529 55.3619166,12.9318046 55.3606275,13.1624785 C55.36265,13.4005796 55.3160816,13.6366102 55.2237449,13.856265 L55.2237449,13.856265 Z" id="Shape" fill="#221E20"></path>
            <path d="M15.3978947,9.98691061 C13.6346374,9.98920846 12.2058105,11.4114809 12.203502,13.1666495 L12.203502,16.1586907 L13.6617206,16.1586907 L13.6617206,13.0999125 C13.6711744,12.8960433 13.7185341,12.695688 13.8013968,12.5090122 C13.9819561,12.093389 14.3152274,11.7621439 14.7330364,11.5830367 C15.1623975,11.4064505 15.6445661,11.4064505 16.0739271,11.5830367 C16.2784613,11.6722861 16.4642257,11.7991774 16.6214575,11.9570418 C16.78107,12.1166805 16.9081787,12.3055247 16.9957895,12.5131833 C17.0786299,12.6979124 17.1260042,12.8964433 17.1354656,13.0985222 L17.1354656,16.1573003 L18.5922874,16.1573003 L18.5922874,13.1666495 C18.589979,11.4114809 17.161152,9.98920846 15.3978947,9.98691061 Z" id="Path" fill="#221E20"></path>
            <path d="M46.2327935,13.380764 C46.0411933,13.1492516 45.8033781,12.9598722 45.534413,12.8246225 C45.2665899,12.6884209 44.9858659,12.578975 44.6963563,12.4978894 C44.417004,12.4186392 44.1502227,12.3366084 43.9043927,12.2531871 C43.7061063,12.189837 43.5179602,12.0985366 43.3456883,11.9820682 C43.2528795,11.9205971 43.1997304,11.8147865 43.2060121,11.7039974 C43.2041122,11.6549161 43.217266,11.6064217 43.2437247,11.5649621 C43.2800755,11.5094622 43.3276451,11.4621107 43.3834008,11.4259267 C43.4643056,11.3788357 43.5512232,11.3428252 43.6418016,11.3188695 C43.9754555,11.2517074 44.3208718,11.2713413 44.6446761,11.375874 C44.915009,11.4650754 45.1685059,11.5985258 45.3947368,11.7707344 L45.6140283,11.9236733 L46.2509514,10.7557762 L46.0847368,10.6320347 C45.7832188,10.4115279 45.4546514,10.2302432 45.107004,10.0925775 C44.4916814,9.84347798 43.8096384,9.80965481 43.1724899,9.99664309 C42.909301,10.0721834 42.6608824,10.1915919 42.4377935,10.3497929 C42.2152848,10.5067892 42.0322077,10.7128173 41.902834,10.9518161 C41.7655547,11.2083146 41.6963247,11.4954496 41.7017004,11.7860283 C41.690747,12.1079542 41.7864526,12.4245322 41.9740688,12.6869775 C42.154569,12.9229561 42.3824119,13.1189775 42.6431174,13.2625839 C42.9234407,13.4179576 43.2192957,13.5437716 43.5258704,13.6379794 L44.4826518,13.9382958 C44.6543391,13.9900594 44.816565,14.0689225 44.9631377,14.1718752 C45.0418622,14.230573 45.0837736,14.3261573 45.0734818,14.4235293 C45.0723783,14.4786007 45.0532525,14.5318097 45.0190081,14.5750778 C44.9622116,14.647747 44.8908656,14.7078762 44.8094939,14.7516527 C44.6943677,14.8152751 44.5706539,14.8620988 44.4421457,14.8906881 C44.1349953,14.9553404 43.8176566,14.9553404 43.5105061,14.8906881 C43.3779979,14.8591156 43.2495817,14.8124633 43.1277935,14.7516527 C42.9979746,14.6889341 42.8736896,14.6154494 42.7562551,14.5319768 C42.6249595,14.4388232 42.4866802,14.3345466 42.3372267,14.2233183 L42.1332996,14.064818 L41.394413,15.1868334 L41.5480567,15.3258688 C41.8779235,15.6202331 42.2497721,15.8643399 42.651498,16.0502431 C43.0562241,16.2413116 43.49836,16.3410124 43.9462955,16.3422542 C44.2643825,16.343638 44.5813067,16.3039121 44.8891093,16.2240373 C45.1826244,16.1501651 45.4613216,16.0269724 45.7131984,15.8597646 C45.9580584,15.6970004 46.1617201,15.4799964 46.3082186,15.2257633 C46.4609367,14.9496467 46.5384608,14.6385765 46.5330972,14.3234238 C46.5489927,13.9836286 46.4425004,13.6493468 46.2327935,13.380764 L46.2327935,13.380764 Z" id="Path" fill="#221E20"></path>
            <rect id="Rectangle" fill="#221E20" x="5.13589069" y="10.4373852" width="1.47218623" height="5.72130547"></rect>
            <path d="M64.5624899,14.7377492 C64.4084424,14.7430433 64.2544716,14.7252328 64.105749,14.6849158 C64.015454,14.6608102 63.9352196,14.6087023 63.8766802,14.5361479 C63.8228623,14.463056 63.7874196,14.3781932 63.7733198,14.288665 C63.7533114,14.1439858 63.7430456,13.9981367 63.7425911,13.8520939 L63.7425911,11.5399357 L64.6351215,11.5399357 L64.6351215,10.1607048 L63.7425911,10.1607048 L63.7425911,7.83325273 L62.2955466,7.83325273 L62.2955466,10.1607048 L61.5734211,10.1607048 L61.5734211,11.5399357 L62.2955466,11.5399357 L62.2955466,14.1176514 C62.2906622,14.4022737 62.3273616,14.6860917 62.4044939,14.9602058 C62.4702329,15.2027621 62.5922266,15.4265817 62.760668,15.613672 C62.9403133,15.8014347 63.1639605,15.9418868 63.4115587,16.022436 C63.7160618,16.1198565 64.0345732,16.1668269 64.3543725,16.1614714 L64.7189271,16.1614714 L64.7189271,14.7377492 L64.5624899,14.7377492 Z" id="Path" fill="#221E20"></path>
            <path d="M45.6307895,41.5590624 C45.5496234,41.8381456 45.3849393,42.0859785 45.1586842,42.2695331 C44.926472,42.4528665 44.6379438,42.5510561 44.3415789,42.5476039 C44.1582115,42.5522296 43.9762019,42.5151387 43.809413,42.4391563 C43.6663683,42.3707004 43.5414917,42.2697334 43.4448583,42.1444013 C43.3465699,42.0151547 43.2740311,41.868383 43.2311538,41.7120013 C43.184428,41.5440201 43.1609322,41.3704811 43.1613158,41.1961801 L43.1613158,39.0508643 L42.5425506,39.0508643 L42.5425506,41.2003511 C42.5404267,41.4632807 42.5790591,41.7249632 42.657085,41.9761685 C42.7276147,42.2033019 42.8430096,42.414125 42.996498,42.5962662 C43.1490742,42.7751198 43.3399904,42.9176501 43.5552024,43.0133723 C43.7966244,43.1173235 44.0576351,43.1685276 44.3206275,43.1635305 C44.6178287,43.1714304 44.9103202,43.0884527 45.1586842,42.9257801 C45.338392,42.8041493 45.4993167,42.6570776 45.6363765,42.489209 L45.6363765,43.0717672 L46.2537449,43.0717672 L46.2537449,39.0508643 L45.6363765,39.0508643 L45.6307895,41.5590624 Z" id="Path" fill="#221E20"></path>
            <path d="M49.7456478,41.0807807 C49.6073012,40.9896527 49.458695,40.9149905 49.3028745,40.8583241 C49.1408502,40.7985389 48.9830162,40.7457055 48.832166,40.7012141 L48.4368826,40.5830341 C48.3184011,40.5491864 48.2029933,40.5054675 48.0918826,40.4523408 C48.0036844,40.4119297 47.923311,40.356397 47.8544332,40.2882791 C47.801449,40.2351222 47.7722419,40.1629407 47.7734211,40.0880682 L47.7734211,40.0713839 C47.7729031,40.0001355 47.7927658,39.9302116 47.8306883,39.8697826 C47.8731193,39.803163 47.9293019,39.7462902 47.9955061,39.7029402 C48.0733085,39.652735 48.1586492,39.6151884 48.2483198,39.5917119 C48.3513561,39.5649283 48.4575005,39.551838 48.5639879,39.552782 C48.7750701,39.5527959 48.9856252,39.5737548 49.1925304,39.6153479 C49.3994645,39.6578846 49.599955,39.7270567 49.7889474,39.8211203 L49.8336437,39.8433659 L50.1227733,39.3331061 L50.0738866,39.3080797 C49.8316465,39.190584 49.5767142,39.1010207 49.3140486,39.0411318 C49.0782624,38.985372 48.8370417,38.9555325 48.5947166,38.9521344 L48.5793522,38.9521344 C48.3872868,38.9514006 48.1961743,38.9790457 48.0122672,39.0341801 C47.8420128,39.0850169 47.682168,39.1655141 47.5401619,39.2719305 C47.4062081,39.3715591 47.2964253,39.4998434 47.2189069,39.647326 C47.1401096,39.796932 47.0997981,39.9636484 47.1015789,40.1325595 L47.1015789,40.1478534 C47.0939573,40.3182412 47.1430565,40.4863678 47.2412551,40.626135 C47.3351984,40.7475687 47.4524751,40.8491833 47.5862551,40.9250611 C47.7316197,41.007146 47.88701,41.070232 48.048583,41.1127588 C48.2161943,41.1600309 48.3782186,41.2059125 48.5276721,41.2517942 C48.6547773,41.2865531 48.7832794,41.3268733 48.9075911,41.3713646 C49.0241253,41.4123648 49.1363914,41.4645153 49.2428138,41.5270842 C49.3318498,41.5778463 49.4105036,41.6448198 49.4746761,41.7245145 C49.5275839,41.7898606 49.5562006,41.8713878 49.5556883,41.9553132 L49.5556883,41.9706071 C49.5566871,42.0526764 49.5338943,42.1332921 49.4900405,42.2027961 C49.4440792,42.2742925 49.3830809,42.335011 49.3112551,42.3807614 C49.2247948,42.4345399 49.1305917,42.4748614 49.0319028,42.5003318 C48.9254972,42.5298988 48.8155345,42.5448675 48.7050607,42.5448232 C48.4524842,42.5451 48.2009022,42.5133293 47.9563968,42.4502791 C47.7168333,42.3896448 47.4879368,42.2930679 47.2775709,42.1638662 L47.235668,42.1374495 L46.8836842,42.6171215 L46.9297773,42.6477093 C47.0647681,42.7329126 47.2073782,42.8055196 47.3557895,42.8646045 C47.5050803,42.9259967 47.6580934,42.9780054 47.8139271,43.0203241 C47.962154,43.060616 48.1128567,43.0912685 48.265081,43.1120875 C48.4005921,43.1321446 48.5373367,43.1428296 48.674332,43.1440842 C48.8714456,43.1449056 49.0676389,43.1172742 49.2567814,43.0620347 C49.4324492,43.0109374 49.5975328,42.9290096 49.744251,42.8201132 C49.8826702,42.7162069 49.9981915,42.5851263 50.083664,42.4349852 C50.1714694,42.2737668 50.2161983,42.0927992 50.2135628,41.9094315 L50.2135628,41.8941376 C50.2165547,41.7230302 50.1678979,41.5549657 50.0738866,41.4116849 C49.9867047,41.2815319 49.8752842,41.1692067 49.7456478,41.0807807 Z" id="Path" fill="#221E20"></path>
            <path d="M51.4301417,37.5034006 C51.2596503,37.5018436 51.1052108,37.6032697 51.039569,37.7599039 C50.9739273,37.9165381 51.0101737,38.0971447 51.1312348,38.2166521 C51.2099143,38.2956156 51.3170163,38.3400314 51.4287449,38.3400314 C51.5404736,38.3400314 51.6475755,38.2956156 51.7262551,38.2166521 C51.8469432,38.0974998 51.8833596,37.9175771 51.8184387,37.7612012 C51.7535177,37.6048253 51.6001237,37.502983 51.4301417,37.5034006 L51.4301417,37.5034006 Z" id="Path" fill="#221E20"></path>
            <rect id="Rectangle" fill="#221E20" x="51.1088866" y="39.0508643" width="1" height="4.01673183"></rect>
            <path d="M56.0757692,39.5235846 C55.9227414,39.3452092 55.731942,39.2027662 55.5170648,39.1064785 C55.2753344,39.0036588 55.014471,38.9529575 54.7516397,38.9577106 C54.4543473,38.9490877 54.1616415,39.0321261 53.913583,39.1954611 C53.7336459,39.3162557 53.5726693,39.4629063 53.4358907,39.6306418 L53.4358907,39.0480836 L52.8185223,39.0480836 L52.8185223,43.0648154 L53.4358907,43.0648154 L53.4358907,40.5621788 C53.5177821,40.28343 53.6823338,40.0357962 53.907996,39.851708 C54.1402082,39.6683746 54.4287363,39.570185 54.7251012,39.5736373 C54.9085904,39.5692992 55.0906382,39.6068735 55.2572672,39.6834752 C55.3999432,39.7518823 55.5247323,39.8523026 55.6218219,39.9768399 C55.719591,40.1064045 55.792079,40.2530736 55.8355263,40.4092399 C55.8825376,40.5771946 55.9065,40.7507093 55.9067611,40.9250611 L55.9067611,43.0745479 L56.5241296,43.0745479 L56.5241296,40.9181093 C56.5261321,40.6556439 56.4875008,40.3944379 56.4095951,40.1436823 C56.3407423,39.916988 56.2272639,39.7061964 56.0757692,39.5235846 L56.0757692,39.5235846 Z" id="Path" fill="#221E20"></path>
            <path d="M64.7356883,41.0807807 C64.5970273,40.9893414 64.4479209,40.9146635 64.2915182,40.8583241 C64.1308907,40.7985389 63.9730567,40.7457055 63.8222065,40.7012141 L63.4269231,40.5830341 C63.3084416,40.5491864 63.1930338,40.5054675 63.0819231,40.4523408 C62.9937249,40.4119297 62.9133515,40.356397 62.8444737,40.2882791 C62.7914895,40.2351222 62.7622824,40.1629407 62.7634615,40.0880682 L62.7634615,40.0713839 C62.7629436,40.0001355 62.7828063,39.9302116 62.8207287,39.8697826 C62.8631598,39.803163 62.9193424,39.7462902 62.9855466,39.7029402 C63.063349,39.652735 63.1486897,39.6151884 63.2383603,39.5917119 C63.3413966,39.5649283 63.447541,39.551838 63.5540283,39.552782 C63.7651069,39.5528695 63.9756547,39.5738277 64.1825709,39.6153479 C64.3894422,39.6581113 64.5899038,39.7272734 64.7789879,39.8211203 L64.8236842,39.8433659 L65.1128138,39.3331061 L65.0625304,39.3080797 C64.8211653,39.1908158 64.567185,39.1012576 64.3054858,39.0411318 C64.0692127,38.985447 63.8275376,38.9556093 63.5847571,38.9521301 L63.5693927,38.9521301 C63.37732,38.9512974 63.1861922,38.9789447 63.0023077,39.0341801 C62.8320533,39.0850169 62.6722085,39.1655141 62.5302024,39.2719305 C62.3967304,39.3720693 62.2870484,39.5002358 62.2089474,39.647326 C62.1301501,39.796932 62.0898386,39.9636484 62.0916194,40.1325595 L62.0916194,40.1478534 C62.0839977,40.3182412 62.133097,40.4863678 62.2312955,40.626135 C62.3252389,40.7475687 62.4425156,40.8491833 62.5762955,40.9250611 C62.7211528,41.0071759 62.8760855,41.0702667 63.0372267,41.1127588 C63.2034413,41.1600309 63.3654656,41.2059125 63.514919,41.2517942 C63.6420243,41.2865531 63.7705263,41.3268733 63.8948381,41.3713646 C64.0112713,41.41261 64.1235144,41.4647498 64.2300607,41.5270842 C64.3190968,41.5778463 64.3977506,41.6448198 64.4619231,41.7245145 C64.5142352,41.7901886 64.5427763,41.8715004 64.5429352,41.9553132 L64.5429352,41.9706071 C64.543934,42.0526764 64.5211412,42.1332921 64.4772874,42.2027961 C64.4307852,42.2743277 64.3693262,42.3350305 64.2971053,42.3807614 C64.2129791,42.4342227 64.1211252,42.4745468 64.0247368,42.5003318 C63.9183312,42.5298988 63.8083685,42.5448675 63.6978947,42.5448232 C63.444864,42.5450072 63.192832,42.5132389 62.947834,42.4502791 C62.7084488,42.3891192 62.4796296,42.2925749 62.2690081,42.1638662 L62.228502,42.1374495 L61.8765182,42.6171215 L61.9226113,42.6477093 C62.0580283,42.7325595 62.2005634,42.8055935 62.3486235,42.8659949 C62.4980881,42.9265381 62.6510771,42.9780743 62.8067611,43.0203241 C62.954988,43.060616 63.1056908,43.0912685 63.257915,43.1120875 C63.3934261,43.1321446 63.5301707,43.1428296 63.667166,43.1440842 C63.8642796,43.1449056 64.0604729,43.1172742 64.2496154,43.0620347 C64.4251851,43.0106885 64.5902261,42.9287819 64.737085,42.8201132 C64.8758619,42.7165909 64.9914545,42.5854293 65.076498,42.4349852 C65.1643034,42.2737668 65.2090323,42.0927992 65.2063968,41.9094315 L65.2063968,41.8941376 C65.2093887,41.7230302 65.1607319,41.5549657 65.0667206,41.4116849 C64.9787158,41.2812728 64.8663296,41.1689302 64.7356883,41.0807807 Z" id="Path" fill="#221E20"></path>
            <path d="M68.7695344,41.4116849 C68.6798857,41.280749 68.5655668,41.1683711 68.432915,41.0807807 C68.2945684,40.9896527 68.1459622,40.9149905 67.9901417,40.8583241 C67.8295142,40.7985389 67.6702834,40.7457055 67.5194332,40.7012141 L67.1241498,40.5830341 C67.0060371,40.5494334 66.8910725,40.5057053 66.7805466,40.4523408 C66.6919526,40.411895 66.6111258,40.3563756 66.5417004,40.2882791 C66.4887162,40.2351222 66.4595091,40.1629407 66.4606883,40.0880682 L66.4606883,40.0713839 C66.4608402,40.0002271 66.4806519,39.9304827 66.5179555,39.8697826 C66.5603865,39.803163 66.6165691,39.7462902 66.6827733,39.7029402 C66.7605757,39.652735 66.8459164,39.6151884 66.935587,39.5917119 C67.0386233,39.5649283 67.1447677,39.551838 67.2512551,39.552782 C67.4623336,39.5528695 67.6728814,39.5738277 67.8797976,39.6153479 C68.0867317,39.6578846 68.2872222,39.7270567 68.4762146,39.8211203 L68.5209109,39.8433659 L68.8100405,39.3331061 L68.7611538,39.3080797 C68.5192143,39.1910256 68.2647959,39.1014781 68.0027126,39.0411318 C67.7664394,38.985447 67.5247643,38.9556093 67.2819838,38.9521344 L67.2666194,38.9521344 C67.074554,38.9514006 66.8834415,38.9790457 66.6995344,39.0341801 C66.5292801,39.0850169 66.3694353,39.1655141 66.2274291,39.2719305 C66.0943302,39.3724629 65.9847248,39.5005399 65.9061741,39.647326 C65.8273768,39.796932 65.7870653,39.9636484 65.7888462,40.1325595 L65.7888462,40.1478534 C65.7812245,40.3182412 65.8303237,40.4863678 65.9285223,40.626135 C66.0224656,40.7475687 66.1397423,40.8491833 66.2735223,40.9250611 C66.4185016,41.0069258 66.5734012,41.0700031 66.7344534,41.1127588 C66.9020648,41.1600309 67.0612955,41.2059125 67.2121457,41.2517942 C67.339251,41.2865531 67.467753,41.3268733 67.5920648,41.3713646 C67.708599,41.4123648 67.8208651,41.4645153 67.9272874,41.5270842 C68.0173249,41.5775598 68.096946,41.6445499 68.1619433,41.7245145 C68.2148511,41.7898606 68.2434678,41.8713878 68.2429555,41.9553132 L68.2429555,41.9706071 C68.2439543,42.0526764 68.2211615,42.1332921 68.1773077,42.2027961 C68.1309416,42.2739674 68.0700215,42.334608 67.9985223,42.3807614 C67.9142836,42.4340134 67.8224628,42.474323 67.7261538,42.5003318 C67.6192695,42.5298883 67.508847,42.5448556 67.397915,42.5448232 C67.1453384,42.5451 66.8937565,42.5133293 66.649251,42.4502791 C66.4093344,42.3893907 66.1800148,42.292834 65.9690283,42.1638662 L65.9285223,42.1374495 L65.5765385,42.6171215 L65.6226316,42.6477093 C65.7582168,42.7331172 65.9012662,42.8061752 66.0500405,42.8659949 C66.1989525,42.9267431 66.3514895,42.9782842 66.5067814,43.0203241 C66.6550398,43.0604841 66.8057339,43.0911348 66.9579352,43.1120875 C67.0934463,43.1321446 67.2301909,43.1428296 67.3671862,43.1440842 C67.5642998,43.1449056 67.7604931,43.1172742 67.9496356,43.0620347 C68.1265776,43.0122484 68.2931049,42.9312504 68.4412955,42.8228939 C68.5804404,42.7197679 68.6961077,42.5885216 68.7807085,42.4377659 C68.8691702,42.2768008 68.9139423,42.0956586 68.9106073,41.9122122 L68.9106073,41.8969183 C68.913748,41.7247228 68.8645776,41.5555965 68.7695344,41.4116849 L68.7695344,41.4116849 Z" id="Path" fill="#221E20"></path>
            <path d="M39.7434413,38.9702238 C39.1881628,38.9703418 38.6556415,39.1898743 38.2628745,39.5805891 L38.2628745,37.4005145 L37.6455061,37.4005145 L37.6455061,41.2059125 L37.6524899,41.2059125 C37.7283831,42.3365254 38.6973098,43.1999527 39.8345771,43.1504081 C40.9718445,43.1008635 41.8612869,42.1564771 41.8376606,41.0235872 C41.8140342,39.8906974 40.8859847,38.9838677 39.7476316,38.9813466 L39.7434413,38.9702238 Z M39.7434413,42.5531653 C38.9141757,42.5531653 38.2419231,41.8839965 38.2419231,41.058535 C38.2419231,40.2330736 38.9141757,39.5639048 39.7434413,39.5639048 C40.5727069,39.5639048 41.2449595,40.2330736 41.2449595,41.058535 C41.2434222,41.8833618 40.5720693,42.551635 39.7434413,42.5531653 Z" id="Shape" fill="#221E20"></path>
            <path d="M59.4154251,38.9702238 C58.3777919,38.9711059 57.4971177,39.7278826 57.3447762,40.7495637 C57.1924347,41.7712448 57.8143237,42.7500158 58.806967,43.0508587 C59.7996104,43.3517016 60.8639421,42.8839777 61.3094332,41.9511421 L60.6110526,41.9511421 C60.2580099,42.4239427 59.6585173,42.6456683 59.0809807,42.5170474 C58.5034441,42.3884265 58.0560273,41.9335479 57.9390486,41.3560707 L61.4840283,41.3560707 C61.5760852,40.755905 61.399207,40.1457354 61.0000903,39.6866496 C60.6009736,39.2275638 60.01974,38.9657118 59.4098381,38.9702238 L59.4154251,38.9702238 Z M59.4154251,39.5639048 C60.1212648,39.5641177 60.731664,40.053669 60.8820243,40.7401441 L57.9488259,40.7401441 C58.0996623,40.053962 58.7097718,39.5646431 59.4154251,39.5639048 L59.4154251,39.5639048 Z" id="Shape" fill="#221E20"></path>
        </g>
    </g>
</svg>