<svg xmlns="http://www.w3.org/2000/svg" xmlns:xlink="http://www.w3.org/1999/xlink" width="64" height="64" viewBox="0 0 64 64">
    <defs>
        <path id="9x5xdfzxxa" d="M24.953.136h3.752c1.36 0 2.462 1.102 2.462 2.461v20.034c0 .873-.3 1.63-.899 2.272-.599.642-1.322.963-2.17.963H3.092c-.848 0-1.572-.32-2.17-.963-.6-.642-.899-1.399-.899-2.272V3.37c0-.873.3-1.63.898-2.272.6-.642 1.323-.963 2.171-.963h1.61l2.344 3.676c.452.71 1.234 1.139 2.075 1.139h.99c.708 0 1.283-.575 1.283-1.283 0-.245-.07-.484-.201-.69l-.987-1.548c-.25-.392-.135-.912.257-1.162.135-.086.292-.132.452-.132h.203c.831 0 1.606.42 2.06 1.115l1.688 2.584c.454.696 1.23 1.116 2.06 1.116h1.008c.7 0 1.266-.567 1.266-1.267 0-.246-.071-.486-.206-.692l-1.005-1.54c-.257-.393-.147-.92.247-1.178.138-.09.3-.138.465-.138h.24c.831 0 1.606.42 2.06 1.115l1.688 2.584c.454.696 1.23 1.116 2.06 1.116h1.008c.7 0 1.266-.567 1.266-1.267 0-.246-.071-.486-.206-.692L24.953.136zm-5.508 14.736l-5.603 3.24c-.589.34-1.342.139-1.682-.45-.108-.187-.165-.4-.165-.616v-6.728c0-.68.551-1.23 1.23-1.23.23 0 .456.064.651.185l5.604 3.489c.577.359.753 1.118.394 1.695-.107.171-.254.314-.429.415z"/>
    </defs>
    <g fill="none" fill-rule="evenodd">
        <g>
            <g>
                <g>
                    <g>
                        <g>
                            <g transform="translate(-388 -797) translate(0 631) translate(130 147) translate(200) translate(58 19)">
                                <circle cx="32" cy="32" r="32" fill="#ED2324" fill-rule="nonzero"/>
                                <g>
                                    <path fill="#ED2324" fill-rule="nonzero" d="M3.119 0.231H29.113V6.651H3.119z" transform="rotate(-13 112.647 -47.515)"/>
                                    <g transform="rotate(-13 112.647 -47.515)">
                                        <mask id="c8zij3xxsb" fill="#fff">
                                            <use xlink:href="#9x5xdfzxxa"/>
                                        </mask>
                                        <use fill="#FFF" xlink:href="#9x5xdfzxxa"/>
                                        <circle cx="4.7" cy="7.387" r="12.308" fill="#E4E4E4" fill-rule="nonzero" mask="url(#c8zij3xxsb)" opacity=".528"/>
                                    </g>
                                </g>
                            </g>
                        </g>
                    </g>
                </g>
            </g>
        </g>
    </g>
</svg>
