<svg xmlns="http://www.w3.org/2000/svg" xmlns:xlink="http://www.w3.org/1999/xlink" width="40" height="40" viewBox="0 0 40 40">
    <defs>
        <rect id="1gds9pfgya" width="13.382" height="8.364" x="0" y="0" rx="1.673"/>
        <rect id="0den5yon3c" width="13.382" height="8.364" x="0" y="0" rx="1.673"/>
    </defs>
    <g fill="none" fill-rule="evenodd">
        <g transform="translate(-5 -5)">
            <g transform="rotate(48 11.27 26.115)">
                <g transform="translate(0 11.71)">
                    <mask id="vdtwjvjrwb" fill="#fff">
                        <use xlink:href="#1gds9pfgya"/>
                    </mask>
                    <use fill="#CA2627" xlink:href="#1gds9pfgya"/>
                    <rect width="13.382" height="8.364" x="-1.675" y="-3.359" fill="#ED2324" mask="url(#vdtwjvjrwb)" rx="1.673"/>
                </g>
                <g transform="translate(25.09 11.71)">
                    <mask id="15qms1uuyd" fill="#fff">
                        <use xlink:href="#0den5yon3c"/>
                    </mask>
                    <use fill="#CA2627" xlink:href="#0den5yon3c"/>
                    <rect width="13.382" height="8.364" x="-1.486" y="-3.784" fill="#ED2324" mask="url(#15qms1uuyd)" rx="1.673"/>
                </g>
                <path fill="#AD1E1F" d="M13.382 15.055H25.091V18.4H13.382z"/>
                <path fill="#AD1E1F" d="M18.4 3.345H20.073V28.436H18.4z"/>
                <circle cx="19.236" cy="27.6" r="2.509" fill="#ED2324"/>
                <rect width="8.364" height="16.727" x="15.055" y="6.691" fill="#ED2324" rx="1.673"/>
                <circle cx="21.044" cy="19.906" r="1" fill="#FFF" fill-rule="nonzero"/>
                <circle cx="20.91" cy="17.338" r="1" fill="#FFF" fill-rule="nonzero"/>
                <path fill="#ED2324" d="M23.418.836c0 2.31-1.872 4.182-4.182 4.182-2.31 0-4.181-1.872-4.181-4.182 0-.463.375-.839.839-.839h6.685c.463 0 .84.376.84.84z"/>
                <path fill="#AD1E1F" d="M15.89 0h6.692c.462 0 .836.374.836.836 0 .462-.374.837-.836.837H15.89c-.462 0-.836-.375-.836-.837 0-.462.374-.836.836-.836z"/>
            </g>
        </g>
    </g>
</svg>
