<svg xmlns="http://www.w3.org/2000/svg" width="50" height="50" viewBox="0 0 50 50">
    <g fill="none" fill-rule="evenodd">
        <path d="M15 15H35V35H15z"/>
        <path fill="#211E20" fill-rule="nonzero" d="M34.695 33.531l-4.842-5.036c1.245-1.48 1.927-3.342 1.927-5.28 0-4.53-3.685-8.215-8.214-8.215-4.53 0-8.215 3.685-8.215 8.214 0 4.53 3.685 8.215 8.215 8.215 1.7 0 3.32-.513 4.706-1.487l4.879 5.074c.204.212.478.329.772.329.278 0 .542-.106.742-.299.426-.41.44-1.089.03-1.515zm-11.13-16.388c3.349 0 6.072 2.723 6.072 6.071s-2.723 6.072-6.071 6.072-6.072-2.724-6.072-6.072 2.724-6.071 6.072-6.071z"/>
    </g>
</svg>
