<svg xmlns="http://www.w3.org/2000/svg" width="20" height="20" viewBox="0 0 20 20">
  <g id="caret-up-black" transform="translate(-15 -15)">
    <path id="Path_24" data-name="Path 24" d="M0,0H20V20H0Z" transform="translate(15 15)" fill="none" fill-rule="evenodd"/>
    <path id="Path_25" data-name="Path 25" d="M1.691,14.237a1.749,1.749,0,0,0,2.475,0L10,8.4l5.835,5.835a1.749,1.749,0,0,0,2.369.1l.106-.1a1.75,1.75,0,0,0,0-2.474L11.237,4.69a1.75,1.75,0,0,0-2.474,0L1.69,11.763a1.75,1.75,0,0,0,0,2.474Z" transform="translate(15 15)" fill="#211e20"/>
  </g>
</svg>
