<?xml version="1.0" encoding="UTF-8"?>
<svg width="24px" height="25px" viewBox="0 0 24 25" version="1.1" xmlns="http://www.w3.org/2000/svg" xmlns:xlink="http://www.w3.org/1999/xlink">
    <title>63930563-0C64-4E95-A22D-DF11319D2D07</title>
    <g id="Desktop---General-Product" stroke="none" stroke-width="1" fill="none" fill-rule="evenodd">
        <g id="Personal/product/package_detail_tariff" transform="translate(-430.000000, -779.000000)">
            <g id="Group-6" transform="translate(430.000000, 381.000000)">
                <g id="Group-4-Copy-10" transform="translate(0.000000, 391.000000)">
                    <g id="icon/package/quota-copy-7" transform="translate(0.000000, 7.591837)">
                        <g id="Group-5" opacity="0" stroke="#979797" stroke-width="0.5">
                            <g id="Group-6">
                                <rect id="Rectangle" opacity="0.289481027" x="0.25" y="0.25" width="23.5" height="23.5" rx="9"></rect>
                                <rect id="Rectangle" fill="#D8D8D8" opacity="0.390345982" x="3.85" y="0.25" width="16.3" height="23.5" rx="0.9"></rect>
                                <rect id="Rectangle" fill="#D8D8D8" opacity="0.296619234" x="2.05" y="2.05" width="19.9" height="19.9" rx="0.9"></rect>
                                <path d="M19.5,0.25 L20.15,23.1 L4.5,23.75 L3.85,0.9 L19.5,0.25 Z" id="Rectangle" opacity="0.265927269" transform="translate(12.000000, 12.000000) rotate(90.000000) translate(-12.000000, -12.000000) "></path>
                            </g>
                        </g>
                        <g id="Group-4">
                            <circle id="Oval" fill="#FFD600" cx="12" cy="12" r="12"></circle>
                            <path d="M7.329,10.5309 C7.572,10.5309 7.7718,10.3311 7.7718,10.0827 C7.7718,9.8397 7.572,9.6399 7.329,9.6399 C7.0806,9.6399 6.8808,9.8397 6.8808,10.0827 C6.8808,10.3311 7.0806,10.5309 7.329,10.5309 Z M7.5126,13.7277 C7.6476,13.7277 7.7178,13.6575 7.7178,13.5171 L7.7178,11.2113 C7.7178,10.9953 7.545,10.8225 7.329,10.8225 C7.1184,10.8225 6.9456,10.9953 6.9456,11.2113 L6.9456,13.5171 C6.9456,13.6575 7.0158,13.7277 7.1562,13.7277 L7.5126,13.7277 Z M9.6942,13.7817 C10.1154,13.7817 10.4394,13.6467 10.5636,13.5765 C10.7148,13.4901 10.7958,13.3821 10.7958,13.2363 C10.7958,13.0311 10.6338,12.8691 10.4394,12.8691 C10.3692,12.8691 10.299,12.8961 10.2288,12.9339 C10.0992,13.0041 9.9372,13.0473 9.7482,13.0473 C9.3648,13.0473 9.0138,12.7557 9.0138,12.3021 C9.0138,11.8485 9.3648,11.5677 9.7536,11.5677 C9.9264,11.5677 10.083,11.6163 10.2126,11.6865 C10.2828,11.7243 10.353,11.7513 10.4232,11.7513 C10.6176,11.7513 10.7796,11.5893 10.7796,11.3841 C10.7796,11.2383 10.6986,11.1303 10.5474,11.0439 C10.4232,10.9737 10.0992,10.8279 9.6942,10.8279 C8.8248,10.8279 8.2146,11.4975 8.2146,12.3075 C8.2146,13.1175 8.8356,13.7817 9.6942,13.7817 Z M12.4914,13.7817 C13.3068,13.7817 13.9656,13.1229 13.9656,12.2967 C13.9656,11.4813 13.3068,10.8225 12.4914,10.8225 C11.676,10.8225 11.0172,11.4813 11.0172,12.2967 C11.0172,13.1229 11.676,13.7817 12.4914,13.7817 Z M12.4914,13.0257 C12.0972,13.0257 11.7678,12.7071 11.7678,12.2967 C11.7678,11.8971 12.0972,11.5785 12.4914,11.5785 C12.8964,11.5785 13.215,11.8971 13.215,12.2967 C13.215,12.7071 12.8964,13.0257 12.4914,13.0257 Z M15.078,13.7277 C15.1752,13.7277 15.2292,13.6737 15.2292,13.5765 L15.2292,12.1239 C15.2292,11.7675 15.4614,11.5623 15.7692,11.5623 C16.0824,11.5623 16.3038,11.7675 16.3038,12.1239 L16.3038,13.5765 C16.3038,13.6737 16.3578,13.7277 16.455,13.7277 L16.9248,13.7277 C17.022,13.7277 17.076,13.6737 17.076,13.5765 L17.076,11.8971 C17.076,11.2815 16.7034,10.8225 16.0392,10.8225 C15.6666,10.8225 15.3966,10.9683 15.2238,11.1627 C15.2022,10.9683 15.0348,10.8225 14.8404,10.8225 C14.6298,10.8225 14.457,10.9953 14.457,11.2113 L14.457,13.5765 C14.457,13.6737 14.511,13.7277 14.6082,13.7277 L15.078,13.7277 Z" id="icon" fill="#000000" fill-rule="nonzero"></path>
                        </g>
                    </g>
                </g>
            </g>
        </g>
    </g>
</svg>