<?xml version="1.0" encoding="UTF-8"?>
<svg width="40px" height="40px" viewBox="0 0 40 40" version="1.1" xmlns="http://www.w3.org/2000/svg" xmlns:xlink="http://www.w3.org/1999/xlink">
    <title>3E700A8C-324B-4F69-9795-9892B5B37EAC</title>
    <g id="symbol" stroke="none" stroke-width="1" fill="none" fill-rule="evenodd">
        <g id="icon/general/ico_coverage" fill-rule="nonzero">
            <g id="Group-6" transform="translate(7.000000, -4.000000)">
                <g id="Group-2" transform="translate(0.321429, 0.000000)">
                    <path d="M12.5,6.70731707 C12.8553017,6.70731707 13.17057,6.9351209 13.2821228,7.27245643 L24.5220361,41.2619541 C24.7127748,41.8387479 24.3998153,42.4609559 23.8230215,42.6516946 C23.7116045,42.6885389 23.5950095,42.7073171 23.4776585,42.7073171 L21.0093665,42.7073171 C20.5539624,42.7073171 20.1456469,42.4266906 19.9824379,42.0015369 C18.3798668,37.8268957 15.8857208,35.7395751 12.5,35.7395751 C9.11427093,35.7395751 6.62012107,37.8269059 5.01755043,42.0015674 C4.85431703,42.4267005 4.44601115,42.7073171 3.99061758,42.7073171 L1.52234147,42.7073171 C0.914828247,42.7073171 0.422341472,42.2148303 0.422341472,41.6073171 C0.422341472,41.4899661 0.441119687,41.3733711 0.477963936,41.2619541 L11.7178772,7.27245643 C11.82943,6.9351209 12.1446983,6.70731707 12.5,6.70731707 Z M12.5,14.463 L5.508,35.604 L5.67306769,35.4433847 C7.44993951,33.7469865 9.6366732,32.8130686 12.1916392,32.7437382 L12.5,32.7395751 C15.1877259,32.7395751 17.4789751,33.6791264 19.3269198,35.4433728 L19.491,35.604 L12.5,14.463 Z" id="Rectangle-2" fill="#ED2324"></path>
                    <path d="M5.72984524,22.7487443 L17.0398588,22.6404188 C17.5921436,22.6404188 18.0398588,23.0881341 18.0398588,23.6404188 C18.0398588,24.1927036 17.5921436,24.6404188 17.0398588,24.6404188 L5.72984524,24.7487443 C5.17756049,24.7487443 4.72984524,24.3010291 4.72984524,23.7487443 C4.72984524,23.1964596 5.17756049,22.7487443 5.72984524,22.7487443 Z" id="Rectangle-4" fill="#ED2324" transform="translate(11.384852, 23.694582) rotate(-32.000000) translate(-11.384852, -23.694582) "></path>
                    <path d="M6.68561913,26.8622571 L15.2017724,27.1244016 C15.7540571,27.1244016 16.2017724,27.5721169 16.2017724,28.1244016 C16.2017724,28.6766864 15.7540571,29.1244016 15.2017724,29.1244016 L6.68561913,28.8622571 C6.13333438,28.8622571 5.68561913,28.4145418 5.68561913,27.8622571 C5.68561913,27.3099723 6.13333438,26.8622571 6.68561913,26.8622571 Z" id="Rectangle-4" fill="#ED2324" transform="translate(10.943696, 27.993329) scale(-1, 1) rotate(-32.000000) translate(-10.943696, -27.993329) "></path>
                    <path d="M4.31154756,31.1955139 L18.7346341,31.3919878 C19.2869189,31.3919878 19.7346341,31.839703 19.7346341,32.3919878 C19.7346341,32.9442725 19.2869189,33.3919878 18.7346341,33.3919878 L4.31154756,33.1955139 C3.75926281,33.1955139 3.31154756,32.7477986 3.31154756,32.1955139 C3.31154756,31.6432291 3.75926281,31.1955139 4.31154756,31.1955139 Z" id="Rectangle-4" fill="#ED2324" transform="translate(11.523091, 32.293751) rotate(-32.000000) translate(-11.523091, -32.293751) "></path>
                    <g id="Group-5" transform="translate(3.678571, 13.000000)">
                        <ellipse id="Oval-2" fill="#ED2324" cx="4.89285714" cy="4.92682927" rx="4.42857143" ry="4.3902439"></ellipse>
                        <ellipse id="Oval-2" fill="#FFFFFF" cx="4.89285714" cy="4.92682927" rx="2.21428571" ry="2.19512195"></ellipse>
                    </g>
                </g>
            </g>
        </g>
    </g>
</svg>