<svg xmlns="http://www.w3.org/2000/svg" width="39.925" height="39" viewBox="0 0 39.925 39">
  <g id="periode" transform="translate(-0.075 -1)">
    <g id="Group_3" data-name="Group 3">
      <path id="Path_9" data-name="Path 9" d="M20.5,1A19.484,19.484,0,1,1,2.71,12.5C3.05,11.747,4.244,10.6,5,10.936s.786,2.042.446,2.8A16.493,16.493,0,1,0,12.6,6.012,1.5,1.5,0,1,1,11.157,3.38,19.41,19.41,0,0,1,20.5,1Z" fill="#ed2324"/>
      <path id="Path_10" data-name="Path 10" d="M20.5,23A1.5,1.5,0,0,1,19,21.5v-9a1.5,1.5,0,0,1,3,0V20h5.5a1.5,1.5,0,0,1,0,3Z" fill="#ed2324"/>
      <path id="Path_11" data-name="Path 11" d="M2.746-9a1.425,1.425,0,0,0,1.425-1.426l-.32-2.718,2.674.178a1.426,1.426,0,0,0,1.421-1.31l.005-.116a1.426,1.426,0,0,0-1.426-1.426L2.425-16A1.426,1.426,0,0,0,1-14.57l.32,4.144A1.425,1.425,0,0,0,2.746-9Z" transform="translate(-8.793 12.103) rotate(72)" fill="#ed2324"/>
    </g>
  </g>
</svg>
