<svg xmlns="http://www.w3.org/2000/svg" width="34" height="38.148" viewBox="0 0 34 38.148">
  <g id="pulsa-safe" transform="translate(-2.5 -0.459)">
    <g id="Group_4" data-name="Group 4">
      <path id="Path_12" data-name="Path 12" d="M4,7A82.3,82.3,0,0,1,19.326,2,110.861,110.861,0,0,1,35,7V21q0,9.639-15.674,16Q4,31.42,4,21Z" fill="none" stroke="#ed2324" stroke-width="3" fill-rule="evenodd"/>
      <path id="Path_13" data-name="Path 13" d="M11.528,17a.188.188,0,0,0,.2-.2v-1.08h.78a1.458,1.458,0,1,0,0-2.916H11.24a.481.481,0,0,0-.48.48V16.8a.189.189,0,0,0,.2.2h.564Zm.912-2.148h-.714v-1.17h.714a.585.585,0,0,1,0,1.17Zm3.786,2.208a1.665,1.665,0,0,0,1.752-1.752V13.28a.487.487,0,0,0-.486-.48.481.481,0,0,0-.48.48v1.944c0,.6-.33.924-.786.924s-.792-.312-.792-.924V13.28a.487.487,0,0,0-.486-.48.481.481,0,0,0-.48.48v2.028a1.67,1.67,0,0,0,1.758,1.752ZM21.332,17a.446.446,0,0,0,.474-.438.441.441,0,0,0-.474-.432h-1.44V13.28a.487.487,0,0,0-.486-.48.481.481,0,0,0-.48.48v3.354a.373.373,0,0,0,.4.366Zm2.406.06c1.146,0,1.7-.624,1.686-1.35-.006-.366-.21-.8-.948-1.056l-.612-.216c-.33-.114-.492-.234-.492-.432,0-.168.126-.312.372-.312a2.091,2.091,0,0,1,.57.114,1.771,1.771,0,0,0,.606.162.432.432,0,0,0,.432-.438.5.5,0,0,0-.27-.426,2.478,2.478,0,0,0-1.206-.3c-1.056,0-1.626.564-1.608,1.326.006.438.318.852,1.038,1.1l.51.18c.354.126.528.216.528.438,0,.192-.132.318-.4.318a3.193,3.193,0,0,1-.684-.114,5.02,5.02,0,0,0-.75-.21.432.432,0,0,0-.432.438.54.54,0,0,0,.354.468,3.208,3.208,0,0,0,1.3.306ZM26.372,17a.3.3,0,0,0,.294-.186c.09-.216.18-.42.264-.624h1.578c.09.222.18.426.264.624a.291.291,0,0,0,.27.186h.546c.108,0,.234-.066.174-.21l-1.614-3.78a.463.463,0,0,0-.852,0l-1.62,3.78c-.06.144.066.21.174.21h.522Zm1.818-1.608h-.936c.162-.4.312-.8.468-1.236C27.872,14.576,28.034,15,28.19,15.392ZM14.3,24.06c1.146,0,1.7-.624,1.686-1.35-.006-.366-.21-.8-.948-1.056l-.612-.216c-.33-.114-.492-.234-.492-.432,0-.168.126-.312.372-.312a2.091,2.091,0,0,1,.57.114,1.771,1.771,0,0,0,.606.162.432.432,0,0,0,.432-.438.5.5,0,0,0-.27-.426,2.478,2.478,0,0,0-1.206-.3c-1.056,0-1.626.564-1.608,1.326.006.438.318.852,1.038,1.1l.51.18c.354.126.528.216.528.438,0,.192-.132.318-.4.318a3.193,3.193,0,0,1-.684-.114,5.02,5.02,0,0,0-.75-.21.432.432,0,0,0-.432.438.54.54,0,0,0,.354.468,3.208,3.208,0,0,0,1.3.306ZM16.937,24a.3.3,0,0,0,.294-.186c.09-.216.18-.42.264-.624h1.578c.09.222.18.426.264.624a.291.291,0,0,0,.27.186h.546c.108,0,.234-.066.174-.21l-1.614-3.78a.463.463,0,0,0-.852,0l-1.62,3.78c-.06.144.066.21.174.21h.522Zm1.818-1.608h-.936c.162-.4.312-.8.468-1.236C18.437,21.576,18.6,22,18.755,22.392ZM21.653,24a.188.188,0,0,0,.2-.2V22.47h1.29a.451.451,0,1,0,0-.9h-1.29v-.81h1.56a.451.451,0,1,0,0-.9H21.359a.442.442,0,0,0-.474.468V23.8a.189.189,0,0,0,.2.2h.564Zm5.28,0a.451.451,0,1,0,0-.9h-1.56v-.714h1.29a.451.451,0,1,0,0-.9h-1.29V20.76h1.56a.451.451,0,1,0,0-.9H24.881a.442.442,0,0,0-.474.468v3.306a.373.373,0,0,0,.4.366h2.124Z" fill="#ed2324"/>
    </g>
  </g>
</svg>
