<?xml version="1.0" encoding="UTF-8"?>
<svg width="507px" height="430px" viewBox="0 0 507 430" version="1.1" xmlns="http://www.w3.org/2000/svg" xmlns:xlink="http://www.w3.org/1999/xlink">
    <!-- Generator: sketchtool 62 (101010) - https://sketch.com -->
    <title>4D9BF90E-90B7-481B-BDAE-B02FABF15360</title>
    <desc>Created with sketchtool.</desc>
    <defs>
        <rect id="path-1" x="0" y="0" width="507" height="430"></rect>
        <ellipse id="path-3" cx="164" cy="167" rx="164" ry="167"></ellipse>
        <path d="M121.336,234 C122.776,234 123.712,233.064 123.712,231.552 L123.712,195.12 L133.36,195.12 C136.456,195.12 138.904,192.816 138.904,189.72 C138.904,186.624 136.456,184.32 133.36,184.32 L102.544,184.32 C99.448,184.32 97,186.624 97,189.72 C97,192.816 99.448,195.12 102.544,195.12 L112.12,195.12 L112.12,231.552 C112.12,233.064 113.056,234 114.568,234 L121.336,234 Z M150.496,234 C151.792,234 152.512,233.28 152.512,231.984 L152.512,215.208 C152.512,209.376 157.048,205.344 162.016,205.344 C163.384,205.344 164.392,205.488 165.616,205.488 C168.568,205.488 170.584,203.112 170.584,200.52 C170.584,198.36 169.36,196.56 167.416,195.768 C166.192,195.264 164.824,195.264 163.096,195.264 C158.92,195.264 155.68,195.696 151.864,198.072 C146.176,201.528 142.216,207.936 142.216,215.28 L142.216,231.984 C142.216,233.28 142.936,234 144.232,234 L150.496,234 Z M191.824,234.72 C195.496,234.72 198.952,233.496 201.904,230.688 L201.904,231.192 C201.904,233.064 202.84,234 204.712,234 L209.464,234 C211.264,234 212.2,233.064 212.2,231.192 L212.2,200.448 C212.2,197.568 209.896,195.264 207.016,195.264 C204.712,195.264 202.768,196.776 202.12,198.864 C199.168,196.344 195.64,195.264 191.824,195.264 C181.456,195.264 172.6,204.048 172.6,214.92 C172.6,225.936 181.456,234.72 191.824,234.72 Z M192.256,224.64 C187,224.64 182.608,220.392 182.608,214.92 C182.608,209.592 187,205.344 192.256,205.344 C197.656,205.344 201.904,209.592 201.904,214.92 C201.904,220.392 197.656,224.64 192.256,224.64 Z M236.104,234.72 C238.408,234.72 240.28,233.496 241.36,231.048 L253.456,203.544 C253.816,202.824 254.104,201.888 254.104,200.808 C254.104,197.928 251.728,195.264 248.56,195.264 C246.328,195.264 244.168,196.704 243.16,199.368 C240.784,205.488 238.408,211.536 236.104,217.656 C233.8,211.536 231.424,205.488 229.048,199.368 C228.04,196.704 225.88,195.264 223.648,195.264 C220.48,195.264 218.104,197.928 218.104,200.808 C218.104,201.888 218.392,202.824 218.752,203.544 L230.848,231.048 C231.928,233.496 233.8,234.72 236.104,234.72 Z M278.512,234.72 C282.544,234.72 287.872,233.928 291.184,232.056 C293.272,230.904 294.352,229.392 294.352,227.448 C294.352,224.712 292.192,222.768 289.744,222.768 C288.664,222.768 287.728,223.128 286.864,223.632 C285.136,224.64 282.4,225.648 279.016,225.648 C273.688,225.648 269.296,223.128 268,219.24 L292.624,219.24 C294.784,219.24 296.8,217.584 296.8,213.48 C296.8,204.48 288.016,195.264 277.36,195.264 C265.984,195.264 257.56,204.192 257.56,215.136 C257.56,226.656 266.2,234.72 278.512,234.72 Z M286.576,211.824 L267.784,211.824 C268.648,208.008 272.464,204.768 277.216,204.768 C281.968,204.768 285.712,208.008 286.576,211.824 Z M309.832,234 C311.632,234 312.568,233.064 312.568,231.192 L312.568,184.752 C312.568,181.872 310.264,179.568 307.384,179.568 C304.576,179.568 302.272,181.872 302.272,184.752 L302.272,231.192 C302.272,233.064 303.208,234 305.08,234 L309.832,234 Z M359.728,234.72 C374.056,234.72 385.504,223.56 385.504,209.232 C385.504,194.832 374.056,183.672 359.728,183.672 C345.328,183.672 333.88,194.832 333.88,209.232 C333.88,223.56 345.328,234.72 359.728,234.72 Z M359.656,223.776 C351.592,223.776 345.4,217.368 345.4,209.232 C345.4,201.168 351.592,194.616 359.656,194.616 C367.72,194.616 373.984,201.168 373.984,209.232 C373.984,217.368 367.72,223.776 359.656,223.776 Z M403.36,234 C404.8,234 405.736,233.064 405.736,231.552 L405.448,204.264 L426.112,231.48 C427.768,233.64 429.064,234 430.432,234 L435.112,234 C436.552,234 437.416,232.92 437.416,231.696 L437.344,189.36 C437.344,186.192 434.68,183.6 431.512,183.6 C428.344,183.6 425.752,186.192 425.752,189.36 L425.968,213.48 L405.52,186.984 C403.432,184.32 401.776,183.6 399.976,183.6 C396.736,183.6 394.144,186.336 394.144,189.504 L394.144,231.552 C394.144,233.064 395.08,234 396.592,234 L403.36,234 Z" id="path-5"></path>
        <filter x="-2.6%" y="-9.1%" width="105.3%" height="136.3%" filterUnits="objectBoundingBox" id="filter-6">
            <feOffset dx="0" dy="6" in="SourceAlpha" result="shadowOffsetOuter1"></feOffset>
            <feGaussianBlur stdDeviation="2" in="shadowOffsetOuter1" result="shadowBlurOuter1"></feGaussianBlur>
            <feColorMatrix values="0 0 0 0 0   0 0 0 0 0   0 0 0 0 0  0 0 0 0.180370411 0" type="matrix" in="shadowBlurOuter1"></feColorMatrix>
        </filter>
    </defs>
    <g id="Desktop---Personal/Roaming" stroke="none" stroke-width="1" fill="none" fill-rule="evenodd">
        <g id="Personal/Mobile/Visit_indonesia/landing" transform="translate(-803.000000, -955.000000)">
            <g id="OPENING-Copy-2" transform="translate(0.000000, 955.000000)">
                <g id="img_shop_ola" transform="translate(803.000000, 0.000000)">
                    <mask id="mask-2" fill="white">
                        <use xlink:href="#path-1"></use>
                    </mask>
                    <use id="Rectangle" fill="#F9F9F9" xlink:href="#path-1"></use>
                    <g id="Group-21" mask="url(#mask-2)">
                        <g transform="translate(10.000000, 47.000000)" id="circle">
                            <g transform="translate(212.000000, 168.500000) scale(-1, 1) translate(-212.000000, -168.500000) ">
                                <ellipse id="Oval-6" fill="#ED1C24" fill-rule="nonzero" cx="359.8" cy="269.786" rx="64" ry="67"></ellipse>
                                <g id="Group-18" transform="translate(0.000000, 0.988000)">
                                    <mask id="mask-4" fill="white">
                                        <use xlink:href="#path-3"></use>
                                    </mask>
                                    <use id="Oval-6" fill="#ED1C24" fill-rule="nonzero" xlink:href="#path-3"></use>
                                </g>
                            </g>
                        </g>
                    </g>
                    <g id="TravelON" fill-rule="nonzero" mask="url(#mask-2)">
                        <use fill="black" fill-opacity="1" filter="url(#filter-6)" xlink:href="#path-5"></use>
                        <use fill="#FFFFFF" xlink:href="#path-5"></use>
                    </g>
                </g>
            </g>
        </g>
    </g>
</svg>