<svg width="71" height="72" viewBox="0 0 71 72" fill="none" xmlns="http://www.w3.org/2000/svg">
<path d="M58.3314 0.5H12.6686C5.67194 0.5 0 6.17194 0 13.1686V58.8314C0 65.8281 5.67194 71.5 12.6686 71.5H58.3314C65.3281 71.5 71 65.8281 71 58.8314V13.1686C71 6.17194 65.3281 0.5 58.3314 0.5Z" fill="#FFA88E"/>
<path d="M54.6916 26.3092C55.1315 19.8017 50.2167 14.1666 43.7096 13.7268C43.3269 13.7009 42.996 13.9867 42.9704 14.3652C42.9448 14.7436 43.2343 15.0714 43.617 15.0973C49.3549 15.4851 53.6948 20.4612 53.3059 26.2156C53.2803 26.594 53.5697 26.9218 53.9524 26.9477C54.3351 26.9735 54.666 26.6877 54.6916 26.3092Z" fill="white" stroke="white" stroke-width="2.5"/>
<path d="M48.291 28.3272C48.5892 23.9143 45.2537 20.0951 40.8408 19.7968C40.4322 19.7692 40.0786 20.078 40.051 20.4866C40.0233 20.8952 40.3322 21.2489 40.7408 21.2765C44.3365 21.5195 47.0543 24.6314 46.8113 28.2271C46.7837 28.6357 47.0925 28.9894 47.5011 29.017C47.9097 29.0446 48.2633 28.7358 48.291 28.3272Z" fill="white" stroke="white" stroke-width="2.5"/>
<circle cx="30" cy="42" r="16" fill="white" fill-opacity="0.4"/>
<path d="M51.2507 53C51.7342 53 52.1467 52.8293 52.488 52.488C52.8293 52.1467 53 51.7342 53 51.2507V44.9787C53 44.4951 52.8293 44.0827 52.488 43.7413C52.1467 43.4 51.7342 43.2293 51.2507 43.2293C48.9182 43.2293 46.8133 42.9022 44.936 42.248C44.6231 42.1627 44.296 42.1484 43.9547 42.2053C43.6133 42.2622 43.3289 42.4187 43.1013 42.6747L41.9862 43.7898C40.341 45.435 37.7708 45.7379 35.8717 44.3936C34.6 43.4934 33.2489 42.4649 32.392 41.608C31.5351 40.7511 30.5066 39.4 29.6064 38.1283C28.2621 36.2292 28.565 33.659 30.2102 32.0138L31.3253 30.8987C31.5813 30.6711 31.7378 30.3867 31.7947 30.0453C31.8516 29.704 31.8373 29.3769 31.752 29.064C31.0978 27.1867 30.7707 25.0818 30.7707 22.7493C30.7707 22.2658 30.6 21.8533 30.2587 21.512C29.9173 21.1707 29.5049 21 29.0213 21H22.7493C22.2658 21 21.8533 21.1707 21.512 21.512C21.1707 21.8533 21 22.2658 21 22.7493C21 26.8453 21.7964 30.7707 23.3893 34.5253C24.9253 38.1378 27.0871 41.3378 29.8747 44.1253C32.6622 46.9129 35.8622 49.0747 39.4747 50.6107C43.2293 52.2036 47.1547 53 51.2507 53Z" fill="white"/>
</svg>
