<svg width="40" height="41" viewBox="0 0 40 41" fill="none" xmlns="http://www.w3.org/2000/svg">
<circle cx="20" cy="20.968" r="20" fill="#ED2324"/>
<path fill-rule="evenodd" clip-rule="evenodd" d="M14 10.968H27V28.968C27 30.6249 25.6569 31.968 24 31.968H11V13.968C11 12.3112 12.3431 10.968 14 10.968Z" fill="white"/>
<path fill-rule="evenodd" clip-rule="evenodd" d="M12 15.968H27V14.8302L29 10.968H14C12.8954 10.968 12 11.8634 12 12.968V15.968Z" fill="white"/>
<path fill-rule="evenodd" clip-rule="evenodd" d="M13.5 19.968H22.5C22.7761 19.968 23 20.1919 23 20.468C23 20.7442 22.7761 20.968 22.5 20.968H13.5C13.2239 20.968 13 20.7442 13 20.468C13 20.1919 13.2239 19.968 13.5 19.968Z" fill="#ED2324"/>
<path fill-rule="evenodd" clip-rule="evenodd" d="M13.5 21.968H22.5C22.7761 21.968 23 22.1919 23 22.468C23 22.7442 22.7761 22.968 22.5 22.968H13.5C13.2239 22.968 13 22.7442 13 22.468C13 22.1919 13.2239 21.968 13.5 21.968Z" fill="#ED2324"/>
<path fill-rule="evenodd" clip-rule="evenodd" d="M13.5 23.968H19.5C19.7761 23.968 20 24.1919 20 24.468C20 24.7442 19.7761 24.968 19.5 24.968H13.5C13.2239 24.968 13 24.7442 13 24.468C13 24.1919 13.2239 23.968 13.5 23.968Z" fill="#ED2324"/>
<path fill-rule="evenodd" clip-rule="evenodd" d="M8 26.968H23V28.1058L25 31.968H10C8.89543 31.968 8 31.0726 8 29.968V26.968Z" fill="#E0E0E0"/>
<path fill-rule="evenodd" clip-rule="evenodd" d="M23 24.968H27V29.968C27 31.0726 26.1046 31.968 25 31.968C23.8954 31.968 23 31.0726 23 29.968V24.968Z" fill="white"/>
<path fill-rule="evenodd" clip-rule="evenodd" d="M27 15.968H31V12.968C31 11.8634 30.1046 10.968 29 10.968C27.8954 10.968 27 11.8634 27 12.968V15.968Z" fill="#E0E0E0"/>
<path fill-rule="evenodd" clip-rule="evenodd" d="M16.5 14.968C16.5 13.5873 17.6193 12.468 19 12.468C20.3807 12.468 21.5 13.5873 21.5 14.968C21.5 16.3487 20.3807 17.468 19 17.468C17.6193 17.468 16.5 16.3487 16.5 14.968ZM20.5 14.968C20.5 14.1396 19.8284 13.468 19 13.468C18.1716 13.468 17.5 14.1396 17.5 14.968C17.5 15.7964 18.1716 16.468 19 16.468C19.8284 16.468 20.5 15.7964 20.5 14.968Z" fill="#ED2324"/>
</svg>
