<svg width="11" height="12" viewBox="0 0 11 12" fill="none" xmlns="http://www.w3.org/2000/svg">
<path fill-rule="evenodd" clip-rule="evenodd" d="M2.5 1C1.67157 1 1 1.67157 1 2.5V6.5C1 7.32843 1.67157 8 2.5 8H6.25L7.6 9.8C7.8883 10.1844 8.5 9.98051 8.5 9.5V8.5H9V8C9.55229 8 10 7.55228 10 7V2.5C10 1.67157 9.32843 1 8.5 1H2.5ZM9.5 8.93699C10.3626 8.71497 11 7.93192 11 7V2.5C11 1.11929 9.88071 0 8.5 0H2.5C1.11929 0 0 1.11929 0 2.5V6.5C0 7.88071 1.11929 9 2.5 9H5.75L6.8 10.4C7.66491 11.5532 9.5 10.9415 9.5 9.5V8.93699Z" fill="#211E20"/>
<rect x="2.5" y="3" width="6" height="1" rx="0.5" fill="#211E20"/>
<rect x="2.5" y="5" width="6" height="1" rx="0.5" fill="#211E20"/>
</svg>
