<svg width="40" height="41" viewBox="0 0 40 41" fill="none" xmlns="http://www.w3.org/2000/svg">
<path fill-rule="evenodd" clip-rule="evenodd" d="M39.8892 20.9126C39.8892 31.9287 30.9607 40.8572 19.9446 40.8572C8.92853 40.8572 0 31.9287 0 20.9126C0 9.89655 8.92853 0.968018 19.9446 0.968018C30.9607 0.968018 39.8892 9.89655 39.8892 20.9126Z" fill="#ED2324"/>
<path d="M20.364 11.692C17.9625 11.692 15.7024 12.6295 14 14.332L15.1576 15.4896C16.5508 14.0964 18.3998 13.3291 20.364 13.3291C22.3282 13.329 24.1771 14.0963 25.5703 15.4896L26.7279 14.332C25.0254 12.6295 22.7653 11.6919 20.364 11.692Z" fill="white"/>
<path d="M20.5355 16.0372C19.2012 16.0371 17.9456 16.558 17 17.5036L18.0105 18.5141C18.6863 17.8384 19.583 17.4663 20.5355 17.4663C21.4881 17.4663 22.3848 17.8384 23.0605 18.5141L24.0711 17.5036C23.1254 16.558 21.8698 16.0372 20.5355 16.0372Z" fill="white"/>
<path fill-rule="evenodd" clip-rule="evenodd" d="M9.87748 23.6005C9.4458 22.3054 10.4097 20.968 11.7749 20.968H28.2251C29.5903 20.968 30.5542 22.3054 30.1225 23.6005L28.2279 29.2842C28.0918 29.6926 27.7097 29.968 27.2792 29.968H12.7208C12.2903 29.968 11.9082 29.6926 11.7721 29.2842L9.87748 23.6005Z" fill="white"/>
<rect x="16" y="22.968" width="9" height="1" rx="0.5" fill="#ED2324"/>
</svg>
