<svg width="40" height="41" viewBox="0 0 40 41" fill="none" xmlns="http://www.w3.org/2000/svg">
<g opacity="0.01">
<rect opacity="0.289481" x="0.5" y="1.46799" width="39" height="39" rx="19.5" stroke="#979797"/>
<rect opacity="0.390346" x="6.5" y="1.46799" width="27" height="39" rx="1.5" fill="#D8D8D8" stroke="#979797"/>
<rect opacity="0.296619" x="3.5" y="4.46799" width="33" height="33" rx="1.5" fill="#D8D8D8" stroke="#979797"/>
<rect opacity="0.265927" x="39.5" y="7.46799" width="27" height="39" rx="1.5" transform="rotate(90 39.5 7.46799)" stroke="#979797"/>
</g>
<circle cx="20" cy="20.968" r="20" fill="#EC2027"/>
<path fill-rule="evenodd" clip-rule="evenodd" d="M14.5228 31.968C12.5914 31.9634 11.022 30.4039 11 28.4675V14.48C11.022 12.5383 12.5948 10.9742 14.5314 10.968H21.7643C22.7893 10.9697 23.7637 11.415 24.4373 12.1897L28.5852 16.961C28.8537 17.2687 29.0012 17.664 29 18.0729V28.4415C28.9889 30.3901 27.412 31.9648 25.4685 31.968H14.5228V31.968ZM25.4484 29.9838H25.4685C26.322 29.9822 27.0148 29.2914 27.0211 28.4357V18.1885L22.9453 13.4894C22.6463 13.1436 22.212 12.9454 21.7556 12.9464H14.5314C13.6852 12.9542 13.0011 13.6402 12.9933 14.4887V28.4444C13.0012 29.298 13.6944 29.9854 14.5458 29.9838H25.4628H25.4484Z" fill="white"/>
<rect x="18.1205" y="25.0219" width="1.87806" height="2.17769" fill="white"/>
<path d="M23.6654 22.5178H17.3255V19.8492H16.3317V27.2025H17.3255V24.2565H23.6654V22.5178V22.5178Z" fill="white"/>
<rect x="20.7935" y="25.0219" width="2.87182" height="2.17769" fill="white"/>
<rect x="18.1205" y="19.8492" width="2.96975" height="1.90331" fill="white"/>
<rect x="21.8824" y="19.8492" width="1.783" height="1.90331" fill="white"/>
</svg>
