<svg xmlns="http://www.w3.org/2000/svg" width="26.107" height="26.107" viewBox="0 0 26.107 26.107">
  <path id="help-alt" d="M13.054,0A13.054,13.054,0,1,0,26.107,13.054,13.068,13.068,0,0,0,13.054,0Zm0,24.572A11.518,11.518,0,1,1,24.572,13.054,11.53,11.53,0,0,1,13.054,24.572Zm1.778-5.807a1.585,1.585,0,1,1-1.583-1.585A1.585,1.585,0,0,1,14.832,18.765ZM16.374,6.473a3.7,3.7,0,0,1,.845,2.849,5.8,5.8,0,0,1-2.105,3.137,3.1,3.1,0,0,0-1.434,2.529H12.143a4.564,4.564,0,0,1,1.941-3.67A4.407,4.407,0,0,0,15.721,8.97a2.3,2.3,0,0,0-.553-1.543,2.325,2.325,0,0,0-1.917-.9A2.561,2.561,0,0,0,10.375,9L8.84,8.956a4.1,4.1,0,0,1,4.412-3.965,3.9,3.9,0,0,1,3.122,1.482Z"/>
</svg>
