<svg width="13" height="10" viewBox="0 0 13 10" fill="none" xmlns="http://www.w3.org/2000/svg">
<path d="M2.15601 3.5H11.156V9C11.156 9.27614 10.9321 9.5 10.656 9.5H2.65601C2.37986 9.5 2.15601 9.27614 2.15601 9V3.5Z" stroke="#211E20"/>
<path d="M10.2418 0.5H3.07022C2.67239 0.5 2.29086 0.658035 2.00956 0.93934C1.06461 1.88429 1.73386 3.5 3.07022 3.5H10.2418C11.5781 3.5 12.2474 1.88429 11.3025 0.93934C11.0211 0.658035 10.6396 0.5 10.2418 0.5Z" stroke="#211E20"/>
<path d="M5.15601 6C5.15601 5.72386 5.37986 5.5 5.65601 5.5H7.65601C7.93215 5.5 8.15601 5.72386 8.15601 6V9.5H5.15601V6Z" stroke="#211E20"/>
</svg>
