<svg width="9" height="12" viewBox="0 0 9 12" fill="none" xmlns="http://www.w3.org/2000/svg">
<path fill-rule="evenodd" clip-rule="evenodd" d="M2.98491 1.90037C2.52945 2.16981 2.16981 2.52945 1.90037 2.98491C1.63412 3.44288 1.5 3.94452 1.5 4.5C1.5 4.90962 1.60134 5.40837 1.82762 6.00467C2.02371 6.50962 2.29835 7.06451 2.65533 7.67018C2.95149 8.15314 3.29178 8.65779 3.67678 9.18422L3.67831 9.18632C3.93717 9.54417 4.21105 9.89478 4.5 10.2382C4.78895 9.89478 5.06283 9.54416 5.32169 9.18632L5.32322 9.18422C5.70822 8.65779 6.04851 8.15314 6.34468 7.67018C6.70165 7.06451 6.97629 6.50963 7.17238 6.00467C7.39866 5.40838 7.5 4.90963 7.5 4.5C7.5 3.94452 7.36588 3.44288 7.09963 2.98491C6.83019 2.52946 6.47056 2.16982 6.0151 1.90038C5.55713 1.63412 5.05548 1.5 4.5 1.5C3.94452 1.5 3.44288 1.63412 2.98491 1.90037ZM2.48042 1.03695C3.09654 0.678315 3.77311 0.5 4.5 0.5C5.22689 0.5 5.90346 0.678315 6.51958 1.03695L6.52241 1.0386C7.12424 1.39422 7.60577 1.87577 7.96139 2.47759L7.96306 2.48042C8.32169 3.09653 8.5 3.77311 8.5 4.5C8.5 5.06823 8.36099 5.69149 8.10661 6.36135L8.10532 6.36474C7.88489 6.93277 7.58313 7.53874 7.20388 8.18183L7.19956 8.18915C6.88704 8.69905 6.53068 9.22716 6.13116 9.77349C5.85132 10.1603 5.5552 10.5386 5.24284 10.9085L5.24046 10.9113L4.5 11.7752L3.75715 10.9085C3.44481 10.5386 3.14871 10.1603 2.86888 9.77355C2.46935 9.22719 2.11303 8.69903 1.8005 8.18912L1.79606 8.18186C1.4168 7.53878 1.11512 6.93277 0.894692 6.36474L0.893381 6.36136C0.639002 5.69149 0.5 5.06823 0.5 4.5C0.5 3.77311 0.678315 3.09654 1.03695 2.48042L1.0386 2.47759C1.39422 1.87576 1.87577 1.39423 2.47759 1.03861L2.48042 1.03695ZM3.62468 2.98797C3.89241 2.82848 4.18763 2.74914 4.5 2.74914C4.81232 2.74914 5.10784 2.82841 5.37737 2.98564C5.64431 3.14135 5.85865 3.35569 6.01436 3.62264C6.17159 3.89216 6.25086 4.18768 6.25086 4.5C6.25086 4.81237 6.17152 5.10759 6.01202 5.37532C5.85571 5.6377 5.64176 5.84811 5.37737 6.00234C5.10784 6.15956 4.81232 6.23883 4.5 6.23883C4.02462 6.23883 3.60417 6.06729 3.26844 5.73156C2.93271 5.39583 2.76117 4.97538 2.76117 4.5C2.76117 4.18768 2.84044 3.89216 2.99766 3.62264C3.15189 3.35824 3.3623 3.14428 3.62468 2.98797ZM4.5 3.74914C4.36334 3.74914 4.24563 3.78206 4.13649 3.84708C4.022 3.91528 3.93173 4.00601 3.86144 4.12651C3.79415 4.24186 3.76117 4.36329 3.76117 4.5C3.76117 4.7142 3.83018 4.87909 3.97555 5.02445C4.12092 5.16982 4.2858 5.23883 4.5 5.23883C4.63671 5.23883 4.75814 5.20585 4.87349 5.13856C4.99399 5.06827 5.08472 4.978 5.15292 4.86351C5.21794 4.75437 5.25086 4.63666 5.25086 4.5C5.25086 4.36329 5.21787 4.24186 5.15058 4.12651C5.08179 4.00857 4.99143 3.91821 4.87349 3.84942C4.75814 3.78213 4.63671 3.74914 4.5 3.74914Z" fill="#211E20"/>
</svg>
