<svg width="40" height="41" viewBox="0 0 40 41" fill="none" xmlns="http://www.w3.org/2000/svg">
<path fill-rule="evenodd" clip-rule="evenodd" d="M39.8892 20.9126C39.8892 31.9287 30.9607 40.8572 19.9446 40.8572C8.92853 40.8572 0 31.9287 0 20.9126C0 9.89655 8.92853 0.968018 19.9446 0.968018C30.9607 0.968018 39.8892 9.89655 39.8892 20.9126Z" fill="#ED2324"/>
<path d="M27.951 11.968C28.5033 11.968 28.951 12.4157 28.951 12.968C28.951 13.5202 28.5033 13.9679 27.9511 13.9679L16.5 13.968C15.6716 13.968 15 14.6396 15 15.468C15 16.2477 15.5949 16.8885 16.3555 16.9612L16.5 16.968H26.9288C28.042 16.968 28.941 17.877 28.9287 18.9901L28.8226 28.5909C28.8101 29.9074 27.7393 30.968 26.4227 30.968H16C13.7909 30.968 12 29.1772 12 26.968V15.968C12 13.7589 13.7909 11.968 16 11.968H27.951Z" fill="white"/>
</svg>
