<?xml version="1.0" encoding="UTF-8"?>
<svg width="86px" height="29px" viewBox="0 0 86 29" version="1.1" xmlns="http://www.w3.org/2000/svg" xmlns:xlink="http://www.w3.org/1999/xlink">
    <!-- Generator: sketchtool 62 (101010) - https://sketch.com -->
    <title>61B9FFC5-FBE0-496A-9EC9-84882CDDA22D</title>
    <desc>Created with sketchtool.</desc>
    <g id="symbol" stroke="none" stroke-width="1" fill="none" fill-rule="evenodd">
        <g id="MOBILE/SUB_FOOTER" transform="translate(-103.000000, -563.000000)">
            <g id="FOOTER_MOBILE" transform="translate(0.000000, 342.000000)">
                <g id="footer">
                    <g id="Group-4">
                        <g id="Group-25">
                            <g id="Group-2" transform="translate(15.000000, 22.000000)">
                                <g id="Group-27" transform="translate(0.000000, 150.000000)">
                                    <g id="Group-28">
                                        <g id="Group-25" transform="translate(88.000000, 49.000000)">
                                            <g id="button/btn_download_apple">
                                                <g id="apple">
                                                    <rect id="bg" fill="#000000" x="0" y="0" width="85.9932432" height="28.3829787" rx="3.6"></rect>
                                                    <path d="M33.3039925,20.7519609 L31.8401737,20.7519609 L31.0383284,18.2994027 L28.251207,18.2994027 L27.4873914,20.7519609 L26.0622467,20.7519609 L28.8235853,12.4023459 L30.529118,12.4023459 L33.3039925,20.7519609 L33.3039925,20.7519609 Z M37.8469231,14.6077033 C38.5765765,14.6077033 39.1856953,14.888157 39.6729904,15.4496919 C40.1615745,16.0118541 40.4052221,16.7509469 40.4052221,17.6675976 C40.4052221,18.6915359 40.1209666,19.500899 39.5524557,20.0950593 C39.0432453,20.6239686 38.410922,20.8881096 37.6561303,20.8881096 C36.8413936,20.8881096 36.2561239,20.603264 35.8996766,20.0335728 L35.8738938,20.0335728 L35.8738938,23.2051466 L34.4996702,23.2051466 L34.4996702,16.7133021 C34.4996702,16.0695761 34.4822668,15.40891 34.4487492,14.7313037 L35.6573182,14.7313037 L35.7340221,15.6855992 L35.7598049,15.6855992 C36.2180943,14.9665837 36.9135855,14.6077033 37.8469231,14.6077033 Z M44.9616886,14.6077033 C45.6906974,14.6077033 46.2998162,14.888157 46.7884004,15.4496919 C47.2750509,16.0118541 47.519343,16.7509469 47.519343,17.6675976 C47.519343,18.6915359 47.2350875,19.500899 46.6659321,20.0950593 C46.1573662,20.6239686 45.5250429,20.8881096 44.7702512,20.8881096 C43.9555145,20.8881096 43.3702448,20.603264 43.0144421,20.0335728 L42.9886593,20.0335728 L42.9886593,23.2051466 L41.6144357,23.2051466 L41.6144357,16.7133021 C41.6144357,16.0695761 41.5970323,15.40891 41.5635146,14.7313037 L42.7720837,14.7313037 L42.8487876,15.6855992 L42.8745704,15.6855992 C43.3322152,14.9665837 44.0277064,14.6077033 44.9616886,14.6077033 Z M63.8720881,14.6083308 C64.7796429,14.6083308 65.5099409,14.9013327 66.0610484,15.4879641 C66.5883068,16.0570279 66.8512914,16.7917287 66.8512914,17.6920667 C66.8512914,18.6175012 66.5792828,19.3772986 66.0365547,19.9714589 C65.4673992,20.5831868 64.711963,20.8881096 63.770246,20.8881096 C62.8626912,20.8881096 62.140128,20.5951076 61.6012674,20.0091037 C61.0624067,19.4230998 60.7929764,18.6833796 60.7929764,17.7918254 C60.7929764,16.8588619 61.0701416,16.0946727 61.6264056,15.5005123 C62.1813805,14.9057246 62.9303711,14.6083308 63.8720881,14.6083308 Z M53.1960724,12.2800003 C53.9766469,12.2800003 54.6250845,12.4123845 55.1426743,12.6765255 L54.7991184,13.7669696 C54.3156908,13.510985 53.7690953,13.3829927 53.1573982,13.3829927 C52.6739706,13.3829927 52.2962525,13.4990642 52.025533,13.7299523 C51.7967106,13.9363712 51.6819771,14.1879639 51.6819771,14.4859852 C51.6819771,14.8160045 51.8128248,15.0889293 52.0758095,15.3035046 C52.3046319,15.5017672 52.7203796,15.7163425 53.3236973,15.947858 C54.0617302,16.2370955 54.6038137,16.5752712 54.9525261,16.9630125 C55.2999494,17.3494991 55.4733388,17.8332347 55.4733388,18.4104548 C55.4733388,19.1206866 55.2200227,19.6985342 54.7114569,20.1446249 C54.1526145,20.632125 53.3746184,20.8755613 52.37489,20.8755613 C51.4518656,20.8755613 50.711899,20.7023953 50.1517675,20.3554358 L50.4701852,19.2405225 C51.0735029,19.5956384 51.7354764,19.7738237 52.4567504,19.7738237 C52.9743403,19.7738237 53.3771966,19.6596345 53.6666086,19.432511 C53.9547315,19.2053874 54.0984707,18.9004645 54.0984707,18.5202521 C54.0984707,18.181449 53.9798697,17.895976 53.7420234,17.6644605 C53.5054661,17.432945 53.1103446,17.2177423 52.5585925,17.0188523 C51.056744,16.4736302 50.3064644,15.6749332 50.3064644,14.6246435 C50.3064644,13.9382534 50.569449,13.3754638 51.0960628,12.9375294 C51.6207429,12.4989675 52.3207461,12.2800003 53.1960724,12.2800003 Z M58.502174,13.2311587 L58.502174,14.7300489 L60.0169139,14.7300489 L60.0169139,15.7351649 L58.502174,15.7351649 L58.502174,18.658283 C58.502174,19.4017677 58.7690261,19.7731963 59.3040193,19.7731963 C59.5496005,19.7731963 59.7532847,19.7524917 59.9144273,19.7110824 L59.9524569,20.7268644 C59.6817374,20.8253683 59.3252901,20.8749339 58.8837596,20.8749339 C58.3410315,20.8749339 57.9169043,20.7136887 57.6107335,20.3918258 C57.3058518,20.0693354 57.1524441,19.5285052 57.1524441,18.7687078 L57.1524441,15.7339101 L56.2500459,15.7339101 L56.2500459,14.7300489 L57.1524441,14.7300489 L57.1524441,13.6276839 L58.502174,13.2311587 Z M74.8942379,14.5964099 C75.7856784,14.5964099 76.4605434,14.9182729 76.9188328,15.5619988 C77.2817258,16.0733406 77.4641392,16.7057731 77.4641392,17.4567867 C77.4641392,17.6964586 77.4480249,17.8984856 77.4138627,18.0634953 L73.2911919,18.0634953 C73.3073062,18.658283 73.5064783,19.1131576 73.889353,19.4268642 C74.2367763,19.7073179 74.6860417,19.8478585 75.2377938,19.8478585 C75.8482017,19.8478585 76.4051104,19.7531191 76.9059414,19.5630129 L77.1212278,20.4915845 C76.5359581,20.7400401 75.8449789,20.8636405 75.0476456,20.8636405 C74.0885252,20.8636405 73.3356672,20.5888335 72.7877826,20.0398469 C72.2411871,19.4908604 71.9672448,18.7536499 71.9672448,17.8288428 C71.9672448,16.9209759 72.22185,16.1649429 72.731705,15.5619988 C73.2654091,14.9182729 73.9866831,14.5964099 74.8942379,14.5964099 Z M70.9746067,14.6077033 C71.101587,14.6077033 71.2163205,14.6164871 71.3181626,14.6321725 L71.3181626,15.9077035 C71.1821583,15.8832344 71.03713,15.8706861 70.8850115,15.8706861 C70.4015838,15.8706861 70.0277332,16.0482441 69.7647485,16.4039874 C69.5359261,16.717694 69.4211926,17.1142191 69.4211926,17.5929354 L69.4211926,20.7519609 L68.0476136,20.7519609 L68.060505,16.6273465 C68.060505,15.9334275 68.0431016,15.3016224 68.0089394,14.7319312 L69.2059062,14.7319312 L69.2561827,15.8838618 L69.2942123,15.8838618 C69.4392406,15.4879641 69.668063,15.1692382 69.9813241,14.9301937 C70.2874949,14.714991 70.6181594,14.6077033 70.9746067,14.6077033 Z M63.8231007,15.586468 C63.2707041,15.586468 62.8510889,15.8267672 62.5629661,16.3067383 C62.3160957,16.7045183 62.1942719,17.1882539 62.1942719,17.7604547 C62.1942719,18.3157154 62.3160957,18.7919221 62.5629661,19.1884472 C62.8601129,19.6690457 63.2752161,19.9087176 63.8108539,19.9087176 C64.335534,19.9087176 64.7474144,19.6640264 65.0445612,19.1758989 C65.2978773,18.7712174 65.4255022,18.2899915 65.4255022,17.7353582 C65.4255022,17.1800975 65.3036784,16.7038909 65.056808,16.3067383 C64.7686852,15.8261398 64.3568048,15.586468 63.8231007,15.586468 Z M37.4015251,15.6724236 C37.0624812,15.6724236 36.7543766,15.7828483 36.4791452,16.0005607 C36.2032692,16.2201553 36.0227895,16.5068831 35.9383508,16.861999 C35.8958092,17.0276361 35.8745384,17.1631574 35.8745384,17.2698176 L35.8745384,18.2736787 C35.8745384,18.7116132 36.0124764,19.0811596 36.2883524,19.3829453 C36.5642284,19.6847311 36.9226095,19.8353102 37.3634955,19.8353102 C37.8810853,19.8353102 38.2839416,19.6408121 38.5720645,19.2530708 C38.8608319,18.864702 39.0052157,18.3527328 39.0052157,17.7165358 C39.0052157,17.1305319 38.8698559,16.6474237 38.5978473,16.2672113 C38.3007005,15.8706861 37.9017115,15.6724236 37.4015251,15.6724236 Z M44.515646,15.6724236 C44.1759575,15.6724236 43.8684976,15.7828483 43.5926215,16.0005607 C43.3167455,16.2201553 43.1369104,16.5068831 43.0524717,16.861999 C43.0105747,17.0276361 42.9886593,17.1631574 42.9886593,17.2698176 L42.9886593,18.2736787 C42.9886593,18.7116132 43.1265973,19.0811596 43.4011842,19.3829453 C43.6770602,19.6841037 44.0354412,19.8353102 44.4776164,19.8353102 C44.9952062,19.8353102 45.3980626,19.6408121 45.6861854,19.2530708 C45.9749529,18.864702 46.1193366,18.3527328 46.1193366,17.7165358 C46.1193366,17.1305319 45.9833323,16.6474237 45.7113237,16.2672113 C45.4141768,15.8706861 45.016477,15.6724236 44.515646,15.6724236 Z M29.6389666,13.5172592 C29.8510302,14.342935 29.9947693,14.8674524 30.0714732,15.0901841 L30.0714732,15.0901841 L30.7966146,17.270445 L28.4935654,17.270445 L29.2058154,15.0901841 C29.3927408,14.3968925 29.5287451,13.8723751 29.6131838,13.5172592 L29.6131838,13.5172592 Z M74.7917512,15.5237266 C74.3424858,15.5237266 73.9770146,15.705049 73.6979157,16.0689487 C73.4690933,16.3581862 73.333089,16.7051457 73.2911919,17.1091998 L76.153728,17.1091998 C76.162752,16.7133021 76.0731567,16.3707345 75.886876,16.081497 C75.6490296,15.7094409 75.2835583,15.5237266 74.7917512,15.5237266 Z" id="app-store" fill="#FFFFFF"></path>
                                                    <path d="M32.655555,6.39611919 C33.1015975,6.39611919 33.4599785,6.53979682 33.7313426,6.82777948 C33.9891706,7.10760578 34.1187292,7.46899579 34.1187292,7.91069469 C34.1187292,8.36556927 33.9853032,8.73825272 33.7184512,9.03062728 C33.4387077,9.33115821 33.0680799,9.48110997 32.6052785,9.48110997 C32.1592359,9.48110997 31.8040778,9.33743234 31.5391594,9.04882226 C31.2748857,8.7608396 31.1427488,8.39756735 31.1427488,7.95963292 C31.1427488,7.50162128 31.2787531,7.12580076 31.5520508,6.83405362 C31.8253486,6.54230647 32.1927536,6.39611919 32.655555,6.39611919 Z M47.060409,6.39611919 C47.5070961,6.39611919 47.8648326,6.53979682 48.1368412,6.82777948 C48.3946693,7.10760578 48.5242279,7.46899579 48.5242279,7.91069469 C48.5242279,8.36556927 48.3908018,8.73825272 48.1239498,9.03062728 C47.8442063,9.33115821 47.4729339,9.48110997 47.0107771,9.48110997 C46.56409,9.48110997 46.2089318,9.33743234 45.9446581,9.04882226 C45.6803843,8.7608396 45.5482474,8.39756735 45.5482474,7.95963292 C45.5482474,7.50162128 45.6842517,7.12580076 45.9575495,6.83405362 C46.2308472,6.54230647 46.5982522,6.39611919 47.060409,6.39611919 Z M50.5572022,6.39611919 C51.3513126,6.39611919 51.749657,6.80393778 51.749657,7.61957496 L51.749657,8.7087643 C51.749657,9.00427592 51.7644821,9.23955588 51.7934877,9.41397675 L51.1869472,9.41397675 L51.1366707,9.07329138 L51.1179782,9.07329138 C50.9104266,9.3449613 50.6145689,9.48110997 50.2304051,9.48110997 C49.9435714,9.48110997 49.7115261,9.39138988 49.5368476,9.21320452 C49.3782833,9.05133191 49.2990012,8.84993227 49.2990012,8.61088784 C49.2990012,8.24949783 49.453698,7.97406343 49.7650254,7.78332981 C50.0757083,7.59259619 50.5127268,7.49911162 51.0754366,7.50350352 L51.0754366,7.44829115 C51.0754366,7.05866755 50.8653067,6.86416945 50.4444024,6.86416945 C50.1446773,6.86416945 49.8804035,6.9375768 49.6522257,7.08313666 L49.5149322,6.65147637 C49.7972539,6.48144739 50.1459664,6.39611919 50.5572022,6.39611919 Z M55.608054,5.09925608 L55.608054,8.61716197 C55.608054,8.90514464 55.6157888,9.17054043 55.6319031,9.41397675 L55.0324528,9.41397675 L55.0008689,8.93902495 L54.9821764,8.93902495 C54.790739,9.30041496 54.4645865,9.48110997 54.0062971,9.48110997 C53.6401813,9.48110997 53.3352996,9.34119682 53.0935858,9.06137053 C52.851872,8.78154423 52.7313373,8.41827198 52.7313373,7.97218119 C52.7313373,7.4934649 52.8621851,7.10572354 53.1251697,6.8095845 C53.3797749,6.53352269 53.6917469,6.39549178 54.0630193,6.39549178 C54.4710322,6.39549178 54.7565768,6.5291308 54.9190085,6.79703624 L54.9318999,6.79703624 L54.9318999,5.09925608 L55.608054,5.09925608 Z M59.9466558,6.39611919 C60.3920538,6.39611919 60.7510793,6.53979682 61.0217988,6.82777948 C61.2796269,7.10760578 61.4091855,7.46899579 61.4091855,7.91069469 C61.4091855,8.36556927 61.2757594,8.73825272 61.0089074,9.03062728 C60.7291639,9.33115821 60.3591807,9.48110997 59.8957347,9.48110997 C59.4503367,9.48110997 59.0951786,9.33743234 58.8296157,9.04882226 C58.5653419,8.7608396 58.433205,8.39756735 58.433205,7.95963292 C58.433205,7.50162128 58.5692093,7.12580076 58.8425071,6.83405362 C59.1158048,6.54230647 59.4832098,6.39611919 59.9466558,6.39611919 Z M68.8430132,5.71976775 L68.8430132,6.45572345 L69.5868472,6.45572345 L69.5868472,6.94887024 L68.8436578,6.94887024 L68.8436578,8.38564649 C68.8436578,8.75080099 68.9757946,8.93337823 69.2374901,8.93337823 C69.3586693,8.93337823 69.4592223,8.92333962 69.5385044,8.90263498 L69.5559078,9.40142849 C69.4224818,9.45036672 69.2471587,9.47483583 69.0312277,9.47483583 C68.7643756,9.47483583 68.556824,9.39578177 68.4066392,9.23767364 C68.2558098,9.07956551 68.1810396,8.81354231 68.1810396,8.44023144 L68.1810396,6.94887024 L67.7369308,6.94887024 L67.7369308,6.45635086 L68.1810396,6.45635086 L68.1810396,5.91426585 L68.8430132,5.71976775 Z M75.58844,6.39047247 C76.0254585,6.39047247 76.3574122,6.5485806 76.5817226,6.86479686 C76.7628468,7.11576215 76.8524421,7.42633169 76.8524421,7.79525066 C76.8524421,7.91320434 76.8434181,8.01233563 76.8273038,8.09327194 L74.8014198,8.09327194 C74.8104438,8.38564649 74.9071293,8.60837819 75.0946992,8.76272184 C75.2661549,8.90075274 75.4872425,8.9697682 75.7579619,8.9697682 C76.0576871,8.9697682 76.3309848,8.92333962 76.5772106,8.82985505 L76.6829201,9.28661187 C76.3947972,9.40833003 76.0557533,9.46918912 75.6632101,9.46918912 C75.1926739,9.46918912 74.822046,9.33429527 74.5539049,9.06450759 C74.2844745,8.79471991 74.1510485,8.43270249 74.1510485,7.97845532 C74.1510485,7.53236452 74.2754505,7.1609359 74.5261883,6.86479686 C74.7878838,6.5485806 75.1417528,6.39047247 75.58844,6.39047247 Z M28.0417217,5.28120591 C28.7797546,5.28120591 29.3360186,5.4374318 29.7111584,5.74988358 C30.1314182,6.10311722 30.3421926,6.60818486 30.3421926,7.26571391 C30.3421926,8.00417926 30.1146594,8.56006737 29.6602374,8.93337823 C29.2393331,9.27782809 28.641172,9.45036672 27.8663986,9.45036672 C27.4822348,9.45036672 27.153504,9.43405398 26.8782726,9.40142849 L26.8782726,5.36653411 C27.2372982,5.31006692 27.6240403,5.28120591 28.0417217,5.28120591 Z M41.6273271,6.39423695 C41.910938,6.39423695 42.1468506,6.48332963 42.3344206,6.6621424 C42.567755,6.88110961 42.6844222,7.20799189 42.6844222,7.64216184 L42.6844222,9.41397675 L42.0089126,9.41397675 L42.0089126,7.71996108 C42.0089126,7.19795328 41.8052285,6.93694938 41.396571,6.93694938 C41.1961097,6.93694938 41.0343225,7.00847449 40.9086314,7.15215212 C40.7842293,7.29582974 40.7210614,7.46523131 40.7210614,7.65910199 L40.7210614,9.41334934 L40.0455519,9.41334934 L40.0455519,7.30147646 C40.0455519,7.04172739 40.0371725,6.76001886 40.0210582,6.45509604 L40.6147074,6.45509604 L40.6462913,6.91749957 L40.6649838,6.91749957 C40.7436214,6.77382195 40.8609332,6.65524085 41.0149854,6.56050146 C41.1980434,6.45007673 41.4030167,6.39423695 41.6273271,6.39423695 Z M35.4742603,6.45635086 L35.8178162,7.86238387 C35.9009657,8.19491288 35.9692902,8.51175655 36.0240786,8.81166007 L36.0363255,8.81166007 C36.086602,8.56445926 36.1697515,8.24949783 36.2870633,7.86865801 L36.7182807,6.45697828 L37.2687436,6.45697828 L37.6819131,7.83854217 C37.7818215,8.17546307 37.8630373,8.4998357 37.9255606,8.81228748 L37.9442532,8.81228748 C37.9900177,8.50799207 38.0589867,8.18361944 38.1505156,7.83854217 L38.5192098,6.45697828 L39.1824725,6.45697828 L38.2317315,9.41397675 L37.6129441,9.41397675 L37.2191117,8.1296619 C37.1192034,7.80905375 37.0379875,7.49032784 36.9748196,7.17411158 L36.9625728,7.17411158 C36.9039169,7.49911162 36.8227011,7.81721012 36.7182807,8.1296619 L36.2999547,9.41397675 L35.674077,9.41397675 L34.7800582,6.45635086 L35.4742603,6.45635086 Z M44.5472299,5.09925608 L44.5472299,9.41397675 L43.872365,9.41397675 L43.872365,5.09925608 L44.5472299,5.09925608 Z M63.9848879,6.39423695 C64.2678542,6.39423695 64.5037668,6.48332963 64.6913368,6.6621424 C64.9253157,6.88110961 65.0413384,7.20799189 65.0413384,7.64216184 L65.0413384,9.41397675 L64.3664734,9.41397675 L64.3664734,7.71996108 C64.3664734,7.19795328 64.1627892,6.93694938 63.7534872,6.93694938 C63.5530258,6.93694938 63.3912387,7.00847449 63.2661921,7.15215212 C63.1411455,7.29582974 63.0786222,7.46523131 63.0786222,7.65910199 L63.0786222,9.41334934 L62.4024681,9.41334934 L62.4024681,7.30147646 C62.4024681,7.04172739 62.3947333,6.76001886 62.378619,6.45509604 L62.9716236,6.45509604 L63.0032075,6.91749957 L63.0219,6.91749957 C63.1011822,6.77382195 63.2184939,6.65524085 63.3719016,6.56050146 C63.5556041,6.45007673 63.7599329,6.39423695 63.9848879,6.39423695 Z M71.1995617,5.09925608 L71.1995617,6.88173702 L71.2124531,6.88173702 C71.4251613,6.55736439 71.730043,6.39549178 72.1251645,6.39549178 C72.4049079,6.39549178 72.6363086,6.48458446 72.8200111,6.66339722 C73.0488335,6.88612891 73.163567,7.21740309 73.163567,7.65533751 L73.163567,9.41397675 L72.4874129,9.41397675 L72.4874129,7.73250934 C72.4874129,7.20234517 72.2837287,6.93694938 71.8757158,6.93694938 C71.5624547,6.93694938 71.3484574,7.09066562 71.2311457,7.3980981 C71.211164,7.46272166 71.1995617,7.54177572 71.1995617,7.63463288 L71.1995617,9.41334934 L70.5246968,9.41334934 L70.5246968,5.09925608 L71.1995617,5.09925608 Z M59.9215175,6.8760903 C59.6507981,6.8760903 59.4445356,6.99404399 59.3020856,7.22995135 C59.1809064,7.42507686 59.1209614,7.66286647 59.1209614,7.94394759 C59.1209614,8.21687234 59.181551,8.45089747 59.3020856,8.64602298 C59.448403,8.88193035 59.6520872,8.99988403 59.9150718,8.99988403 C60.1728999,8.99988403 60.3759395,8.88004811 60.5216124,8.63974885 C60.6460144,8.44085886 60.7091823,8.20495149 60.7091823,7.93202674 C60.7091823,7.65910199 60.6485927,7.42507686 60.5280581,7.22995135 C60.385608,6.99404399 60.1845022,6.8760903 59.9215175,6.8760903 Z M51.0921954,7.94143794 C50.3470723,7.92888968 49.9745107,8.12777966 49.9745107,8.53748049 C49.9745107,8.69182414 50.0170524,8.80726817 50.1040693,8.88444 C50.1910863,8.96161183 50.3019524,8.99988403 50.4340893,8.99988403 C50.5823404,8.99988403 50.720923,8.95408287 50.8472587,8.86310795 C50.9742391,8.77150562 51.0522321,8.65543418 51.0812377,8.51301138 C51.088328,8.4810133 51.0921954,8.44211368 51.0921954,8.39756735 L51.0921954,7.94143794 Z M47.0365599,6.8760903 C46.7645513,6.8760903 46.5582889,6.99404399 46.417128,7.22995135 C46.2959488,7.42507686 46.2360038,7.66286647 46.2360038,7.94394759 C46.2360038,8.21687234 46.2965934,8.45089747 46.417128,8.64602298 C46.5634454,8.88193035 46.7671296,8.99988403 47.0301142,8.99988403 C47.2879423,8.99988403 47.4896927,8.88004811 47.6353656,8.63974885 C47.7610568,8.44085886 47.8229355,8.20495149 47.8229355,7.93202674 C47.8229355,7.65910199 47.7623459,7.42507686 47.6418113,7.22995135 C47.5006504,6.99404399 47.2982554,6.8760903 47.0365599,6.8760903 Z M32.6310613,6.8760903 C32.3596973,6.8760903 32.1534348,6.99404399 32.0116294,7.22995135 C31.8904502,7.42507686 31.8305052,7.66286647 31.8305052,7.94394759 C31.8305052,8.21687234 31.8910947,8.45089747 32.0116294,8.64602298 C32.1579468,8.88193035 32.361631,8.99988403 32.6246156,8.99988403 C32.8824437,8.99988403 33.0848387,8.88004811 33.2305116,8.63974885 C33.3555582,8.44085886 33.4180815,8.20495149 33.4180815,7.93202674 C33.4180815,7.65910199 33.3574919,7.42507686 33.2369573,7.22995135 C33.0951518,6.99404399 32.8934014,6.8760903 32.6310613,6.8760903 Z M54.2170716,6.90683355 C53.9650446,6.90683355 53.7678062,7.0040826 53.6227779,7.19920811 C53.4790387,7.39433362 53.4062023,7.64341666 53.4062023,7.94771207 C53.4062023,8.24008663 53.4751713,8.47724882 53.6137539,8.65982607 C53.7600713,8.85432417 53.9573098,8.95157321 54.2041802,8.95157321 C54.4259123,8.95157321 54.6031691,8.87063691 54.7378843,8.70813689 C54.8680874,8.55818513 54.9318999,8.37749012 54.9318999,8.16667928 L54.9318999,7.6735325 C54.9318999,7.5882043 54.9254542,7.51918885 54.9132073,7.46648614 C54.8751777,7.30837801 54.7933173,7.17536641 54.6689153,7.06807875 C54.5432241,6.96079109 54.3917501,6.90683355 54.2170716,6.90683355 Z M28.0977993,5.79882181 C27.8850912,5.79882181 27.703967,5.8126249 27.5537821,5.84148591 L27.5537821,8.90890912 C27.6369317,8.92145738 27.7890502,8.9271041 28.0101378,8.9271041 C28.5270831,8.9271041 28.926072,8.78719095 29.2071046,8.50736466 C29.4881372,8.22753837 29.6299426,7.81971978 29.6299426,7.28390889 C29.6299426,6.80519261 29.4997394,6.43815588 29.2393331,6.18217129 C28.9789267,5.92681411 28.5986303,5.79882181 28.0977993,5.79882181 Z M75.5394526,6.84597447 C75.3190096,6.84597447 75.1391746,6.93506714 75.0018811,7.11387991 C74.8897259,7.25630271 74.8233352,7.42633169 74.8014198,7.62522168 L76.2078719,7.62522168 C76.2130285,7.43009617 76.1685531,7.26194943 76.0770242,7.12015404 C75.9597124,6.9375768 75.7811664,6.84597447 75.5394526,6.84597447 Z" id="download-on-the" fill="#FFFFFF"></path>
                                                    <path d="M16.4783875,8.97090838 L16.7175591,8.9841219 C17.2525702,8.99929947 18.7750441,9.18965151 19.7573063,10.582826 C19.6779972,10.6289912 17.9435991,11.6205925 17.9624513,13.6588138 C17.9839037,16.1017703 20.1590522,16.9093436 20.1857052,16.9181972 C20.1727037,16.975113 19.8450663,18.0837081 19.0292231,19.209378 C18.3479453,20.2003469 17.6341638,21.1691818 16.5004343,21.186889 C15.3992085,21.2115526 15.0286662,20.5563874 13.7655719,20.5563874 C12.4907763,20.5563874 12.0961812,21.1691818 11.0398106,21.2115526 C9.96003726,21.2501289 9.13509303,20.1535494 8.4291124,19.1714341 C7.0178012,17.1660975 5.91917572,13.5203184 7.39224397,11.039418 C8.1060255,9.8226827 9.40747414,9.03914059 10.798633,9.01827143 C11.8797065,8.99676987 12.8827711,9.72845528 13.547147,9.72845528 C14.1985214,9.72845528 15.438863,8.85321535 16.7175591,8.9841219 Z M16.7312106,5.07905935 C16.839123,6.03334913 16.4503786,6.97372613 15.8822137,7.66493802 C15.289346,8.34539912 14.3408876,8.86586332 13.4171321,8.79882905 C13.2962183,7.880586 13.7642718,6.90416227 14.2882316,6.3084426 C14.8804493,5.63240829 15.9088667,5.11447368 16.7312106,5.07905935 Z" fill="#FFFFFF"></path>
                                                </g>
                                            </g>
                                        </g>
                                    </g>
                                </g>
                            </g>
                        </g>
                    </g>
                </g>
            </g>
        </g>
    </g>
</svg>