<svg xmlns="http://www.w3.org/2000/svg" width="125" height="43" viewBox="0 0 125 43">
    <defs>
        <linearGradient id="d3lq3ulvma" x1="50%" x2="50%" y1="0%" y2="100%">
            <stop offset="0%" stop-color="#1E79AF"/>
            <stop offset="100%" stop-color="#63FFD3"/>
        </linearGradient>
        <linearGradient id="ceytfyg7bb" x1="84.718%" x2="5.244%" y1="28.997%" y2="77.505%">
            <stop offset="0%" stop-color="#DC4057"/>
            <stop offset="100%" stop-color="#9E36BB"/>
        </linearGradient>
        <linearGradient id="epzez7pmoc" x1="50%" x2="50%" y1="0%" y2="97.826%">
            <stop offset="0%" stop-color="#FF9676"/>
            <stop offset="100%" stop-color="#FFD074"/>
        </linearGradient>
        <linearGradient id="gmkttboq3d" x1="17.444%" x2="100%" y1="20.465%" y2="79.535%">
            <stop offset="0%" stop-color="#51C6AD"/>
            <stop offset="100%" stop-color="#D5FFA1"/>
        </linearGradient>
    </defs>
    <g fill="none" fill-rule="evenodd" transform="translate(.09 .915)">
        <rect width="124.391" height="42.085" fill="#000" rx="3.6"/>
        <g>
            <path fill="url(#d3lq3ulvma)" d="M.778 1.222c-.35.11-.577.467-.577 1.007l.002 16.987c0 .534.22.885.56 1.002l9.453-9.505-9.438-9.49" transform="translate(9.295 15.948)"/>
            <path fill="url(#ceytfyg7bb)" d="M.764 20.218c.245.084.552.045.887-.14L13.186 13.7l-2.97-2.986-9.452 9.505" transform="translate(9.295 15.948)"/>
            <path fill="url(#epzez7pmoc)" d="M13.187 13.7l3.934-2.175c.797-.443.797-1.163 0-1.604l-3.948-2.183-2.957 2.973 2.971 2.988" transform="translate(9.295 15.948)"/>
            <path fill="url(#gmkttboq3d)" d="M13.172 7.738L1.651 1.368c-.327-.18-.628-.222-.872-.146l9.437 9.49 2.956-2.974" transform="translate(9.295 15.948)"/>
        </g>
        <path fill="#FFF" d="M72.009 22.914l-1.168.663H69.71c.418.346 1.291 1.08 1.291 2.472 0 1.357-.76 1.997-1.528 2.602-.235.238-.51.497-.51.896 0 .406.275.626.473.79l.658.51c.8.68 1.53 1.303 1.53 2.568 0 1.724-1.66 3.462-4.794 3.462-2.64 0-3.917-1.265-3.917-2.62 0-.66.327-1.595 1.405-2.235 1.13-.695 2.66-.787 3.48-.842-.256-.332-.549-.68-.549-1.248 0-.31.093-.496.183-.714-.2.019-.4.038-.583.038-1.932 0-3.025-1.45-3.025-2.878 0-.843.383-1.778 1.168-2.455 1.039-.86 2.277-1.009 3.262-1.009h3.755zm-4.01 8.778c-.165 0-1.15.036-1.912.293-.404.148-1.57.586-1.57 1.888 0 1.299 1.26 2.235 3.206 2.235 1.75 0 2.679-.843 2.679-1.978 0-.935-.601-1.428-1.984-2.419-.15-.02-.239-.02-.42-.02zm40.345-8.838l3.114 7.512 3.084-7.512h1.043l-4.428 10.487c-.46 1.08-1.183 1.6-2.176 1.6-.298 0-.69-.053-.92-.124l.157-.855c.197.088.534.143.747.143.564 0 .956-.232 1.309-1.05l.672-1.533-3.63-8.668h1.028zm-16.473-.215c2.285 0 3.825 1.744 3.825 4.504 0 2.742-1.54 4.522-3.825 4.522-1.203 0-2.281-.624-2.972-1.602v4.667h-.922V22.854h.922v1.353c.6-.875 1.697-1.568 2.972-1.568zm-53.628-3.607c.922 0 1.808.136 2.616.358 1.28.361 1.88.807 2.254 1.068l-1.42 1.356-.598.134.427-.683c-.578-.568-1.64-1.615-3.656-1.615-2.695 0-4.728 2.06-4.728 5.068 0 3.23 2.321 6.268 6.045 6.268 1.094 0 1.657-.22 2.168-.427v-2.77l-2.58.14 1.368-.738h3.62l-.443.428c-.12.102-.135.137-.169.274-.018.156-.034.654-.034.829v2.094l-2.443.562c-.99.157-1.879.295-2.82.295-4.712 0-6.507-3.487-6.507-6.217 0-3.333 2.544-6.424 6.9-6.424zm64.759 3.604c1.004 0 1.818.243 2.43.728.613.48.92 1.175.92 2.083v4.241c0 .305.015.599.053.886.038.287.1.574.183.851h-1.062c-.062-.298-.108-.56-.142-.78-.028-.219-.044-.443-.044-.67-.316.466-.764.854-1.336 1.16-.572.308-1.116.459-1.861.459-.898 0-1.596-.222-2.093-.673-.496-.45-.745-1.06-.745-1.831 0-.77.361-1.396 1.082-1.875.72-.48 1.65-.72 2.803-.72h2.15v-1.067c0-.615-.209-1.1-.625-1.45-.418-.351-1.004-.529-1.765-.529-.695 0-1.258.162-1.688.478-.425.323-.64.723-.64 1.204h-.943l-.02-.046c-.033-.65.262-1.219.89-1.71.625-.492 1.444-.74 2.453-.74zm-22.705.042c.655 0 1.329.165 1.876.513.91.605 1.146 1.392 1.277 1.813l-4.284 1.74-1.403.11c.454 2.33 2.021 3.684 3.753 3.684.865 0 1.507-.284 2.096-.576 0 0 .118-.062.034.023l-.871.827c-.202.11-.402.24-.602.332-.605.276-1.22.346-1.768.346-.582 0-1.494-.038-2.425-.715-1.293-.916-1.859-2.491-1.859-3.863 0-2.841 2.3-4.234 4.176-4.234zm-31.307 0c2.677 0 4.353 2.108 4.353 4.323 0 2.163-1.656 4.45-4.628 4.45-2.897 0-4.444-2.267-4.444-4.321 0-2.4 1.949-4.452 4.719-4.452zm9.695 0c2.68 0 4.357 2.108 4.357 4.323 0 2.163-1.658 4.45-4.63 4.45-2.896 0-4.446-2.267-4.446-4.321 0-2.4 1.948-4.452 4.72-4.452zm39.19-3.103V31.45h-.92V19.575h.92zM75.5 18.28c-.565.329-.734.53-.806 1.17l-.004 10.393c0 .712.126.822.725.878.312.037.623.054.93.09l-.673.404H72.46c.42-.55.493-.604.493-.97v-.41l-.007-10.894H71.53l1.365-.661H75.5zm-26.984 4.966c-.603 0-1.202.236-1.64.622-.712.641-.838 1.447-.838 2.237 0 1.81.893 4.797 3.098 4.797.711 0 1.437-.347 1.858-.933.437-.586.546-1.318.546-2.032 0-1.613-.766-4.691-3.024-4.691zm9.698 0c-.601 0-1.206.236-1.643.622-.711.641-.838 1.447-.838 2.237 0 1.81.89 4.797 3.098 4.797.713 0 1.44-.347 1.86-.933.44-.586.547-1.318.547-2.032 0-1.613-.764-4.691-3.024-4.691zm33.501.23c-1.187 0-2.323.939-2.816 1.757v3.801c.493.82 1.629 1.793 2.816 1.793 1.912 0 2.99-1.6 2.99-3.684 0-2.08-1.078-3.667-2.99-3.667zm13.625 3.756h-2.16c-.825 0-1.508.183-2.046.553-.538.37-.81.817-.81 1.336 0 .49.172.883.516 1.18.344.3.815.449 1.415.449.783 0 1.346-.176 1.921-.524.571-.346.96-.797 1.164-1.344v-1.65zM67.104 23.52c-.472 0-.984.239-1.275.607-.308.382-.4.877-.4 1.353 0 1.228.711 3.263 2.277 3.263.456 0 .948-.223 1.236-.513.421-.423.458-1.008.458-1.34 0-1.317-.781-3.37-2.296-3.37zm12.68-.238c-.728 0-2.094.57-2.094 2.55 0 .309.036.638.055.967l3.317-1.448c.348-.127.529-.237.529-.492 0-.732-.824-1.577-1.807-1.577zM34.357 6.753c1.145 0 1.894.544 2.36 1.212l-.836.483c-.317-.44-.872-.781-1.524-.781-1.162 0-2.026.878-2.026 2.116 0 1.22.864 2.116 2.026 2.116.6 0 1.128-.272 1.392-.526v-.905h-1.762v-.905h2.784v2.187c-.573.642-1.4 1.072-2.414 1.072-1.709 0-3.083-1.203-3.083-3.039 0-1.844 1.374-3.03 3.083-3.03zm29.996 0c1.752 0 3.003 1.282 3.003 3.03 0 1.748-1.251 3.03-3.003 3.03-1.763 0-3.004-1.282-3.004-3.03 0-1.748 1.241-3.03 3.004-3.03zm-22.283.096v.905h-2.995v1.51h2.933v.905h-2.933v1.634h2.995v.905h-4.025V6.849h4.025zm5.661 0v.905h-1.779v4.954h-1.03V7.754h-1.78V6.85h4.59zm4.612 0v5.859h-1.03V6.849h1.03zm5.68 0v.905h-1.78v4.954h-1.03V7.754h-1.779V6.85h4.589zm11.594 0l3.003 4.058V6.85h1.03v5.859h-.995l-3.065-4.19v4.19h-1.03V6.849h1.057zm-5.264.818c-1.19 0-1.947.904-1.947 2.116 0 1.203.757 2.116 1.947 2.116 1.18 0 1.946-.913 1.946-2.116 0-1.212-.766-2.116-1.946-2.116z"/>
    </g>
</svg>
