<?xml version="1.0" encoding="UTF-8"?>
<svg width="161px" height="54px" viewBox="0 0 161 54" version="1.1" xmlns="http://www.w3.org/2000/svg" xmlns:xlink="http://www.w3.org/1999/xlink">
    <title>button/btn_download_apple_ID</title>
    <g id="button/btn_download_apple_ID" stroke="none" stroke-width="1" fill="none" fill-rule="evenodd">
        <g id="Download_on_the_App_Store_Badge_ID_RGB_blk_100317" fill-rule="nonzero">
            <g id="Group">
                <g id="Path">
                    <path d="M147.76415,-0.000174416667 L12.7923623,-0.000174416667 C12.3003732,-0.000174416667 11.8142873,-0.000174416667 11.3235996,0.00268333333 C10.9128483,0.00536666667 10.5053707,0.01316175 10.090675,0.0197225 C9.18976419,0.0303240865 8.29097201,0.109582315 7.40210917,0.256808417 C6.51449481,0.407239609 5.65468563,0.690845285 4.85176183,1.09803342 C4.04982004,1.50866621 3.3170629,2.04224144 2.68007308,2.67940225 C2.03973918,3.3147713 1.50597144,4.04917197 1.09929458,4.85436467 C0.691495324,5.65795474 0.408726002,6.51907555 0.260752917,7.40798567 C0.111373013,8.29577308 0.0309903274,9.1937984 0.02032625,10.0940023 C0.00787558333,10.5053573 0.00656075,10.9180808 0,11.3294895 L0,42.3411217 C0.00656075,42.7577092 0.00787558333,43.1612825 0.02032625,43.5780042 C0.0309935975,44.4781635 0.111376284,45.3761439 0.260752917,46.2638867 C0.408317404,47.1533164 0.691103445,48.0149316 1.09929458,48.8188225 C1.50578678,49.6214114 2.03962959,50.3528388 2.68007308,50.984675 C3.31464764,51.6246688 4.04787842,52.1586071 4.85176183,52.5660975 C5.65467953,52.9743754 6.51439601,53.2596692 7.40210917,53.4124208 C8.29112312,53.5584676 9.18982286,53.637758 10.090675,53.6496275 C10.5053708,53.6587508 10.9128483,53.6639833 11.3235996,53.6639833 C11.8142739,53.6666667 12.3004,53.6666667 12.7923623,53.6666667 L147.76415,53.6666667 C148.246345,53.6666667 148.736321,53.6666667 149.218516,53.6639833 C149.627322,53.6639833 150.046593,53.6587508 150.455399,53.6496275 C151.354548,53.6383893 152.251556,53.5590938 153.138732,53.4124208 C154.029309,53.2585939 154.892108,52.9733757 155.698901,52.5660975 C156.502059,52.1583712 157.234613,51.6244475 157.868644,50.984675 C158.507435,50.3503643 159.042418,49.6194718 159.453957,48.8188225 C159.859085,48.0143468 160.13918,47.1528005 160.284583,46.2638867 C160.434199,45.3760221 160.517434,44.4782414 160.533596,43.5780042 C160.538829,43.1612825 160.538829,42.7577092 160.538829,42.3411217 C160.549294,41.8536942 160.549294,41.36895 160.549294,40.8736067 L160.549294,12.7943077 C160.549294,12.302976 160.549294,11.8155753 160.538829,11.3294895 C160.538829,10.9180808 160.538829,10.5053573 160.533596,10.0939487 C160.517437,9.19366678 160.434202,8.29584119 160.284583,7.407932 C160.138774,6.51953614 159.858697,5.65848356 159.453957,4.854311 C158.625779,3.24038807 157.312528,1.92666741 155.698901,1.09791267 C154.892105,0.691719568 154.029214,0.408189217 153.138732,0.256687667 C152.251709,0.108812901 151.354608,0.0295270846 150.455399,0.0195346667 C150.046593,0.0129873333 149.627322,0.00512516667 149.218516,0.00250891667 C148.736321,-0.000174416667 148.246345,-0.000174416667 147.76415,-0.000174416667 L147.76415,-0.000174416667 Z" fill="#A6A6A6"></path>
                    <path d="M11.3301469,52.4927083 C10.9213679,52.4927083 10.5224636,52.4874758 10.1168912,52.4783525 C9.27671504,52.4674055 8.43850262,52.3942636 7.60912833,52.2595267 C6.83577866,52.126337 6.08661069,51.8785798 5.3863355,51.5244275 C4.69248145,51.1732096 4.05963079,50.7126827 3.51202717,50.1604892 C2.95649711,49.6148001 2.49399295,48.981894 2.14284292,48.2868517 C1.78782351,47.5872921 1.54212895,46.8374486 1.41431792,46.0634417 C1.2762931,45.2317625 1.20161595,44.3908036 1.19093042,43.5478167 C1.18242425,43.2648592 1.17128842,42.3227408 1.17128842,42.3227408 L1.17128842,11.3294895 C1.17128842,11.3294895 1.18314875,10.4018477 1.1909975,10.129315 C1.20122882,9.28766342 1.27547171,8.44800957 1.41308358,7.61762108 C1.54113054,6.84149386 1.7870153,6.08948806 2.14222575,5.38763692 C2.49208522,4.69307466 2.95202165,4.05969589 3.50420525,3.512054 C4.05576821,2.95920874 4.69064325,2.49631053 5.38567808,2.14024008 C6.08434384,1.78722558 6.83209597,1.54121616 7.60388242,1.41045392 C8.43598051,1.27436349 9.27710287,1.20078641 10.1201917,1.19034008 L11.3308043,1.17395833 L149.211942,1.17395833 L150.437018,1.1909975 C151.272438,1.20092476 152.10592,1.27384542 152.930371,1.40913908 C153.709971,1.54154155 154.465516,1.78926751 155.172162,2.14417117 C156.564569,2.86175628 157.697543,3.99704362 158.412287,5.39091058 C158.761828,6.08791656 159.00392,6.83378823 159.130347,7.60321158 C159.269598,8.44041344 159.347532,9.2866656 159.363529,10.1352183 C159.36742,10.5151783 159.36742,10.9233133 159.36742,11.3294895 C159.378019,11.8326145 159.378019,12.3114956 159.378019,12.7943078 L159.378019,40.8736067 C159.378019,41.3610342 159.378019,41.836655 159.36742,42.3161667 C159.36742,42.7524767 159.36742,43.1521592 159.362187,43.5635142 C159.346537,44.3969249 159.269902,45.228072 159.132896,46.0502933 C159.007705,46.8298837 158.763348,47.5855801 158.408396,48.2908767 C158.054764,48.978375 157.594916,49.6057988 157.0458,50.1500242 C156.497703,50.7051852 155.863736,51.1684065 155.168271,51.5218783 C154.463583,51.8787532 153.70915,52.1274265 152.930371,52.2595267 C152.10106,52.3949826 151.262767,52.4681292 150.422528,52.4783525 C150.029554,52.4874758 149.618065,52.4927083 149.218516,52.4927083 L147.76415,52.4953917 L11.3301469,52.4927083 Z" fill="#000000"></path>
                </g>
                <g id="_Group_" transform="translate(13.075000, 10.733333)" fill="#FFFFFF">
                    <g id="_Group_3">
                        <path d="M20.1565807,16.5034123 C20.1859055,14.2273139 21.3791649,12.1248914 23.3182987,10.9327318 C22.0894294,9.17768796 20.1049427,8.10484512 17.9634923,8.0378445 C15.710512,7.80136233 13.5263458,9.38599142 12.3782682,9.38599142 C11.2079726,9.38599142 9.44032675,8.06132367 7.536864,8.10048692 C5.03240336,8.18140071 2.75416738,9.57081335 1.53569633,11.7603792 C-1.059087,16.2528427 0.876387917,22.8552514 3.361973,26.4866198 C4.60556383,28.2647977 6.0589645,30.2510682 7.96070992,30.1806307 C9.82168208,30.1034446 10.5167191,28.9939533 12.7630716,28.9939533 C14.9885746,28.9939533 15.6406648,30.1806307 17.5809966,30.1358458 C19.5779064,30.1034312 20.8360543,28.3497655 22.0360142,26.5547497 C22.9295321,25.2877329 23.6170928,23.8874036 24.0732277,22.4056321 C21.7015052,21.4025099 20.1593489,19.0785461 20.1565807,16.5034123 L20.1565807,16.5034123 Z" id="_Path_"></path>
                        <path d="M16.4916438,5.64961075 C17.5804419,4.34254822 18.1168515,2.66254079 17.9869581,0.96636225 C16.3235166,1.14107474 14.7869626,1.93609165 13.6834549,3.19300567 C12.5937918,4.43312028 12.041771,6.05552218 12.1489773,7.70287058 C13.8347236,7.72022741 15.4353041,6.96345557 16.4916438,5.64961075 L16.4916438,5.64961075 Z" id="_Path_2"></path>
                    </g>
                    <g id="Group" transform="translate(32.541667, 13.075000)">
                        <path d="M11.1388789,12.6040304 L4.78823392,12.6040304 L3.26313458,17.1072675 L0.573253917,17.1072675 L6.58848225,0.446450833 L9.38317392,0.446450833 L15.3984022,17.1072675 L12.66265,17.1072675 L11.1388789,12.6040304 Z M5.44595917,10.5260168 L10.4798925,10.5260168 L7.99833242,3.21759625 L7.92888775,3.21759625 L5.44595917,10.5260168 Z" id="Shape"></path>
                        <path d="M28.3892507,11.0343878 C28.3892507,14.8091401 26.3688886,17.2343502 23.3200047,17.2343502 C21.7440633,17.3167884 20.2596126,16.4913495 19.4980928,15.1091502 L19.4404012,15.1091502 L19.4404012,21.1256933 L16.9470478,21.1256933 L16.9470478,4.96019317 L19.3605183,4.96019317 L19.3605183,6.98055533 L19.4063765,6.98055533 C20.2017276,5.60702129 21.6877791,4.78193777 23.2741466,4.83309708 C26.3570417,4.8331105 28.3892507,7.27011383 28.3892507,11.0343878 Z M25.8264527,11.0343878 C25.8264527,8.57511275 24.5555322,6.95828367 22.6164079,6.95828367 C20.7113486,6.95828367 19.4299496,8.60916425 19.4299496,11.0343878 C19.4299496,13.4818829 20.7113486,15.1209703 22.6164079,15.1209703 C24.5555456,15.1209703 25.8264527,13.5159478 25.8264527,11.0343878 Z" id="Shape"></path>
                        <path d="M41.7587444,11.0343877 C41.7587444,14.8091401 39.7383823,17.2343502 36.6894984,17.2343502 C35.113557,17.3167884 33.6291063,16.4913495 32.8675865,15.1091502 L32.8098948,15.1091502 L32.8098948,21.1256933 L30.3165415,21.1256933 L30.3165415,4.96019317 L32.7299583,4.96019317 L32.7299583,6.98055533 L32.7758165,6.98055533 C33.5711734,5.60702212 35.0572305,4.78194346 36.6436,4.8331105 C39.726589,4.8331105 41.7587444,7.27011383 41.7587444,11.0343877 Z M39.1959598,11.0343877 C39.1959598,8.57511275 37.9250258,6.95828367 35.9859016,6.95828367 C34.0808423,6.95828367 32.7994433,8.60916425 32.7994433,11.0343877 C32.7994433,13.4818829 34.0808423,15.1209702 35.9859016,15.1209702 C37.9250393,15.1209702 39.1959598,13.5159478 39.1959598,11.0343877 L39.1959598,11.0343877 Z" id="Shape"></path>
                        <path d="M50.5948806,12.4651411 C50.7796281,14.1173365 52.3846639,15.2021411 54.5779535,15.2021411 C56.6795536,15.2021411 58.1915448,14.1172828 58.1915448,12.6275498 C58.1915448,11.3343576 57.2796274,10.5600415 55.1203893,10.0293855 L52.9611513,9.50922133 C49.901789,8.77025817 48.4815007,7.33949142 48.4815007,5.0177775 C48.4815007,2.14314933 50.9866473,0.168645333 54.5438886,0.168645333 C58.0644219,0.168645333 60.477879,2.14314933 60.5591169,5.0177775 L58.0421503,5.0177775 C57.8914811,3.35510367 56.5170509,2.35148333 54.508482,2.35148333 C52.4999131,2.35148333 51.1254963,3.36691033 51.1254963,4.84483667 C51.1254963,6.02272608 52.0033488,6.71583108 54.1507937,7.24642 L55.9864083,7.6971395 C59.4047738,8.50554733 60.8250621,9.8786895 60.8250621,12.315666 C60.8250621,15.4326797 58.3421872,17.384912 54.3931792,17.384912 C50.6983499,17.384912 48.2036952,15.4785378 48.0425342,12.4650203 L50.5948806,12.4651411 Z" id="Path"></path>
                        <path d="M66.2061651,2.085565 L66.2061651,4.96019317 L68.5160858,4.96019317 L68.5160858,6.93469717 L66.2061651,6.93469717 L66.2061651,13.6312372 C66.2061651,14.6715522 66.6686778,15.1563366 67.6840914,15.1563366 C67.9583166,15.1515548 68.232098,15.1322975 68.5042925,15.0986449 L68.5042925,17.0613557 C68.0477613,17.1466582 67.5837358,17.1852914 67.1193839,17.1766585 C64.6601089,17.1766585 63.7010185,16.2529478 63.7010185,13.897169 L63.7010185,6.93469717 L61.9348485,6.93469717 L61.9348485,4.96019317 L63.7009917,4.96019317 L63.7009917,2.085565 L66.2061651,2.085565 Z" id="Path"></path>
                        <path d="M69.853875,11.0343877 C69.853875,7.21247583 72.1048294,4.81083883 75.6149246,4.81083883 C79.1367996,4.81083883 81.3772756,7.21242217 81.3772756,11.0343877 C81.3772756,14.8667915 79.1485928,17.2579367 75.6149246,17.2579367 C72.0825041,17.2579367 69.853875,14.8667781 69.853875,11.0343877 Z M78.8367492,11.0343877 C78.8367492,8.41263692 77.6352733,6.86526592 75.6149112,6.86526592 C73.594549,6.86526592 72.3943879,8.42443017 72.3943879,11.0343877 C72.3943879,13.666617 73.594549,15.2022082 75.6149112,15.2022082 C77.6352733,15.2022082 78.8367492,13.666617 78.8367492,11.0343877 L78.8367492,11.0343877 Z" id="Shape"></path>
                        <path d="M83.4329504,4.96019317 L85.8110143,4.96019317 L85.8110143,7.0277015 L85.868706,7.0277015 C86.2003339,5.69675261 87.4198505,4.78074734 88.7904937,4.83308367 C89.0778305,4.83208041 89.3643745,4.86328558 89.6447597,4.92611483 L89.6447597,7.25830717 C89.2820146,7.14746312 88.9036091,7.09657098 88.5244681,7.107638 C87.7914461,7.07790055 87.0820435,7.3700341 86.5825283,7.90733301 C86.0830131,8.44463193 85.8432902,9.17341658 85.9263037,9.90232967 L85.9263037,17.1072407 L83.4329504,17.1072407 L83.4329504,4.96019317 Z" id="Path"></path>
                        <path d="M101.140603,13.5395209 C100.805186,15.7446172 98.6577276,17.2579232 95.9101955,17.2579232 C92.3765273,17.2579232 90.1832243,14.8903512 90.1832243,11.0920257 C90.1832243,7.28190708 92.3883205,4.81082542 95.8053845,4.81082542 C99.1660985,4.81082542 101.279492,7.11943125 101.279492,10.8024672 L101.279492,11.6567332 L92.7001641,11.6567332 L92.7001641,11.8074024 C92.6200631,12.7117282 92.9323282,13.6068853 93.5575292,14.2651747 C94.1827302,14.9234641 95.0606086,15.281438 95.9678603,15.2480395 C97.177832,15.3614098 98.3185986,14.6666117 98.7730438,13.5395075 L101.140603,13.5395209 Z M92.7119337,9.91414975 L98.7848237,9.91414975 C98.830072,9.10153914 98.5342762,8.3069043 97.9687013,7.72168066 C97.4031265,7.13645701 96.6190527,6.81370622 95.8053845,6.83118758 C94.9852797,6.82629349 94.1971967,7.14919563 93.6163017,7.72812294 C93.0354068,8.30705025 92.7098325,9.09403308 92.7119337,9.91414975 L92.7119337,9.91414975 Z" id="Shape"></path>
                    </g>
                </g>
            </g>
            <g id="Group" transform="translate(46.958333, 10.733333)" fill="#FFFFFF">
                <path d="M3.79180492,0.980758333 C4.85030821,0.904798777 5.88708879,1.3075178 6.61677973,2.07806969 C7.34647067,2.84862158 7.69215855,3.90578593 7.55869508,4.95858533 C7.55869508,7.51613742 6.17641617,8.98626867 3.79180492,8.98626867 L0.900151,8.98626867 L0.900151,0.980758333 L3.79180492,0.980758333 Z M2.14354058,7.85411667 L3.65291558,7.85411667 C4.40937669,7.89933352 5.14594442,7.60129167 5.65810151,7.04274615 C6.17025859,6.48420064 6.40347931,5.72461584 6.293007,4.9749 C6.39544193,4.22829542 6.15886258,3.47497867 5.64797536,2.92098809 C5.13708814,2.36699751 4.40535669,2.07030745 3.65291558,2.11206508 L2.14354058,2.11206508 L2.14354058,7.85411667 Z" id="Shape"></path>
                <path d="M8.96324567,5.96282283 C8.85965173,4.87994361 9.37889892,3.83195018 10.3032164,3.25836813 C11.2275338,2.68478609 12.3971098,2.68478609 13.3214272,3.25836813 C14.2457447,3.83195018 14.7649919,4.87994361 14.6613979,5.96282283 C14.7669629,7.0468657 14.2481896,8.09689176 13.3230526,8.67170861 C12.3979156,9.24652546 11.226728,9.24652546 10.301591,8.67170861 C9.37645397,8.09689176 8.85768073,7.0468657 8.96324567,5.96282283 Z M13.4350341,5.96282283 C13.4350341,4.65326225 12.8467267,3.88743892 11.8142873,3.88743892 C10.7779035,3.88743892 10.1948957,4.65326225 10.1948957,5.96283625 C10.1948957,7.28288867 10.7779437,8.04280867 11.8142873,8.04280867 C12.8467535,8.04280867 13.4350341,7.27762933 13.4350341,5.96282283 L13.4350341,5.96282283 Z" id="Shape"></path>
                <polygon id="Path" points="22.2357905 8.98614792 20.9989482 8.98614792 19.7503127 4.53663117 19.6559802 4.53663117 18.4125772 8.98614792 17.1875147 8.98614792 15.5222247 2.94471683 16.7315627 2.94471683 17.8138047 7.5546835 17.9029048 7.5546835 19.144993 2.94471683 20.2888175 2.94471683 21.5309057 7.5546835 21.6252382 7.5546835 22.7022343 2.94471683 23.8945332 2.94471683"></polygon>
                <path d="M25.2951528,2.94471683 L26.4429083,2.94471683 L26.4429083,3.90445125 L26.5320084,3.90445125 C26.841846,3.1978329 27.5658469,2.76558753 28.334873,2.82809917 C28.9303272,2.78333013 29.5138302,3.01175979 29.9206301,3.44889111 C30.32743,3.88602244 30.5133815,4.48441854 30.4259813,5.0751225 L30.4259813,8.98608083 L29.2336823,8.98608083 L29.2336823,5.37452883 C29.2336823,4.40365858 28.8117953,3.920833 27.9300117,3.920833 C27.5261242,3.90202165 27.1341621,4.06053078 26.8568858,4.35480418 C26.5796095,4.64907759 26.4446727,5.04976636 26.4874517,5.45182225 L26.4874517,8.98614792 L25.2951528,8.98614792 L25.2951528,2.94471683 Z" id="Path"></path>
                <polygon id="Path" points="32.3258081 0.586308333 33.518107 0.586308333 33.518107 8.9861345 32.3258081 8.9861345"></polygon>
                <path d="M35.1755349,5.96282283 C35.0720205,4.87987277 35.5913496,3.83185281 36.5157357,3.25826192 C37.4401217,2.68467103 38.6097578,2.68467103 39.5341438,3.25826192 C40.4585299,3.83185281 40.977859,4.87987277 40.8743446,5.96282283 C40.9797754,7.04690451 40.4609072,8.0969009 39.5357242,8.67169243 C38.6105413,9.24648396 37.4393382,9.24648396 36.5141553,8.67169243 C35.5889723,8.0969009 35.0701041,7.04690451 35.1755349,5.96282283 L35.1755349,5.96282283 Z M39.6473233,5.96282283 C39.6473233,4.65326225 39.0590159,3.88743892 38.0265766,3.88743892 C36.9901928,3.88743892 36.4071849,4.65326225 36.4071849,5.96283625 C36.4071849,7.28288867 36.990233,8.04280867 38.0265766,8.04280867 C39.0590293,8.04280867 39.6473233,7.27762933 39.6473233,5.96282283 L39.6473233,5.96282283 Z" id="Shape"></path>
                <path d="M42.1295408,7.27762933 C42.1295408,6.19014142 42.9392635,5.56320742 44.3765642,5.47410733 L46.0130352,5.37977475 L46.0130352,4.85830917 C46.0130352,4.22022592 45.5911482,3.85992133 44.776193,3.85992133 C44.1106056,3.85992133 43.6494077,4.10427908 43.5170657,4.53141208 L42.3627628,4.53141208 C42.4846129,3.49371342 43.4607291,2.828126 44.8312147,2.828126 C46.3458357,2.828126 47.2001017,3.58214267 47.2001017,4.85830917 L47.2001017,8.98616133 L46.0523461,8.98616133 L46.0523461,8.13714125 L45.9580135,8.13714125 C45.5681904,8.75716075 44.874958,9.11952734 44.1433557,9.08569958 C43.630485,9.13904668 43.1189813,8.9729468 42.7352977,8.62846286 C42.3516141,8.28397892 42.1315615,7.79326311 42.1295408,7.27762933 L42.1295408,7.27762933 Z M46.0130352,6.76139625 L46.0130352,6.25631242 L44.5377252,6.350645 C43.7057308,6.40632417 43.3283871,6.68933533 43.3283871,7.22193675 C43.3283871,7.765674 43.8000634,8.08209267 44.4486787,8.08209267 C44.8326451,8.12096057 45.2159462,8.00233736 45.5108365,7.75337842 C45.8057268,7.50441947 45.9869554,7.14644259 46.0130352,6.76139625 Z" id="Shape"></path>
                <path d="M48.7671147,5.96282283 C48.7671147,4.05383242 49.7484767,2.84449433 51.2748775,2.84449433 C52.0456338,2.8089806 52.7675186,3.2219761 53.1275313,3.904411 L53.2166314,3.904411 L53.2166314,0.586308333 L54.4089303,0.586308333 L54.4089303,8.9861345 L53.2664207,8.9861345 L53.2664207,8.03163258 L53.1720881,8.03163258 C52.7848619,8.70840545 52.0540833,9.11441994 51.2748909,9.08569958 C49.7379983,9.08576667 48.7671147,7.87640175 48.7671147,5.96282283 Z M49.9987647,5.96282283 C49.9987647,7.24422183 50.602783,8.01529108 51.6129641,8.01529108 C52.6178724,8.01529108 53.2389433,7.23309942 53.2389433,5.96806875 C53.2389433,4.70894142 52.6113519,3.9156005 51.6129641,3.9156005 C50.6092901,3.9156005 49.9987244,4.69190225 49.9987244,5.96282283 L49.9987647,5.96282283 Z" id="Shape"></path>
                <path d="M59.3419167,5.96282283 C59.3419167,4.05383242 60.3232788,2.84449433 61.8496795,2.84449433 C62.6204358,2.8089806 63.3423206,3.2219761 63.7023333,3.904411 L63.7914334,3.904411 L63.7914334,0.586308333 L64.9837323,0.586308333 L64.9837323,8.9861345 L63.8412227,8.9861345 L63.8412227,8.03163258 L63.7468767,8.03163258 C63.3596504,8.70840545 62.6288719,9.11441994 61.8496795,9.08569958 C60.3127869,9.08576667 59.3419167,7.87640175 59.3419167,5.96282283 Z M60.5735667,5.96282283 C60.5735667,7.24422183 61.177585,8.01529108 62.1877661,8.01529108 C63.1926744,8.01529108 63.8137453,7.23309942 63.8137453,5.96806875 C63.8137453,4.70894142 63.1861539,3.9156005 62.1877661,3.9156005 C61.184025,3.9156005 60.5735667,4.69190225 60.5735667,5.96282283 L60.5735667,5.96282283 Z" id="Shape"></path>
                <path d="M66.7839807,1.158234 C66.765166,0.842252868 66.9410431,0.546773174 67.2277673,0.412656553 C67.5144916,0.278539933 67.8540239,0.332934466 68.0845019,0.549909088 C68.3149798,0.76688371 68.3897496,1.10251811 68.273167,1.39680801 C68.1565843,1.69109792 67.872248,1.88447276 67.5557073,1.8847465 C67.3559091,1.89493457 67.1606026,1.82316793 67.0149376,1.68603721 C66.8692726,1.54890648 66.7858593,1.35828299 66.7839807,1.158234 Z M66.960866,2.94471683 L68.1492338,2.94471683 L68.1492338,8.98614792 L66.960866,8.98614792 L66.960866,2.94471683 Z" id="Shape"></path>
            </g>
        </g>
    </g>
</svg>