<svg width="17" height="16" viewBox="0 0 17 16" fill="none" xmlns="http://www.w3.org/2000/svg">
<path fill-rule="evenodd" clip-rule="evenodd" d="M7.81629 4.16938C8.20693 4.6024 8.08308 5.09297 7.73768 5.55844C7.65578 5.6688 7.56139 5.77753 7.44739 5.89735C7.39266 5.95486 7.35 5.99811 7.26075 6.08745L6.74956 6.59892C6.6826 6.66588 7.13981 7.57952 8.02714 8.46773C8.91399 9.35544 9.82759 9.81297 9.89487 9.74566L10.4057 9.23454C10.687 8.95296 10.836 8.8171 11.0407 8.6828C11.4663 8.4036 11.9305 8.32772 12.322 8.67779C13.6002 9.59215 14.3236 10.1532 14.6779 10.5215C15.3691 11.2396 15.2786 12.3452 14.6819 12.9758C14.475 13.1945 14.2126 13.457 13.9027 13.7557C12.0284 15.6311 8.0726 14.4898 5.04093 11.4552C2.00856 8.41984 0.867877 4.46368 2.73831 2.59224C3.07411 2.25117 3.18482 2.14051 3.51186 1.81827C4.12074 1.21831 5.27726 1.12437 5.9803 1.81886C6.3501 2.18417 6.93966 2.94272 7.81629 4.16938ZM11.3481 10.1773L10.8372 10.6885C9.96869 11.5574 8.48965 10.8167 7.08465 9.41033C5.67868 8.00298 4.93881 6.5245 5.80757 5.65581L6.31825 5.14485C6.39997 5.06305 6.43735 5.02516 6.48222 4.978C6.54335 4.91375 6.59359 4.85732 6.63381 4.80739C5.85689 3.72516 5.32876 3.04893 5.04405 2.76768C4.89701 2.62243 4.56777 2.64918 4.4469 2.76827C4.12453 3.08591 4.01857 3.19182 3.68413 3.53149C2.48126 4.73503 3.4021 7.92871 5.98342 10.5126C8.56393 13.0956 11.7571 14.0169 12.9692 12.8044C13.2742 12.5101 13.5228 12.2614 13.7141 12.0592C13.8524 11.9131 13.8771 11.6115 13.718 11.4463C13.4531 11.1711 12.8046 10.6654 11.6849 9.8613C11.6032 9.92699 11.5029 10.0223 11.3481 10.1773ZM10.3047 7.13786L13.8333 3.60926V5.99979H15.1666V1.33312H10.5V2.66646H12.8905L9.36189 6.19505L10.3047 7.13786Z" fill="#202020"/>
</svg>
