<svg width="16" height="16" viewBox="0 0 16 16" fill="none" xmlns="http://www.w3.org/2000/svg">
<path fill-rule="evenodd" clip-rule="evenodd" d="M7.31629 4.16938C7.70693 4.6024 7.58308 5.09297 7.23768 5.55844C7.15578 5.6688 7.06139 5.77753 6.94739 5.89735C6.89266 5.95486 6.85 5.99811 6.76075 6.08745L6.24956 6.59892C6.1826 6.66588 6.63981 7.57952 7.52714 8.46773C8.41399 9.35544 9.32759 9.81297 9.39487 9.74566L9.9057 9.23454C10.187 8.95296 10.336 8.8171 10.5407 8.6828C10.9663 8.4036 11.4305 8.32772 11.822 8.67779C13.1002 9.59215 13.8236 10.1532 14.1779 10.5215C14.8691 11.2396 14.7786 12.3452 14.1819 12.9758C13.975 13.1945 13.7126 13.457 13.4027 13.7557C11.5284 15.6311 7.5726 14.4898 4.54093 11.4552C1.50856 8.41984 0.367877 4.46368 2.23831 2.59224C2.57411 2.25117 2.68482 2.14051 3.01186 1.81827C3.62074 1.21831 4.77726 1.12437 5.4803 1.81886C5.8501 2.18417 6.43966 2.94272 7.31629 4.16938ZM10.8481 10.1773L10.3372 10.6885C9.46869 11.5574 7.98965 10.8167 6.58465 9.41033C5.17868 8.00298 4.43881 6.5245 5.30757 5.65581L5.81825 5.14485C5.89997 5.06305 5.93735 5.02516 5.98222 4.978C6.04335 4.91375 6.09359 4.85732 6.13381 4.80739C5.35689 3.72516 4.82876 3.04893 4.54405 2.76768C4.39701 2.62243 4.06777 2.64918 3.9469 2.76827C3.62453 3.08591 3.51857 3.19182 3.18413 3.53149C1.98126 4.73503 2.9021 7.92871 5.48342 10.5126C8.06393 13.0956 11.2571 14.0169 12.4692 12.8044C12.7742 12.5101 13.0228 12.2614 13.2141 12.0592C13.3524 11.9131 13.3771 11.6115 13.218 11.4463C12.9531 11.1711 12.3046 10.6654 11.1849 9.8613C11.1032 9.92699 11.0029 10.0223 10.8481 10.1773ZM13.7238 1.33315L10.1952 4.86175V2.47122H8.86188V7.13789H13.5285V5.80456H11.138L14.6666 2.27596L13.7238 1.33315Z" fill="#202020"/>
</svg>
