<svg width="17" height="16" viewBox="0 0 17 16" fill="none" xmlns="http://www.w3.org/2000/svg">
<path fill-rule="evenodd" clip-rule="evenodd" d="M7.86268 5.55844C8.20808 5.09297 8.33193 4.6024 7.94129 4.16938C7.06466 2.94272 6.4751 2.18417 6.1053 1.81886C5.40226 1.12437 4.24574 1.21831 3.63686 1.81827C3.30982 2.14051 3.19911 2.25117 2.86331 2.59224C0.992877 4.46368 2.13356 8.41984 5.16593 11.4552C8.1976 14.4898 12.1534 15.6311 14.0277 13.7557C14.3376 13.457 14.6 13.1945 14.8069 12.9758C15.4036 12.3452 15.4941 11.2396 14.8029 10.5215C14.4486 10.1532 13.7252 9.59215 12.447 8.67779C12.0555 8.32772 11.5913 8.4036 11.1657 8.6828C10.961 8.8171 10.812 8.95296 10.5307 9.23454L10.0199 9.74566C9.95259 9.81297 9.03899 9.35544 8.15214 8.46773C7.26481 7.57952 6.8076 6.66588 6.87456 6.59892L7.38575 6.08745C7.475 5.99811 7.51766 5.95486 7.57239 5.89735C7.68639 5.77753 7.78078 5.6688 7.86268 5.55844ZM10.9622 10.6885L11.4731 10.1773C11.6279 10.0223 11.7282 9.92699 11.8099 9.8613C12.9296 10.6654 13.5781 11.1711 13.843 11.4463C14.0021 11.6115 13.9774 11.9131 13.8391 12.0592C13.6478 12.2614 13.3992 12.5101 13.0942 12.8044C11.8821 14.0169 8.68893 13.0956 6.10842 10.5126C3.5271 7.92871 2.60626 4.73503 3.80913 3.53149C4.14357 3.19182 4.24953 3.08591 4.5719 2.76827C4.69277 2.64918 5.02201 2.62243 5.16905 2.76768C5.45376 3.04893 5.98189 3.72516 6.75881 4.80739C6.71859 4.85732 6.66835 4.91375 6.60722 4.978C6.56235 5.02516 6.52497 5.06305 6.44325 5.14485L5.93257 5.65581C5.06381 6.5245 5.80368 8.00298 7.20965 9.41033C8.61465 10.8167 10.0937 11.5574 10.9622 10.6885Z" fill="#202020"/>
</svg>
