<svg width="21" height="20" viewBox="0 0 21 20" fill="none" xmlns="http://www.w3.org/2000/svg">
<rect x="0.5" width="20" height="20" rx="10" fill="#2DCEF3"/>
<path d="M11.3426 7.146H9.66263C9.56929 7.146 9.52263 7.09933 9.52263 7.006V5.62C9.52263 5.52667 9.56929 5.48 9.66263 5.48H11.3426C11.436 5.48 11.4826 5.52667 11.4826 5.62V7.006C11.4826 7.09933 11.436 7.146 11.3426 7.146ZM11.3426 15H9.66263C9.56929 15 9.52263 14.9533 9.52263 14.86V8.364C9.52263 8.27067 9.56929 8.224 9.66263 8.224H11.3426C11.436 8.224 11.4826 8.27067 11.4826 8.364V14.86C11.4826 14.9533 11.436 15 11.3426 15Z" fill="white"/>
</svg>
