<svg width="72" height="72" viewBox="0 0 72 72" fill="none" xmlns="http://www.w3.org/2000/svg">
<path d="M58.8314 0.5H13.1686C6.17194 0.5 0.5 6.17194 0.5 13.1686V58.8314C0.5 65.8281 6.17194 71.5 13.1686 71.5H58.8314C65.8281 71.5 71.5 65.8281 71.5 58.8314V13.1686C71.5 6.17194 65.8281 0.5 58.8314 0.5Z" fill="#ED1C24"/>
<path fill-rule="evenodd" clip-rule="evenodd" d="M23.8967 53.9652C18.8589 50.1802 15.8331 44.2562 15.8331 37.8328C15.8331 26.6951 24.862 17.6661 35.9997 17.6661C47.1375 17.6661 56.1664 26.6951 56.1664 37.8328C56.1664 44.2562 53.1406 50.1802 48.1028 53.9652L47.6135 54.3328H24.386L23.8967 53.9652ZM46.3718 50.6667C50.2136 47.5592 52.4997 42.8878 52.4997 37.8334C52.4997 28.7207 45.1124 21.3334 35.9997 21.3334C26.887 21.3334 19.4997 28.7207 19.4997 37.8334C19.4997 42.8878 21.7859 47.5592 25.6277 50.6667H46.3718ZM45.7521 27.8844L42.7483 25.7817L37.921 32.6777C37.3229 32.4547 36.6756 32.3329 35.9998 32.3329C32.9622 32.3329 30.4998 34.7953 30.4998 37.8329C30.4998 40.8704 32.9622 43.3329 35.9998 43.3329C39.0374 43.3329 41.4998 40.8704 41.4998 37.8329C41.4998 36.8147 41.2231 35.8611 40.7409 35.0433L45.7521 27.8844ZM37.8331 37.8323C37.8331 38.8448 37.0123 39.6657 35.9998 39.6657C34.9873 39.6657 34.1665 38.8448 34.1665 37.8323C34.1665 36.8198 34.9873 35.999 35.9998 35.999C37.0123 35.999 37.8331 36.8198 37.8331 37.8323Z" fill="white"/>
</svg>
