<svg xmlns="http://www.w3.org/2000/svg" width="50" height="50" viewBox="0 0 50 50">
    <g fill="none" fill-rule="evenodd">
        <path d="M0 0H20V20H0z" transform="translate(15 15)"/>
        <path fill="#B0E01F" d="M19.945 9.972c0 5.508-4.465 9.973-9.973 9.973C4.464 19.945 0 15.48 0 9.972 0 4.464 4.464 0 9.972 0c5.508 0 9.973 4.464 9.973 9.972z" transform="translate(15 15)"/>
        <path fill="#FFF" stroke="#FFF" stroke-width=".5" d="M5.993 10.04c.26-.26.683-.26.943 0l1.885 1.886 4.243-4.243c.26-.26.683-.26.943 0 .26.26.26.683 0 .943L9.293 13.34c-.26.26-.683.26-.943 0l-2.357-2.357c-.26-.26-.26-.682 0-.943z" transform="translate(15 15)"/>
    </g>
</svg>
