<svg xmlns="http://www.w3.org/2000/svg" xmlns:xlink="http://www.w3.org/1999/xlink" width="40" height="40" viewBox="0 0 40 40">
    <defs>
        <circle id="fuq3u7yj6a" cx="18.613" cy="15.371" r="6.316"/>
    </defs>
    <g fill="none" fill-rule="evenodd">
        <g transform="translate(1 3)">
            <g fill="#ED2324" transform="translate(16.21 1.105)">
                <circle cx="9.211" cy="4.053" r="4.053"/>
                <path fill-rule="nonzero" d="M6.501 6.993L7.891 7.827 2.194 17.323 0.804 16.489z"/>
            </g>
            <g fill="#ED2324" transform="rotate(180 10.021 16.763)">
                <circle cx="9.211" cy="4.053" r="4.053"/>
                <path fill-rule="nonzero" d="M6.501 6.993L7.891 7.827 2.194 17.323 0.804 16.489z"/>
            </g>
            <g fill="#ED2324">
                <circle cx="5.158" cy="5.158" r="4.211" transform="rotate(-86 5.158 5.158)"/>
                <path fill-rule="nonzero" d="M4.047 4.047c.277-.277.705-.312 1.02-.104l.126.104 6.314 4.968c.316.316.316.83 0 1.146-.277.277-.705.312-1.02.104l-.126-.104-6.314-4.968c-.316-.316-.316-.83 0-1.146z"/>
            </g>
            <g fill="#ED2324" transform="rotate(180 18.695 15.695)">
                <circle cx="5.095" cy="4.639" r="4.211" transform="rotate(-86 5.095 4.639)"/>
                <path fill-rule="nonzero" d="M4.467 4.127c.248-.304.67-.381 1.003-.207l.137.09 7.221 5.888c.347.283.399.794.116 1.14-.248.304-.67.382-1.003.207l-.137-.09-7.22-5.888c-.348-.283-.4-.793-.117-1.14z"/>
            </g>
            <mask id="bz19ag3yyb" fill="#fff">
                <use xlink:href="#fuq3u7yj6a"/>
            </mask>
            <use fill="#CA2627" xlink:href="#fuq3u7yj6a"/>
            <circle cx="15.842" cy="11.632" r="6.316" fill="#ED2324" mask="url(#bz19ag3yyb)"/>
            <circle cx="14.579" cy="14.579" r="1" fill="#FFF" fill-rule="nonzero" mask="url(#bz19ag3yyb)"/>
        </g>
    </g>
</svg>
