<svg xmlns="http://www.w3.org/2000/svg" xmlns:xlink="http://www.w3.org/1999/xlink" width="40" height="40" viewBox="0 0 40 40">
    <defs>
        <path id="ivxud4d82a" d="M17.208 24.609c1.537-1.536 4.028-1.536 5.564 0 1.536 1.536 1.536 4.027 0 5.563-1.536 1.536-4.027 1.536-5.564 0-1.535-1.536-1.535-4.027 0-5.563zm2.782-9.355c3.241 0 6.29 1.262 8.581 3.555.9.9.9 2.357 0 3.256-.45.45-1.037.675-1.628.675-.587 0-1.178-.225-1.628-.675-1.42-1.423-3.312-2.206-5.325-2.206-2.012 0-3.903.783-5.324 2.206-.9.9-2.357.9-3.256 0-.9-.899-.9-2.357 0-3.256 2.29-2.293 5.34-3.555 8.58-3.555zm0-7.583c5.268 0 10.218 2.052 13.942 5.776.9.9.9 2.358 0 3.256-.45.45-1.038.675-1.628.675-.588 0-1.179-.225-1.628-.675-2.854-2.854-6.65-4.426-10.686-4.426-4.037 0-7.833 1.572-10.687 4.426-.898.9-2.356.9-3.256 0-.899-.898-.899-2.356 0-3.256 3.724-3.724 8.676-5.776 13.943-5.776zm0-7.598c7.298 0 14.158 2.841 19.317 8.002.897.9.897 2.357-.002 3.257-.9.897-2.357.898-3.256-.001-4.29-4.29-9.992-6.653-16.059-6.653-6.066 0-11.77 2.362-16.06 6.653-.447.45-1.038.674-1.627.674-.59 0-1.178-.225-1.629-.674-.899-.899-.899-2.357 0-3.256C5.834 2.914 12.693.073 19.99.073z"/>
    </defs>
    <g fill="none" fill-rule="evenodd">
        <g transform="translate(0 3)">
            <mask id="20nlz1e4fb" fill="#fff">
                <use xlink:href="#ivxud4d82a"/>
            </mask>
            <use fill="#ED2324" fill-rule="nonzero" xlink:href="#ivxud4d82a"/>
            <circle cx="44.048" cy="17.857" r="25" fill="#CA2627" mask="url(#20nlz1e4fb)"/>
        </g>
    </g>
</svg>
