<svg width="71" height="72" viewBox="0 0 71 72" fill="none" xmlns="http://www.w3.org/2000/svg">
<path d="M58.3314 0.5H12.6686C5.67194 0.5 0 6.17194 0 13.1686V58.8314C0 65.8281 5.67194 71.5 12.6686 71.5H58.3314C65.3281 71.5 71 65.8281 71 58.8314V13.1686C71 6.17194 65.3281 0.5 58.3314 0.5Z" fill="#ED1C24"/>
<circle cx="29" cy="43" r="16" fill="white" fill-opacity="0.4"/>
<path d="M50.2507 54C50.7342 54 51.1467 53.8293 51.488 53.488C51.8293 53.1467 52 52.7342 52 52.2507V45.9787C52 45.4951 51.8293 45.0827 51.488 44.7413C51.1467 44.4 50.7342 44.2293 50.2507 44.2293C47.9182 44.2293 45.8133 43.9022 43.936 43.248C43.6231 43.1627 43.296 43.1484 42.9547 43.2053C42.6133 43.2622 42.3289 43.4187 42.1013 43.6747L40.9862 44.7898C39.341 46.435 36.7708 46.7379 34.8717 45.3936C33.6 44.4934 32.2489 43.4649 31.392 42.608C30.5351 41.7511 29.5066 40.4 28.6064 39.1283C27.2621 37.2292 27.565 34.659 29.2102 33.0138L30.3253 31.8987C30.5813 31.6711 30.7378 31.3867 30.7947 31.0453C30.8516 30.704 30.8373 30.3769 30.752 30.064C30.0978 28.1867 29.7707 26.0818 29.7707 23.7493C29.7707 23.2658 29.6 22.8533 29.2587 22.512C28.9173 22.1707 28.5049 22 28.0213 22H21.7493C21.2658 22 20.8533 22.1707 20.512 22.512C20.1707 22.8533 20 23.2658 20 23.7493C20 27.8453 20.7964 31.7707 22.3893 35.5253C23.9253 39.1378 26.0871 42.3378 28.8747 45.1253C31.6622 47.9129 34.8622 50.0747 38.4747 51.6107C42.2293 53.2036 46.1547 54 50.2507 54Z" fill="white"/>
<path d="M40.3869 19.4269C40.5975 18.8577 41.4025 18.8577 41.6131 19.4269L41.9953 20.4597C42.2602 21.1755 42.8245 21.7398 43.5403 22.0047L44.5731 22.3869C45.1423 22.5975 45.1423 23.4025 44.5731 23.6131L43.5403 23.9953C42.8245 24.2602 42.2602 24.8245 41.9953 25.5403L41.6131 26.5731C41.4025 27.1423 40.5975 27.1423 40.3869 26.5731L40.0047 25.5403C39.7398 24.8245 39.1755 24.2602 38.4597 23.9953L37.4269 23.6131C36.8577 23.4025 36.8577 22.5975 37.4269 22.3869L38.4597 22.0047C39.1755 21.7398 39.7398 21.1755 40.0047 20.4597L40.3869 19.4269Z" fill="white"/>
<path d="M46.5402 13.3202C46.6981 12.8933 47.3019 12.8933 47.4598 13.3202L47.7465 14.0948C47.9451 14.6316 48.3684 15.0549 48.9052 15.2535L49.6798 15.5402C50.1067 15.6981 50.1067 16.3019 49.6798 16.4598L48.9052 16.7465C48.3684 16.9451 47.9451 17.3684 47.7465 17.9052L47.4598 18.6798C47.3019 19.1067 46.6981 19.1067 46.5402 18.6798L46.2535 17.9052C46.0549 17.3684 45.6316 16.9451 45.0948 16.7465L44.3202 16.4598C43.8933 16.3019 43.8933 15.6981 44.3202 15.5402L45.0948 15.2535C45.6316 15.0549 46.0549 14.6316 46.2535 14.0948L46.5402 13.3202Z" fill="white"/>
<path d="M49.927 24.747C50.2956 23.751 51.7044 23.751 52.073 24.747L52.7418 26.5545C53.2053 27.8071 54.1929 28.7947 55.4455 29.2582L57.253 29.927C58.249 30.2956 58.249 31.7044 57.253 32.073L55.4455 32.7418C54.1929 33.2053 53.2053 34.1929 52.7418 35.4455L52.073 37.253C51.7044 38.249 50.2956 38.249 49.927 37.253L49.2582 35.4455C48.7947 34.1929 47.8071 33.2053 46.5545 32.7418L44.747 32.073C43.751 31.7044 43.751 30.2956 44.747 29.927L46.5545 29.2582C47.8071 28.7947 48.7947 27.8071 49.2582 26.5545L49.927 24.747Z" fill="white"/>
</svg>
