<svg xmlns="http://www.w3.org/2000/svg" width="45" height="45" viewBox="0 0 45 45">
    <g fill="none" fill-rule="evenodd" transform="translate(-3 -5)">
        <circle cx="25.131" cy="27.131" r="22.131" fill="#F6F6F6"/>
        <g>
            <path d="M0 0H20V20H0z" transform="translate(15.5 15.667)"/>
            <path fill="#211E20" fill-rule="nonzero" d="M15.558 20.619c.469 0 .91-.124 1.322-.37.413-.248.74-.582.982-1.003.241-.421.362-.871.362-1.35V8.788c0-1.482-.362-2.854-1.088-4.118-.71-1.235-1.67-2.215-2.88-2.941C13.02.989 11.675.619 10.224.619c-1.45 0-2.794.37-4.032 1.11-1.209.727-2.169 1.707-2.88 2.942-.725 1.264-1.088 2.636-1.088 4.118v6.383c0 .48.121.93.363 1.35.242.422.569.756.981 1.003.413.247.854.37 1.323.37 1.473 0 2.667-1.194 2.667-2.666v-2.61c0-1.105-.896-2-2-2H4.016v-1.83c0-1.162.278-2.23.832-3.203.555-.959 1.302-1.721 2.24-2.288.953-.566 1.999-.85 3.136-.85 1.138 0 2.183.284 3.136.85.939.567 1.686 1.33 2.24 2.288.555.973.832 2.04.832 3.203v1.83h-1.541c-1.105 0-2 .895-2 2v1.735c0 1.956 1.586 3.541 3.541 3.541 0 .494-.4.894-.893.894h-4.4c-.505 0-.915.41-.915.915 0 .505.41.915.915.915h4.419z" transform="translate(15.5 15.667)"/>
        </g>
    </g>
</svg>
