<svg xmlns="http://www.w3.org/2000/svg" width="40" height="40" viewBox="0 0 40 40">
    <g fill="none" fill-rule="evenodd">
        <g fill="#ED1C24">
            <path d="M3.5 28h33c1.933 0 3.5 1.567 3.5 3.5S38.433 35 36.5 35h-33C1.567 35 0 33.433 0 31.5S1.567 28 3.5 28zM28.593 16.665l-7.49 6.262c-.743.621-1.823.621-2.566 0l-7.49-6.262c-.847-.709-.96-1.97-.251-2.818.38-.454.941-.717 1.534-.717h3.824V3.666C16.154 1.64 17.795 0 19.82 0s3.666 1.641 3.666 3.666v9.464h3.824c1.105 0 2 .896 2 2 0 .593-.263 1.155-.717 1.535z" transform="translate(0 5)"/>
        </g>
    </g>
</svg>
