<?xml version="1.0" encoding="UTF-8"?>
<svg width="50px" height="50px" viewBox="0 0 50 50" version="1.1" xmlns="http://www.w3.org/2000/svg" xmlns:xlink="http://www.w3.org/1999/xlink">
    <!-- Generator: sketchtool 62 (101010) - https://sketch.com -->
    <title>6E88C8C5-0694-4EDC-903D-6A490A9ADB0A</title>
    <desc>Created with sketchtool.</desc>
    <g id="symbol" stroke="none" stroke-width="1" fill="none" fill-rule="evenodd">
        <g id="icon/system/detail_light">
            <g transform="translate(12.000000, 15.000000)">
                <rect id="Rectangle" x="3" y="0" width="20" height="20"></rect>
                <path d="M5,3.25 C5.96649831,3.25 6.75,4.03350169 6.75,5.00008333 L6.75,5.00008333 L6.748,13.25 L15,13.25 C15.9181734,13.25 16.6711923,13.9571103 16.7441988,14.8564728 L16.7441988,14.8564728 L16.75,15 C16.75,15.9664983 15.9664983,16.75 15,16.75 L15,16.75 L5,16.75 C4.03350169,16.75 3.25,15.9664983 3.25,15 L3.25,15 L3.25,5 C3.25,4.03350169 4.03350169,3.25 5,3.25 Z" id="Combined-Shape" fill="#FFFFFF" fill-rule="nonzero" transform="translate(10.000000, 10.000000) scale(1, -1) rotate(-135.000000) translate(-10.000000, -10.000000) "></path>
            </g>
        </g>
    </g>
</svg>