<svg width="16" height="16" viewBox="0 0 16 16" fill="none" xmlns="http://www.w3.org/2000/svg">
<path fill-rule="evenodd" clip-rule="evenodd" d="M8.00008 0.666504C12.0502 0.666504 15.3334 3.94975 15.3334 7.99984C15.3334 12.0499 12.0502 15.3332 8.00008 15.3332C3.94999 15.3332 0.666748 12.0499 0.666748 7.99984C0.666748 3.94975 3.94999 0.666504 8.00008 0.666504ZM13.9475 8.79745C13.2408 9.16507 12.3099 9.47248 11.2529 9.68443C11.1026 11.2191 10.7473 12.5738 10.2304 13.5716C12.2031 12.7813 13.6585 10.9736 13.9475 8.79745ZM9.99094 8.53618C9.99697 8.35962 10.0001 8.18073 10.0001 7.99984C10.0001 4.65583 8.93768 1.99984 8.00008 1.99984C7.06248 1.99984 6.00008 4.65583 6.00008 7.99984C6.00008 8.19115 6.00356 8.38021 6.01029 8.56665C6.63569 8.63203 7.30393 8.6665 8.00008 8.6665C8.68545 8.6665 9.35791 8.61816 9.99094 8.53618ZM11.3309 8.30259C11.3326 8.20215 11.3334 8.10122 11.3334 7.99984C11.3334 5.78141 10.9297 3.77804 10.2304 2.42804C12.2145 3.22298 13.6753 5.04701 13.9524 7.23993C13.6387 7.59205 12.6492 8.01033 11.3309 8.30259ZM6.11935 9.91806C6.71742 9.97193 7.34734 9.99984 8.00008 9.99984C8.6423 9.99984 9.27505 9.96344 9.8836 9.89593C9.58289 12.2943 8.75141 13.9998 8.00008 13.9998C7.25106 13.9998 6.42239 12.3048 6.11935 9.91806ZM4.67045 8.36665C4.28781 8.29032 3.9312 8.20043 3.60558 8.09818C2.77863 7.83849 2.23821 7.5202 2.04385 7.27144C2.31093 5.0645 3.77616 3.22678 5.76978 2.42804C5.07046 3.77804 4.66675 5.78141 4.66675 7.99984C4.66675 8.12279 4.66799 8.24509 4.67045 8.36665ZM4.75284 9.74039C4.90619 11.252 5.25919 12.586 5.76978 13.5716C3.83126 12.795 2.39233 11.036 2.06872 8.91036C2.76438 9.27269 3.6823 9.55431 4.75284 9.74039Z" fill="#202020"/>
</svg>
