<?xml version="1.0" encoding="UTF-8"?>
<svg width="12px" height="17px" viewBox="0 0 12 17" version="1.1" xmlns="http://www.w3.org/2000/svg" xmlns:xlink="http://www.w3.org/1999/xlink">
    <!-- Generator: sketchtool 57.1 (101010) - https://sketch.com -->
    <title>842B4FB0-204A-4C93-A720-4D8B0211AB7D</title>
    <desc>Created with sketchtool.</desc>
    <g id="More" stroke="none" stroke-width="1" fill="none" fill-rule="evenodd">
        <g id="More/Store-Locator/Detail-scrolled" transform="translate(-22.000000, -255.000000)" fill="#AAAAAA" fill-rule="nonzero">
            <g id="Group-8" transform="translate(19.000000, 236.000000)">
                <g id="Group-3" transform="translate(3.000000, 0.000000)">
                    <g id="Group-6" transform="translate(0.000000, 16.000000)">
                        <path d="M6,11.0504808 C6.38488165,11.0504808 6.74226639,10.9551292 7.07216495,10.7644231 C7.40206351,10.573717 7.66322928,10.3183109 7.8556701,9.99819712 C8.04811093,9.67808334 8.1443299,9.32732562 8.1443299,8.94591346 C8.1443299,8.5645013 8.04811093,8.21033817 7.8556701,7.88341346 C7.66322928,7.55648875 7.40206351,7.29767724 7.07216495,7.10697115 C6.74226639,6.91626507 6.38488165,6.82091346 6,6.82091346 C5.61511835,6.82091346 5.26117,6.91626507 4.93814433,7.10697115 C4.61511866,7.29767724 4.35738928,7.55648875 4.16494845,7.88341346 C3.97250763,8.21033817 3.87628866,8.5645013 3.87628866,8.94591346 C3.87628866,9.53165357 4.08247216,10.0288441 4.49484536,10.4375 C4.90721856,10.8461559 5.40893175,11.0504808 6,11.0504808 Z M6,3 C7.09966186,3 8.10996103,3.26562234 9.03092784,3.796875 C9.93814887,4.32812766 10.6597911,5.04326474 11.1958763,5.94230769 C11.7319614,6.85497251 12,7.85616442 12,8.94591346 C12,9.7768471 11.7938165,10.7303632 11.3814433,11.8064904 C11.0240532,12.7191552 10.5292128,13.7067255 9.89690722,14.7692308 C9.37456784,15.6137863 8.77663567,16.4923833 8.10309278,17.4050481 C7.63573649,18.0452756 7.14089608,18.6718719 6.6185567,19.2848558 L6,20 L5.3814433,19.2848558 C4.85910392,18.6718719 4.36426351,18.0452756 3.89690722,17.4050481 C3.22336433,16.4923833 2.62543216,15.6137863 2.10309278,14.7692308 C1.47078722,13.7067255 0.975946804,12.7191552 0.618556701,11.8064904 C0.206183505,10.7303632 0,9.7768471 0,8.94591346 C0,7.85616442 0.268038557,6.85497251 0.804123711,5.94230769 C1.34020887,5.04326474 2.06185113,4.32812766 2.96907216,3.796875 C3.89003897,3.26562234 4.90033814,3 6,3 Z" id=""></path>
                    </g>
                </g>
            </g>
        </g>
    </g>
</svg>