<?xml version="1.0" encoding="UTF-8"?>
<svg width="14px" height="15px" viewBox="0 0 14 15" version="1.1" xmlns="http://www.w3.org/2000/svg" xmlns:xlink="http://www.w3.org/1999/xlink">
    <!-- Generator: sketchtool 57.1 (101010) - https://sketch.com -->
    <title>B994E1B7-497B-42BC-9862-11A0E8302B0A</title>
    <desc>Created with sketchtool.</desc>
    <g id="More" stroke="none" stroke-width="1" fill="none" fill-rule="evenodd">
        <g id="More/Store-Locator/Detail-scrolled" transform="translate(-21.000000, -445.000000)" fill="#AAAAAA" fill-rule="nonzero">
            <g id="Group-8" transform="translate(19.000000, 236.000000)">
                <g id="Group-3" transform="translate(2.000000, 189.000000)">
                    <g id="Group-6" transform="translate(0.000000, 16.000000)">
                        <path d="M2.95,10.782 C3.50200276,11.8380053 4.20399574,12.7919957 5.056,13.644 C5.90800426,14.4960043 6.86199472,15.1979972 7.918,15.75 L9.574,14.094 C9.67000048,13.9859995 9.78999928,13.9140002 9.934,13.878 C10.0780007,13.8419998 10.2159993,13.8539997 10.348,13.914 C11.140004,14.1900014 12.0279951,14.328 13.012,14.328 C13.216001,14.328 13.3899993,14.3999993 13.534,14.544 C13.6780007,14.6880007 13.75,14.861999 13.75,15.066 L13.75,17.712 C13.75,17.916001 13.6780007,18.0899993 13.534,18.234 C13.3899993,18.3780007 13.216001,18.45 13.012,18.45 C11.2839914,18.45 9.62800792,18.1140034 8.044,17.442 C6.51999238,16.7939968 5.17000588,15.8820059 3.994,14.706 C2.81799412,13.5299941 1.90600324,12.1800076 1.258,10.656 C0.58599664,9.07199208 0.25,7.41600864 0.25,5.688 C0.25,5.48399898 0.32199928,5.31000072 0.466,5.166 C0.61000072,5.02199928 0.78399898,4.95 0.988,4.95 L3.634,4.95 C3.83800102,4.95 4.01199928,5.02199928 4.156,5.166 C4.30000072,5.31000072 4.372,5.48399898 4.372,5.688 C4.372,6.67200492 4.50999862,7.55999604 4.786,8.352 C4.82200018,8.48400066 4.82800012,8.62199928 4.804,8.766 C4.77999988,8.91000072 4.71400054,9.02999952 4.606,9.126 L2.95,10.782 Z" id=""></path>
                    </g>
                </g>
            </g>
        </g>
    </g>
</svg>