<?xml version="1.0" encoding="UTF-8"?>
<svg width="16px" height="16px" viewBox="0 0 16 16" version="1.1" xmlns="http://www.w3.org/2000/svg" xmlns:xlink="http://www.w3.org/1999/xlink">
    <!-- Generator: sketchtool 57.1 (101010) - https://sketch.com -->
    <title>1421ED39-54E1-4CE3-A98E-9A10E41EFBC6</title>
    <desc>Created with sketchtool.</desc>
    <g id="More" stroke="none" stroke-width="1" fill="none" fill-rule="evenodd">
        <g id="More/Store-Locator/Detail-scrolled" transform="translate(-19.000000, -329.000000)" fill="#AAAAAA" fill-rule="nonzero">
            <g id="Group-8" transform="translate(19.000000, 236.000000)">
                <g id="Group-3-Copy" transform="translate(0.000000, 74.000000)">
                    <g id="Group-6" transform="translate(0.000000, 16.000000)">
                        <path d="M11.168,13.868 L11.762,12.878 L8.396,10.844 L8.396,6.938 L7.262,6.938 L7.262,11.438 L11.168,13.868 Z M8,3.212 C9.35600678,3.212 10.6159942,3.55399658 11.78,4.238 C12.9080056,4.8980033 13.8019967,5.79199436 14.462,6.92 C15.1460034,8.08400582 15.488,9.34399322 15.488,10.7 C15.488,12.0560068 15.1460034,13.3159942 14.462,14.48 C13.8019967,15.6080056 12.9080056,16.5019967 11.78,17.162 C10.6159942,17.8460034 9.35600678,18.188 8,18.188 C6.64399322,18.188 5.38400582,17.8460034 4.22,17.162 C3.09199436,16.4899966 2.1980033,15.5900056 1.538,14.462 C0.85399658,13.2979942 0.512,12.0440067 0.512,10.7 C0.512,9.35599328 0.85399658,8.10200582 1.538,6.938 C2.21000336,5.80999436 3.10999436,4.91000336 4.238,4.238 C5.40200582,3.55399658 6.65599328,3.212 8,3.212 Z" id="î®"></path>
                    </g>
                </g>
            </g>
        </g>
    </g>
</svg>