<svg xmlns="http://www.w3.org/2000/svg" width="40" height="40" viewBox="0 0 40 40">
    <g fill="none">
        <path fill="#ED2324" d="M12.5 6.707c.355 0 .67.228.782.565l11.24 33.99c.19.577-.122 1.199-.699 1.39-.111.037-.228.055-.345.055h-2.469c-.455 0-.863-.28-1.027-.705-1.602-4.175-4.096-6.262-7.482-6.262s-5.88 2.087-7.482 6.262c-.164.425-.572.705-1.027.705H1.522c-.607 0-1.1-.492-1.1-1.1 0-.117.02-.234.056-.345l11.24-33.99c.111-.337.427-.565.782-.565zm0 7.756L5.508 35.604l.165-.16c1.777-1.697 3.964-2.63 6.519-2.7l.308-.004c2.688 0 4.979.94 6.827 2.703l.164.161L12.5 14.463z" transform="translate(7.321 -4)"/>
        <path fill="#ED2324" d="M6.088 25.89l9.534-6.086c.468-.293 1.085-.15 1.378.318.293.468.15 1.085-.318 1.378l-9.534 6.085c-.469.293-1.086.15-1.378-.318-.293-.468-.15-1.085.318-1.378z" transform="translate(7.321 -4)"/>
        <path fill="#ED2324" d="M15.154 29.29L7.794 25c-.47-.293-1.086-.15-1.379.318-.293.468-.15 1.085.318 1.378l7.361 4.29c.469.293 1.086.15 1.378-.317.293-.469.15-1.086-.318-1.378z" transform="translate(7.321 -4)"/>
        <path fill="#ED2324" d="M4.825 35.184l12.336-7.477c.468-.292 1.085-.15 1.378.319.293.468.15 1.085-.318 1.378L5.885 36.88c-.468.293-1.085.15-1.378-.318-.292-.468-.15-1.085.318-1.378z" transform="translate(7.321 -4)"/>
        <g transform="translate(7.321 -4) translate(3.679 13)">
            <ellipse cx="4.893" cy="4.927" fill="#ED2324" rx="4.429" ry="4.39"/>
            <ellipse cx="4.893" cy="4.927" fill="#FFF" rx="2.214" ry="2.195"/>
        </g>
    </g>
</svg>
