<?xml version="1.0" encoding="utf-8"?>
<!-- Generator: Adobe Illustrator 24.3.0, SVG Export Plug-In . SVG Version: 6.00 Build 0)  -->
<svg version="1.1" id="Layer_1" xmlns="http://www.w3.org/2000/svg" xmlns:xlink="http://www.w3.org/1999/xlink" x="0px" y="0px"
	 viewBox="0 0 40 40" style="enable-background:new 0 0 40 40;" xml:space="preserve">
<style type="text/css">
	.st0{fill-rule:evenodd;clip-rule:evenodd;fill:#FFD600;}
	.st1{fill:#FFA201;}
	.st2{fill:#FFFFFF;}
	.st3{fill:#ED2324;}
</style>
<g transform="translate(26 26)">
	<circle class="st0" cx="-6" cy="-6" r="20"/>
	<path class="st1" d="M-6,14C1.7,14,8.4,9.6,11.8,3.1l-0.4-0.2H2.1C0.6,9.5-2.5,14-6,14z"/>
	<path class="st2" d="M-13.9,2.9H1.9c0.6-2.7,1-5.7,1-8.9h-17.8C-14.9-2.8-14.5,0.2-13.9,2.9z M-6-26c-3.4,0-6.3,4.5-7.8,11.1H1.8
		C0.3-21.5-2.6-26-6-26z"/>
	<path class="st3" d="M-14.1,2.9h-9.2l-0.4,0.2C-20.4,9.6-13.7,14-6,14C-9.5,14-12.6,9.5-14.1,2.9z M-23.2-14.7l-0.4-0.2
		C-25.2-12.2-26-9.2-26-6h11.2c0-3.1,0.4-6.1,1-8.7L-23.2-14.7L-23.2-14.7z"/>
	<path class="st1" d="M11.2-14.7H1.8c0.7,2.6,1,5.6,1,8.7H14c0-3.2-0.8-6.2-2.4-8.9L11.2-14.7L11.2-14.7z"/>
</g>
</svg>
