<?xml version="1.0" encoding="UTF-8"?>
<svg width="40px" height="40px" viewBox="0 0 40 40" version="1.1" xmlns="http://www.w3.org/2000/svg" xmlns:xlink="http://www.w3.org/1999/xlink">
    <!-- Generator: Sketch 62 (91390) - https://sketch.com -->
    <title>icon/general/ico_buy_sim_card</title>
    <desc>Created with Sketch.</desc>
    <defs>
        <path d="M12.2123176,0.784683682 L16.1750361,5.13922918 C16.5771549,5.58110883 16.8,6.15708658 16.8,6.7545455 L16.8,18.6 C16.8,19.9254834 15.7254834,21 14.4,21 L2.4,21 C1.0745166,21 6.0641411e-16,19.9254834 0,18.6 L0,2.4 C-1.623249e-16,1.0745166 1.0745166,2.4348735e-16 2.4,0 L10.4372815,0 C11.1130451,-1.45640338e-15 11.757496,0.284890056 12.2123176,0.784683682 Z" id="path-1"></path>
    </defs>
    <g id="icon/general/ico_buy_sim_card" stroke="none" stroke-width="1" fill="none" fill-rule="evenodd">
        <g id="Group-5" opacity="0" stroke="#979797">
            <g id="Group-6">
                <rect id="Rectangle" opacity="0.289481027" x="0.5" y="0.5" width="39" height="39" rx="19.5"></rect>
                <rect id="Rectangle" fill="#D8D8D8" opacity="0.390345982" x="6.5" y="0.5" width="27" height="39" rx="2"></rect>
                <rect id="Rectangle" fill="#D8D8D8" opacity="0.296619234" x="3.5" y="3.5" width="33" height="33" rx="2"></rect>
                <rect id="Rectangle" opacity="0.265927269" transform="translate(20.000000, 20.000000) rotate(90.000000) translate(-20.000000, -20.000000) " x="6.5" y="0.5" width="27" height="39" rx="2"></rect>
            </g>
        </g>
        <g id="icon/system/usage">
            <path d="M39.8891967,19.9445983 C39.8891967,30.9606648 30.9606648,39.8891967 19.9445983,39.8891967 C8.92853186,39.8891967 0,30.9606648 0,19.9445983 C0,8.92853186 8.92853186,0 19.9445983,0 C30.9606648,0 39.8891967,8.92853186 39.8891967,19.9445983 Z" id="Combined-Shape" fill="#ED2324"></path>
            <g id="Group" transform="translate(12.000000, 10.000000)">
                <mask id="mask-2" fill="white">
                    <use xlink:href="#path-1"></use>
                </mask>
                <use id="Rectangle" fill="#FFFFFF" fill-rule="nonzero" xlink:href="#path-1"></use>
                <g id="Group-7" mask="url(#mask-2)">
                    <g transform="translate(1.400000, 8.400000)">
                        <rect id="Rectangle-2" fill="#ED2324" fill-rule="nonzero" x="2.68" y="0.72" width="8.64" height="8.28" rx="1.44"></rect>
                        <g id="Group-2" stroke-width="1" fill="none" fill-rule="evenodd" transform="translate(0.240000, 0.328000)">
                            <g id="Group-5" fill="#FFFFFF" fill-rule="nonzero">
                                <g id="Group-6" transform="translate(2.200000, 0.000000)">
                                    <polygon id="Rectangle-3" points="0.16 2.272 9.16 2.272 9.16 3.17866667 0.16 3.17866667"></polygon>
                                    <polygon id="Rectangle-3" points="7.16 0.272 7.16 2.272 6.16 2.272 6.16 0.272"></polygon>
                                    <polygon id="Rectangle-3" points="2.16 0.272 2.16 2.272 1.16 2.272 1.16 0.272"></polygon>
                                </g>
                                <g id="Group-6" transform="translate(6.060000, 6.804000) scale(-1, -1) translate(-6.060000, -6.804000) translate(0.560000, 4.304000)">
                                    <polygon id="Rectangle-3" points="0.163659941 3.432 10.1636599 3.432 10.1636599 4.33866667 0.163659941 4.33866667"></polygon>
                                    <polygon id="Rectangle-3" points="4.2 0.032 4.2 4.032 3.2 4.032 3.2 0.032"></polygon>
                                    <polygon id="Rectangle-3" points="2.2 0.032 2.2 4.032 1.2 4.032 1.2 0.032"></polygon>
                                    <polygon id="Rectangle-3" points="8.2 0.032 8.2 4.032 7.2 4.032 7.2 0.032"></polygon>
                                </g>
                            </g>
                        </g>
                    </g>
                </g>
            </g>
        </g>
    </g>
</svg>