<?xml version="1.0" encoding="UTF-8"?>
<svg width="45px" height="45px" viewBox="0 0 45 45" version="1.1" xmlns="http://www.w3.org/2000/svg" xmlns:xlink="http://www.w3.org/1999/xlink">
    <title>ico_socmed_linkedin</title>
    <g id="Additional-career-menu" stroke="none" stroke-width="1" fill="none" fill-rule="evenodd">
        <g id="Desktop/General/Additional_career_menu_footer_B2C" transform="translate(-1323.000000, -809.000000)">
            <g id="socmed" transform="translate(997.000000, 809.000000)">
                <g id="ico_socmed_linkedin" transform="translate(326.000000, 0.000000)">
                    <circle id="Oval-4" fill="#0570AE" cx="22.4262144" cy="22.4262144" r="22.4262144"></circle>
                    <path d="M16.0535739,16.3258789 C17.3370575,16.3258789 18.1406299,15.4776636 18.1294692,14.4173945 C18.1183085,13.3348039 17.3370575,12.5089101 16.0758953,12.5089101 C14.8258938,12.5089101 14,13.3348039 14,14.4173945 C14,15.4776636 14.7924117,16.3258789 16.0312524,16.3258789 L16.0535739,16.3258789 Z M23.5982257,28.8928582 L23.5982257,22.7209758 C23.5982257,22.386154 23.6317079,22.0624929 23.7209937,21.8169569 C23.9888512,21.158474 24.5915305,20.4776696 25.6071567,20.4776696 C26.9352833,20.4776696 27.4709982,21.4932958 27.4709982,22.9776726 L27.4709982,28.8928582 L31.1428776,28.8928582 L31.1428776,22.5535649 C31.1428776,19.1607037 29.3348397,17.5758804 26.9129618,17.5758804 C25.0091277,17.5758804 24.1302979,18.5906347 23.6379802,19.3431587 L23.598,19.404 L23.5982257,17.8325772 L19.9263464,17.8325772 L19.9269638,17.850795 C19.927043,17.8534091 19.9271292,17.8563401 19.927222,17.8596102 L19.9278551,17.8834777 C19.9313875,18.0249387 19.9401961,18.511567 19.9441775,19.9428241 L19.9449065,20.2418482 C19.9450162,20.2938439 19.9451199,20.3469336 19.945217,20.4011396 L19.9459063,20.9197295 C19.9459612,20.9808324 19.9460085,21.0431181 19.9460478,21.1066088 L19.9461121,21.9277584 C19.9460816,22.0012444 19.9460415,22.0760242 19.9459916,22.15212 L19.9452664,22.873114 C19.9432435,24.3885648 19.9376643,26.351985 19.9263464,28.8928582 L23.5982257,28.8928582 Z M17.8950939,28.8928582 L17.8950939,17.8325772 L14.2120538,17.8325772 L14.2120538,28.8928582 L17.8950939,28.8928582 Z" id="" fill="#FFFFFF" fill-rule="nonzero"></path>
                </g>
            </g>
        </g>
    </g>
</svg>