<?xml version="1.0" encoding="UTF-8"?>
<svg width="110px" height="110px" viewBox="0 0 110 110" version="1.1" xmlns="http://www.w3.org/2000/svg" xmlns:xlink="http://www.w3.org/1999/xlink">
    <!-- Generator: sketchtool 62 (101010) - https://sketch.com -->
    <title>D387D9F5-C932-4DEF-B48B-B6A1D063F04E</title>
    <desc>Created with sketchtool.</desc>
    <defs>
        <path d="M16.5,1.25055521e-12 L52.25,1.25055521e-12 L52.25,49.5 C52.25,54.0563492 48.5563492,57.75 44,57.75 L8.25,57.75 L8.25,8.25 C8.25,3.69365081 11.9436508,1.25055521e-12 16.5,1.25055521e-12 Z" id="path-1"></path>
    </defs>
    <g id="Desktop---General-Product" stroke="none" stroke-width="1" fill="none" fill-rule="evenodd">
        <g id="Personal/product/terms_condition" transform="translate(-130.000000, -436.000000)">
            <g id="Group-4" transform="translate(0.000000, 363.000000)">
                <g id="icon/general/ico_circle_termscondition" transform="translate(130.000000, 73.000000)">
                    <g id="Group-5" opacity="0" stroke="#979797">
                        <g id="Group-6">
                            <rect id="Rectangle" opacity="0.289481027" x="0.5" y="0.5" width="109" height="109" rx="20"></rect>
                            <rect id="Rectangle" fill="#D8D8D8" opacity="0.390345982" x="17" y="0.5" width="76" height="109" rx="2"></rect>
                            <rect id="Rectangle" fill="#D8D8D8" opacity="0.296619234" x="8.75" y="8.75" width="92.5" height="92.5" rx="2"></rect>
                            <path d="M91.5,109.5 L18.5,109.5 C18.0857864,109.5 17.7107864,109.332107 17.4393398,109.06066 C17.1678932,108.789214 17,108.414214 17,108 L17,2 C17,1.58578644 17.1678932,1.21078644 17.4393398,0.939339828 C17.7107864,0.667893219 18.0857864,0.5 18.5,0.5 L91.5,0.5 C91.9142136,0.5 92.2892136,0.667893219 92.5606602,0.939339828 C92.8321068,1.21078644 93,1.58578644 93,2 L93,108 C93,108.414214 92.8321068,108.789214 92.5606602,109.06066 C92.2892136,109.332107 91.9142136,109.5 91.5,109.5 Z" id="Rectangle" opacity="0.265927269" transform="translate(55.000000, 55.000000) rotate(90.000000) translate(-55.000000, -55.000000) "></path>
                        </g>
                    </g>
                    <g id="Group">
                        <circle id="Oval" fill="#ED2324" fill-rule="nonzero" cx="55" cy="55" r="55"></circle>
                        <g id="Group-2" transform="translate(22.000000, 27.500000)">
                            <mask id="mask-2" fill="white">
                                <use xlink:href="#path-1"></use>
                            </mask>
                            <use id="Rectangle" fill="#FFFFFF" xlink:href="#path-1"></use>
                            <path d="M11,13.75 L52.25,13.75 L52.25,10.6210957 L57.75,0 L16.5,0 C13.4624339,0 11,2.46243388 11,5.5 L11,13.75 Z" id="Rectangle" fill="#FFFFFF"></path>
                            <path d="M15.125,24.75 L39.875,24.75 C40.6343915,24.75 41.25,25.3656085 41.25,26.125 C41.25,26.8843915 40.6343915,27.5 39.875,27.5 L15.125,27.5 C14.3656085,27.5 13.75,26.8843915 13.75,26.125 C13.75,25.3656085 14.3656085,24.75 15.125,24.75 Z" id="Rectangle" fill="#ED2324"></path>
                            <path d="M15.125,30.25 L39.875,30.25 C40.6343915,30.25 41.25,30.8656085 41.25,31.625 C41.25,32.3843915 40.6343915,33 39.875,33 L15.125,33 C14.3656085,33 13.75,32.3843915 13.75,31.625 C13.75,30.8656085 14.3656085,30.25 15.125,30.25 Z" id="Rectangle-Copy" fill="#ED2324"></path>
                            <path d="M15.125,35.75 L31.625,35.75 C32.3843915,35.75 33,36.3656085 33,37.125 C33,37.8843915 32.3843915,38.5 31.625,38.5 L15.125,38.5 C14.3656085,38.5 13.75,37.8843915 13.75,37.125 C13.75,36.3656085 14.3656085,35.75 15.125,35.75 Z" id="Rectangle-Copy-2" fill="#ED2324"></path>
                            <path d="M0,44 L41.25,44 L41.25,47.1289043 L46.75,57.75 L5.5,57.75 C2.46243388,57.75 0,55.2875661 0,52.25 L0,44 Z" id="Rectangle" fill="#E0E0E0"></path>
                            <path d="M41.25,38.5 L52.25,38.5 L52.25,52.25 C52.25,55.2875661 49.7875661,57.75 46.75,57.75 C43.7124339,57.75 41.25,55.2875661 41.25,52.25 L41.25,38.5 Z" id="Rectangle" fill="#FFFFFF"></path>
                            <path d="M52.25,13.75 L63.25,13.75 L63.25,5.5 C63.25,2.46243388 60.7875661,1.25055521e-12 57.75,1.25055521e-12 C54.7124339,1.25055521e-12 52.25,2.46243388 52.25,5.5 L52.25,13.75 Z" id="Rectangle" fill="#E0E0E0"></path>
                            <path d="M30.25,4.125 C26.4530423,4.125 23.375,7.20304235 23.375,11 C23.375,14.7969577 26.4530423,17.875 30.25,17.875 C34.0469577,17.875 37.125,14.7969577 37.125,11 C37.125,7.20304235 34.0469577,4.125 30.25,4.125 Z M30.25,6.875 C32.5281746,6.875 34.375,8.72182541 34.375,11 C34.375,13.2781746 32.5281746,15.125 30.25,15.125 C27.9718254,15.125 26.125,13.2781746 26.125,11 C26.125,8.72182541 27.9718254,6.875 30.25,6.875 Z" id="Oval" fill="#ED2324" fill-rule="nonzero"></path>
                        </g>
                    </g>
                </g>
            </g>
        </g>
    </g>
</svg>