<svg id="Layer_1" data-name="Layer 1" xmlns="http://www.w3.org/2000/svg" viewBox="0 0 87.91 66.56"><defs><style>.cls-1{fill:#fff;}.cls-2{fill:#ed1c24;}.cls-3{fill:#221e20;}</style></defs><g id="base"><path id="base-2" data-name="base" class="cls-1" d="M86,34.66a13.16,13.16,0,0,0-1.74-6.07A13.54,13.54,0,0,0,86,22,13.24,13.24,0,0,0,72.84,8.66l-13.19,0a3.39,3.39,0,0,0-3.51,3.48v2.46a16.41,16.41,0,0,0-12.51-6,17.27,17.27,0,0,0-9.51,2.88,17.27,17.27,0,0,0-9.51-2.88,16.6,16.6,0,0,0-12.88,6.48V15A6.75,6.75,0,0,0,10,10.77a6.74,6.74,0,0,0,1.75-4.55A6.82,6.82,0,1,0-.17,10.79,6.87,6.87,0,0,0-1.91,15.2V55.49A10.47,10.47,0,0,0,8.38,66h67.1A10.69,10.69,0,0,0,86,55.49V35.05l0-.39Z" transform="translate(1.91 0.61)"/></g><g id="Layer_1-2" data-name="Layer 1"><path class="cls-2" d="M52.17,53.42a2.07,2.07,0,1,0,2.07,2.07A2.06,2.06,0,0,0,52.17,53.42Z" transform="translate(1.91 0.61)"/><path class="cls-2" d="M74.48,48.52a7,7,0,0,0-5.58,2.79,7,7,0,0,0-11.15,0,6.93,6.93,0,0,0-1.91-1.75v5.93a3.66,3.66,0,1,1-1.76-3.14l.14.11V48.83a6.75,6.75,0,0,0-2-.31,7,7,0,0,0-5.58,2.79,7,7,0,0,0-11.15,0,7,7,0,0,0-11.16,0,7,7,0,0,0-11.15,0,7,7,0,1,0,0,8.36,7,7,0,0,0,11.15,0,7,7,0,0,0,11.16,0,7,7,0,0,0,11.15,0,7,7,0,0,0,11.16,0,7,7,0,0,0,11.15,0,7,7,0,1,0,5.58-11.15Z" transform="translate(1.91 0.61)"/><path class="cls-1" d="M54.1,52.35a3.67,3.67,0,1,0,1.76,3.14V49.56a7.22,7.22,0,0,0-1.62-.73v3.63Zm-1.93,5.19a2.07,2.07,0,1,1,2.07-2.07A2.06,2.06,0,0,1,52.17,57.54Z" transform="translate(1.91 0.61)"/><path id="O" class="cls-1" d="M63.33,59.14A3.67,3.67,0,1,1,67,55.47,3.67,3.67,0,0,1,63.33,59.14Zm0-5.72a2.07,2.07,0,1,0,2.07,2.07A2.08,2.08,0,0,0,63.33,53.42Z" transform="translate(1.91 0.61)"/><path id="O-2" data-name="O" class="cls-1" d="M74.48,59.14a3.67,3.67,0,1,1,3.67-3.67A3.67,3.67,0,0,1,74.48,59.14Zm0-5.72a2.07,2.07,0,1,0,2.07,2.07A2.07,2.07,0,0,0,74.48,53.42Z" transform="translate(1.91 0.61)"/><path id="e" class="cls-1" d="M41.16,59.16h-.53a3.67,3.67,0,1,1,4.08-3.65,3.33,3.33,0,0,1-.07.7H39.11l.1.27a2.07,2.07,0,0,0,1.44,1.06,2.5,2.5,0,0,0,.55,0h.08a2.28,2.28,0,0,0,1.4-.51l0,0,1.49.8-.06.08a3.68,3.68,0,0,1-2.85,1.27A.19.19,0,0,0,41.16,59.16ZM41,53.42a2,2,0,0,0-1.91,1.29l0,0h3.83v0A2.06,2.06,0,0,0,41,53.42Z" transform="translate(1.91 0.61)"/><path id="R" class="cls-1" d="M26.43,59V55.27a3.68,3.68,0,0,1,7-1.44L32,54.59a2.07,2.07,0,0,0-3.94.9V59l-1.6,0Z" transform="translate(1.91 0.61)"/><path id="O-3" data-name="O" class="cls-1" d="M18.72,59.14a3.67,3.67,0,1,1,3.68-3.67A3.67,3.67,0,0,1,18.72,59.14Zm0-5.72a2.07,2.07,0,1,0,2.08,2.07A2.07,2.07,0,0,0,18.72,53.42Z" transform="translate(1.91 0.61)"/><path id="O-4" data-name="O" class="cls-1" d="M7.57,59.14a3.67,3.67,0,1,1,3.67-3.67A3.67,3.67,0,0,1,7.57,59.14Zm0-5.72a2.07,2.07,0,1,0,2.07,2.07A2.06,2.06,0,0,0,7.57,53.42Z" transform="translate(1.91 0.61)"/></g><g id="Layer_2" data-name="Layer 2"><path id="dot" class="cls-2" d="M.6,6.22A3.32,3.32,0,1,1,3.92,9.54,3.32,3.32,0,0,1,.6,6.22Z" transform="translate(1.91 0.61)"/><path id="i" class="cls-3" d="M3.92,12.16A3.38,3.38,0,0,0,.6,15.36V45H7.24V15.26A3.34,3.34,0,0,0,3.92,12.16Z" transform="translate(1.91 0.61)"/><path id="m" class="cls-3" d="M42.66,12.12a13.44,13.44,0,0,0-8.27,2.79l-1.25,1-1.25-1a13.51,13.51,0,0,0-8.26-2.79c-6.81,0-12.78,5.84-12.78,12.53V45h6.64V24.73a6,6,0,0,1,6.14-5.92,6.11,6.11,0,0,1,6.25,5.92V41.59a3.07,3.07,0,0,0,3.22,3.14,3.24,3.24,0,0,0,3.22-3.14V24.73a6.23,6.23,0,0,1,12.45,0V45h6.64V24.65C55.41,18,49.44,12.12,42.66,12.12Z" transform="translate(1.91 0.61)"/><path id="_3" data-name="3" class="cls-3" d="M71.67,31.72a3.45,3.45,0,0,1,0,6.89H58.61V45h13.2a9.73,9.73,0,0,0,9.62-9.8,9.88,9.88,0,0,0-1.91-5.84L79,28.59l.57-.78A10,10,0,0,0,81.43,22a9.74,9.74,0,0,0-9.64-9.8l-13.18,0v6.34H71.67a3.45,3.45,0,0,1,0,6.89H64.6a3.16,3.16,0,1,0,0,6.31Z" transform="translate(1.91 0.61)"/></g></svg>