<svg xmlns="http://www.w3.org/2000/svg" xmlns:xlink="http://www.w3.org/1999/xlink" width="507" height="492" viewBox="0 0 507 492">
    <defs>
        <path id="3faj6ujkpa" d="M0 0H507V492H0z"/>
        <path id="l1rpfpw31c" d="M150.248.137h229.9c30.11 0 58.226 15.058 74.913 40.121l39.166 58.825c10.468 15.722 6.209 36.953-9.513 47.421-5.615 3.738-12.209 5.733-18.954 5.733H64.635c-18.888 0-34.2-15.312-34.2-34.2 0-6.745 1.995-13.34 5.733-18.954l39.166-58.825C92.02 15.195 120.137.137 150.248.137z"/>
        <path id="ltvcwo0cfe" d="M58.795 42.229c1.67 0 3.15 1.075 3.666 2.662l52.597 161.642c1.016 3.12-.69 6.471-3.81 7.487-.594.193-1.214.291-1.838.291H99.368c-2.46 0-4.665-1.516-5.546-3.812-7.544-19.663-19.22-29.494-35.027-29.494-15.808 0-27.484 9.831-35.028 29.494-.88 2.296-3.086 3.812-5.545 3.812H8.179c-3.28 0-5.94-2.66-5.94-5.94 0-.624.099-1.244.292-1.838L55.129 44.891c.516-1.587 1.996-2.662 3.666-2.662z"/>
        <path id="xs7mzpuqug" d="M0 111.02L32.786 2.68C33.268 1.088 34.734 0 36.396 0c1.663 0 3.13 1.088 3.611 2.68l32.786 108.34H0z"/>
        <path id="va46blmw6i" d="M41.156 29.56c1.169 0 2.205.753 2.567 1.864l36.818 113.15c.71 2.183-.484 4.53-2.667 5.24-.416.135-.85.204-1.287.204h-7.03c-1.721 0-3.265-1.061-3.882-2.669-5.28-13.764-13.453-20.646-24.519-20.646-11.065 0-19.238 6.882-24.519 20.646-.616 1.608-2.16 2.669-3.882 2.669h-7.03c-2.296 0-4.157-1.862-4.157-4.158 0-.437.068-.871.204-1.287L38.59 31.423c.362-1.11 1.398-1.863 2.566-1.863z"/>
        <path id="6hxrmbmeak" d="M0 77.714L22.95 1.876C23.287.762 24.314 0 25.478 0s2.19.762 2.527 1.876l22.95 75.838H0z"/>
    </defs>
    <g fill="none" fill-rule="evenodd">
        <g>
            <g>
                <g transform="translate(-801 -703) translate(0 631) translate(801 72)">
                    <mask id="ejhhdowe9b" fill="#fff">
                        <use xlink:href="#3faj6ujkpa"/>
                    </mask>
                    <use fill="#FFF" xlink:href="#3faj6ujkpa"/>
                    <g mask="url(#ejhhdowe9b)">
                        <g>
                            <g opacity=".306" transform="translate(-7 17) translate(39)">
                                <circle cx="229" cy="229" r="229" fill="#F3FFA8"/>
                                <circle cx="229" cy="229" r="171" fill="#FFEB84"/>
                                <circle cx="229" cy="229" r="143" fill="#FFEB84"/>
                            </g>
                            <g>
                                <g>
                                    <g transform="translate(-7 17) translate(0 14) translate(.752 .58) translate(.148 163.22)">
                                        <mask id="xeoktipafd" fill="#fff">
                                            <use xlink:href="#l1rpfpw31c"/>
                                        </mask>
                                        <use fill="#FBD40D" fill-rule="nonzero" xlink:href="#l1rpfpw31c"/>
                                        <path fill="#FFE768" fill-rule="nonzero" d="M-.483 54.137C15.448 75.176 33.007 87.09 52.19 89.88c28.777 4.184 57.666-17.872 79.011-17.872s38.903 23.126 43.895 53.615c3.328 20.325-8.377 38.197-35.116 53.614H-97.052l96.569-125.1z" mask="url(#xeoktipafd)"/>
                                        <path fill="#FFE768" fill-rule="nonzero" d="M17.248.032c0 35.791 8.793 56.669 26.377 62.634 26.377 8.948 61.546 8.948 96.716-26.843 23.446-23.86 58.615-41.756 105.507-53.686H34.833L17.248.032z" mask="url(#xeoktipafd)"/>
                                        <path fill="#FFE768" fill-rule="nonzero" d="M166.277 62.215c-11.887-28.24 24.188-46.644 52.675-71.503s54.03-30.093 81.1-26.418c18.047 2.45 35.605 17.346 52.675 44.689 27.871 29.793 30.101 47.537 6.69 53.232-19.8 4.816-61.453-17.876-76.923-8.543-31.116 18.772 35.116 62.565-18.514 62.565-53.63 0-85.815-25.783-97.703-54.022z" mask="url(#xeoktipafd)"/>
                                        <path fill="#FFE768" fill-rule="nonzero" d="M339.829 127.778c-11.888-28.24 24.187-46.644 52.674-71.503s54.03-30.093 81.1-26.418c18.048 2.45 35.606 17.346 52.675 44.69 27.872 29.792 30.102 47.536 6.691 53.23-19.8 4.817-61.454-17.875-76.924-8.542-31.115 18.772 35.117 62.565-18.513 62.565-53.63 0-85.816-25.783-97.703-54.022z" mask="url(#xeoktipafd)" transform="rotate(-178 443.25 105.3)"/>
                                        <path fill="#F3CA48" fill-rule="nonzero" d="M-106.052 117H535.648V171H-106.052z" mask="url(#xeoktipafd)" opacity=".434"/>
                                    </g>
                                    <g transform="translate(-7 17) translate(0 14) translate(.752 .58) translate(266.697 .32)">
                                        <ellipse cx="78.393" cy="217.087" fill="#000" fill-rule="nonzero" opacity=".119" rx="78.393" ry="13.878"/>
                                        <g transform="translate(16.798)">
                                            <mask id="g5wnld7iff" fill="#fff">
                                                <use xlink:href="#ltvcwo0cfe"/>
                                            </mask>
                                            <use fill="#ED1C24" fill-rule="nonzero" xlink:href="#ltvcwo0cfe"/>
                                            <g mask="url(#g5wnld7iff)">
                                                <g transform="translate(22.398 103.29)">
                                                    <mask id="326mrzkp4h" fill="#fff">
                                                        <use xlink:href="#xs7mzpuqug"/>
                                                    </mask>
                                                    <use fill="#000" fill-opacity=".092" fill-rule="nonzero" xlink:href="#xs7mzpuqug"/>
                                                    <path fill="#BD1A20" fill-rule="nonzero" d="M27.768 60.39l8.629 18.25H8.399l8.629-18.25c1.402-2.965 4.943-4.232 7.91-2.83 1.242.588 2.242 1.588 2.83 2.83z" mask="url(#326mrzkp4h)" transform="rotate(90 22.398 63.837)"/>
                                                    <path fill="#BD1A20" fill-rule="nonzero" d="M37.1 21.534l8.63 18.248H17.731l8.629-18.248c1.402-2.966 4.943-4.233 7.909-2.831 1.242.587 2.243 1.588 2.83 2.83z" mask="url(#326mrzkp4h)" transform="rotate(90 31.73 24.98)"/>
                                                    <path fill="#BD1A20" fill-rule="nonzero" d="M48.3 43.738l8.628 18.249H28.931l8.629-18.25c1.402-2.965 4.943-4.232 7.909-2.83 1.242.588 2.243 1.588 2.83 2.83z" mask="url(#326mrzkp4h)" transform="matrix(0 1 1 0 -4.254 4.254)"/>
                                                </g>
                                            </g>
                                            <ellipse cx="58.795" cy="39.453" fill="#FCD401" fill-rule="nonzero" rx="8.399" ry="8.327"/>
                                            <g fill="#ED1C24" fill-rule="nonzero">
                                                <path d="M58.418 59.823c-1.131 1.04-2.891.965-3.93-.166-1.04-1.13-.966-2.89.165-3.93 4.544-4.177 7.17-10.014 7.17-16.274 0-12.254-10.03-22.198-22.416-22.198-12.385 0-22.416 9.944-22.416 22.198 0 6.313 2.671 12.195 7.283 16.377 1.138 1.032 1.224 2.79.192 3.929-1.032 1.138-2.79 1.224-3.929.192-5.761-5.224-9.11-12.597-9.11-20.498 0-15.337 12.533-27.76 27.98-27.76 15.447 0 27.98 12.423 27.98 27.76 0 7.835-3.292 15.151-8.97 20.37z" transform="translate(19.387)"/>
                                                <path d="M66.03 67.966c-1.131 1.04-2.89.965-3.93-.166-1.04-1.13-.966-2.89.165-3.93 6.816-6.265 10.757-15.025 10.757-24.417 0-18.385-15.044-33.3-33.615-33.3-18.57 0-33.615 14.915-33.615 33.3 0 9.471 4.009 18.299 10.926 24.57 1.138 1.033 1.224 2.792.192 3.93-1.032 1.138-2.791 1.224-3.93.192C4.915 60.831.23 50.513.23 39.453.229 17.984 17.775.59 39.407.59c21.632 0 39.179 17.394 39.179 38.863 0 10.967-4.607 21.206-12.556 28.513z" transform="translate(19.387)"/>
                                            </g>
                                            <g fill-rule="nonzero" transform="translate(11.199 86.637)">
                                                <ellipse cx="22.398" cy="22.204" fill="#FCD401" rx="22.398" ry="22.204"/>
                                                <ellipse cx="22.398" cy="22.204" fill="#FFF" fill-opacity=".458" rx="11.199" ry="11.102"/>
                                            </g>
                                        </g>
                                    </g>
                                    <g transform="translate(-7 17) translate(0 14) translate(.752 .58) translate(140.548 45)">
                                        <ellipse cx="54.875" cy="151.961" fill="#000" fill-rule="nonzero" opacity=".119" rx="54.875" ry="9.714"/>
                                        <g transform="translate(11.759)">
                                            <mask id="n5dov1smuj" fill="#fff">
                                                <use xlink:href="#va46blmw6i"/>
                                            </mask>
                                            <use fill="#ED1C24" fill-rule="nonzero" xlink:href="#va46blmw6i"/>
                                            <g mask="url(#n5dov1smuj)">
                                                <g transform="translate(15.679 72.303)">
                                                    <mask id="qyuh5luc9l" fill="#fff">
                                                        <use xlink:href="#6hxrmbmeak"/>
                                                    </mask>
                                                    <use fill="#000" fill-opacity=".092" fill-rule="nonzero" xlink:href="#6hxrmbmeak"/>
                                                    <path fill="#BD1A20" fill-rule="nonzero" d="M19.438 42.274l6.04 12.774H5.879l6.04-12.774c.982-2.076 3.461-2.964 5.537-1.982.87.411 1.57 1.112 1.982 1.982z" mask="url(#qyuh5luc9l)" transform="rotate(90 15.679 44.686)"/>
                                                    <path fill="#BD1A20" fill-rule="nonzero" d="M25.97 15.074l6.04 12.774H12.412l6.04-12.774c.982-2.076 3.46-2.964 5.537-1.982.87.411 1.57 1.112 1.981 1.982z" mask="url(#qyuh5luc9l)" transform="rotate(90 22.211 17.486)"/>
                                                    <path fill="#BD1A20" fill-rule="nonzero" d="M33.81 30.616l6.04 12.775H20.252l6.04-12.775c.981-2.076 3.46-2.963 5.536-1.981.87.411 1.57 1.112 1.982 1.981z" mask="url(#qyuh5luc9l)" transform="matrix(0 1 1 0 -2.978 2.978)"/>
                                                </g>
                                            </g>
                                            <ellipse cx="41.156" cy="27.617" fill="#FCD401" fill-rule="nonzero" rx="5.879" ry="5.829"/>
                                            <g fill="#ED1C24" fill-rule="nonzero">
                                                <path d="M40.892 41.876c-.791.728-2.023.676-2.75-.116-.729-.792-.677-2.023.115-2.751 3.181-2.924 5.02-7.01 5.02-11.392 0-8.577-7.022-15.538-15.692-15.538s-15.691 6.96-15.691 15.538c0 4.419 1.87 8.536 5.098 11.464.797.722.857 1.954.134 2.75-.722.797-1.953.857-2.75.135-4.033-3.657-6.377-8.818-6.377-14.349C8 16.881 16.772 8.184 27.585 8.184c10.813 0 19.586 8.697 19.586 19.433 0 5.485-2.304 10.606-6.279 14.259z" transform="translate(13.571)"/>
                                                <path d="M46.221 47.576c-.792.728-2.023.676-2.751-.116-.728-.792-.676-2.023.116-2.751 4.77-4.386 7.53-10.518 7.53-17.092 0-12.87-10.532-23.31-23.531-23.31-13 0-23.53 10.44-23.53 23.31 0 6.63 2.806 12.81 7.648 17.2.796.722.856 1.954.134 2.75-.722.797-1.954.857-2.75.135C3.44 42.582.16 35.359.16 27.617.16 12.59 12.442.413 27.585.413S55.01 12.589 55.01 27.617c0 7.677-3.225 14.844-8.789 19.959z" transform="translate(13.571)"/>
                                            </g>
                                            <g fill-rule="nonzero" transform="translate(7.84 60.646)">
                                                <ellipse cx="15.679" cy="15.543" fill="#FCD401" rx="15.679" ry="15.543"/>
                                                <ellipse cx="15.679" cy="15.543" fill="#FFF" fill-opacity=".458" rx="7.839" ry="7.771"/>
                                            </g>
                                        </g>
                                    </g>
                                </g>
                            </g>
                        </g>
                    </g>
                </g>
            </g>
        </g>
    </g>
</svg>
