<svg xmlns="http://www.w3.org/2000/svg" xmlns:xlink="http://www.w3.org/1999/xlink" width="198" height="150" viewBox="0 0 198 150">
  <defs>
    <clipPath id="clip-path">
      <rect id="Rectangle_57142" data-name="Rectangle 57142" width="198" height="150" transform="translate(1018 155)" fill="#fff" stroke="#707070" stroke-width="1"/>
    </clipPath>
  </defs>
  <g id="Mask_Group_41" data-name="Mask Group 41" transform="translate(-1018 -155)" clip-path="url(#clip-path)">
    <g id="Group_7776" data-name="Group 7776" transform="translate(600.505 -162.625)">
      <path id="XMLID_2_" d="M80.134,163.007h0c7.435,0,13.67,6.618,14.754,15.243V159.969c0-6.889,6.347-12.531,14.1-12.531s14.1,5.642,14.1,12.531v6.075c1.247-5.588,6.835-9.765,13.453-9.765,7.594,0,13.778,5.478,13.778,12.151v6.51c.379-6.4,6.51-11.555,13.941-11.555,7.269,0,13.236,4.937,13.887,11.12v-5.15c0-6.618,6.179-12.042,13.724-12.042s13.724,5.424,13.724,12.042v5.153a51.464,51.464,0,0,1,2.387-5.045,14.175,14.175,0,0,1,12.1-6.51c6.456,0,11.934,4.069,13.453,9.6v-7.048c0-7.16,6.618-13.019,14.81-13.019,8.137,0,14.81,5.859,14.81,13.019v14.158h.054v45.886c0,7.16-6.618,13.019-14.81,13.019-8.137,0-14.81-5.859-14.81-13.019v5.37c0,6.943-6.179,12.693-13.724,12.693s-13.724-5.7-13.724-12.693v-3.743c-1.03,6.292-6.889,11.174-13.887,11.174-7.16,0-13.182-5.153-13.941-11.663v4.72c0,6.727-6.292,12.205-14,12.205s-14-5.478-14-12.205v9.384c0,6.727-6.179,12.151-13.778,12.151s-13.778-5.479-13.778-12.151v-7.106c-1.247,5.75-7,10.144-13.887,10.144-7.757,0-14.1-5.642-14.1-12.531v-6.456c-1.519,8.029-7.486,14.05-14.592,14.05-8.246,0-14.918-8.137-14.918-18.009V181.017c0-9.927,6.727-18.009,14.918-18.009Z" transform="translate(352.28 192.433)" fill="#ffe300"/>
      <path id="XMLID_3_" d="M80.689,237.258a15.527,15.527,0,0,1,14,8.842,15.519,15.519,0,0,1,27.882-.489,15.536,15.536,0,0,1,27.828.108,15.558,15.558,0,0,1,27.828.163,15.537,15.537,0,0,1,27.666-.108,15.537,15.537,0,0,1,27.774.216,15.456,15.456,0,1,1,0,13.561,15.473,15.473,0,0,1-27.72.379,15.537,15.537,0,0,1-27.774-.217,15.558,15.558,0,0,1-27.828-.163,15.559,15.559,0,0,1-27.72.054,15.516,15.516,0,0,1-27.882-.271,15.511,15.511,0,1,1-14.05-22.078Z" transform="translate(352.322 153.171)" fill="#e62129"/>
      <path id="XMLID_4_" d="M288.869,238.682a14.484,14.484,0,0,1,3.852,1.738v13.236a8.207,8.207,0,1,1-8.191-8.191,8.487,8.487,0,0,1,4.394,1.247v-8.03Zm-1.352,11.934a4.176,4.176,0,0,0-3.038-1.247,4.3,4.3,0,0,0-3.038,1.247,4.176,4.176,0,0,0-1.247,3.038,4.3,4.3,0,0,0,1.247,3.038,4.176,4.176,0,0,0,3.038,1.247,4.3,4.3,0,0,0,3.038-1.247,4.176,4.176,0,0,0,1.247-3.038,4.089,4.089,0,0,0-1.252-3.038Z" transform="translate(259.794 152.452)" fill="#fefefe"/>
      <path id="XMLID_7_" d="M86.883,250.559a8.149,8.149,0,0,1,8.191,8.191,8.3,8.3,0,0,1-2.387,5.8,8.161,8.161,0,0,1-5.8,2.387,8.3,8.3,0,0,1-5.8-2.387,8.161,8.161,0,0,1-2.387-5.8,8.3,8.3,0,0,1,2.387-5.8A7.977,7.977,0,0,1,86.883,250.559Zm2.984,5.207a4.176,4.176,0,0,0-3.038-1.247,4.3,4.3,0,0,0-3.038,1.247,4.176,4.176,0,0,0-1.247,3.038,4.3,4.3,0,0,0,1.247,3.038,4.176,4.176,0,0,0,3.038,1.247,4.3,4.3,0,0,0,3.038-1.247,4.176,4.176,0,0,0,1.247-3.038A4,4,0,0,0,89.866,255.766Z" transform="translate(346.398 147.247)" fill="#fefefe"/>
      <path id="XMLID_10_" d="M136.318,250.269a8.149,8.149,0,0,1,8.191,8.191,8.3,8.3,0,0,1-2.387,5.8,8.161,8.161,0,0,1-5.8,2.387,8.3,8.3,0,0,1-5.8-2.387,8.191,8.191,0,0,1,5.8-13.995Zm3.038,5.207a4.176,4.176,0,0,0-3.038-1.247,4.3,4.3,0,0,0-3.038,1.247,4.176,4.176,0,0,0-1.247,3.038,4.3,4.3,0,0,0,1.247,3.038,4.176,4.176,0,0,0,3.038,1.247,4.3,4.3,0,0,0,3.038-1.247,4.176,4.176,0,0,0,1.247-3.038,4.3,4.3,0,0,0-1.247-3.038Z" transform="translate(324.736 147.374)" fill="#fefefe"/>
      <path id="XMLID_13_" d="M235.245,250.076a8.149,8.149,0,0,1,8.191,8.191v.271H230.416a4.7,4.7,0,0,0,4.666,4.448,4.641,4.641,0,0,0,4.34-3.038h3.8A8.293,8.293,0,0,1,241,264.071a8.209,8.209,0,1,1-11.609-11.609,8.425,8.425,0,0,1,5.854-2.387Zm-4.014,5.75a4.174,4.174,0,0,1,3.959-2.55,4.121,4.121,0,0,1,3.959,2.55Z" transform="translate(281.413 147.459)" fill="#fefefe"/>
      <path id="XMLID_16_" d="M185.964,249.979a8.153,8.153,0,0,1,8.191,7.974H190.2a4.235,4.235,0,0,0-1.247-2.766,4.176,4.176,0,0,0-3.042-1.249,4.3,4.3,0,0,0-3.038,1.247,4.235,4.235,0,0,0-1.247,2.766v8.462H177.66v-8.462a8.358,8.358,0,0,1,2.387-5.588,8.161,8.161,0,0,1,5.8-2.387Z" transform="translate(303.032 147.501)" fill="#fefefe"/>
      <path id="XMLID_17_" d="M333.965,250.655a8.191,8.191,0,1,1,0,16.383,8.3,8.3,0,0,1-5.8-2.387,8.191,8.191,0,0,1,5.8-14Zm2.984,5.207a4.176,4.176,0,0,0-3.038-1.248,4.3,4.3,0,0,0-3.038,1.248,4.176,4.176,0,0,0-1.247,3.038,4.3,4.3,0,0,0,1.247,3.038,4.176,4.176,0,0,0,3.038,1.247,4.3,4.3,0,0,0,3.038-1.247A4.176,4.176,0,0,0,338.2,258.9a4.088,4.088,0,0,0-1.247-3.038Z" transform="translate(238.131 147.205)" fill="#fefefe"/>
      <path id="XMLID_20_" d="M383.5,250.462a8.191,8.191,0,0,1,0,16.382,8.3,8.3,0,0,1-5.8-2.387,8.191,8.191,0,0,1,5.8-14Zm2.984,5.207a4.176,4.176,0,0,0-3.038-1.247,4.3,4.3,0,0,0-3.038,1.247,4.176,4.176,0,0,0-1.247,3.038,4.3,4.3,0,0,0,1.247,3.038,4.176,4.176,0,0,0,3.038,1.247,4.3,4.3,0,0,0,3.038-1.247,4.176,4.176,0,0,0,1.247-3.038,4.088,4.088,0,0,0-1.247-3.038Z" transform="translate(216.428 147.29)" fill="#fefefe"/>
      <path id="XMLID_23_" d="M147.272,195.055a8.046,8.046,0,0,1,4.394,1.3v-8.462H155.3V203.03a8.324,8.324,0,0,1-2.333,5.7,8.124,8.124,0,0,1-5.7,2.333,8.324,8.324,0,0,1-5.7-2.333,8.123,8.123,0,0,1-2.333-5.7,8.324,8.324,0,0,1,2.333-5.7,8.423,8.423,0,0,1,5.7-2.278Zm59.507,4.72a7.382,7.382,0,0,0-4.5-1.79c-1.573,0-2.441,1.738-.814,2.495a11.518,11.518,0,0,0,1.79.6c2.984.869,6.021,1.738,5.7,5.7a4.048,4.048,0,0,1-1.193,2.712,4.549,4.549,0,0,1-2.387,1.352,8.751,8.751,0,0,1-2.712.217,11.072,11.072,0,0,1-6.672-2.929l2.061-2.658a8.756,8.756,0,0,0,4.882,2.221,4.785,4.785,0,0,0,1.573-.108,1.886,1.886,0,0,0,.814-.433,1.192,1.192,0,0,0,.271-.651c.108-1.247-1.627-1.738-3.309-2.221-2.712-.814-5.37-1.573-5.37-4.828a4.874,4.874,0,0,1,.814-2.766,4.287,4.287,0,0,1,1.953-1.573,6.206,6.206,0,0,1,2.495-.489,11.331,11.331,0,0,1,6.238,2.279l-1.738,2.875Zm47.573-4.177h2.061V188.98H260.1V195.6h2.279v3.476H260.1v6.13c-.054,1.519.7,2.17,2.387,2.387v3.526c-3.8-.054-6.238-.922-6.13-5.967v-6.179H254.3v-3.363ZM89.989,195H93.84v16.221H89.989Zm140.334-.163a8.324,8.324,0,0,1,5.7,2.333,8.123,8.123,0,0,1,2.333,5.7V211h-3.363v-1.627a8.121,8.121,0,0,1-4.666,1.519,8.324,8.324,0,0,1-5.7-2.333,8.123,8.123,0,0,1-2.333-5.7,8.324,8.324,0,0,1,2.333-5.7,8.223,8.223,0,0,1,5.7-2.332Zm3.09,4.991a4.176,4.176,0,0,0-3.038-1.248,4.26,4.26,0,1,0,3.038,1.248Zm-113.806-4.886a8.158,8.158,0,0,1,8.191,7.865h.054v8.356H124v-8.352a4.235,4.235,0,0,0-1.247-2.766,4.34,4.34,0,0,0-7.43,2.767v8.351h-3.8v-8.352h.054a8.2,8.2,0,0,1,2.387-5.479,7.941,7.941,0,0,1,5.642-2.387Zm55.386.108a8.324,8.324,0,0,1,5.7,2.333,8.123,8.123,0,0,1,2.333,5.7,8.324,8.324,0,0,1-2.333,5.7,8.123,8.123,0,0,1-5.7,2.333,8.324,8.324,0,0,1-5.7-2.333,8.123,8.123,0,0,1-2.333-5.7,8.324,8.324,0,0,1,2.333-5.7,8.223,8.223,0,0,1,5.7-2.329Zm3.09,4.991a4.176,4.176,0,0,0-3.038-1.247,4.26,4.26,0,1,0,3.038,1.248Zm-27.72,0a4.176,4.176,0,0,0-3.038-1.247,4.3,4.3,0,1,0,4.285,4.285,4.088,4.088,0,0,0-1.246-3.034Z" transform="translate(341.449 174.705)"/>
      <path id="XMLID_34_" d="M234.531,258.323a4.174,4.174,0,0,1,3.959-2.55,4.121,4.121,0,0,1,3.959,2.55Z" transform="translate(278.113 144.963)" fill="#e62129"/>
    </g>
  </g>
</svg>
