<svg xmlns="http://www.w3.org/2000/svg" width="9" height="13" viewBox="0 0 9 13">
    <g fill="none" fill-rule="evenodd">
        <path d="M-5-4h20v20H-5z"/>
        <path fill="#211E20" fill-rule="nonzero" d="M4.5 6.576c-.528 0-.993-.195-1.363-.574a1.942 1.942 0 0 1-.562-1.396c0-.354.088-.689.262-.994.172-.3.405-.543.695-.72.294-.18.62-.27.968-.27.346 0 .673.09.971.268.296.177.533.42.706.722.173.305.261.64.261.994a1.976 1.976 0 0 1-.967 1.702 1.87 1.87 0 0 1-.971.268zm0-1.051a.86.86 0 0 0 .453-.125.937.937 0 0 0 .339-.34.875.875 0 0 0 .119-.454c0-.169-.04-.32-.122-.464a.92.92 0 0 0-.336-.344.86.86 0 0 0-.453-.124.825.825 0 0 0-.443.122.938.938 0 0 0-.332.346.913.913 0 0 0-.122.464c0 .263.083.47.26.652.178.181.38.267.637.267zM4.5 0c.82 0 1.581.207 2.275.62A4.593 4.593 0 0 1 9 4.606c0 .64-.15 1.356-.446 2.153-.248.655-.589 1.358-1.027 2.118a27.37 27.37 0 0 1-1.214 1.842c-.318.45-.654.89-1.012 1.324L4.5 13l-.39-.466-.413-.493a22.28 22.28 0 0 1-1.009-1.32 27.4 27.4 0 0 1-1.22-1.851A14.751 14.751 0 0 1 .444 6.756C.15 5.962 0 5.246 0 4.606A4.592 4.592 0 0 1 2.228.618 4.366 4.366 0 0 1 4.5 0zm.018 11.362c.34-.41.66-.83.965-1.261.44-.615.829-1.206 1.164-1.766.406-.705.723-1.358.948-1.952.253-.683.378-1.276.378-1.777a3.56 3.56 0 0 0-.463-1.794 3.546 3.546 0 0 0-1.255-1.285A3.357 3.357 0 0 0 4.5 1.052c-.64 0-1.223.158-1.752.473-.529.32-.946.747-1.256 1.284a3.562 3.562 0 0 0-.465 1.797c0 .5.125 1.094.377 1.773.226.598.543 1.25.945 1.949.34.567.729 1.158 1.17 1.775.303.429.624.848.96 1.256l.021.025.018-.022z"/>
    </g>
</svg>
