<?xml version="1.0" encoding="UTF-8"?>
<svg width="50px" height="50px" viewBox="0 0 50 50" version="1.1" xmlns="http://www.w3.org/2000/svg" xmlns:xlink="http://www.w3.org/1999/xlink">
    <!-- Generator: sketchtool 62 (101010) - https://sketch.com -->
    <title>E85D9139-858C-4C74-AF25-99F4530548A0</title>
    <desc>Created with sketchtool.</desc>
    <defs>
        <circle id="path-1" cx="14" cy="14" r="14"></circle>
    </defs>
    <g id="symbol" stroke="none" stroke-width="1" fill="none" fill-rule="evenodd">
        <g id="icon/nav/account-null">
            <g id="MISC/Profile/null" transform="translate(11.000000, 11.000000)">
                <g id="users">
                    <mask id="mask-2" fill="white">
                        <use xlink:href="#path-1"></use>
                    </mask>
                    <use id="Mask" fill="#D8D8D8" xlink:href="#path-1"></use>
                    <g mask="url(#mask-2)" fill="#898989" fill-rule="nonzero" id="Path">
                        <g transform="translate(2.240000, 1.120000)">
                            <path d="M23.52,28.56 L0,28.56 L0,27.30672 C0,25.86696 0.78512,24.54368 2.04904,23.85488 L7.0448,21.12992 C7.88088,20.67352 8.4,19.79824 8.4,18.8468 L8.4,16.59616 L8.26952,16.44048 C8.25608,16.42424 6.88352,14.76384 6.35992,12.48408 L6.30896,12.26232 L6.118,12.13912 C5.79376,11.92968 5.6,11.57856 5.6,11.2 L5.6,8.96 C5.6,8.64584 5.73328,8.35296 5.9752,8.134 L6.16,7.96768 L6.16,4.48 L6.15496,4.40664 C6.15328,4.39152 5.96288,2.8392 7.05376,1.59488 C7.98168,0.53648 9.56536,0 11.76,0 C13.9468,0 15.52712,0.53256 16.45616,1.58368 C16.91816,2.1056 17.15056,2.68856 17.26648,3.1892 C17.27544,3.2284 17.28384,3.26704 17.29168,3.30568 C17.29952,3.34544 17.30792,3.3852 17.31408,3.42328 C17.32136,3.46696 17.32752,3.5084 17.33368,3.54984 C17.33816,3.57952 17.34264,3.60976 17.346,3.63832 C17.3544,3.70776 17.36112,3.77496 17.3656,3.83712 C17.36616,3.84216 17.36616,3.84664 17.36616,3.85168 C17.37008,3.91216 17.37288,3.96928 17.37456,4.02136 C17.37456,4.03144 17.37456,4.03984 17.37512,4.04992 C17.37624,4.0964 17.37624,4.14064 17.37568,4.17928 C17.37568,4.18488 17.37568,4.19048 17.37568,4.19608 C17.37344,4.32768 17.36448,4.40608 17.36448,4.40776 L17.36,7.96768 L17.5448,8.13456 C17.78672,8.35296 17.92,8.64584 17.92,8.96 L17.92,11.2 C17.92,11.68888 17.59968,12.11672 17.12368,12.26344 L16.8448,12.34912 L16.7552,12.62632 C16.38056,13.79168 15.84688,14.868 15.16816,15.8256 C15.00184,16.06136 14.84,16.27024 14.69944,16.42984 L14.56,16.58888 L14.56,18.89888 C14.56,19.04056 14.574,19.17944 14.59584,19.31608 C14.60032,19.3452 14.60816,19.3732 14.61376,19.40232 C14.6356,19.51488 14.66472,19.6252 14.70056,19.73272 C14.70896,19.75792 14.71792,19.782 14.72744,19.8072 C14.77112,19.92424 14.82208,20.03736 14.88144,20.146 C14.88816,20.15832 14.89432,20.1712 14.90104,20.18352 C14.98224,20.32688 15.07576,20.46296 15.18328,20.5884 L15.31096,20.74576 L15.3328,20.74576 C15.52488,20.93504 15.74552,21.09968 15.9964,21.22512 L21.34608,23.89968 C22.68728,24.56944 23.52,25.9168 23.52,27.41592 L23.52,28.56 Z"></path>
                        </g>
                    </g>
                </g>
            </g>
        </g>
    </g>
</svg>