<svg xmlns="http://www.w3.org/2000/svg" xmlns:xlink="http://www.w3.org/1999/xlink" width="40" height="40" viewBox="0 0 40 40">
    <defs>
        <path id="sh34mwimga" d="M7.579 0c1.046 0 1.895.848 1.895 1.895v9.473c0 1.047-.849 1.895-1.895 1.895H1.895C.848 13.263 0 12.415 0 11.368V4.737C0 2.12 2.12 0 4.737 0h2.842zm21.79 0c2.616 0 4.736 2.12 4.736 4.737v6.631c0 1.047-.848 1.895-1.894 1.895h-5.685c-1.046 0-1.894-.848-1.894-1.895V1.895C24.632.848 25.48 0 26.526 0z"/>
    </defs>
    <g fill="none" fill-rule="evenodd">
        <g transform="translate(3 3)">
            <path fill="#ED2324" fill-rule="nonzero" d="M17.053 0c7.172 0 13.015 5.693 13.255 12.807l.008.456v13.263c0 1.047-.849 1.895-1.895 1.895-.972 0-1.772-.731-1.882-1.674l-.013-.22V13.262c0-5.232-4.241-9.474-9.473-9.474-5.095 0-9.25 4.022-9.465 9.063l-.01.411v13.263c0 1.047-.847 1.895-1.894 1.895-.971 0-1.772-.731-1.882-1.674l-.013-.22V13.262C3.79 5.938 9.728 0 17.053 0z"/>
            <g transform="translate(0 15.158)">
                <mask id="qyc7drqwpb" fill="#fff">
                    <use xlink:href="#sh34mwimga"/>
                </mask>
                <use fill="#ED2324" xlink:href="#sh34mwimga"/>
                <circle cx="27.284" cy="6.442" r="1" fill="#FFF" fill-rule="nonzero" mask="url(#qyc7drqwpb)"/>
                <path fill="#CA2627" d="M3.79 9.474h26.526c2.093 0 3.79 1.696 3.79 3.79H0c0-2.094 1.697-3.79 3.79-3.79z" mask="url(#qyc7drqwpb)"/>
            </g>
            <path fill="#ED2324" fill-rule="nonzero" d="M28.421 23.265v7.05c0 1.675-1.886 3.628-3.79 3.79H18c-.523 0-.947-.424-.947-.947 0-.523.424-.947.947-.947h6.632c.643.093 1.815-.978 1.894-1.895v-7.05c0-.524.424-.948.948-.948.523 0 .947.424.947.947z"/>
            <circle cx="17.773" cy="32.931" r="2.615" fill="#ED2324"/>
        </g>
    </g>
</svg>
