<svg xmlns="http://www.w3.org/2000/svg" xmlns:xlink="http://www.w3.org/1999/xlink" width="67" height="67" viewBox="0 0 67 67">
    <defs>
        <linearGradient id="ohskw52atb" x1="50%" x2="50%" y1="0%" y2="100%">
            <stop offset="0%" stop-color="#FFD500"/>
            <stop offset="100%" stop-color="#FCB814"/>
        </linearGradient>
        <rect id="nic671x5ca" width="66.926" height="66.926" x=".069" y=".029" rx="10.24"/>
    </defs>
    <g fill="none" fill-rule="evenodd">
        <g>
            <g>
                <g>
                    <g transform="translate(-1086 -179) translate(930 146) translate(25 33) translate(131)">
                        <mask id="r433qauedc" fill="#fff">
                            <use xlink:href="#nic671x5ca"/>
                        </mask>
                        <use fill="url(#ohskw52atb)" fill-rule="nonzero" xlink:href="#nic671x5ca"/>
                        <g fill-rule="nonzero" mask="url(#r433qauedc)">
                            <path fill="url(#ohskw52atb)" d="M0.069 0.029H66.995V66.955H0.069z"/>
                            <circle cx="42.388" cy="14.215" r="5.176" fill="#E2262B"/>
                            <circle cx="28.586" cy="25.579" r="12.797" fill="#E2262B"/>
                            <path fill="#FFF" d="M52.926 43.722c0-1.033-.276-2.046-.8-2.936.524-.889.8-1.902.8-2.935 0-3.158-2.545-5.726-5.669-5.726H41.42c-1.093 0-1.39.907-1.397 1.386v1.55c-1.3-1.765-3.413-2.963-5.693-2.963-1.504-.002-2.972.452-4.212 1.302-1.243-.85-2.715-1.305-4.222-1.302-2.374 0-4.566 1.3-5.85 3.192v-.375l-.007-.147c-.033-.704-.325-1.37-.82-1.872 1.111-1.122 1.104-2.931-.015-4.044-1.119-1.114-2.928-1.111-4.044.005-1.116 1.116-1.118 2.925-.005 4.044-.514.52-.812 1.215-.833 1.946v8.966h-.004v9.206c.001 1.959 1.59 3.547 3.548 3.548H49.38c1.958-.001 3.546-1.59 3.546-3.548v-9.297z"/>
                            <path fill="#E2262B" d="M15.717 30.877c0-.595.358-1.13.907-1.357.55-.227 1.182-.101 1.601.32.42.42.545 1.052.316 1.601-.228.549-.765.905-1.359.904-.39 0-.762-.154-1.037-.43-.275-.276-.429-.65-.428-1.038"/>
                            <path fill="#E2262B" d="M15.717 30.877c0-.595.358-1.13.907-1.357.55-.227 1.182-.101 1.601.32.42.42.545 1.052.316 1.601-.228.549-.765.905-1.359.904-.39 0-.762-.154-1.037-.43-.275-.276-.429-.65-.428-1.038"/>
                            <path fill="#19181C" d="M17.186 33.516c-.789.012-1.433.633-1.474 1.421v13.122h2.944V34.89c-.054-.773-.696-1.372-1.47-1.374M34.332 33.492c-1.324-.005-2.612.43-3.661 1.237l-.55.428-.552-.428c-1.051-.807-2.34-1.242-3.666-1.237-3.01 0-5.649 2.59-5.649 5.548v9.018h2.944v-8.982c0-1.474 1.192-2.63 2.71-2.63s2.767 1.178 2.767 2.63v7.461c0 1.102.93 1.395 1.426 1.395.777 0 1.414-.618 1.437-1.395v-7.462c0-1.452 1.237-2.626 2.764-2.626 1.512 0 2.742 1.177 2.742 2.63v8.98h2.942v-9.02c0-2.957-2.64-5.547-5.65-5.547M47.185 42.171c.843.002 1.525.687 1.524 1.53-.002.843-.686 1.525-1.53 1.524h-5.776v2.83h5.852c2.351-.007 4.263-1.952 4.263-4.335-.002-.93-.3-1.837-.851-2.586l-.252-.346.252-.343c.55-.753.846-1.66.847-2.593 0-2.39-1.918-4.335-4.27-4.335H41.4v2.81h5.78c.844 0 1.527.684 1.527 1.527 0 .843-.683 1.527-1.527 1.527h-3.134c-.756.02-1.36.638-1.36 1.394 0 .757.604 1.375 1.36 1.395l3.14.001z"/>
                            <path fill="#E2262B" d="M50.139 49.96c-.676-.36-1.469-.431-2.197-.195-.729.236-1.33.758-1.665 1.446-.26-.532-.681-.97-1.203-1.251-.83-.446-1.828-.446-2.658 0-.524.282-.946.722-1.205 1.257-.262-.535-.686-.975-1.21-1.257-.408-.222-.865-.337-1.33-.334-.463 0-.918.114-1.326.334-.518.278-.936.71-1.196 1.238-.262-.528-.681-.96-1.2-1.238-.83-.446-1.826-.446-2.655 0-.524.28-.945.717-1.205 1.251-.47-.968-1.452-1.583-2.529-1.585-.463-.001-.918.113-1.325.334-.525.279-.947.717-1.207 1.251-.258-.534-.68-.972-1.202-1.251-.828-.446-1.825-.446-2.653 0-.524.28-.947.717-1.208 1.251-.572-1.181-1.884-1.81-3.163-1.517-1.279.293-2.185 1.431-2.185 2.743 0 1.313.906 2.45 2.185 2.744 1.28.293 2.591-.336 3.163-1.517.47.97 1.453 1.587 2.531 1.587 1.079 0 2.062-.617 2.532-1.587.469.971 1.453 1.588 2.531 1.588 1.08 0 2.063-.617 2.532-1.588.469.97 1.45 1.586 2.527 1.588 1.077.002 2.06-.611 2.532-1.58.473.97 1.459 1.583 2.537 1.58 1.079-.005 2.06-.625 2.526-1.597.466.974 1.45 1.595 2.53 1.597 1.08.002 2.066-.616 2.535-1.588.531 1.097 1.708 1.727 2.915 1.561 1.207-.165 2.17-1.089 2.386-2.288.216-1.2-.365-2.401-1.439-2.977"/>
                            <path fill="#FFF" d="M19.438 51.424c-.128-.132-.28-.238-.449-.312-.359-.147-.761-.147-1.12 0-.169.073-.322.179-.449.312-.13.128-.234.28-.306.449-.151.358-.151.762 0 1.12.072.168.176.32.306.449.13.128.282.231.45.305.176.074.365.112.556.113.193 0 .385-.039.563-.113.166-.075.318-.178.45-.305.129-.129.232-.281.303-.45.155-.356.155-.762 0-1.12-.071-.167-.174-.32-.304-.448m-.222 1.347c-.041.103-.102.196-.18.276-.08.076-.173.137-.275.18-.105.046-.22.07-.334.07-.115 0-.228-.023-.333-.07-.103-.041-.197-.102-.275-.18-.079-.08-.142-.174-.187-.276-.045-.105-.067-.219-.065-.333-.002-.116.02-.23.065-.337.046-.1.11-.19.187-.27.077-.081.171-.145.275-.187.105-.046.218-.07.333-.07.23.002.448.095.61.258.076.077.137.169.18.269.094.213.094.457 0 .67M24.5 51.424c-.127-.133-.28-.24-.45-.312-.358-.147-.76-.147-1.12 0-.342.148-.614.422-.759.765-.147.36-.147.762 0 1.12.073.167.176.32.304.45.133.126.287.229.455.305.359.15.762.15 1.12 0 .342-.147.613-.419.76-.76.146-.358.146-.76 0-1.12-.074-.166-.179-.319-.308-.448m-.22 1.347c-.041.104-.104.198-.185.276-.077.077-.169.138-.27.18-.211.094-.453.094-.664 0-.103-.041-.197-.102-.275-.18-.08-.08-.142-.173-.187-.276-.045-.105-.068-.219-.066-.333 0-.116.022-.23.066-.337.046-.1.109-.191.187-.27.077-.081.17-.145.275-.187.211-.093.453-.093.664 0 .205.09.37.254.46.459.09.214.09.456 0 .67M44.748 51.424c-.127-.133-.28-.239-.449-.312-.178-.074-.37-.112-.562-.11-.192-.003-.382.035-.559.11-.17.074-.326.18-.458.312-.128.129-.23.281-.3.449-.158.357-.158.763 0 1.12.07.167.172.32.3.449.134.127.29.23.458.305.177.074.367.112.559.113.193-.001.384-.04.562-.113.167-.074.319-.177.45-.305.271-.267.425-.632.425-1.014 0-.38-.154-.746-.426-1.013m-.219 1.347c-.041.103-.102.197-.18.276-.078.075-.17.136-.27.18-.104.046-.218.07-.333.07-.116 0-.23-.023-.336-.07-.1-.043-.192-.104-.27-.18-.079-.08-.142-.173-.185-.276-.048-.104-.073-.218-.072-.333 0-.116.024-.231.072-.337.044-.1.108-.192.185-.27.076-.08.168-.144.27-.187.106-.046.22-.07.336-.07.115 0 .228.025.334.07.1.045.192.109.27.188.245.248.316.62.179.94M49.812 51.424c-.127-.133-.28-.24-.45-.312-.176-.075-.366-.112-.557-.11-.194-.002-.386.035-.565.11-.17.075-.323.181-.454.312-.128.13-.23.282-.303.449-.151.358-.151.762 0 1.12.073.167.175.319.303.449.133.126.287.229.454.305.537.231 1.16.11 1.57-.305.131-.129.237-.281.31-.45.154-.357.154-.761 0-1.12-.073-.167-.179-.32-.31-.448m-.218 1.347c-.041.103-.102.197-.18.276-.078.076-.169.137-.27.18-.103.046-.215.07-.329.07-.116.001-.23-.023-.336-.07-.102-.04-.193-.102-.27-.18-.08-.079-.144-.173-.188-.276-.043-.106-.067-.219-.068-.333.002-.116.025-.23.068-.337.046-.1.11-.192.189-.27.074-.082.166-.146.27-.187.105-.046.22-.07.335-.07.343.006.651.213.787.529.095.213.095.457 0 .67M29.164 51.816c.075.081.135.174.18.275.028.057.047.117.056.18h.576c-.014-.143-.05-.284-.105-.416-.074-.167-.177-.319-.304-.45-.129-.13-.281-.234-.449-.307-.18-.075-.371-.114-.566-.114-.378 0-.741.148-1.013.411-.132.13-.236.284-.307.455-.075.181-.112.377-.109.573v1.36h.57v-1.402h.006c.005-.1.029-.198.068-.29.046-.102.11-.195.188-.275.244-.25.617-.322.938-.184.1.046.194.108.274.184M34.943 51.906c-.07-.172-.168-.331-.293-.47-.124-.135-.274-.245-.44-.324-.19-.08-.393-.122-.599-.12-.192-.001-.383.036-.56.111-.168.072-.321.177-.45.307-.134.126-.24.28-.31.45-.076.177-.114.37-.112.563-.003.192.035.382.111.558.07.173.176.33.312.457.128.13.28.234.449.306.178.074.37.112.562.11.148 0 .296-.02.438-.06.146-.037.284-.101.406-.189.132-.094.246-.21.34-.342.1-.147.178-.31.23-.48h-.629c-.062.144-.162.268-.29.359-.147.095-.319.144-.494.14-.112 0-.223-.02-.327-.061-.1-.042-.192-.103-.27-.18-.077-.074-.14-.161-.185-.258-.048-.1-.074-.209-.077-.32v-.027h2.296c-.005-.182-.04-.362-.103-.533m-2.09.046l.024-.04c.14-.228.388-.35.738-.36.35-.01.594.126.732.36l.016.04h-1.51zM40.106 52.41v-2.397c-.18-.105-.37-.19-.566-.257v1.576l-.044-.04c-.05-.046-.106-.086-.164-.12-.065-.037-.132-.069-.202-.096-.073-.027-.149-.05-.225-.068-.077-.018-.155-.027-.234-.028-.19.001-.379.04-.555.114-.166.075-.318.179-.449.306-.128.13-.232.283-.305.45-.073.177-.11.367-.11.56-.002.191.036.382.11.559.217.533.738.879 1.314.873.194 0 .387-.036.567-.108.169-.074.323-.176.455-.304.13-.127.233-.28.303-.449.075-.18.112-.373.11-.568m-.567 0c0 .115-.024.23-.07.336-.044.103-.107.196-.186.275-.08.076-.173.137-.274.18-.107.047-.222.071-.338.07-.113 0-.224-.024-.326-.07-.103-.042-.196-.103-.277-.18-.077-.08-.14-.174-.185-.275-.045-.106-.069-.22-.068-.336 0-.113.023-.225.068-.328.044-.103.107-.197.185-.277.08-.078.174-.14.277-.184.21-.095.453-.095.664 0 .102.044.195.107.274.184.08.079.144.173.185.277.047.103.071.215.071.328M28.074 21.761c-.833 0-1.548.287-2.048.763-.394-.393-.93-.763-1.858-.763-.87 0-1.465.322-1.847.751-.047-.43-.412-.755-.845-.75-.47.003-.85.387-.846.857v5.086c0 .31.155.465.464.465h.787c.297 0 .449-.155.449-.465v-3.073c0-.798.512-1.239 1.191-1.239s1.18.441 1.18 1.239v3.073c0 .31.154.465.464.465h.79c.299 0 .45-.155.45-.465V24.61c0-.799.512-1.216 1.19-1.216.68 0 1.18.441 1.18 1.239v3.073c0 .31.155.465.464.465h.787c.297 0 .45-.155.45-.465v-3.573c.005-1.358-.817-2.37-2.402-2.37zM36.436 21.762c-.37 0-.727.238-.894.679-.392 1.012-.786 2.012-1.167 3.025-.382-1.013-.774-2.013-1.168-3.025-.167-.441-.524-.68-.893-.68-.505.005-.913.413-.917.918 0 .155.037.31.106.449l1.976 4.49c-.19.43-.405.809-.718 1.096-.194.17-.445.26-.702.25-.467.005-.843.387-.84.854 0 .464.381.857 1.06.857.277-.003.551-.06.808-.166.822-.346 1.382-1.084 1.763-1.93l.369-.822h-.013l.036-.071 2.001-4.55c.07-.14.107-.294.107-.45 0-.506-.407-.919-.914-.924z"/>
                        </g>
                    </g>
                </g>
            </g>
        </g>
    </g>
</svg>
