<?xml version="1.0" encoding="UTF-8"?>
<svg width="50px" height="50px" viewBox="0 0 50 50" version="1.1" xmlns="http://www.w3.org/2000/svg" xmlns:xlink="http://www.w3.org/1999/xlink">
    <title>icon/nav/myIM3_new</title>
    <defs>
        <circle id="path-1" cx="25" cy="25" r="25"></circle>
        <linearGradient x1="50%" y1="0%" x2="50%" y2="100%" id="linearGradient-3">
            <stop stop-color="#FFD500" offset="0%"></stop>
            <stop stop-color="#FCB814" offset="100%"></stop>
        </linearGradient>
    </defs>
    <g id="icon/nav/myIM3_new" stroke="none" stroke-width="1" fill="none" fill-rule="evenodd">
        <g id="Group">
            <mask id="mask-2" fill="white">
                <use xlink:href="#path-1"></use>
            </mask>
            <use id="Oval" fill="#D8D8D8" xlink:href="#path-1"></use>
            <g id="NewLogo_myIM3(RGB)-01-(1)" mask="url(#mask-2)" fill-rule="nonzero">
                <rect id="Rectangle" fill="url(#linearGradient-3)" x="0.0516085791" y="0.0214477212" width="49.9450402" height="49.9450402" rx="24.9725201"></rect>
                <circle id="Oval" fill="#E2262B" cx="31.6327078" cy="10.6085791" r="3.86260054"></circle>
                <circle id="Oval" fill="#E2262B" cx="21.3331099" cy="19.0891421" r="9.5502681"></circle>
                <path d="M39.497319,32.6280161 C39.497319,31.8577049 39.2909903,31.1014527 38.900134,30.4376676 C39.2909903,29.7738824 39.497319,29.0176303 39.497319,28.247319 C39.497319,25.8900804 37.5978552,23.9738606 35.266756,23.9738606 L30.9101877,23.9738606 C30.094504,23.9738606 29.8733244,24.6508043 29.8679625,25.0080429 L29.8679625,26.1655496 C28.8974531,24.8478552 27.3210456,23.9537534 25.6193029,23.9537534 C24.4973495,23.9525442 23.401371,24.2913861 22.4758713,24.9256032 C21.5483576,24.2903591 20.449931,23.9514828 19.3257373,23.9537534 C17.5536193,23.9537534 15.9175603,24.9242627 14.9597855,26.3357909 L14.9597855,26.0563003 L14.9544236,25.9463807 C14.9295939,25.4212109 14.7119538,24.9236456 14.3431635,24.5489276 C15.1717264,23.7116811 15.1664388,22.361807 14.3313422,21.5310772 C13.4962457,20.7003475 12.1463624,20.702137 11.3134714,21.535078 C10.4805803,22.3680189 10.4788717,23.7179023 11.3096515,24.5529491 C10.9258696,24.9407875 10.70378,25.459955 10.6883378,26.0053619 L10.6883378,32.6963807 L10.6849866,32.6963807 L10.6849866,39.5663539 C10.6860959,41.0283038 11.8711598,42.2130677 13.3331099,42.213807 L36.8505362,42.213807 C38.3122691,42.2130671 39.4969493,41.028087 39.497319,39.5663539 L39.497319,32.6280161 Z" id="Path" fill="#FFFFFF"></path>
                <path d="M11.7292174,23.0422252 C11.7292174,22.5987538 11.9965088,22.1990006 12.4063271,22.0295429 C12.8161453,21.8600853 13.2876972,21.9543335 13.6008945,22.268299 C13.9140919,22.5822645 14.0071848,23.0540458 13.8367238,23.4634477 C13.6662629,23.8728497 13.2658561,24.1391547 12.8223861,24.138073 C12.5319411,24.1382493 12.2533797,24.0227663 12.0482557,23.8171393 C11.8431318,23.6115123 11.7283315,23.3326688 11.7292174,23.0422252" id="Path" fill="#E2262B"></path>
                <path d="M11.7292174,23.0422252 C11.7292174,22.5987538 11.9965088,22.1990006 12.4063271,22.0295429 C12.8161453,21.8600853 13.2876972,21.9543335 13.6008945,22.268299 C13.9140919,22.5822645 14.0071848,23.0540458 13.8367238,23.4634477 C13.6662629,23.8728497 13.2658561,24.1391547 12.8223861,24.138073 C12.5319411,24.1382493 12.2533797,24.0227663 12.0482557,23.8171393 C11.8431318,23.6115123 11.7283315,23.3326688 11.7292174,23.0422252" id="Path" fill="#E2262B"></path>
                <path d="M12.825067,25.0120643 C12.2365997,25.0211415 11.7558098,25.4846452 11.7252011,26.0723861 L11.7252011,35.8646113 L13.922252,35.8646113 L13.922252,26.0375335 C13.8821649,25.4608127 13.4031784,25.0131344 12.825067,25.0120643" id="Path" fill="#19181C"></path>
                <path d="M25.6206434,24.9939312 C24.6328506,24.9900928 23.6718065,25.3147635 22.8887399,25.9168901 L22.477882,26.2365952 L22.0663539,25.9168901 C21.2818331,25.3146003 20.3194739,24.9899632 19.330429,24.9939312 C17.0844504,24.9939312 15.1152815,26.9269437 15.1152815,29.1340483 L15.1152815,35.863941 L17.3116622,35.863941 L17.3116622,29.1615282 C17.3116622,28.060992 18.2017426,27.1990617 19.3344504,27.1990617 C20.4671582,27.1990617 21.3994638,28.077748 21.3994638,29.1615282 L21.3994638,34.7292225 C21.3994638,35.5516086 22.0938338,35.7701072 22.4631367,35.7701072 C23.0433121,35.7703576 23.5184802,35.3091476 23.5355228,34.7292225 L23.5355228,29.1601877 C23.5355228,28.0770777 24.4591153,27.2004021 25.5985255,27.2004021 C26.7265416,27.2004021 27.6447721,28.0790885 27.6447721,29.1628686 L27.6447721,35.8652815 L29.8404826,35.8652815 L29.8404826,29.1340483 C29.8404826,26.9269437 27.8699732,24.9939312 25.6239946,24.9939312" id="Path" fill="#19181C"></path>
                <path d="M35.2124665,31.4711796 C35.8417454,31.4722901 36.3509764,31.9833217 36.349866,32.6126005 C36.3487555,33.2418794 35.8377239,33.7511105 35.208445,33.75 L30.8981233,33.75 L30.8981233,35.8626005 L35.2647453,35.8626005 C37.019437,35.8565684 38.4463807,34.405496 38.4463807,32.6266756 C38.4451442,31.9322697 38.2225728,31.2563383 37.810992,30.6970509 L37.6233244,30.439008 L37.810992,30.1829759 C38.2212887,29.621198 38.4426021,28.9436455 38.4430295,28.2479893 C38.4430295,26.4644772 37.0120643,25.0127346 35.2573727,25.0127346 L30.8947721,25.0127346 L30.8947721,27.1099196 L35.208445,27.1099196 C35.8377239,27.1099196 36.3478552,27.6200509 36.3478552,28.2493298 C36.3478552,28.8786086 35.8377239,29.3887399 35.208445,29.3887399 L32.8693029,29.3887399 C32.3049082,29.4030652 31.8548291,29.8647131 31.8548291,30.4292895 C31.8548291,30.993866 32.3049082,31.4555139 32.8693029,31.4698391 L35.2124665,31.4711796 Z" id="Path" fill="#19181C"></path>
                <path d="M37.4168901,37.2835121 C36.9128639,37.0143585 36.3210424,36.9617865 35.7774645,37.1378804 C35.2338866,37.3139744 34.7853121,37.7035864 34.5348525,38.2171582 C34.3405942,37.8198223 34.0267487,37.4933199 33.6373995,37.2835121 C33.0178769,36.951062 32.2730078,36.951062 31.6534853,37.2835121 C31.2624995,37.4937723 30.9479331,37.8221788 30.7546917,38.2218499 C30.5588296,37.8224511 30.2429094,37.4943441 29.8512064,37.2835121 C29.5468629,37.1181005 29.2056343,37.0323322 28.8592493,37.0341823 C28.5137192,37.0340939 28.1735691,37.1197648 27.8693029,37.2835121 C27.4831454,37.4913555 27.1711596,37.8141156 26.9765416,38.2071046 C26.7816992,37.8133799 26.4686063,37.4904442 26.0810992,37.2835121 C25.4625283,36.9510561 24.7184368,36.9510561 24.099866,37.2835121 C23.7091274,37.4919206 23.394472,37.8187773 23.2010724,38.2171582 C22.8494111,37.494812 22.1170701,37.0357986 21.3136729,37.0341823 C20.9682546,37.0332726 20.6281227,37.118997 20.3243968,37.2835121 C19.9329383,37.4916199 19.617555,37.8185015 19.4235925,38.2171582 C19.2309857,37.8188927 18.9169974,37.4919976 18.5268097,37.2835121 C17.9087148,36.9510527 17.1650117,36.9510527 16.5469169,37.2835121 C16.1557126,37.492175 15.8402648,37.8188804 15.6454424,38.2171582 C15.2187921,37.3357746 14.2397338,36.8661132 13.2852878,37.084975 C12.3308419,37.3038369 11.6542357,38.1531548 11.6542357,39.1323727 C11.6542357,40.1115905 12.3308419,40.9609085 13.2852878,41.1797703 C14.2397338,41.3986321 15.2187921,40.9289707 15.6454424,40.0475871 C15.9959041,40.7720121 16.7297721,41.2322173 17.5345174,41.2322173 C18.3392627,41.2322173 19.0731307,40.7720121 19.4235925,40.0475871 C19.7739094,40.7723908 20.5079795,41.2329104 21.3130027,41.2329104 C22.1180258,41.2329104 22.852096,40.7723908 23.2024129,40.0475871 C23.5521656,40.7711258 24.2844119,41.2313805 25.0880493,41.2328071 C25.8916867,41.2342338 26.6255626,40.7765818 26.977882,40.0542895 C27.3309067,40.77748 28.0664101,41.2350897 28.8711602,41.2322345 C29.6759103,41.2293792 30.408148,40.766562 30.7560322,40.0408847 C31.1040177,40.7679734 31.8379348,41.2312712 32.6440054,41.2327004 C33.450076,41.2341296 34.1856313,40.7734372 34.536193,40.0475871 C34.932217,40.8660953 35.8101834,41.3365815 36.7110325,41.2130438 C37.6118816,41.0895061 38.3307776,40.4000347 38.4918334,39.5051315 C38.6528891,38.6102284 38.2194837,37.7133772 37.4182306,37.2835121" id="Path" fill="#E2262B"></path>
                <path d="M14.5060322,38.3760054 C14.410431,38.2775215 14.2966184,38.1985356 14.1709115,38.1434316 C13.9031537,38.033527 13.6028784,38.033527 13.3351206,38.1434316 C13.208984,38.1977641 13.0950288,38.2768489 13,38.3760054 C12.9029334,38.4719413 12.8253258,38.5857354 12.7714477,38.711126 C12.6588725,38.9783506 12.6588725,39.2796923 12.7714477,39.5469169 C12.8253258,39.6723075 12.9029334,39.7861016 13,39.8820375 C13.097015,39.9776292 13.2105583,40.0548387 13.3351206,40.1099196 C13.4667977,40.1648436 13.6079981,40.1933115 13.7506702,40.1936997 C13.8948922,40.1936298 14.0376888,40.1651616 14.1709115,40.1099196 C14.2950481,40.0540746 14.4084631,39.9769524 14.5060322,39.8820375 C14.6026938,39.7861864 14.6796551,39.6723383 14.7325737,39.5469169 C14.8487652,39.2804346 14.8487652,38.9776083 14.7325737,38.711126 C14.6796551,38.5857046 14.6026938,38.4718565 14.5060322,38.3760054 M14.3404826,39.3813673 C14.3095904,39.4580118 14.2640591,39.5279022 14.2064343,39.5871314 C14.1465645,39.6439499 14.0768361,39.6893755 14.0006702,39.7211796 C13.9221067,39.755852 13.8372145,39.7738801 13.7513405,39.774137 C13.6658249,39.7745824 13.5812245,39.7565191 13.5033512,39.7211796 C13.4262971,39.6910787 13.3562579,39.6454506 13.2975871,39.5871314 C13.2390858,39.5275141 13.1918549,39.457803 13.1581769,39.3813673 C13.1244153,39.3029098 13.1079559,39.2180985 13.1099196,39.1327078 C13.1084668,39.0464933 13.1248982,38.9609133 13.1581769,38.8813673 C13.1928438,38.8068854 13.2399935,38.7388809 13.2975871,38.6802949 C13.3551398,38.6191556 13.425369,38.5713449 13.5033512,38.5402145 C13.5815736,38.506026 13.6659736,38.4882336 13.7513405,38.4879357 C13.9224865,38.489451 14.0860855,38.558601 14.2064343,38.6802949 C14.263428,38.738241 14.3089146,38.8064708 14.3404826,38.8813673 C14.4108357,39.0406096 14.4108357,39.222125 14.3404826,39.3813673" id="Shape" fill="#FFFFFF"></path>
                <path d="M18.2835121,38.3760054 C18.1885786,38.2767373 18.0745993,38.1976356 17.9483914,38.1434316 C17.6804092,38.0334883 17.3799126,38.0334883 17.1119303,38.1434316 C16.856772,38.2539198 16.6539559,38.4584161 16.5455764,38.7144772 C16.4356718,38.982235 16.4356718,39.2825103 16.5455764,39.5502681 C16.6001766,39.6747701 16.6769362,39.7883199 16.772118,39.8853887 C16.8719649,39.9796717 16.9868039,40.056684 17.1119303,40.1132708 C17.379562,40.224978 17.6807597,40.224978 17.9483914,40.1132708 C18.2026266,40.003584 18.4054282,39.8010222 18.5154155,39.5469169 C18.6235418,39.2788111 18.6235418,38.9792317 18.5154155,38.711126 C18.4596351,38.5862967 18.3814953,38.4727214 18.2848525,38.3760054 M18.1213137,39.3813673 C18.0902562,39.4590573 18.0429531,39.5292122 17.9825737,39.5871314 C17.925219,39.6448483 17.856838,39.6904356 17.7815013,39.7211796 C17.6237112,39.7917746 17.4433129,39.7917746 17.2855228,39.7211796 C17.2087947,39.6908299 17.1390225,39.6452271 17.080429,39.5871314 C17.0215369,39.5278347 16.974254,39.458047 16.9410188,39.3813673 C16.9072857,39.3028805 16.8906085,39.2181238 16.8920912,39.1327078 C16.8911937,39.0464771 16.9078401,38.9609645 16.9410188,38.8813673 C16.9752084,38.8066126 17.0224126,38.7385297 17.080429,38.6802949 C17.1378579,38.6193179 17.2078317,38.5715253 17.2855228,38.5402145 C17.4435093,38.4705456 17.6235148,38.4705456 17.7815013,38.5402145 C17.9346198,38.6075571 18.057023,38.7297213 18.1246649,38.8827078 C18.191691,39.0426357 18.191691,39.2227799 18.1246649,39.3827078" id="Shape" fill="#FFFFFF"></path>
                <path d="M33.3941019,38.3760054 C33.2989203,38.277028 33.1850036,38.1979698 33.0589812,38.1434316 C32.9261356,38.0878699 32.7834023,38.0598249 32.6394102,38.060992 C32.4962365,38.059297 32.3542725,38.0873703 32.2225201,38.1434316 C32.0949487,38.1987367 31.9789739,38.2776449 31.8806971,38.3760054 C31.785274,38.4723207 31.7092725,38.5860954 31.6568365,38.711126 C31.538912,38.9772442 31.538912,39.2807987 31.6568365,39.5469169 C31.7092725,39.6719475 31.785274,39.7857222 31.8806971,39.8820375 C31.9809275,39.9767868 32.0965091,40.0538412 32.2225201,40.1099196 C32.3545669,40.1651694 32.4962708,40.1936469 32.6394102,40.1936997 C32.7833635,40.1931127 32.9258418,40.1646626 33.0589812,40.1099196 C33.1834079,40.0545945 33.2969097,39.9774132 33.3941019,39.8820375 C33.597362,39.6828583 33.7119018,39.4102525 33.7119018,39.1256702 C33.7119018,38.841088 33.597362,38.5684821 33.3941019,38.3693029 M33.230563,39.3746649 C33.1998096,39.4513816 33.1542617,39.5212976 33.0965147,39.580429 C33.0380549,39.6367874 32.9699501,39.6821906 32.8954424,39.7144772 C32.8169456,39.7493559 32.7320094,39.7673934 32.6461126,39.7674321 C32.5597411,39.7678049 32.4742825,39.7497534 32.3954424,39.7144772 C32.3203964,39.6831877 32.2521164,39.6376677 32.19437,39.580429 C32.1352091,39.5214938 32.0880861,39.4516061 32.05563,39.3746649 C32.0198214,39.2966857 32.0015198,39.211812 32.0020011,39.1260054 C32.0020727,39.0393934 32.0203408,38.9537617 32.05563,38.8746649 C32.0891684,38.7997074 32.1361961,38.7315514 32.19437,38.6735925 C32.2509901,38.6135014 32.3194555,38.5658039 32.3954424,38.5335121 C32.4746249,38.4993797 32.5598875,38.4815976 32.6461126,38.4812332 C32.7318607,38.4820112 32.816604,38.49978 32.8954424,38.5335121 C32.9705978,38.5672892 33.0387894,38.614796 33.0965147,38.6735925 C33.2796737,38.8587936 33.3326461,39.1363688 33.230563,39.3760054" id="Shape" fill="#FFFFFF"></path>
                <path d="M37.1729223,38.3760054 C37.0780129,38.2767092 36.9640274,38.1976033 36.8378016,38.1434316 C36.706188,38.0876837 36.5645087,38.0596217 36.4215818,38.060992 C36.2769137,38.059552 36.1334691,38.0876024 36,38.1434316 C35.8737091,38.1996141 35.7587679,38.2784375 35.6608579,38.3760054 C35.5658925,38.4731106 35.4893594,38.5866613 35.4349866,38.711126 C35.3224113,38.9783506 35.3224113,39.2796923 35.4349866,39.5469169 C35.4893594,39.6713816 35.5658925,39.7849323 35.6608579,39.8820375 C35.760702,39.9760091 35.8752665,40.0529892 36,40.1099196 C36.4004447,40.2821428 36.865492,40.1917391 37.172252,39.8820375 C37.2697346,39.7858796 37.3481862,39.6721815 37.4034853,39.5469169 C37.5178388,39.2800544 37.5178388,38.9779885 37.4034853,38.711126 C37.3481862,38.5858614 37.2697346,38.4721633 37.172252,38.3760054 M37.0087131,39.3813673 C36.9781652,39.4581907 36.9325924,39.5281449 36.8746649,39.5871314 C36.8167291,39.6441377 36.7484968,39.689626 36.6735925,39.7211796 C36.5963165,39.7561769 36.5124454,39.7742309 36.4276139,39.7741389 C36.3412297,39.7746316 36.2557452,39.7565747 36.1769437,39.7211796 C36.1011049,39.6913898 36.0325384,39.6456788 35.9758713,39.5871314 C35.9158816,39.528465 35.8680519,39.4585427 35.8351206,39.3813673 C35.8026918,39.3024104 35.7854117,39.2180559 35.7841823,39.1327078 C35.7859518,39.0465508 35.803206,38.9614148 35.8351206,38.8813673 C35.8690843,38.8061502 35.9168227,38.7379525 35.9758713,38.6802949 C36.0313433,38.6188871 36.1001194,38.5709731 36.1769437,38.5402145 C36.2561094,38.5060289 36.341383,38.4882446 36.4276139,38.4879357 C36.6839008,38.4927021 36.9136271,38.6471642 37.0147453,38.8827078 C37.0857718,39.0418073 37.0857718,39.2236082 37.0147453,39.3827078" id="Shape" fill="#FFFFFF"></path>
                <path d="M21.7640751,38.6689008 C21.8199546,38.7292554 21.865271,38.7985896 21.8981233,38.8739946 C21.9192949,38.9161243 21.933552,38.9613851 21.9403485,39.0080429 L22.3699732,39.0080429 C22.3599154,38.9011907 22.3334661,38.796524 22.291555,38.6977212 C22.2365197,38.5734596 22.1598099,38.4599836 22.0650134,38.3626005 C21.9689805,38.2653102 21.8552314,38.1872784 21.7298928,38.1327078 C21.596149,38.0767127 21.4526331,38.0477818 21.3076408,38.0475871 C21.0253595,38.0480058 20.7542809,38.1580714 20.5516086,38.3545576 C20.4530285,38.4509203 20.375045,38.5662994 20.3223861,38.6936997 C20.2663178,38.8294037 20.2387146,38.9751759 20.2412869,39.1219839 L20.2412869,40.1367292 L20.6662198,40.1367292 L20.6662198,39.0904826 L20.6709115,39.0904826 C20.6749474,39.0158743 20.6921944,38.9425747 20.7218499,38.8739946 C20.7562718,38.7980101 20.8036747,38.7286068 20.8619303,38.6689008 C21.0442246,38.4826334 21.3224683,38.4279974 21.5616622,38.5315013 C21.6372632,38.5654488 21.7065996,38.6118996 21.766756,38.6689008" id="Path" fill="#FFFFFF"></path>
                <path d="M26.0770777,38.7359249 C26.0251435,38.6072827 25.9512064,38.4886659 25.8585791,38.3853887 C25.7656241,38.2841445 25.6538491,38.2019637 25.5294906,38.1434316 C25.388445,38.0831531 25.2364928,38.0525801 25.0831099,38.0536193 C24.9395013,38.0526221 24.7971957,38.0809008 24.6648794,38.1367292 C24.5392595,38.1904902 24.4254036,38.2683676 24.3297587,38.3659517 C24.2293686,38.459921 24.1500932,38.5741507 24.097185,38.7010724 C24.040775,38.8339156 24.0124779,38.9769986 24.0140751,39.1213137 C24.0117472,39.2646124 24.0400838,39.4067526 24.097185,39.5382038 C24.1489657,39.6674879 24.2283369,39.7839142 24.3297587,39.8793566 C24.4254565,39.9765397 24.5393212,40.0539677 24.6648794,40.1072386 C24.7976482,40.1630526 24.940434,40.1911079 25.0844504,40.1896783 C25.1949507,40.1894313 25.304932,40.1745568 25.4115282,40.1454424 C25.5202329,40.1170115 25.622878,40.0690953 25.7144772,40.0040214 C25.8123139,39.9333164 25.8978989,39.847052 25.9678284,39.7486595 C26.043212,39.6387199 26.1010934,39.5177567 26.1394102,39.3900804 L25.6702413,39.3900804 C25.6241518,39.4976814 25.5492338,39.5904591 25.4537534,39.6581769 C25.3441353,39.7291946 25.2157012,39.7656232 25.0851206,39.7627346 C25.0016698,39.762863 24.918929,39.7474059 24.8411528,39.7171582 C24.7659682,39.6861281 24.6976407,39.6405764 24.6400804,39.5831099 C24.5822817,39.5279115 24.5352373,39.4624584 24.5013405,39.3900804 C24.4658338,39.3156558 24.4464212,39.2345799 24.44437,39.1521448 L24.44437,39.1313673 L26.1575067,39.1313673 C26.153983,38.9955307 26.1279364,38.8612211 26.080429,38.7339142 M24.5214477,38.7680965 L24.538874,38.7379357 C24.6434316,38.5676944 24.8284182,38.4772118 25.0898123,38.4698391 C25.3512064,38.4624665 25.5328418,38.5636729 25.636059,38.7379357 L25.6474531,38.7680965 L24.5214477,38.7680965 Z" id="Shape" fill="#FFFFFF"></path>
                <path d="M29.9296247,39.1126005 L29.9296247,37.3230563 C29.7957263,37.2450299 29.6542498,37.1808041 29.5073727,37.1313673 L29.5073727,38.3076408 L29.4745308,38.2774799 C29.4368501,38.243396 29.3957469,38.2132986 29.3518767,38.1876676 C29.3035236,38.1605648 29.25336,38.1368267 29.2017426,38.116622 C29.1467604,38.0962176 29.090578,38.0792062 29.0335121,38.0656836 C28.9763908,38.0522257 28.9179335,38.0452558 28.8592493,38.0449062 C28.7168985,38.0455067 28.5760918,38.0744427 28.4450402,38.1300268 C28.3208468,38.1860618 28.2074266,38.2634144 28.1099196,38.3585791 C28.0141656,38.4554607 27.9369348,38.5690355 27.8820375,38.6936997 C27.8274581,38.8261162 27.7996661,38.9680376 27.8002681,39.1112601 C27.7988064,39.2545628 27.8266316,39.3966539 27.8820375,39.5288204 C28.0441239,39.9267136 28.4329865,40.1850693 28.8626005,40.1802949 C29.0076653,40.1810716 29.1515087,40.1537596 29.286193,40.099866 C29.4117715,40.0450454 29.5266052,39.9683383 29.6253351,39.8733244 C29.7225327,39.7780576 29.7993754,39.6640477 29.8512064,39.5382038 C29.9074414,39.4039388 29.9352817,39.2594888 29.9329759,39.113941 M29.5107246,39.113941 C29.5108588,39.2002875 29.4928181,39.2856955 29.4577748,39.3646113 C29.4254581,39.4414649 29.3785728,39.5113377 29.3197051,39.5703753 C29.2600726,39.627173 29.1905675,39.6726012 29.1146113,39.7044236 C29.0353468,39.7397766 28.9493869,39.7576088 28.8626005,39.7567024 C28.7786953,39.7568812 28.6957286,39.7390536 28.6193029,39.7044236 C28.5428496,39.6727855 28.4728724,39.6273457 28.4128686,39.5703753 C28.3552974,39.5102839 28.3085822,39.4406646 28.2747989,39.3646113 C28.2407289,39.2854569 28.2233867,39.200115 28.2238511,39.113941 C28.2235784,39.0297334 28.2409301,38.9463996 28.2747989,38.8693029 C28.3074198,38.7924152 28.3542633,38.7223772 28.4128686,38.6628686 C28.4722903,38.6043258 28.5423605,38.5576882 28.6193029,38.5254692 C28.776792,38.4545595 28.9571222,38.4545595 29.1146113,38.5254692 C29.1907905,38.5583646 29.2603016,38.6049325 29.3197051,38.6628686 C29.3795487,38.7213585 29.4265683,38.7916597 29.4577748,38.8693029 C29.4926642,38.9461413 29.5107246,39.0295526 29.5107246,39.113941" id="Shape" fill="#FFFFFF"></path>
                <path d="M20.9510724,16.2399139 C20.3290885,16.2399139 19.7955764,16.4537534 19.422252,16.8089812 C19.1286863,16.5154155 18.7285523,16.2399139 18.0355228,16.2399139 C17.3867292,16.2399139 16.9423592,16.4798928 16.6575067,16.8002681 C16.6226982,16.4790695 16.3498724,16.2366866 16.0268097,16.2399139 C15.6757835,16.2425286 15.3932135,16.5289982 15.3954293,16.8800268 L15.3954293,20.6756032 C15.3954293,20.9068365 15.5113941,21.022118 15.7419571,21.022118 L16.3290885,21.022118 C16.5509383,21.022118 16.6642091,20.9068365 16.6642091,20.6756032 L16.6642091,18.3820375 C16.6642091,17.7868633 17.0462466,17.4577748 17.5529491,17.4577748 C18.0596515,17.4577748 18.4329759,17.7868633 18.4329759,18.3820375 L18.4329759,20.6756032 C18.4329759,20.906613 18.5484808,21.022118 18.7794906,21.022118 L19.3699732,21.022118 C19.5924933,21.022118 19.7050938,20.9068365 19.7050938,20.6756032 L19.7050938,18.3646113 C19.7050938,17.7687668 20.0871314,17.4577748 20.5938338,17.4577748 C21.1005362,17.4577748 21.4738606,17.7868633 21.4738606,18.3820375 L21.4738606,20.6756032 C21.4738606,20.9068365 21.5898123,21.022118 21.8203753,21.022118 L22.4075067,21.022118 C22.6293566,21.022118 22.742647,20.9068365 22.742647,20.6756032 L22.742647,18.0087131 C22.7466488,16.9953083 22.133378,16.2399139 20.9510724,16.2399139 Z" id="Path" fill="#FFFFFF"></path>
                <path d="M27.1910188,16.2399464 C26.9155496,16.2399464 26.6487936,16.4175603 26.5241287,16.7466488 C26.2312332,17.5020107 25.9376676,18.2486595 25.652815,19.0046917 C25.3679625,18.2486595 25.075067,17.5020107 24.7815013,16.7466488 C24.6568365,16.4175603 24.3900804,16.2399464 24.1146113,16.2399464 C23.7380392,16.2432227 23.4335712,16.5476907 23.4302949,16.9242627 C23.4308347,17.0406074 23.4581243,17.1552694 23.5100536,17.2593834 L24.9845845,20.6105898 C24.8424933,20.9309651 24.6823056,21.213807 24.4483914,21.4282842 C24.3040561,21.5554041 24.1164669,21.6223317 23.9242627,21.6152815 C23.5757679,21.6189645 23.2957237,21.9035014 23.2975779,22.2520107 C23.2975779,22.5985255 23.5824397,22.8920912 24.0884718,22.8920912 C24.2955821,22.8893325 24.5002832,22.8472551 24.691689,22.7680965 C25.3049598,22.5100536 25.7231903,21.9591153 26.0073727,21.327748 L26.2828418,20.7144772 L26.2734584,20.7144772 L26.3002681,20.6608579 L27.7935657,17.2654155 C27.845495,17.1613016 27.8727846,17.0466396 27.8733244,16.9302949 C27.8733244,16.5521449 27.5691431,16.244352 27.1910188,16.2399464 Z" id="Path" fill="#FFFFFF"></path>
            </g>
        </g>
    </g>
</svg>