<svg xmlns="http://www.w3.org/2000/svg" width="40" height="40" viewBox="0 0 40 40">
    <g fill="none" fill-rule="evenodd">
        <g>
            <path stroke="#ED2324" stroke-width="3" d="M4 7c4.434-2 9.543-3.667 15.326-5C24.846 3.333 30.07 5 35 7v14c0 6.426-5.225 11.76-15.674 16C9.11 33.28 4 27.947 4 21V7z"/>
            <path fill="#ED2324" fill-rule="nonzero" d="M11.528 17c.12 0 .198-.078.198-.204v-1.08h.78c.852 0 1.464-.576 1.464-1.488 0-.828-.612-1.428-1.464-1.428H11.24c-.264 0-.48.216-.48.48v3.516c0 .126.078.204.204.204h.564zm.912-2.148h-.714v-1.17h.714c.324 0 .582.258.582.582 0 .324-.258.588-.582.588zm3.786 2.208c.978 0 1.752-.648 1.752-1.752V13.28c0-.264-.222-.48-.486-.48s-.48.216-.48.48v1.944c0 .6-.33.924-.786.924-.444 0-.792-.312-.792-.924V13.28c0-.264-.222-.48-.486-.48s-.48.216-.48.48v2.028c0 1.08.756 1.752 1.758 1.752zm5.106-.06c.282 0 .474-.198.474-.438s-.192-.432-.474-.432h-1.44v-2.85c0-.264-.222-.48-.486-.48s-.48.216-.48.48v3.354c0 .228.186.366.402.366h2.004zm2.406.06c1.146 0 1.698-.624 1.686-1.35-.006-.366-.21-.798-.948-1.056l-.612-.216c-.33-.114-.492-.234-.492-.432 0-.168.126-.312.372-.312.174 0 .402.06.57.114.198.066.366.162.606.162s.432-.192.432-.438c0-.168-.09-.312-.27-.426-.3-.192-.804-.3-1.206-.3-1.056 0-1.626.564-1.608 1.326.006.438.318.852 1.038 1.104l.51.18c.354.126.528.216.528.438 0 .192-.132.318-.396.318-.198 0-.468-.06-.684-.114-.318-.078-.564-.21-.75-.21-.24 0-.432.192-.432.438 0 .174.102.336.354.468.36.186.912.306 1.302.306zm2.634-.06c.132 0 .24-.06.294-.186.09-.216.18-.42.264-.624h1.578c.09.222.18.426.264.624.054.126.162.186.27.186h.546c.108 0 .234-.066.174-.21l-1.614-3.78c-.078-.186-.258-.282-.426-.282-.21 0-.366.138-.426.282l-1.62 3.78c-.06.144.066.21.174.21h.522zm1.818-1.608h-.936c.162-.402.312-.798.468-1.236.15.42.312.84.468 1.236zM14.303 24.06c1.146 0 1.698-.624 1.686-1.35-.006-.366-.21-.798-.948-1.056l-.612-.216c-.33-.114-.492-.234-.492-.432 0-.168.126-.312.372-.312.174 0 .402.06.57.114.198.066.366.162.606.162s.432-.192.432-.438c0-.168-.09-.312-.27-.426-.3-.192-.804-.3-1.206-.3-1.056 0-1.626.564-1.608 1.326.006.438.318.852 1.038 1.104l.51.18c.354.126.528.216.528.438 0 .192-.132.318-.396.318-.198 0-.468-.06-.684-.114-.318-.078-.564-.21-.75-.21-.24 0-.432.192-.432.438 0 .174.102.336.354.468.36.186.912.306 1.302.306zm2.634-.06c.132 0 .24-.06.294-.186.09-.216.18-.42.264-.624h1.578c.09.222.18.426.264.624.054.126.162.186.27.186h.546c.108 0 .234-.066.174-.21l-1.614-3.78c-.078-.186-.258-.282-.426-.282-.21 0-.366.138-.426.282l-1.62 3.78c-.06.144.066.21.174.21h.522zm1.818-1.608h-.936c.162-.402.312-.798.468-1.236.15.42.312.84.468 1.236zM21.653 24c.12 0 .198-.078.198-.204V22.47h1.29c.264 0 .48-.186.48-.45s-.216-.45-.48-.45h-1.29v-.81h1.56c.264 0 .48-.186.48-.45s-.216-.45-.48-.45h-2.052c-.258 0-.474.156-.474.468v3.468c0 .126.078.204.204.204h.564zm5.28 0c.264 0 .48-.186.48-.45s-.216-.45-.48-.45h-1.56v-.714h1.29c.264 0 .48-.186.48-.45s-.216-.45-.48-.45h-1.29v-.726h1.56c.264 0 .48-.186.48-.45s-.216-.45-.48-.45h-2.052c-.258 0-.474.156-.474.468v3.306c0 .228.186.366.402.366h2.124z"/>
        </g>
    </g>
</svg>
