<svg xmlns="http://www.w3.org/2000/svg" xmlns:xlink="http://www.w3.org/1999/xlink" width="64" height="64" viewBox="0 0 64 64">
    <defs>
        <circle id="7n974ajjda" cx="17.068" cy="17.995" r="17.014"/>
    </defs>
    <g fill="none" fill-rule="evenodd">
        <g>
            <g>
                <g>
                    <g>
                        <g>
                            <g transform="translate(-988 -797) translate(0 631) translate(130 147) translate(800) translate(58 19)">
                                <circle cx="32" cy="32" r="32" fill="#ED2324" fill-rule="nonzero"/>
                                <g transform="translate(12.8 12.8)">
                                    <circle cx="19.2" cy="19.2" r="19.2" fill="#FFF" fill-rule="nonzero"/>
                                    <g transform="translate(2.477 1.477)">
                                        <mask id="ltwpjbvmmb" fill="#fff">
                                            <use xlink:href="#7n974ajjda"/>
                                        </mask>
                                        <use fill="#FFF" fill-rule="nonzero" xlink:href="#7n974ajjda"/>
                                        <g fill="#ED1C24" fill-rule="nonzero" mask="url(#ltwpjbvmmb)">
                                            <g>
                                                <path d="M33.925 16.092c-.17-3.188-1.2-6.15-2.893-8.638-2.32-3.407-5.85-5.913-9.961-6.934-1.314-.326-2.675-.519-4.086-.519-1.826 0-3.582.299-5.231.834-3.986 1.295-7.318 4.027-9.405 7.58C1.196 10.372.424 12.573.14 14.929.056 15.605 0 16.29 0 16.986c0 3.759 1.243 7.22 3.317 10.038 2.052 2.788 4.926 4.927 8.272 6.054 1.698.57 3.508.893 5.396.893 2.55 0 4.961-.582 7.134-1.594 2.36-1.099 4.432-2.714 6.055-4.713 2.367-2.92 3.795-6.636 3.795-10.678 0-.3-.033-.597-.044-.894zm-2.82.252l-3.565 6.143 2.349 4.048c-1.582 2.11-3.68 3.811-6.108 4.91l-1.792-3.083h-7.125l-2.19 3.775c-3.404-1.057-6.312-3.245-8.282-6.116l2.736-4.714-3.563-6.142H1.83c.328-2.424 1.203-4.678 2.518-6.617h4.986l3.562-6.143-.044-.082c1.421-.425 2.924-.659 4.483-.659 1.132 0 2.237.128 3.302.356l-.223.383 3.562 6.144h6.343c1.529 2.25 2.461 4.924 2.631 7.797h-1.846z" transform="translate(-.42 .59)"/>
                                                <path d="M13.772 10.902L10.208 17.044 13.772 23.185 20.897 23.185 24.461 17.044 20.897 10.902z" transform="translate(-.42 .59) rotate(39 17.335 17.044)"/>
                                            </g>
                                        </g>
                                        <ellipse cx="25.699" cy="34.006" fill="#E4E4E4" fill-rule="nonzero" mask="url(#ltwpjbvmmb)" opacity=".528" rx="16.36" ry="16.283"/>
                                    </g>
                                </g>
                            </g>
                        </g>
                    </g>
                </g>
            </g>
        </g>
    </g>
</svg>
