<svg xmlns="http://www.w3.org/2000/svg" width="20" height="20" viewBox="0 0 20 20">
  <g id="calendar" transform="translate(-15 -15)">
    <path id="Path_4" data-name="Path 4" d="M0,0H20V20H0Z" transform="translate(15 15)" fill="none" fill-rule="evenodd"/>
    <g id="Group_1" data-name="Group 1">
      <path id="Path_5" data-name="Path 5" d="M18.51,2.418H16.877V1.381A1.435,1.435,0,0,0,15.394,0h-.06a1.435,1.435,0,0,0-1.483,1.381V2.418H6.2V1.381A1.435,1.435,0,0,0,4.711,0h-.06A1.435,1.435,0,0,0,3.168,1.381V2.418H1.536A1.435,1.435,0,0,0,.053,3.8V18.606a1.435,1.435,0,0,0,1.483,1.381H18.51a1.435,1.435,0,0,0,1.484-1.38V3.8a1.435,1.435,0,0,0-1.484-1.38ZM17.5,17.805H2.546V6.59H17.5V17.805Z" transform="translate(15 15)" fill="#211e20"/>
      <path id="Path_6" data-name="Path 6" d="M4.578,11.665H7.159a.231.231,0,0,0,.238-.221V9.04a.23.23,0,0,0-.238-.221H4.578a.23.23,0,0,0-.238.22v2.4a.229.229,0,0,0,.238.22Zm4.154,0h2.582a.231.231,0,0,0,.237-.221V9.04a.229.229,0,0,0-.237-.221H8.732a.229.229,0,0,0-.237.22v2.4a.229.229,0,0,0,.237.22Zm4.154,0h2.582a.23.23,0,0,0,.237-.221V9.04a.229.229,0,0,0-.237-.221H12.886a.23.23,0,0,0-.237.22v2.4a.229.229,0,0,0,.237.22ZM4.578,15.532H7.159a.23.23,0,0,0,.238-.22v-2.4a.229.229,0,0,0-.238-.22H4.578a.229.229,0,0,0-.238.22v2.4a.23.23,0,0,0,.238.221Zm4.154,0h2.582a.23.23,0,0,0,.237-.22v-2.4a.229.229,0,0,0-.237-.22H8.732a.229.229,0,0,0-.237.22v2.4a.229.229,0,0,0,.237.221Z" transform="translate(15 15)" fill="#211e20"/>
    </g>
  </g>
</svg>
