<svg xmlns="http://www.w3.org/2000/svg" width="40" height="40" viewBox="0 0 40 40">
    <g fill="none" fill-rule="evenodd">
        <g fill="#ED2324">
            <path fill-rule="nonzero" d="M22.983 0C25.202 0 27 1.79 27 4v26c0 2.21-1.798 4-4.017 4H4.017C1.798 34 0 32.21 0 30V9.89c0-.566.242-1.107.665-1.486L9.469.514C9.84.182 10.317 0 10.813 0h12.17zM3.025 10v20c0 .513.389.936.889.993L4.03 31h18.988c.516 0 .94-.386.999-.883l.006-.117V4c0-.513-.388-.936-.888-.993L23.02 3 11 3.007 3.025 10z" transform="matrix(-1 0 0 1 30 6)"/>
            <path d="M9 12H1.665V9.23H7c.552 0 1-.447 1-1V2.618L11 0v10c0 1.105-.895 2-2 2z" transform="matrix(-1 0 0 1 30 6)"/>
            <path fill-rule="nonzero" d="M7 18h13c.552 0 1 .448 1 1s-.448 1-1 1H7c-.552 0-1-.448-1-1s.448-1 1-1zM14 26h6c.552 0 1 .448 1 1s-.448 1-1 1h-6c-.552 0-1-.448-1-1s.448-1 1-1zM11 22h9c.552 0 1 .448 1 1s-.448 1-1 1h-9c-.552 0-1-.448-1-1s.448-1 1-1z" transform="matrix(-1 0 0 1 30 6)"/>
        </g>
        <g fill="#ED2324">
            <path fill-rule="nonzero" d="M22.983 0C25.202 0 27 1.79 27 4v2h-2.976V4c0-.513-.388-.936-.888-.993L23.02 3 11 3.007 3.025 10v20c0 .513.389.936.889.993L4.03 31H8v3H4.017C1.798 34 0 32.21 0 30V9.89c0-.566.242-1.107.665-1.486L9.469.514C9.84.182 10.317 0 10.813 0h12.17z" transform="matrix(-1 0 0 1 37 0)"/>
            <path d="M9 12H1.665V9.23H7c.552 0 1-.447 1-1V2.618L11 0v10c0 1.105-.895 2-2 2z" transform="matrix(-1 0 0 1 37 0)"/>
        </g>
    </g>
</svg>
