<svg xmlns="http://www.w3.org/2000/svg" width="40" height="40" viewBox="0 0 40 40">
    <g fill="none" fill-rule="evenodd">
        <g fill-rule="nonzero">
            <g>
                <path fill="#ED2324" d="M1 38.115v-17.5c0-2.963 2.344-5.38 5.279-5.495l.221-.005h21c2.963 0 5.38 2.344 5.496 5.28l.004.22v17.5c0 1.105-.895 2-2 2H3c-1.105 0-2-.895-2-2zm26.5-20h-21c-1.325 0-2.41 1.032-2.495 2.336L4 20.615v16.5H29.998l.001-16.5c0-1.27-.947-2.319-2.174-2.479l-.162-.015-.164-.006z" transform="translate(3.08)"/>
                <path fill="#ED2324" d="M17 24c-3.314 0-6 2.686-6 6v9h12v-9c0-3.314-2.686-6-6-6zm.2 2.005c2.116.104 3.8 1.853 3.8 3.995v7h-8v-7c0-2.21 1.79-4 4-4l.2.005z" transform="translate(3.08)"/>
                <g>
                    <path fill="#ED2324" d="M26.92 1h-20c-3.314 0-6 2.686-6 6s2.686 6 6 6h20c3.313 0 6-2.686 6-6s-2.687-6-6-6zm-20 3h20c1.656 0 3 1.343 3 3s-1.344 3-3 3h-20c-1.657 0-3-1.343-3-3s1.343-3 3-3z" transform="translate(3.08)"/>
                    <g fill="#ED1C24">
                        <g transform="translate(3.08) translate(11.371) translate(.323 .346)">
                            <circle cx="5.726" cy="4.153" r="3.5"/>
                            <circle cx="1.726" cy="7.153" r="1.5"/>
                        </g>
                    </g>
                </g>
                <path fill="#ED2324" d="M6.92 12h3v3.5c0 .828-.672 1.5-1.5 1.5-.83 0-1.5-.672-1.5-1.5V12zM22.92 12h3v3.5c0 .828-.672 1.5-1.5 1.5-.83 0-1.5-.672-1.5-1.5V12z" transform="translate(3.08)"/>
            </g>
        </g>
    </g>
</svg>
