<svg xmlns="http://www.w3.org/2000/svg" width="40" height="40" viewBox="0 0 40 40">
    <g fill="none" fill-rule="evenodd">
        <g>
            <path fill="#ED2324" fill-rule="nonzero" d="M4.448 7.344c.81 0 1.476-.666 1.476-1.494 0-.81-.666-1.476-1.476-1.476-.828 0-1.494.666-1.494 1.476 0 .828.666 1.494 1.494 1.494zM5.06 18c.45 0 .684-.234.684-.702V9.612c0-.72-.576-1.296-1.296-1.296-.702 0-1.278.576-1.278 1.296v7.686c0 .468.234.702.702.702H5.06zm4.26 0c.45 0 .684-.234.684-.702v-4.644c0-1.206.774-1.872 1.8-1.872 1.044 0 1.782.666 1.782 1.872v4.644c0 .468.234.702.702.702h1.188c.45 0 .684-.234.684-.702v-4.68c0-1.206.774-1.836 1.8-1.836 1.044 0 1.782.666 1.782 1.872v4.644c0 .468.234.702.702.702h1.188c.45 0 .684-.234.684-.702v-5.4c0-2.052-1.242-3.582-3.636-3.582-1.26 0-2.34.432-3.096 1.152-.594-.594-1.404-1.152-2.808-1.152-1.314 0-2.214.486-2.79 1.134-.072-.648-.612-1.134-1.278-1.134-.702 0-1.278.576-1.278 1.296v7.686c0 .468.234.702.702.702H9.32zM4.124 34.104c.702 0 1.278-.504 1.278-1.26v-3.456c.702.54 1.494.792 2.358.792 2.718 0 4.914-2.196 4.914-4.914 0-2.754-2.196-4.95-4.914-4.95-2.718 0-4.932 2.178-4.932 5.094v7.434c0 .756.576 1.26 1.296 1.26zm3.69-6.444c-1.314 0-2.412-1.062-2.412-2.394 0-1.368 1.098-2.43 2.412-2.43 1.35 0 2.412 1.062 2.412 2.43 0 1.332-1.062 2.394-2.412 2.394zm10.182 2.52c2.718 0 4.914-2.196 4.914-4.95 0-2.718-2.196-4.914-4.914-4.914-2.718 0-4.914 2.196-4.914 4.914 0 2.754 2.196 4.95 4.914 4.95zm0-2.52c-1.314 0-2.412-1.062-2.412-2.43 0-1.332 1.098-2.394 2.412-2.394 1.35 0 2.412 1.062 2.412 2.394 0 1.368-1.062 2.43-2.412 2.43zm7.266-8.316c.81 0 1.476-.666 1.476-1.494 0-.81-.666-1.476-1.476-1.476-.828 0-1.494.666-1.494 1.476 0 .828.666 1.494 1.494 1.494zM25.874 30c.45 0 .684-.234.684-.702v-7.686c0-.72-.576-1.296-1.296-1.296-.702 0-1.278.576-1.278 1.296v7.686c0 .468.234.702.702.702h1.188zm4.44 0c.324 0 .504-.18.504-.504v-4.842c0-1.188.774-1.872 1.8-1.872 1.044 0 1.782.684 1.782 1.872v4.842c0 .324.18.504.504.504h1.566c.324 0 .504-.18.504-.504v-5.598c0-2.052-1.242-3.582-3.456-3.582-1.242 0-2.142.486-2.718 1.134-.072-.648-.63-1.134-1.278-1.134-.702 0-1.278.576-1.278 1.296v7.884c0 .324.18.504.504.504h1.566z"/>
        </g>
    </g>
</svg>
