<?xml version="1.0" encoding="UTF-8"?>
<svg width="40px" height="40px" viewBox="0 0 40 40" version="1.1" xmlns="http://www.w3.org/2000/svg" xmlns:xlink="http://www.w3.org/1999/xlink">
    <title>7F05AFB3-E0F7-40EC-A6BB-C5D3C725EEAF</title>
    <g id="symbol" stroke="none" stroke-width="1" fill="none" fill-rule="evenodd">
        <g id="icon/package/pulsa_safe">
            <g id="Group-6" opacity="0" stroke="#979797">
                <rect id="Rectangle" opacity="0.289481027" x="0.5" y="0.5" width="39" height="39" rx="19.5"></rect>
                <rect id="Rectangle" fill="#D8D8D8" opacity="0.390345982" x="6.5" y="0.5" width="27" height="39" rx="2"></rect>
                <rect id="Rectangle" fill="#D8D8D8" opacity="0.296619234" x="3.5" y="3.5" width="33" height="33" rx="2"></rect>
                <rect id="Rectangle" opacity="0.265927269" transform="translate(20.000000, 20.000000) rotate(90.000000) translate(-20.000000, -20.000000) " x="6.5" y="0.5" width="27" height="39" rx="2"></rect>
            </g>
            <path d="M4,7 C8.43420055,5 13.5428951,3.33333333 19.3260837,2 C24.8450948,3.33333333 30.0697336,5 35,7 C35,10.3333333 35,15 35,21 C35,27.4264045 29.7753612,32.7597378 19.3260837,37 C9.10869457,33.2798459 4,27.9465126 4,21 C4,15 4,10.3333333 4,7 Z" id="Rectangle" stroke="#ED2324" stroke-width="3"></path>
            <path d="M11.528,17 C11.648,17 11.726,16.922 11.726,16.796 L11.726,15.716 L12.506,15.716 C13.358,15.716 13.97,15.14 13.97,14.228 C13.97,13.4 13.358,12.8 12.506,12.8 L11.24,12.8 C10.976,12.8 10.76,13.016 10.76,13.28 L10.76,16.796 C10.76,16.922 10.838,17 10.964,17 L11.528,17 Z M12.44,14.852 L11.726,14.852 L11.726,13.682 L12.44,13.682 C12.764,13.682 13.022,13.94 13.022,14.264 C13.022,14.588 12.764,14.852 12.44,14.852 Z M16.226,17.06 C17.204,17.06 17.978,16.412 17.978,15.308 L17.978,15.308 L17.978,13.28 C17.978,13.016 17.756,12.8 17.492,12.8 C17.228,12.8 17.012,13.016 17.012,13.28 L17.012,13.28 L17.012,15.224 C17.012,15.824 16.682,16.148 16.226,16.148 C15.782,16.148 15.434,15.836 15.434,15.224 L15.434,15.224 L15.434,13.28 C15.434,13.016 15.212,12.8 14.948,12.8 C14.684,12.8 14.468,13.016 14.468,13.28 L14.468,13.28 L14.468,15.308 C14.468,16.388 15.224,17.06 16.226,17.06 Z M21.332,17 C21.614,17 21.806,16.802 21.806,16.562 C21.806,16.322 21.614,16.13 21.332,16.13 L19.892,16.13 L19.892,13.28 C19.892,13.016 19.67,12.8 19.406,12.8 C19.142,12.8 18.926,13.016 18.926,13.28 L18.926,16.634 C18.926,16.862 19.112,17 19.328,17 L21.332,17 Z M23.738,17.06 C24.884,17.06 25.436,16.436 25.424,15.71 C25.418,15.344 25.214,14.912 24.476,14.654 L24.476,14.654 L23.864,14.438 C23.534,14.324 23.372,14.204 23.372,14.006 C23.372,13.838 23.498,13.694 23.744,13.694 C23.918,13.694 24.146,13.754 24.314,13.808 C24.512,13.874 24.68,13.97 24.92,13.97 C25.16,13.97 25.352,13.778 25.352,13.532 C25.352,13.364 25.262,13.22 25.082,13.106 C24.782,12.914 24.278,12.806 23.876,12.806 C22.82,12.806 22.25,13.37 22.268,14.132 C22.274,14.57 22.586,14.984 23.306,15.236 L23.306,15.236 L23.816,15.416 C24.17,15.542 24.344,15.632 24.344,15.854 C24.344,16.046 24.212,16.172 23.948,16.172 C23.75,16.172 23.48,16.112 23.264,16.058 C22.946,15.98 22.7,15.848 22.514,15.848 C22.274,15.848 22.082,16.04 22.082,16.286 C22.082,16.46 22.184,16.622 22.436,16.754 C22.796,16.94 23.348,17.06 23.738,17.06 Z M26.372,17 C26.504,17 26.612,16.94 26.666,16.814 C26.756,16.598 26.846,16.394 26.93,16.19 L28.508,16.19 C28.598,16.412 28.688,16.616 28.772,16.814 C28.826,16.94 28.934,17 29.042,17 L29.588,17 C29.696,17 29.822,16.934 29.762,16.79 L28.148,13.01 C28.07,12.824 27.89,12.728 27.722,12.728 C27.512,12.728 27.356,12.866 27.296,13.01 L25.676,16.79 C25.616,16.934 25.742,17 25.85,17 L26.372,17 Z M28.19,15.392 L27.254,15.392 C27.416,14.99 27.566,14.594 27.722,14.156 C27.872,14.576 28.034,14.996 28.19,15.392 Z M14.303,24.06 C15.449,24.06 16.001,23.436 15.989,22.71 C15.983,22.344 15.779,21.912 15.041,21.654 L15.041,21.654 L14.429,21.438 C14.099,21.324 13.937,21.204 13.937,21.006 C13.937,20.838 14.063,20.694 14.309,20.694 C14.483,20.694 14.711,20.754 14.879,20.808 C15.077,20.874 15.245,20.97 15.485,20.97 C15.725,20.97 15.917,20.778 15.917,20.532 C15.917,20.364 15.827,20.22 15.647,20.106 C15.347,19.914 14.843,19.806 14.441,19.806 C13.385,19.806 12.815,20.37 12.833,21.132 C12.839,21.57 13.151,21.984 13.871,22.236 L13.871,22.236 L14.381,22.416 C14.735,22.542 14.909,22.632 14.909,22.854 C14.909,23.046 14.777,23.172 14.513,23.172 C14.315,23.172 14.045,23.112 13.829,23.058 C13.511,22.98 13.265,22.848 13.079,22.848 C12.839,22.848 12.647,23.04 12.647,23.286 C12.647,23.46 12.749,23.622 13.001,23.754 C13.361,23.94 13.913,24.06 14.303,24.06 Z M16.937,24 C17.069,24 17.177,23.94 17.231,23.814 C17.321,23.598 17.411,23.394 17.495,23.19 L19.073,23.19 C19.163,23.412 19.253,23.616 19.337,23.814 C19.391,23.94 19.499,24 19.607,24 L20.153,24 C20.261,24 20.387,23.934 20.327,23.79 L18.713,20.01 C18.635,19.824 18.455,19.728 18.287,19.728 C18.077,19.728 17.921,19.866 17.861,20.01 L16.241,23.79 C16.181,23.934 16.307,24 16.415,24 L16.937,24 Z M18.755,22.392 L17.819,22.392 C17.981,21.99 18.131,21.594 18.287,21.156 C18.437,21.576 18.599,21.996 18.755,22.392 Z M21.653,24 C21.773,24 21.851,23.922 21.851,23.796 L21.851,22.47 L23.141,22.47 C23.405,22.47 23.621,22.284 23.621,22.02 C23.621,21.756 23.405,21.57 23.141,21.57 L21.851,21.57 L21.851,20.76 L23.411,20.76 C23.675,20.76 23.891,20.574 23.891,20.31 C23.891,20.046 23.675,19.86 23.411,19.86 L21.359,19.86 C21.101,19.86 20.885,20.016 20.885,20.328 L20.885,23.796 C20.885,23.922 20.963,24 21.089,24 L21.653,24 Z M26.933,24 C27.197,24 27.413,23.814 27.413,23.55 C27.413,23.286 27.197,23.1 26.933,23.1 L25.373,23.1 L25.373,22.386 L26.663,22.386 C26.927,22.386 27.143,22.2 27.143,21.936 C27.143,21.672 26.927,21.486 26.663,21.486 L25.373,21.486 L25.373,20.76 L26.933,20.76 C27.197,20.76 27.413,20.574 27.413,20.31 C27.413,20.046 27.197,19.86 26.933,19.86 L24.881,19.86 C24.623,19.86 24.407,20.016 24.407,20.328 L24.407,23.634 C24.407,23.862 24.593,24 24.809,24 L26.933,24 Z" id="PULSASAFE" fill="#ED2324" fill-rule="nonzero"></path>
        </g>
    </g>
</svg>