<svg width="130" height="129" viewBox="0 0 130 129" fill="none" xmlns="http://www.w3.org/2000/svg">
<g clip-path="url(#clip0_141_15747)">
<circle cx="65" cy="64.5" r="64.5" fill="#F9F9F9"/>
<circle cx="55.375" cy="54.875" r="15.125" fill="#ED1C24"/>
<path fill-rule="evenodd" clip-rule="evenodd" d="M59.5 81C47.3497 81 37.5 71.1503 37.5 59C37.5 46.8497 47.3497 37 59.5 37C71.6503 37 81.5 46.8497 81.5 59C81.5 64.084 79.7755 68.7652 76.8795 72.4906L91.6945 87.3057L87.8055 91.1948L72.9904 76.3797C69.265 79.2756 64.5839 81 59.5 81ZM76 59C76 68.1127 68.6127 75.5 59.5 75.5C50.3873 75.5 43 68.1127 43 59C43 49.8873 50.3873 42.5 59.5 42.5C68.6127 42.5 76 49.8873 76 59Z" fill="#211E20"/>
</g>
<defs>
<clipPath id="clip0_141_15747">
<rect width="129" height="129" fill="white" transform="translate(0.5)"/>
</clipPath>
</defs>
</svg>
