<svg id="speed-booster" xmlns="http://www.w3.org/2000/svg" width="40" height="34.143" viewBox="0 0 40 34.143">
  <g id="Group_23" data-name="Group 23">
    <path id="Path_20" data-name="Path 20" d="M20,0A20,20,0,0,1,34.142,34.142l-2.121-2.121a17,17,0,1,0-24.041,0L5.86,34.143A20,20,0,0,1,20,0Z" fill="#ed2324"/>
    <path id="Path_21" data-name="Path 21" d="M17.5,18h16a1.5,1.5,0,0,1,0,3h-16a1.5,1.5,0,0,1,0-3Z" transform="matrix(0.643, -0.766, 0.766, 0.643, -5.829, 26.5)" fill="#ed2324"/>
    <circle id="Ellipse_1" data-name="Ellipse 1" cx="6.5" cy="6.5" r="6.5" transform="translate(13 21)" fill="#ed2324"/>
    <circle id="Ellipse_2" data-name="Ellipse 2" cx="1.5" cy="1.5" r="1.5" transform="translate(5 20)" fill="#ed2324"/>
    <circle id="Ellipse_3" data-name="Ellipse 3" cx="1.5" cy="1.5" r="1.5" transform="translate(32 20)" fill="#ed2324"/>
    <circle id="Ellipse_4" data-name="Ellipse 4" cx="1.5" cy="1.5" r="1.5" transform="translate(7 12)" fill="#ed2324"/>
    <circle id="Ellipse_5" data-name="Ellipse 5" cx="1.5" cy="1.5" r="1.5" transform="translate(14 6)" fill="#ed2324"/>
    <circle id="Ellipse_6" data-name="Ellipse 6" cx="1.5" cy="1.5" r="1.5" transform="translate(23 6)" fill="#ed2324"/>
  </g>
</svg>
