<svg id="streaming-app" xmlns="http://www.w3.org/2000/svg" width="18" height="18" viewBox="0 0 18 18">
  <g id="Group_31" data-name="Group 31">
    <g id="Group_30" data-name="Group 30">
      <g id="Group_29" data-name="Group 29">
        <g id="Group_28" data-name="Group 28">
          <g id="Group_27" data-name="Group 27">
            <g id="Group_26" data-name="Group 26">
              <g id="Group_25" data-name="Group 25">
                <g id="Group_24" data-name="Group 24">
                  <path id="Path_22" data-name="Path 22" d="M9,0A9,9,0,1,1,0,9,9,9,0,0,1,9,0ZM9,1.35A7.65,7.65,0,1,0,16.65,9,7.65,7.65,0,0,0,9,1.35Z" fill="#ed2324"/>
                  <path id="Path_23" data-name="Path 23" d="M11.558,9.77,7.892,12a.9.9,0,0,1-1.367-.769V6.774a.9.9,0,0,1,1.367-.769l3.666,2.226a.9.9,0,0,1,0,1.538Z" fill="#ed2324" fill-rule="evenodd"/>
                </g>
              </g>
            </g>
          </g>
        </g>
      </g>
    </g>
  </g>
</svg>
