<svg xmlns="http://www.w3.org/2000/svg" width="50" height="50" viewBox="0 0 50 50">
    <g fill="none" fill-rule="evenodd">
        <g>
            <path d="M15 15H35V35H15z"/>
            <g>
                <g>
                    <g>
                        <g>
                            <path d="M0 0H20.8V20.8H0z" transform="translate(13 13) translate(.6 .6) translate(.4 .4) translate(.6 .6)"/>
                            <g fill="#AAA">
                                <path fill-rule="nonzero" d="M9.244 20.8c-1.276 0-2.31-1.04-2.31-2.311s1.04-2.311 2.31-2.311c1.272 0 2.312 1.04 2.312 2.31 0 1.272-1.035 2.312-2.312 2.312zm0-2.773c-.254 0-.462.208-.462.462s.208.462.462.462c.255 0 .463-.208.463-.462s-.203-.462-.463-.462zM15.022 20.8c-1.277 0-2.31-1.04-2.31-2.311s1.04-2.311 2.31-2.311c1.271 0 2.311 1.04 2.311 2.31 0 1.272-1.034 2.312-2.31 2.312zm0-2.773c-.254 0-.462.208-.462.462s.208.462.462.462.462-.208.462-.462-.208-.462-.462-.462z" transform="translate(13 13) translate(.6 .6) translate(.4 .4) translate(.6 .6)"/>
                                <path d="M17.702 15.022H6.319c-.475 0-.891-.336-1.008-.807L2.33 2.154H1.04C.47 2.154 0 1.669 0 1.077S.469 0 1.041 0h2.096c.475 0 .892.337 1.009.808l2.98 12.054h9.736l1.595-7.464H7.322c-.573 0-1.042-.485-1.042-1.077s.469-1.077 1.042-1.077h12.437c.312 0 .611.148.813.404.195.256.273.585.202.908l-2.057 9.618c-.104.492-.527.848-1.015.848z" transform="translate(13 13) translate(.6 .6) translate(.4 .4) translate(.6 .6)"/>
                                <path fill-rule="nonzero" d="M9.317 11.88c-.548 0-.997-.52-.997-1.156 0-.636.449-1.156.997-1.156h4.94c.548 0 .996.52.996 1.156 0 .635-.448 1.155-.996 1.155h-4.94zM8.66 8.551c-.569 0-1.033-.52-1.033-1.155 0-.636.464-1.156 1.033-1.156h7.178c.568 0 1.033.52 1.033 1.156 0 .635-.465 1.155-1.033 1.155H8.66z" transform="translate(13 13) translate(.6 .6) translate(.4 .4) translate(.6 .6)"/>
                            </g>
                        </g>
                    </g>
                </g>
            </g>
        </g>
    </g>
</svg>
