<svg xmlns="http://www.w3.org/2000/svg" width="50" height="50" viewBox="0 0 50 50">
    <g fill="none" fill-rule="evenodd">
        <g>
            <path d="M15 15H35V35H15z"/>
            <g fill="#AAA" fill-rule="nonzero">
                <path d="M20.398 7.505L11.042.22c-.377-.293-.905-.293-1.282 0L.404 7.505c-.22.17-.362.42-.396.696-.034.275.043.553.214.771.17.218.42.36.694.394.275.034.552-.042.77-.212l.404-.315v10.918c0 .576.467 1.043 1.044 1.043h4.154c.576 0 1.043-.467 1.043-1.043v-6.21-.034c-.006-1.128.891-2.055 2.02-2.086 1.128-.031 2.075.844 2.131 1.972-.005.038-.007.077-.007.116v6.242c0 .576.467 1.043 1.043 1.043h4.145c.576 0 1.043-.467 1.043-1.043V8.833l.408.318c.455.355 1.11.274 1.465-.18.355-.455.274-1.111-.181-1.466zm-3.763-.382V18.72h-2.063v-5.153c.007-.046.01-.093.01-.14-.018-2.314-1.86-4.184-4.138-4.202-2.278-.018-4.149 1.823-4.203 4.135 0 .023-.003.045-.003.067v5.291H4.165V7.124c0-.036 0-.072-.005-.106l6.244-4.938 6.236 4.933c-.004.037-.005.074-.005.111z" transform="translate(13.6 14.6)"/>
            </g>
        </g>
    </g>
</svg>
