<?xml version="1.0" encoding="UTF-8"?>
<svg width="32px" height="32px" viewBox="0 0 32 32" version="1.1" xmlns="http://www.w3.org/2000/svg" xmlns:xlink="http://www.w3.org/1999/xlink">
    <title>cat_icon/ico_interest_cat_sports</title>
    <defs>
        <rect id="path-1" x="8" y="8" width="16" height="16"></rect>
        <circle id="path-3" cx="7" cy="7" r="7"></circle>
    </defs>
    <g id="cat_icon/ico_interest_cat_sports" stroke="none" stroke-width="1" fill="none" fill-rule="evenodd">
        <mask id="mask-2" fill="white">
            <use xlink:href="#path-1"></use>
        </mask>
        <g id="Rectangle"></g>
        <g id="soccer-ball" mask="url(#mask-2)">
            <g transform="translate(9.000000, 9.000000)">
                <mask id="mask-4" fill="white">
                    <use xlink:href="#path-3"></use>
                </mask>
                <use id="Oval" stroke="none" fill="#FFD600" fill-rule="nonzero" xlink:href="#path-3"></use>
                <circle id="Oval" stroke="none" fill="#ED2324" fill-rule="nonzero" mask="url(#mask-4)" cx="7" cy="7" r="7"></circle>
                <path d="M7.7,4.41948979 C7.58671484,4.41948979 7.49492187,4.31863571 7.49492187,4.1941679 L7.49492187,1.33534142 C7.49492187,1.21087361 7.58671484,1.11001953 7.7,1.11001953 C7.81328516,1.11001953 7.90507812,1.21087361 7.90507812,1.33534142 L7.90507812,4.1941679 C7.90507812,4.31863571 7.81328516,4.41948979 7.7,4.41948979 Z" id="Path" stroke="none" fill="#ED2324" fill-rule="nonzero" mask="url(#mask-4)"></path>
                <path d="M4.77188086,5.45592578 C4.7472168,5.45592578 4.72214258,5.45144141 4.69775195,5.44198047 L1.76152295,4.11581642 C1.65594873,4.07485548 1.60355811,3.95604689 1.64451905,3.85044533 C1.68547998,3.74484376 1.80428858,3.69245314 1.90989014,3.73344142 L4.84611914,5.05960547 C4.95169336,5.10056641 5.00408398,5.219375 4.96312305,5.32497656 C4.93162305,5.4061875 4.85404883,5.45592578 4.77188086,5.45592578 Z" id="Path" stroke="none" fill="#ED2324" fill-rule="nonzero" mask="url(#mask-4)"></path>
                <path d="M4.12939844,11.1047617 C4.08578516,11.1047617 4.04184375,11.0909258 4.00460156,11.0622969 C3.91480469,10.9932539 3.89796094,10.8645469 3.96694922,10.7746953 L5.63404297,8.60526953 C5.70305859,8.5155 5.83179297,8.49860156 5.92164453,8.56761719 C6.01144141,8.63663281 6.02828516,8.76536719 5.95929688,8.85521875 L4.29220313,11.0246445 C4.25178906,11.0771992 4.19094922,11.1047617 4.12939844,11.1047617 Z" id="Path" stroke="none" fill="#ED2324" fill-rule="nonzero" mask="url(#mask-4)"></path>
                <path d="M10.6235926,5.46987109 C10.5413973,5.46987109 10.4638504,5.42013281 10.4323504,5.33892187 C10.3913895,5.23332031 10.4437801,5.11451172 10.5493543,5.07355659 L12.8367068,4.69117578 C12.942363,4.65021484 13.0611169,4.70263281 13.1020779,4.80817969 C13.1430388,4.91378125 13.0906482,5.03258984 12.985074,5.07355659 L10.6977215,5.45592578 C10.6733309,5.46538672 10.6482293,5.46987109 10.6235926,5.46987109 Z" id="Path" stroke="none" fill="#ED2324" fill-rule="nonzero" mask="url(#mask-4)"></path>
                <path d="M11.2706016,11.1047617 C11.2090508,11.1047617 11.1482109,11.0771992 11.1078242,11.0246445 L9.44073047,8.85521875 C9.37174219,8.76539453 9.38858594,8.63666016 9.47838281,8.56761719 C9.56826172,8.49857422 9.69696875,8.5155 9.76598438,8.60526953 L11.4330781,10.7746953 C11.5020664,10.8645195 11.4852227,10.9932539 11.3954258,11.0622969 C11.3581563,11.0909258 11.3141875,11.1047617 11.2706016,11.1047617 Z" id="Path" stroke="none" fill="#ED2324" fill-rule="nonzero" mask="url(#mask-4)"></path>
                <path d="M8.52289935,3.39787138 L10.2057985,4.62056914 C10.6964808,4.97707075 10.9018022,5.608985 10.7143782,6.18581673 L10.071568,8.16418327 C9.88414398,8.741015 9.34660561,9.13155948 8.74008884,9.13155948 L6.65991116,9.13155948 C6.05339439,9.13155948 5.51585602,8.741015 5.32843203,8.16418327 L4.68562178,6.18581673 C4.49819779,5.608985 4.70351917,4.97707075 5.19420155,4.62056914 L6.87710065,3.39787138 C7.36778302,3.04136977 8.03221698,3.04136977 8.52289935,3.39787138 Z" id="Polygon" stroke="none" fill="#FFFFFF" fill-rule="evenodd" mask="url(#mask-4)"></path>
                <path d="M0.822899353,0.597871376 L2.50579845,1.82056914 C2.99648083,2.17707075 3.20180221,2.808985 3.01437822,3.38581673 L2.37156797,5.36418327 C2.18414398,5.941015 1.64660561,6.33155948 1.04008884,6.33155948 L-1.04008884,6.33155948 C-1.64660561,6.33155948 -2.18414398,5.941015 -2.37156797,5.36418327 L-3.01437822,3.38581673 C-3.20180221,2.808985 -2.99648083,2.17707075 -2.50579845,1.82056914 L-0.822899353,0.597871376 C-0.332216982,0.241369766 0.332216982,0.241369766 0.822899353,0.597871376 Z" id="Polygon-Copy" stroke="none" fill="#FFA1A2" fill-rule="evenodd" mask="url(#mask-4)" transform="translate(0.000000, 3.500000) rotate(41.000000) translate(-0.000000, -3.500000) "></path>
                <path d="M8.52289935,-5.00212862 L10.2057985,-3.77943086 C10.6964808,-3.42292925 10.9018022,-2.791015 10.7143782,-2.21418327 L10.071568,-0.235816728 C9.88414398,0.341014995 9.34660561,0.73155948 8.74008884,0.73155948 L6.65991116,0.73155948 C6.05339439,0.73155948 5.51585602,0.341014995 5.32843203,-0.235816728 L4.68562178,-2.21418327 C4.49819779,-2.791015 4.70351917,-3.42292925 5.19420155,-3.77943086 L6.87710065,-5.00212862 C7.36778302,-5.35863023 8.03221698,-5.35863023 8.52289935,-5.00212862 Z" id="Polygon-Copy-2" stroke="none" fill="#FFA1A2" fill-rule="evenodd" mask="url(#mask-4)" transform="translate(7.700000, -2.100000) rotate(37.000000) translate(-7.700000, 2.100000) "></path>
                <path d="M16.2228994,1.29787138 L17.9057985,2.52056914 C18.3964808,2.87707075 18.6018022,3.508985 18.4143782,4.08581673 L17.771568,6.06418327 C17.584144,6.641015 17.0466056,7.03155948 16.4400888,7.03155948 L14.3599112,7.03155948 C13.7533944,7.03155948 13.215856,6.641015 13.028432,6.06418327 L12.3856218,4.08581673 C12.1981978,3.508985 12.4035192,2.87707075 12.8942015,2.52056914 L14.5771006,1.29787138 C15.067783,0.941369766 15.732217,0.941369766 16.2228994,1.29787138 Z" id="Polygon-Copy-3" stroke="none" fill="#FFA1A2" fill-rule="evenodd" mask="url(#mask-4)" transform="translate(15.400000, 4.200000) rotate(37.000000) translate(-15.400000, -4.200000) "></path>
                <path d="M13.4228994,10.3978714 L15.1057985,11.6205691 C15.5964808,11.9770708 15.8018022,12.608985 15.6143782,13.1858167 L14.971568,15.1641833 C14.784144,15.741015 14.2466056,16.1315595 13.6400888,16.1315595 L11.5599112,16.1315595 C10.9533944,16.1315595 10.415856,15.741015 10.228432,15.1641833 L9.58562178,13.1858167 C9.39819779,12.608985 9.60351917,11.9770708 10.0942015,11.6205691 L11.7771006,10.3978714 C12.267783,10.0413698 12.932217,10.0413698 13.4228994,10.3978714 Z" id="Polygon-Copy-4" stroke="none" fill="#FFA1A2" fill-rule="evenodd" mask="url(#mask-4)" transform="translate(12.600000, 13.300000) rotate(37.000000) translate(-12.600000, -13.300000) "></path>
                <path d="M3.62289935,9.69787138 L5.30579845,10.9205691 C5.79648083,11.2770708 6.00180221,11.908985 5.81437822,12.4858167 L5.17156797,14.4641833 C4.98414398,15.041015 4.44660561,15.4315595 3.84008884,15.4315595 L1.75991116,15.4315595 C1.15339439,15.4315595 0.615856022,15.041015 0.428432033,14.4641833 L-0.214378223,12.4858167 C-0.401802212,11.908985 -0.196480825,11.2770708 0.294201546,10.9205691 L1.97710065,9.69787138 C2.46778302,9.34136977 3.13221698,9.34136977 3.62289935,9.69787138 Z" id="Polygon-Copy-5" stroke="none" fill="#FFA1A2" fill-rule="evenodd" mask="url(#mask-4)" transform="translate(2.800000, 12.600000) rotate(37.000000) translate(-2.800000, -12.600000) "></path>
                <g id="Group" stroke="none" stroke-width="1" fill="none" fill-rule="evenodd" mask="url(#mask-4)">
                    <g transform="translate(3.449219, 8.093750)"></g>
                </g>
                <g id="Group" stroke="none" stroke-width="1" fill="none" fill-rule="evenodd" mask="url(#mask-4)">
                    <g transform="translate(8.695312, 7.730469)"></g>
                </g>
            </g>
        </g>
    </g>
</svg>