<?xml version="1.0" encoding="UTF-8"?>
<svg width="32px" height="32px" viewBox="0 0 32 32" version="1.1" xmlns="http://www.w3.org/2000/svg" xmlns:xlink="http://www.w3.org/1999/xlink">
    <title>cat_icon/ico_interest_cat_fashion</title>
    <defs>
        <rect id="path-1" x="8" y="8" width="16" height="16"></rect>
    </defs>
    <g id="cat_icon/ico_interest_cat_fashion" stroke="none" stroke-width="1" fill="none" fill-rule="evenodd">
        <mask id="mask-2" fill="white">
            <use xlink:href="#path-1"></use>
        </mask>
        <g id="Rectangle"></g>
        <g id="tshirt" mask="url(#mask-2)" fill-rule="nonzero">
            <g transform="translate(9.000000, 9.000000)" id="Path">
                <path d="M11.5669331,6.59129006 L3.29057606,6.59129006 L1.35198266,5.88312032 C0.833226953,5.69361844 0.56631399,5.11946222 0.75581587,4.60070651 C0.789975749,4.50719487 0.837908126,4.41930848 0.89802731,4.33995479 L2.85358965,1.75873054 C2.9299886,1.65788855 3.0248291,1.57245962 3.1330785,1.50697701 L5.47034483,0.0931095335 L5.47034483,0.0931095335 C5.66745233,-0.0223874239 5.91695335,-0.0314320487 6.12152941,0.0722778905 C7.0841217,0.560318458 7.96490061,0.566726166 8.76636511,0.106320487 C8.97582556,-0.0140020284 9.24176876,-0.00965111562 9.44935497,0.113387424 L11.7406131,1.5153006 C11.8380717,1.57493091 11.9245905,1.65082186 11.9964131,1.7396783 L13.9892858,4.20519368 C14.3364644,4.6347114 14.2697153,5.26434816 13.8401976,5.61152675 C13.7649714,5.67233198 13.6813211,5.72190114 13.5918606,5.75868529 L11.5669331,6.59129006 L11.5669331,6.59129006 Z" fill="#ED2324"></path>
                <path d="M9.26766734,0.53996146 C9.14592698,0.467815416 9.18582556,0.0099148073 9.04713185,0.0205943205 C8.94930223,0.0281359026 8.85297769,0.0565618661 8.76636511,0.106346856 C7.96490061,0.566752535 7.0841217,0.560371197 6.12152941,0.0723042596 C6.02301826,0.0223610548 5.9140568,-0.00145030426 5.8055497,0.000129719025 C5.6887789,0.0020040568 5.65120892,0.364079108 5.54903448,0.423963489 L5.06434483,0.33103854 L3.07594726,1.49626572 L3.31031237,4.25208114 L3.31031237,6.59129006 L2.49445452,11.7181706 C2.40765968,12.2635926 2.77945041,12.7761055 3.32487235,12.8629004 C3.37684905,12.8711716 3.42939762,12.8753266 3.48202831,12.8753266 L11.3755092,12.8753266 C11.927794,12.8753266 12.3755092,12.4276113 12.3755092,11.8753266 C12.3755092,11.8226959 12.3713542,11.7701473 12.363083,11.7181706 L11.5472252,6.59129006 L11.5472252,6.59129006 L11.5472252,4.25208114 L11.782499,1.49631846 L9.79520892,0.318381339 L9.26766734,0.53996146 Z" fill="#ED2324"></path>
                <path d="M5.8055497,7.91075051e-05 C5.9140284,-0.0015030426 6.02307505,0.0224929006 6.1216146,0.0723306288 C7.08400811,0.560423935 7.96490061,0.566752535 8.76627992,0.106346856 C8.85289249,0.0565091278 8.94916024,0.028030426 9.04713185,0.0206470588 L9.05082353,0.0588823529 C9.02129006,0.867097363 8.30652333,1.51393306 7.42875456,1.51393306 C6.98660446,1.51393306 6.58563083,1.34965314 6.29285193,1.08332454 C6.000357,0.816995943 5.81577282,0.448618661 5.80611765,0.0401602434 L5.8055497,7.91075051e-05 Z" fill="#ED2324"></path>
                <path d="M9.44924138,0.113466531 L9.79512373,0.31835497 C9.63155375,1.39500811 8.63252738,2.22590061 7.42875456,2.22590061 C6.22952535,2.22590061 5.23390669,1.40133671 5.06437323,0.33101217 L5.47045842,0.0931622718 C5.57268966,0.0333042596 5.6888357,0.00192494929 5.8055497,7.91075051e-05 L5.80611765,0.0401602434 C5.81577282,0.448618661 6.000357,0.816995943 6.29285193,1.08332454 C6.58563083,1.34965314 6.98660446,1.51393306 7.42875456,1.51393306 C8.30652333,1.51393306 9.02129006,0.867097363 9.05082353,0.0588823529 L9.04713185,0.0206470588 C9.18571197,0.0098356998 9.32741582,0.0412150101 9.44924138,0.113466531 L9.44924138,0.113466531 Z" fill="#FFD600"></path>
            </g>
        </g>
    </g>
</svg>