<?xml version="1.0" encoding="UTF-8"?>
<svg width="32px" height="32px" viewBox="0 0 32 32" version="1.1" xmlns="http://www.w3.org/2000/svg" xmlns:xlink="http://www.w3.org/1999/xlink">
    <title>cat_icon/ico_interest_cat_games</title>
    <defs>
        <rect id="path-1" x="0" y="0" width="16" height="16"></rect>
        <path d="M15.6364824,6.72760267 C15.2156236,4.16677118 14.7628447,2.99168252 13.9220527,1.52697398 C13.6635977,1.07726428 12.9040208,-0.0416797573 11.7093045,0.00119862055 C10.4312308,0.0468407981 10.2939241,0.728235868 9.33507801,0.909909633 C8.92133315,0.988269935 8.22001643,0.982716013 7.92279185,0.980241755 L7.92279185,0.979636351 C7.90946316,0.979636351 7.89335766,0.979925892 7.87508359,0.979925892 C7.85678309,0.979925892 7.84036023,0.979636351 7.82734889,0.979636351 L7.82734889,0.980241755 C7.53015076,0.982716013 6.82912494,0.988269935 6.41540652,0.909909633 C5.45621661,0.728235868 5.31893636,0.0468407981 4.04054539,0.00119862055 C2.84646369,-0.0416797573 2.08625214,1.07726428 1.82808803,1.52697398 C0.987296059,2.99168252 0.534517164,4.16677118 0.113341025,6.72760267 C-0.211440098,8.70561462 0.197042047,10.7590125 0.889975439,11.1809789 C1.71466191,11.683464 2.69056558,11.2981903 3.35594243,10.4540996 C3.83662166,9.84411583 4.64208202,9.02763676 5.41035956,8.6815564 C6.15258796,8.34779469 7.32249817,8.31957761 7.87508359,8.31802462 C8.42795992,8.31957761 9.59755278,8.34779469 10.3394903,8.6815564 C11.1080852,9.02763676 11.9135455,9.84411583 12.3941983,10.4540996 C13.0596016,11.2981903 14.0351879,11.683464 14.859848,11.1809789 C15.5531251,10.7590125 15.9615808,8.70561462 15.6364824,6.72760267 L15.6364824,6.72760267 Z" id="path-3"></path>
    </defs>
    <g id="cat_icon/ico_interest_cat_games" stroke="none" stroke-width="1" fill="none" fill-rule="evenodd">
        <g id="Group-3" transform="translate(8.000000, 8.000000)">
            <mask id="mask-2" fill="white">
                <use xlink:href="#path-1"></use>
            </mask>
            <g id="Rectangle"></g>
            <g id="Fill-2" mask="url(#mask-2)">
                <g transform="translate(0.000000, 2.000000)">
                    <mask id="mask-4" fill="white">
                        <use xlink:href="#path-3"></use>
                    </mask>
                    <use id="Fill-1" stroke="none" fill="#D62425" fill-rule="evenodd" xlink:href="#path-3"></use>
                    <ellipse id="Oval" stroke="none" fill="#ED2324" fill-rule="evenodd" mask="url(#mask-4)" cx="8" cy="2" rx="12" ry="9"></ellipse>
                </g>
            </g>
            <path d="M13.2486363,7.15831721 C12.8978061,7.15831721 12.613011,6.87483033 12.613011,6.52567031 C12.613011,6.17603648 12.8978061,5.8930234 13.2486363,5.8930234 C13.6000748,5.8930234 13.8842616,6.17603648 13.8842616,6.52567031 C13.8842616,6.87483033 13.6000748,7.15831721 13.2486363,7.15831721 L13.2486363,7.15831721 Z" id="Path" fill="#FFD600" mask="url(#mask-2)"></path>
            <path d="M12.0511431,8.35035718 C11.7006302,8.35035718 11.4155178,8.06702823 11.4155178,7.71739441 C11.4155178,7.36836599 11.7006302,7.0847475 12.0511431,7.0847475 C12.4025816,7.0847475 12.6870858,7.36836599 12.6870858,7.71739441 C12.6870858,8.06702823 12.4025816,8.35035718 12.0511431,8.35035718 L12.0511431,8.35035718 Z" id="Path" fill="#FFD600" mask="url(#mask-2)"></path>
            <path d="M10.8539408,7.15831721 C10.503137,7.15831721 10.2183155,6.87483033 10.2183155,6.52567031 C10.2183155,6.17603648 10.503137,5.8930234 10.8539408,5.8930234 C11.2050884,5.8930234 11.4895661,6.17603648 11.4895661,6.52567031 C11.4895661,6.87483033 11.2050884,7.15831721 10.8539408,7.15831721 L10.8539408,7.15831721 Z" id="Path" fill="#FFD600" mask="url(#mask-2)"></path>
            <path d="M12.0511431,4.70111504 C12.4025816,4.70111504 12.6870858,4.98460193 12.6870858,5.33407781 C12.6870858,5.68358003 12.4025816,5.96672472 12.0511431,5.96672472 C11.7006302,5.96672472 11.4155178,5.68358003 11.4155178,5.33407781 C11.4155178,4.98460193 11.7006302,4.70111504 12.0511431,4.70111504 L12.0511431,4.70111504 Z" id="Path" fill="#FFD600" mask="url(#mask-2)"></path>
            <path d="M7.87476624,9.57927412 C7.36248425,9.57927412 6.94749644,9.16607291 6.94749644,8.65603342 C6.94749644,8.14630979 7.36248425,7.73297697 7.87476624,7.73297697 C8.38736558,7.73297697 8.80232696,8.14630979 8.80232696,8.65603342 C8.80232696,9.16607291 8.38736558,9.57927412 7.87476624,9.57927412 L7.87476624,9.57927412 Z" id="Path" fill="#FFD600" mask="url(#mask-2)"></path>
            <path d="M5.53214256,6.56854868 C5.53214256,6.89428222 5.26686454,7.15831721 4.93928016,7.15831721 L4.33464936,7.15831721 L4.33464936,7.76027278 C4.33464936,8.08616425 4.06937133,8.35035718 3.74242165,8.35035718 L3.65626117,8.35035718 C3.32867679,8.35035718 3.06339876,8.08616425 3.06339876,7.76027278 L3.06339876,7.15831721 L2.45874152,7.15831721 C2.13118358,7.15831721 1.86590556,6.89428222 1.86590556,6.56854868 L1.86590556,6.48247606 C1.86590556,6.15705839 2.13118358,5.8930234 2.45874152,5.8930234 L3.06339876,5.8930234 L3.06339876,5.29119944 C3.06339876,4.96533429 3.32867679,4.70111504 3.65626117,4.70111504 L3.74242165,4.70111504 C4.06937133,4.70111504 4.33464936,4.96533429 4.33464936,5.29119944 L4.33464936,5.8930234 L4.93928016,5.8930234 C5.26686454,5.8930234 5.53214256,6.15705839 5.53214256,6.48247606 L5.53214256,6.56854868 Z" id="Path" fill="#FFD600" mask="url(#mask-2)"></path>
        </g>
    </g>
</svg>