<?xml version="1.0" encoding="UTF-8"?>
<svg width="32px" height="32px" viewBox="0 0 32 32" version="1.1" xmlns="http://www.w3.org/2000/svg" xmlns:xlink="http://www.w3.org/1999/xlink">
    <title>cat_icon/ico_interest_cat_music</title>
    <defs>
        <rect id="path-1" x="8" y="8" width="16" height="16"></rect>
        <polygon id="path-3" points="0.316715543 0 12.3519062 0 12.3519062 14.568915 0.316715543 14.568915"></polygon>
    </defs>
    <g id="cat_icon/ico_interest_cat_music" stroke="none" stroke-width="1" fill="none" fill-rule="evenodd">
        <mask id="mask-2" fill="white">
            <use xlink:href="#path-1"></use>
        </mask>
        <g id="Rectangle"></g>
        <g id="Group-28" mask="url(#mask-2)">
            <g transform="translate(9.000000, 8.000000)" id="Group-9">
                <g id="Group-3" transform="translate(0.105572, 0.703812)">
                    <mask id="mask-4" fill="white">
                        <use xlink:href="#path-3"></use>
                    </mask>
                    <g id="Clip-2"></g>
                    <path d="M11.09927,7.64320772 C11.090825,7.58181611 11.0840434,7.53238843 11.0772618,7.48296076 C10.8919842,6.13265085 10.6587237,4.43202449 10.4732754,3.08175825 C10.4115588,2.6322808 10.2042304,2.51657114 9.79754931,2.71353955 C8.17265902,3.50058356 6.54819524,4.28863184 4.92548016,5.08043523 C4.67413547,5.20304381 4.46761741,5.38503545 4.39626162,5.67509556 C4.3697751,5.78277104 4.37348577,5.90415702 4.38858437,6.01576226 C4.61587366,7.69608485 4.87800915,9.7289071 5.13216883,11.4049943 C5.29804012,12.499302 4.90897407,13.3253817 4.06413518,13.9473757 C3.36200788,14.4643577 2.56775355,14.6781804 1.7072616,14.5153573 C1.0770872,14.3960672 0.595638224,14.0558808 0.393982415,13.3996542 C0.248839709,12.9273841 0.316996643,12.4638468 0.524751601,12.0265953 C0.910704098,11.2144008 1.55196786,10.6953666 2.37364704,10.402119 C2.79047915,10.253312 3.22066114,10.1769436 3.6647475,10.2429636 C3.74331137,10.2546656 3.82063835,10.2749694 3.91528181,10.2948802 C3.90577054,10.225367 3.89839185,10.1716166 3.89101316,10.1179535 C3.61655142,8.11766099 3.45208763,6.81586182 3.15711056,4.81875674 C3.03337886,3.98097514 3.48987677,3.12585891 4.217339,2.77982153 C6.07237624,1.89750262 7.9249397,1.0099877 9.77946512,0.126664514 C9.98210191,0.0301670237 10.1958281,-0.0197846184 10.42316,0.00733073981 C10.7936727,0.0515187309 11.0779016,0.291845513 11.1805209,0.661330474 C11.2112725,0.772018771 11.2336645,0.886025535 11.2493602,1.0000323 C11.6368055,3.81492086 11.9150633,5.93109772 12.3196971,8.74336644 C12.4490161,9.64175371 12.1878616,10.3695456 11.5554267,10.9642496 C10.7726029,11.7002941 9.84706759,12.0171639 8.78820399,11.816353 C8.21356171,11.7073676 7.75377964,11.4018941 7.51642461,10.8292841 C7.30402065,10.3168432 7.35814528,9.80405288 7.59144842,9.31440453 C7.97275192,8.51399933 8.60868426,8.00561911 9.42375247,7.73699804 C10.0792191,7.52099212 10.301177,7.52426692 11.09927,7.64320772" id="Fill-1" fill="#ED2324" mask="url(#mask-4)"></path>
                </g>
            </g>
        </g>
    </g>
</svg>