<?xml version="1.0" encoding="UTF-8"?>
<svg width="32px" height="32px" viewBox="0 0 32 32" version="1.1" xmlns="http://www.w3.org/2000/svg" xmlns:xlink="http://www.w3.org/1999/xlink">
    <title>cat_icon/ico_interest_cat_movie</title>
    <defs>
        <rect id="path-1" x="8" y="8" width="16" height="16"></rect>
        <path d="M12.47656,0.167912715 L14.3525752,0.167912715 C15.0323103,0.167912715 15.5833445,0.718946869 15.5833445,1.39868195 L15.5833445,11.415426 L15.5833445,11.415426 C15.5833445,11.8519755 15.4336214,12.2307407 15.1341708,12.5517329 C14.8347202,12.8727252 14.4728895,13.033219 14.0486678,13.033219 L1.54666756,13.033219 C1.12244586,13.033219 0.760615145,12.8727252 0.46116454,12.5517329 C0.161713935,12.2307407 0.0119908782,11.8519755 0.0119908782,11.415426 L0.0119908782,1.78570571 C0.0119908782,1.34915621 0.161713935,0.970391006 0.46116454,0.649398727 C0.760615145,0.328406447 1.12244586,0.167912715 1.54666756,0.167912715 L2.35143703,0.167912715 L3.52327654,2.00616419 C3.7492888,2.36070707 4.1406516,2.57534277 4.56110635,2.57534277 L5.05583679,2.57534277 C5.41013464,2.57534277 5.6973498,2.28812762 5.6973498,1.93382976 C5.6973498,1.81165172 5.66246,1.69201434 5.59678411,1.58898932 L5.10336008,0.81496058 C4.9784248,0.618976015 5.03602163,0.35881908 5.23200619,0.233883803 C5.29959061,0.190800424 5.37807272,0.167912715 5.45822152,0.167912715 L5.55932833,0.167912715 C5.97498713,0.167912715 6.36256467,0.37771352 6.58983302,0.72573842 L7.43339452,2.01751707 C7.66066287,2.36554197 8.04824041,2.57534277 8.46389921,2.57534277 L8.96739076,2.57534277 C9.31708997,2.57534277 9.6005772,2.29185555 9.6005772,1.94215633 C9.6005772,1.81919892 9.56477731,1.69890152 9.4975483,1.59595112 L8.99479405,0.826063907 C8.86630506,0.629303698 8.92164981,0.365637125 9.11841002,0.237148133 C9.18759269,0.19197024 9.26843254,0.167912715 9.35105992,0.167912715 L9.4708823,0.167912715 C9.8865411,0.167912715 10.2741186,0.37771352 10.501387,0.72573842 L11.3449485,2.01751707 C11.5722168,2.36554197 11.9597944,2.57534277 12.3754532,2.57534277 L12.8789447,2.57534277 C13.2286439,2.57534277 13.5121312,2.29185555 13.5121312,1.94215633 C13.5121312,1.81919892 13.4763313,1.69890152 13.4091023,1.59595112 L12.47656,0.167912715 L12.47656,0.167912715 Z M9.72259553,7.53594538 L6.92087868,9.15581804 C6.62664943,9.32593299 6.25022409,9.22531847 6.08010914,8.93108922 C6.02597597,8.83746098 5.9974737,8.73121991 5.9974737,8.62306887 L5.9974737,5.25917912 C5.9974737,4.91931158 6.27299078,4.6437945 6.61285832,4.6437945 C6.72781429,4.6437945 6.84047206,4.67599382 6.93806484,4.73674353 L9.73978169,6.48076062 C10.0283149,6.66036722 10.1166174,7.03986952 9.93701076,7.32840272 C9.88364888,7.41412715 9.81001227,7.48540351 9.72259553,7.53594538 Z" id="path-3"></path>
    </defs>
    <g id="cat_icon/ico_interest_cat_movie" stroke="none" stroke-width="1" fill="none" fill-rule="evenodd">
        <mask id="mask-2" fill="white">
            <use xlink:href="#path-1"></use>
        </mask>
        <g id="Rectangle"></g>
        <g id="icon/VAS/movie" mask="url(#mask-2)">
            <g transform="translate(20.000000, 16.000000) rotate(13.000000) translate(-20.000000, -16.000000) translate(8.000000, 4.000000)">
                <g id="Group-5" opacity="0">
                    <g id="Group-6" stroke="#979797" stroke-width="0.6">
                        <rect id="Rectangle" opacity="0.289481027" x="0.3" y="0.3" width="23.4" height="23.4" rx="11.7"></rect>
                        <rect id="Rectangle" fill="#D8D8D8" opacity="0.390345982" x="3.9" y="0.3" width="16.2" height="23.4" rx="1.2"></rect>
                        <rect id="Rectangle" fill="#D8D8D8" opacity="0.296619234" x="2.1" y="2.1" width="19.8" height="19.8" rx="1.2"></rect>
                        <rect id="Rectangle" opacity="0.265927269" transform="translate(12.000000, 12.000000) rotate(90.000000) translate(-12.000000, -12.000000) " x="3.9" y="0.3" width="16.2" height="23.4" rx="1.2"></rect>
                    </g>
                </g>
                <g id="Group" transform="translate(0.000000, 1.250000)"></g>
            </g>
        </g>
        <g id="Group-2" mask="url(#mask-2)">
            <g transform="translate(8.000000, 9.000000)">
                <rect id="Rectangle" fill="#FFFFFF" fill-rule="nonzero" x="1.55963077" y="0.215384615" width="12.9969231" height="3.20990675"></rect>
                <g id="Group-3" stroke-width="1" fill="none" fill-rule="evenodd" transform="translate(0.000000, 0.000000)">
                    <mask id="mask-4" fill="white">
                        <use xlink:href="#path-3"></use>
                    </mask>
                    <use id="movie_filter---material" fill="#ED2324" xlink:href="#path-3"></use>
                </g>
            </g>
        </g>
    </g>
</svg>