<?xml version="1.0" encoding="UTF-8"?>
<svg width="32px" height="32px" viewBox="0 0 32 32" version="1.1" xmlns="http://www.w3.org/2000/svg" xmlns:xlink="http://www.w3.org/1999/xlink">
    <title>cat_icon/ico_interest_cat_kids</title>
    <defs>
        <rect id="path-1" x="8" y="8" width="16" height="16"></rect>
    </defs>
    <g id="cat_icon/ico_interest_cat_kids" stroke="none" stroke-width="1" fill="none" fill-rule="evenodd">
        <mask id="mask-2" fill="white">
            <use xlink:href="#path-1"></use>
        </mask>
        <g id="Rectangle"></g>
        <g id="Group" mask="url(#mask-2)">
            <g transform="translate(10.000000, 9.000000)">
                <circle id="Oval" fill="#ED2324" fill-rule="nonzero" cx="5.52" cy="8.97" r="1"></circle>
                <g id="teddy-bear" stroke-width="1" fill="none" fill-rule="evenodd">
                    <g id="Group" transform="translate(0.000000, 7.590000)" fill-rule="nonzero">
                        <path d="M9.21282,3.52842 L9.20328,0.57324 L2.31672,0.57324 L2.30718,3.52842 C0.75195,3.45054 -0.11985,4.55718 0.01329,5.85204 C0.10641,6.75774 0.7815,7.41735 1.63359,7.66158 C2.54505,7.92282 3.39912,7.67742 4.21965,7.29306 C4.32513,7.24365 4.44672,7.24629 4.55106,7.2981 C4.94799,7.49511 5.4189,7.57947 5.85291,7.57878 L5.85294,7.57407 C6.2406,7.55397 6.62973,7.4679 6.9696,7.29807 C7.07364,7.24608 7.19517,7.24386 7.3005,7.29318 C8.12097,7.67748 8.97498,7.92282 9.88638,7.66161 C10.73847,7.41738 11.41356,6.75777 11.50668,5.85207 C11.63985,4.55718 10.76802,3.45054 9.21282,3.52842 Z" id="Path" fill="#FFD600"></path>
                        <path d="M11.50665,5.85207 C11.4135,6.75765 10.73862,7.41744 9.88638,7.6614 C9.09831,7.88748 8.35311,7.73451 7.63533,7.44057 C8.14242,7.56672 8.66493,7.59078 9.20778,7.43532 C10.06002,7.19103 10.7349,6.53157 10.82805,5.62596 C10.91841,4.74627 10.54521,3.95358 9.80895,3.55998 C10.98663,3.75528 11.6217,4.73334 11.50665,5.85207 L11.50665,5.85207 Z" id="Path" fill="#E2CA49"></path>
                        <path d="M3.17715,0.06942 C2.59884,0.29403 2.05518,0.68463 1.54359,1.0287 C1.01454,1.3845 0.44427,1.79142 0.442737119,2.5005 C0.44136,3.14214 0.936,3.62913 1.55142,3.72762 C2.28327,3.84477 3.3114,3.09627 3.8964,2.7174 L3.8964,0.02829 L3.17715,0.06942 Z" id="Path" fill="#FFD600"></path>
                        <path d="M8.34285,0.06942 C8.92116,0.29403 9.46482,0.68463 9.97641,1.0287 C10.50546,1.3845 11.07573,1.79142 11.0772629,2.5005 C11.07864,3.14214 10.584,3.62913 9.96858,3.72762 C9.23673,3.84477 8.2086,3.09627 7.6236,2.7174 L7.6236,0.09141 L8.34285,0.06942 Z" id="Path" fill="#FFD600"></path>
                        <g transform="translate(2.820000, 3.470000)" fill="#ED2324" id="Path">
                            <path d="M1.23939,2.66674387 C1.23645,2.66674387 1.23354,2.66668387 1.2306,2.66659387 C1.10643,2.66182387 1.00962,2.55727387 1.01439,2.43310387 C1.06518,1.11274387 0.21969,0.913183868 0.18366,0.905353868 C0.06177,0.881143868 -0.01641,0.762913868 0.0078,0.641023868 C0.03198,0.519133868 0.15144,0.440173868 0.2733,0.464353868 C0.30717,0.471103868 0.61293,0.538243868 0.91137,0.820903868 C1.40211,1.28572387 1.48281,1.96357387 1.46409,2.45038387 C1.45938,2.57161387 1.35963,2.66674387 1.23939,2.66674387 Z"></path>
                            <path d="M4.64064,2.66674387 C4.52034,2.66674387 4.42062,2.57161387 4.41597,2.45038387 C4.39725,1.96357387 4.47792,1.28572387 4.96869,0.820903868 C5.2671,0.538273868 5.57286,0.471103868 5.60676,0.464353868 C5.72868,0.440233868 5.84709,0.519343868 5.87127,0.641233868 C5.89536,0.762553868 5.817,0.880453868 5.69607,0.905413868 C5.65572,0.914293868 4.815,1.11637387 4.86561,2.43310387 C4.87038,2.55727387 4.77363,2.66182387 4.64943,2.66659387 C4.64649,2.66668387 4.64352,2.66674387 4.64064,2.66674387 Z"></path>
                        </g>
                        <path d="M6.08076,4.99428 L5.43921,4.99428 C4.88448,4.99428 4.43481,4.54458 4.43481,3.98988 L4.43481,3.3255 C4.43481,2.77077 4.88451,2.3211 5.43921,2.3211 L6.08076,2.3211 C6.63549,2.3211 7.08516,2.7708 7.08516,3.3255 L7.08516,3.98988 C7.08519,4.54461 6.63549,4.99428 6.08076,4.99428 Z" id="Path" fill="#FFE975"></path>
                    </g>
                    <g id="Group" transform="translate(0.360000, 0.000000)">
                        <path d="M1.58394,3.03618 L1.45659,3.03618 C0.65334,3.03618 0.00219,2.38503 0.00219,1.58178 L0.00219,1.4544 C0.00219,0.65115 0.65334,2.13162821e-16 1.45659,2.13162821e-16 L1.58394,2.13162821e-16 C2.38719,2.13162821e-16 3.03834,0.65115 3.03834,1.4544 L3.03834,1.58175 C3.03834,2.385 2.38719,3.03618 1.58394,3.03618 Z" id="Path" fill="#FFD600" fill-rule="nonzero"></path>
                        <path d="M9.34341,3.03618 L9.21606,3.03618 C8.41281,3.03618 7.76166,2.38503 7.76166,1.58178 L7.76166,1.4544 C7.76166,0.65115 8.41281,2.13162821e-16 9.21606,2.13162821e-16 L9.34341,2.13162821e-16 C10.14666,2.13162821e-16 10.79781,0.65115 10.79781,1.4544 L10.79781,1.58175 C10.79781,2.385 10.14666,3.03618 9.34341,3.03618 Z" id="Path" fill="#FFD600" fill-rule="nonzero"></path>
                        <path d="M10.79781,1.49535 L10.79781,1.54068 C10.79781,2.3667 10.12818,3.03603 9.30246,3.03603 L9.25713,3.03603 C8.94498,3.03603 8.65503,2.94042 8.41539,2.77662 C8.47893,2.78496 8.5437,2.78925 8.6094,2.78925 L8.65473,2.78925 C9.48045,2.78925 10.15008,2.11992 10.15008,1.2939 L10.15008,1.2486 C10.15008,0.73503 9.89097,0.28164 9.49617,0.01266 C10.23057,0.10764 10.79781,0.73533 10.79781,1.49535 L10.79781,1.49535 Z" id="Path" fill="#E2CA49" fill-rule="nonzero"></path>
                        <path d="M10.08891,4.29012 C9.79251,2.38035 8.28348,1.15731 6.61917,0.79854 C6.23352,0.71541 5.84046,0.67659 5.44743,0.67341 C4.41192,0.6651 3.35283,0.92496 2.46159,1.50882 C1.52088,2.12511 0.89496,3.10551 0.71109,4.29009 C0.531,5.45043 0.80085,6.72432 1.5948,7.56102 C2.30997,8.31468 3.1959,8.71515 4.1766,8.87637 C5.37093,9.07272 6.7101,9.03387 7.84152,8.51766 C8.3457,8.28762 8.81499,7.9722 9.20517,7.56099 C9.99912,6.72435 10.269,5.45046 10.08891,4.29012 Z" id="Path" fill="#FFD600" fill-rule="nonzero"></path>
                        <path d="M5.7525,7.0663314 C5.93949,6.9182514 6.16218,6.7085214 6.31821,6.4543914 C6.56436,6.0535314 6.34023,5.5225314 5.87868,5.4318114 C5.74776,5.4060714 5.58999,5.3939214 5.40003,5.4029814 C5.21004,5.3939214 5.0523,5.4061014 4.92138,5.4318114 C4.4598,5.5225014 4.2357,6.0535314 4.48185,6.4543914 C4.63791,6.7085214 4.86057,6.9182514 5.04756,7.0663314 C5.25408,7.2299214 5.54592,7.2299214 5.7525,7.0663314 L5.7525,7.0663314 Z" id="Path" fill="#ED2324" fill-rule="nonzero"></path>
                        <rect id="Rectangle" fill="#ED2324" x="5.12" y="7.04" width="1" height="1" rx="0.32"></rect>
                        <circle id="Oval" fill="#ED2324" cx="3.48" cy="5.12" r="1"></circle>
                        <circle id="Oval-Copy" fill="#ED2324" cx="7.32" cy="5.12" r="1"></circle>
                    </g>
                </g>
            </g>
        </g>
    </g>
</svg>