<?xml version="1.0" encoding="UTF-8"?>
<svg width="32px" height="32px" viewBox="0 0 32 32" version="1.1" xmlns="http://www.w3.org/2000/svg" xmlns:xlink="http://www.w3.org/1999/xlink">
    <title>cat_icon/ico_interest_cat_commerce</title>
    <defs>
        <rect id="path-1" x="8" y="8" width="16" height="16"></rect>
        <path d="M0.430130286,3.27987816 L0.0556429997,12.6132115 C0.0261205233,13.3489991 0.598661554,13.9694055 1.33444918,13.998928 C1.35225862,13.9996426 1.37008059,14 1.38790436,14 L11.6120889,14 C12.3484685,14 12.9454222,13.4030463 12.9454222,12.6666667 C12.9454222,12.6488407 12.9450647,12.6310166 12.94435,12.613205 L12.5698171,3.27987166 C12.5411249,2.56486545 11.9531376,2 11.237556,2 L1.76239164,2 C1.04680745,2 0.458819043,2.56486929 0.430130286,3.27987816 Z" id="path-3"></path>
    </defs>
    <g id="cat_icon/ico_interest_cat_commerce" stroke="none" stroke-width="1" fill="none" fill-rule="evenodd">
        <mask id="mask-2" fill="white">
            <use xlink:href="#path-1"></use>
        </mask>
        <g id="Rectangle"></g>
        <g id="Group-28" mask="url(#mask-2)">
            <g transform="translate(9.000000, 9.000000)" id="Group-18">
                <g transform="translate(0.600000, 0.000000)">
                    <g id="Group-17" transform="translate(0.200000, 0.000000)">
                        <path d="M3.3328681,3.44379844 C3.32556333,3.53566338 3.24580937,3.60421403 3.1544173,3.59687896 C3.06314905,3.58946078 2.99519825,3.50902442 3.00250302,3.41720104 C3.00980778,3.32512831 3.08958238,3.25661922 3.18091254,3.26399584 C3.27228397,3.27133091 3.34017286,3.35176727 3.3328681,3.44379844" id="Fill-2" fill="#FFFFFF"></path>
                        <path d="M6.37163254,3.69627429 C6.36461667,3.78402494 6.28820556,3.84947948 6.20110556,3.8424561 C6.11404683,3.83543273 6.04892302,3.75859117 6.05587698,3.67079896 C6.06287222,3.58290286 6.1393246,3.51748987 6.22638333,3.52451325 C6.3134627,3.53153662 6.37860714,3.60837818 6.37163254,3.69627429" id="Fill-4" fill="#FFFFFF"></path>
                        <mask id="mask-4" fill="white">
                            <use xlink:href="#path-3"></use>
                        </mask>
                        <use id="Fill-9" fill="#E2C111" xlink:href="#path-3"></use>
                        <path d="M0.420373277,3.2692098 L0.0672852639,10.6025431 C0.031870813,11.3380707 0.599424647,11.9630427 1.33495223,11.9984572 C1.35631128,11.9994856 1.37769198,12 1.39907577,12 L11.600916,12 C12.3372957,12 12.9342494,11.4030463 12.9342494,10.6666667 C12.9342494,10.6452803 12.9337348,10.623897 12.9327062,10.6025353 L12.5795751,3.269202 C12.5453556,2.55857726 11.9592332,2 11.247785,2 L1.75216378,2 C1.04071258,2 0.454588852,2.55858183 0.420373277,3.2692098 Z" id="Fill-9" fill="#FFD600" mask="url(#mask-4)"></path>
                        <path d="M4,3 L4,2.5 C4,1.11928813 5.11928813,2.53632657e-16 6.5,0 C7.88071187,-2.53632657e-16 9,1.11928813 9,2.5 L9,3 L9,3" id="Path" stroke="#ED2324" stroke-linecap="round" stroke-linejoin="round"></path>
                    </g>
                </g>
            </g>
        </g>
    </g>
</svg>