<?xml version="1.0" encoding="UTF-8"?>
<svg width="32px" height="32px" viewBox="0 0 32 32" version="1.1" xmlns="http://www.w3.org/2000/svg" xmlns:xlink="http://www.w3.org/1999/xlink">
    <title>cat_icon/ico_interest_cat_health</title>
    <defs>
        <rect id="path-1" x="8" y="8" width="16" height="16"></rect>
    </defs>
    <g id="cat_icon/ico_interest_cat_health" stroke="none" stroke-width="1" fill="none" fill-rule="evenodd">
        <mask id="mask-2" fill="white">
            <use xlink:href="#path-1"></use>
        </mask>
        <g id="Rectangle"></g>
        <g id="Group-28" mask="url(#mask-2)">
            <g transform="translate(7.000000, 6.000000)" id="Group-3">
                <g transform="translate(9.501439, 10.518612) rotate(-6.000000) translate(-9.501439, -10.518612) translate(3.001439, 2.518612)">
                    <path d="M9.42260472,8.18622287 C9.51633975,7.86215753 9.77476443,7.60264392 9.9742127,7.42641162 L9.9742127,3.9521176 C9.9742127,2.66400145 8.93067005,1.61963122 7.64094229,1.61963122 C7.63654301,1.61963122 7.63410381,0.314484211 7.63410381,0.314484211 C7.63410381,0.310389837 7.63170817,0.302767332 7.62739601,0.302767332 L2.30022359,0.302767332 C2.29586788,0.302767332 2.19433612,0.314527768 2.19433612,0.318665699 L2.19433612,1.61187804 C2.19433612,1.6161902 2.26524719,1.61963122 2.26097858,1.61963122 C0.97120726,1.61963122 1.30671515e-05,2.66400145 1.30671515e-05,3.9521176 L1.30671515e-05,10.7554425 C1.30671515e-05,12.0437764 0.994858802,13.054477 2.28467368,13.054477 L7.64294592,13.054477 C7.80606751,13.054477 7.96518185,13.0542156 8.11885154,13.0224189 C8.10443412,12.8562918 8.11837241,12.6933009 8.16746134,12.5236457 L9.42260472,8.18622287 Z" id="Path" fill="#FFD600"></path>
                    <path d="M1.95212922,1.47737329 L7.4693706,1.47737329 C7.85025663,1.47737329 8.15902577,1.16860416 8.15902577,0.787718121 C8.15902577,0.406832086 7.85025663,0.0980629484 7.4693706,0.0980629484 L1.95212922,0.0980629484 C1.57124319,0.0980629484 1.26247405,0.406832086 1.26247405,0.787718121 C1.26247405,1.16860416 1.57124319,1.47737329 1.95212922,1.47737329 Z" id="Path" fill="#ED2324"></path>
                    <path d="M8.09053938,8.66752958 L6.58585699,8.66752958 C6.48240871,8.66752958 6.39777713,8.75207405 6.39777713,8.85539165 L6.39777713,10.3582446 C6.39777713,10.4615623 6.313102,10.5461067 6.20965372,10.5461067 L3.76457205,10.5461067 C3.66112377,10.5461067 3.57644864,10.4615623 3.57644864,10.3582446 L3.57644864,8.85539165 C3.57644864,8.75207405 3.49181706,8.66752958 3.38836878,8.66752958 L1.88368639,8.66752958 C1.78028167,8.66752958 1.69565009,8.58298512 1.69565009,8.47966751 L1.69565009,6.27232087 C1.69565009,6.16900327 1.78028167,6.0844588 1.88368639,6.0844588 L3.38836878,6.0844588 C3.49181706,6.0844588 3.57644864,5.99991434 3.57644864,5.89659673 L3.57644864,4.39370018 C3.57644864,4.29038258 3.66112377,4.20583811 3.76457205,4.20583811 L6.20965372,4.20583811 C6.313102,4.20583811 6.39777713,4.29038258 6.39777713,4.39370018 L6.39777713,5.89659673 C6.39777713,5.99991434 6.48240871,6.0844588 6.58585699,6.0844588 L8.09053938,6.0844588 C8.19398766,6.0844588 8.27861924,6.16900327 8.27861924,6.27232087 L8.27861924,8.47966751 C8.27861924,8.58298512 8.19398766,8.66752958 8.09053938,8.66752958 L8.09053938,8.66752958 Z" id="Path" fill="#FFEE93"></path>
                    <path d="M11.7533633,7.78227368 L11.5909822,7.7364951 C10.7339514,7.49348966 9.84176987,7.99065118 9.59854664,8.846898 L8.97559201,11.0401757 L12.2421619,11.9655477 L12.8651165,9.77257495 C13.1083397,8.91606679 12.6104813,8.0254098 11.7533633,7.78227368 L11.7533633,7.78227368 Z" id="Path" fill="#ED2324"></path>
                    <path d="M11.5493416,12.1957038 L11.0652907,13.8992247 C11.0115412,14.0887855 10.8123107,14.1999869 10.622837,14.145976 C10.4330149,14.0922701 10.3219441,13.8932574 10.3756936,13.7039579 L10.8595702,12.0001757 C10.8640566,11.9849307 10.8695448,11.9704697 10.8757735,11.9564878 L8.87628167,11.389722 L8.25332704,13.5829996 C8.01010381,14.4389416 8.50791869,15.3300341 9.36512377,15.5731702 L9.5272,15.6190795 C10.3844922,15.8619107 11.2764559,15.3647492 11.5196791,14.5087201 L12.1428515,12.3155296 L11.5587064,12.1499688 C11.5565285,12.1650396 11.5536102,12.1803717 11.5493416,12.1957038 L11.5493416,12.1957038 Z" id="Path" fill="#FF7677"></path>
                </g>
            </g>
        </g>
    </g>
</svg>