<svg xmlns="http://www.w3.org/2000/svg" xmlns:xlink="http://www.w3.org/1999/xlink" width="40" height="40" viewBox="0 0 40 40">
    <defs>
        <linearGradient id="s1d66a3hmb" x1="50%" x2="50%" y1="0%" y2="100%">
            <stop offset="0%" stop-color="#FFD500"/>
            <stop offset="100%" stop-color="#FCB814"/>
        </linearGradient>
        <rect id="6x63o6475a" width="39.956" height="39.956" x=".041" y=".017" rx="8"/>
    </defs>
    <g fill="none" fill-rule="evenodd">
        <g>
            <g>
                <g>
                    <g>
                        <g transform="translate(-729 -596) translate(712 107) translate(0 469) translate(17 19) translate(0 1)">
                            <mask id="p7k0gcna7c" fill="#fff">
                                <use xlink:href="#6x63o6475a"/>
                            </mask>
                            <use fill="url(#s1d66a3hmb)" fill-rule="nonzero" xlink:href="#6x63o6475a"/>
                            <g fill-rule="nonzero" mask="url(#p7k0gcna7c)">
                                <path fill="url(#s1d66a3hmb)" d="M0.041 0.017H39.997V39.973000000000006H0.041z"/>
                                <circle cx="25.306" cy="8.487" r="3.09" fill="#E2262B"/>
                                <circle cx="17.066" cy="15.271" r="7.64" fill="#E2262B"/>
                                <path fill="#FFF" d="M31.598 26.102c0-.616-.165-1.22-.478-1.752.313-.53.478-1.136.478-1.752 0-1.886-1.52-3.419-3.385-3.419h-3.485c-.652 0-.83.542-.834.827v.926c-.776-1.054-2.037-1.769-3.399-1.769-.897-.001-1.774.27-2.514.777-.742-.508-1.621-.779-2.52-.777-1.418 0-2.727.776-3.493 1.906v-.224l-.004-.088c-.02-.42-.194-.818-.49-1.118.663-.67.66-1.75-.009-2.414-.668-.665-1.748-.663-2.414.003-.667.666-.668 1.746-.003 2.414-.307.31-.485.726-.497 1.162v5.353h-.003v5.496c0 1.17.949 2.117 2.118 2.118H29.48c1.17 0 2.118-.949 2.118-2.118v-5.55z"/>
                                <path fill="#E2262B" d="M9.383 18.434c0-.355.214-.675.542-.81.328-.136.705-.06.956.19.25.252.325.63.188.957-.136.327-.456.54-.811.54-.232 0-.455-.093-.62-.257-.163-.165-.255-.388-.255-.62"/>
                                <path fill="#E2262B" d="M9.383 18.434c0-.355.214-.675.542-.81.328-.136.705-.06.956.19.25.252.325.63.188.957-.136.327-.456.54-.811.54-.232 0-.455-.093-.62-.257-.163-.165-.255-.388-.255-.62"/>
                                <path fill="#19181C" d="M10.26 20.01c-.47.007-.855.378-.88.848v7.834h1.758V20.83c-.032-.461-.415-.82-.878-.82M20.497 19.995c-.79-.003-1.56.257-2.186.739l-.329.255-.329-.255c-.628-.482-1.397-.742-2.189-.739-1.796 0-3.372 1.547-3.372 3.312v5.384h1.757V23.33c0-.88.712-1.57 1.619-1.57.906 0 1.652.703 1.652 1.57v4.454c0 .658.555.833.85.833.465 0 .845-.369.858-.833v-4.455c0-.866.74-1.568 1.65-1.568.903 0 1.638.703 1.638 1.57v5.362h1.756v-5.385c0-1.765-1.576-3.312-3.373-3.312M28.17 25.177c.503 0 .91.41.91.913-.001.504-.41.91-.913.91h-3.449v1.69h3.494c1.404-.005 2.545-1.166 2.545-2.589 0-.555-.179-1.096-.508-1.543l-.15-.207.15-.205c.328-.449.505-.991.505-1.548 0-1.426-1.144-2.588-2.548-2.588h-3.49v1.678h3.45c.504 0 .912.408.912.911 0 .504-.408.912-.911.912h-1.872c-.451.011-.811.38-.811.832 0 .452.36.821.811.833h1.875z"/>
                                <path fill="#E2262B" d="M29.934 29.827c-.404-.216-.877-.258-1.312-.117-.435.141-.794.453-.994.864-.156-.318-.407-.58-.718-.747-.496-.266-1.092-.266-1.587 0-.313.168-.565.43-.72.75-.156-.319-.409-.582-.722-.75-.244-.133-.516-.201-.794-.2-.276 0-.548.069-.792.2-.308.166-.558.424-.714.739-.156-.315-.406-.574-.716-.74-.495-.265-1.09-.265-1.585 0-.313.168-.564.429-.72.748-.28-.578-.866-.945-1.51-.947-.275 0-.548.068-.79.2-.314.166-.566.428-.721.747-.154-.319-.405-.58-.718-.747-.494-.266-1.089-.266-1.583 0-.313.167-.566.428-.722.747-.341-.705-1.124-1.081-1.888-.906-.763.175-1.305.855-1.305 1.638 0 .783.542 1.463 1.305 1.638.764.175 1.547-.2 1.888-.906.28.58.868.948 1.512.948.643 0 1.23-.368 1.51-.948.281.58.868.948 1.512.948s1.232-.368 1.512-.948c.28.579.866.947 1.508.948.643.001 1.23-.365 1.512-.943.283.579.871.945 1.515.943.644-.002 1.23-.373 1.508-.953.278.581.865.952 1.51.953.645.001 1.234-.367 1.514-.948.317.655 1.02 1.031 1.74.932.72-.098 1.296-.65 1.424-1.366.13-.716-.217-1.433-.858-1.777"/>
                                <path fill="#FFF" d="M11.605 30.7c-.077-.078-.168-.141-.268-.185-.214-.088-.455-.088-.669 0-.1.043-.192.106-.268.186-.078.077-.14.168-.183.268-.09.214-.09.455 0 .669.043.1.105.19.183.268.078.076.168.138.268.182.105.044.218.067.333.067.115 0 .23-.023.336-.067.099-.045.19-.106.268-.182.077-.077.139-.168.181-.268.093-.214.093-.456 0-.67-.042-.1-.104-.19-.181-.267m-.133.804c-.024.061-.06.117-.107.165-.048.045-.104.082-.164.107-.063.028-.131.042-.2.042-.068 0-.136-.014-.198-.042-.062-.024-.118-.06-.165-.107-.047-.048-.085-.104-.111-.165-.027-.063-.04-.13-.04-.199s.013-.137.04-.2c.027-.06.065-.115.111-.162.046-.049.102-.087.165-.112.062-.027.13-.041.198-.042.137.002.268.057.364.154.046.047.082.101.107.161.057.127.057.273 0 .4M14.627 30.7c-.076-.079-.167-.142-.268-.185-.215-.088-.455-.088-.67 0-.204.088-.366.252-.453.457-.087.214-.087.454 0 .668.044.1.106.19.182.268.08.076.171.137.272.183.214.089.455.089.669 0 .203-.088.365-.25.453-.453.087-.215.087-.455 0-.67-.044-.099-.107-.19-.184-.267m-.13.804c-.026.062-.064.118-.112.165-.046.046-.1.082-.16.107-.127.056-.271.056-.398 0-.061-.024-.117-.06-.164-.107-.047-.048-.085-.104-.111-.165-.027-.063-.04-.13-.04-.199s.013-.137.04-.2c.027-.06.065-.115.111-.162.046-.049.102-.087.164-.112.127-.056.27-.056.397 0 .123.054.22.152.275.274.053.128.053.272 0 .4M26.715 30.7c-.076-.078-.167-.142-.268-.185-.106-.045-.22-.067-.335-.066-.115-.002-.229.02-.334.066-.102.044-.195.107-.273.186-.077.077-.138.168-.18.268-.094.213-.094.456 0 .669.042.1.103.19.18.268.08.075.172.137.273.182.106.044.219.067.334.067.115 0 .229-.023.335-.067.1-.044.19-.106.268-.182.163-.16.255-.378.255-.605 0-.228-.092-.446-.255-.606m-.13.805c-.025.061-.062.117-.108.164-.047.045-.101.082-.16.108-.063.027-.131.042-.2.042-.07 0-.138-.014-.2-.042-.06-.025-.115-.062-.162-.108-.047-.047-.085-.103-.11-.164-.03-.063-.044-.13-.043-.2 0-.068.014-.137.043-.2.026-.06.064-.115.11-.161.046-.048.1-.086.161-.112.064-.027.132-.042.2-.042.07 0 .137.015.2.042.06.027.115.065.161.112.147.148.19.37.107.562M29.738 30.7c-.076-.079-.167-.142-.268-.185-.105-.045-.218-.067-.333-.066-.115-.001-.23.021-.337.066-.101.045-.193.108-.271.186-.076.077-.138.168-.181.268-.09.214-.09.455 0 .669.043.1.105.19.18.268.08.075.172.136.272.182.32.138.692.065.938-.182.078-.077.14-.168.185-.268.091-.214.091-.456 0-.67-.044-.1-.107-.19-.185-.267m-.131.804c-.024.062-.06.118-.107.165-.047.045-.101.082-.161.107-.062.028-.129.042-.197.042-.069 0-.137-.014-.2-.042-.061-.024-.116-.06-.161-.107-.048-.047-.087-.103-.113-.165-.026-.063-.04-.13-.04-.199s.015-.137.04-.2c.027-.061.065-.116.113-.162.044-.049.1-.087.16-.112.064-.027.132-.041.201-.042.205.004.389.128.47.316.057.127.057.273 0 .4M17.411 30.935c.045.048.081.104.107.164.017.034.029.07.034.107h.344c-.008-.085-.03-.169-.063-.248-.044-.1-.105-.19-.181-.268-.077-.078-.168-.14-.268-.184-.107-.045-.222-.068-.338-.068-.226 0-.443.088-.605.246-.079.077-.141.169-.183.271-.045.109-.067.225-.065.343v.811h.34v-.837h.004c.003-.06.017-.118.04-.173.028-.06.066-.116.113-.164.145-.149.368-.193.56-.11.06.027.115.065.163.11M20.862 30.989c-.042-.103-.101-.198-.175-.28-.075-.082-.164-.147-.263-.194-.113-.048-.235-.073-.358-.072-.114 0-.228.022-.334.066-.1.043-.192.106-.268.184-.08.075-.144.166-.186.268-.045.106-.068.22-.067.336-.002.115.021.228.067.334.041.103.105.196.186.272.076.078.167.14.268.183.106.044.22.067.336.066.088 0 .176-.012.261-.036.087-.022.17-.06.243-.113.078-.056.146-.125.202-.204.06-.088.107-.185.138-.287h-.376c-.037.086-.097.16-.173.215-.088.056-.19.085-.295.083-.067 0-.133-.012-.195-.036-.06-.025-.115-.062-.16-.108-.047-.044-.085-.096-.112-.154-.028-.06-.044-.124-.046-.19v-.017h1.371c-.003-.109-.024-.216-.062-.318m-1.247.027l.014-.024c.084-.136.232-.208.44-.214.21-.006.355.075.438.214l.009.024h-.9zM23.944 31.29v-1.432c-.107-.062-.22-.113-.338-.153v.941l-.026-.024c-.03-.027-.063-.051-.098-.072-.04-.022-.08-.04-.12-.057-.045-.016-.09-.03-.135-.04-.046-.011-.093-.017-.14-.017-.113 0-.226.024-.331.068-.1.045-.19.107-.268.183-.077.077-.138.168-.182.268-.044.106-.066.22-.066.334-.001.115.021.228.066.334.13.318.44.525.784.521.116 0 .231-.021.339-.064.1-.044.192-.105.271-.181.078-.077.14-.168.181-.268.045-.108.067-.223.065-.34m-.337 0c0 .07-.015.138-.043.2-.026.062-.063.118-.11.165-.048.046-.104.082-.164.108-.064.028-.132.042-.202.041-.067 0-.133-.014-.195-.041-.06-.026-.117-.062-.165-.108-.046-.048-.083-.103-.11-.164-.027-.064-.041-.132-.04-.2-.001-.068.013-.135.04-.197.026-.061.063-.117.11-.165.048-.047.104-.084.165-.11.126-.056.27-.056.397 0 .06.027.116.064.164.11.048.047.085.103.11.165.028.062.043.129.043.196M16.76 12.992c-.497 0-.924.171-1.222.455-.235-.235-.555-.455-1.11-.455-.519 0-.874.192-1.102.448-.028-.257-.246-.45-.505-.448-.28.002-.506.231-.505.512v3.036c0 .185.093.278.278.278h.47c.177 0 .267-.093.267-.278v-1.834c0-.477.306-.74.711-.74.406 0 .704.263.704.74v1.834c0 .185.093.278.278.278h.472c.178 0 .268-.093.268-.278v-1.848c0-.477.306-.726.711-.726.405 0 .704.263.704.74v1.834c0 .185.093.278.277.278h.47c.177 0 .268-.093.268-.278v-2.133c.003-.81-.487-1.415-1.433-1.415zM21.753 12.992c-.22 0-.434.142-.534.405-.234.605-.469 1.202-.697 1.807-.228-.605-.462-1.202-.697-1.807-.1-.263-.313-.405-.533-.405-.302.003-.545.246-.548.547 0 .093.022.185.064.269l1.18 2.68c-.114.257-.242.483-.43.655-.115.101-.265.155-.419.15-.278.002-.502.23-.5.509 0 .277.227.512.632.512.165-.003.33-.036.482-.1.491-.206.826-.647 1.053-1.152l.22-.49h-.007l.021-.043 1.195-2.717c.041-.083.063-.175.064-.268 0-.302-.244-.549-.546-.552z"/>
                            </g>
                        </g>
                    </g>
                </g>
            </g>
        </g>
    </g>
</svg>
