<svg width="19" height="18" viewBox="0 0 19 18" fill="none" xmlns="http://www.w3.org/2000/svg">
<path fill-rule="evenodd" clip-rule="evenodd" d="M18.4501 8.97507C18.4501 13.9323 14.4323 17.9501 9.47507 17.9501C4.51784 17.9501 0.5 13.9323 0.5 8.97507C0.5 4.01784 4.51784 0 9.47507 0C14.4323 0 18.4501 4.01784 18.4501 8.97507Z" fill="#B0E01F"/>
<path fill-rule="evenodd" clip-rule="evenodd" d="M6.74227 9.03667C6.50796 8.80236 6.12806 8.80236 5.89375 9.03667C5.65943 9.27099 5.65943 9.65089 5.89375 9.8852L8.01507 12.0065C8.17525 12.1667 8.40348 12.2174 8.60672 12.1586C8.7008 12.1313 8.78953 12.0806 8.86368 12.0065L13.1063 7.76386C13.3406 7.52954 13.3406 7.14964 13.1063 6.91533C12.872 6.68101 12.4921 6.68101 12.2578 6.91533L8.43936 10.7338L6.74227 9.03667Z" fill="white"/>
<path d="M5.89375 9.8852L5.73465 10.0443L5.89375 9.8852ZM8.01507 12.0065L8.17417 11.8474L8.01507 12.0065ZM8.60672 12.1586L8.54419 11.9424L8.54415 11.9424L8.60672 12.1586ZM8.86368 12.0065L8.70458 11.8474L8.86368 12.0065ZM13.1063 7.76386L13.2654 7.92296L13.1063 7.76386ZM8.43936 10.7338L8.28026 10.8929L8.43936 11.052L8.59846 10.8929L8.43936 10.7338ZM6.05285 9.19577C6.19929 9.04933 6.43673 9.04933 6.58318 9.19577L6.90137 8.87757C6.57919 8.55539 6.05683 8.55539 5.73465 8.87757L6.05285 9.19577ZM6.05285 9.7261C5.9064 9.57966 5.9064 9.34222 6.05285 9.19577L5.73465 8.87757C5.41246 9.19976 5.41247 9.72212 5.73465 10.0443L6.05285 9.7261ZM8.17417 11.8474L6.05285 9.7261L5.73465 10.0443L7.85597 12.1656L8.17417 11.8474ZM8.54415 11.9424C8.4165 11.9794 8.27407 11.9473 8.17417 11.8474L7.85597 12.1656C8.07644 12.3861 8.39047 12.4554 8.66928 12.3747L8.54415 11.9424ZM8.70458 11.8474C8.65796 11.894 8.60271 11.9255 8.54419 11.9424L8.66925 12.3747C8.79889 12.3372 8.9211 12.2673 9.02278 12.1656L8.70458 11.8474ZM12.9472 7.60476L8.70458 11.8474L9.02278 12.1656L13.2654 7.92296L12.9472 7.60476ZM12.9472 7.07443C13.0937 7.22087 13.0937 7.45831 12.9472 7.60476L13.2654 7.92296C13.5876 7.60077 13.5876 7.07841 13.2654 6.75623L12.9472 7.07443ZM12.4169 7.07443C12.5633 6.92798 12.8008 6.92798 12.9472 7.07443L13.2654 6.75623C12.9432 6.43405 12.4209 6.43405 12.0987 6.75623L12.4169 7.07443ZM8.59846 10.8929L12.4169 7.07443L12.0987 6.75623L8.28026 10.5747L8.59846 10.8929ZM6.58318 9.19577L8.28026 10.8929L8.59846 10.5747L6.90137 8.87757L6.58318 9.19577Z" fill="white"/>
</svg>
